<svg width="20" height="20" viewBox="0 0 20 20" fill="none" xmlns="http://www.w3.org/2000/svg">
<path fill-rule="evenodd" clip-rule="evenodd" d="M9.99976 13.3333C9.80976 13.3333 9.62059 13.2692 9.46643 13.14L4.46643 8.97334C4.11309 8.67917 4.06476 8.15334 4.35976 7.80001C4.65393 7.44667 5.17893 7.39917 5.53309 7.69334L10.0089 11.4233L14.4773 7.82751C14.8356 7.53917 15.3606 7.59584 15.6489 7.95417C15.9373 8.31251 15.8806 8.83667 15.5223 9.12584L10.5223 13.1492C10.3698 13.2717 10.1848 13.3333 9.99976 13.3333Z" fill="white"/>
<mask id="mask0" mask-type="alpha" maskUnits="userSpaceOnUse" x="4" y="7" width="12" height="7">
<path fill-rule="evenodd" clip-rule="evenodd" d="M9.99976 13.3333C9.80976 13.3333 9.62059 13.2692 9.46643 13.14L4.46643 8.97334C4.11309 8.67917 4.06476 8.15334 4.35976 7.80001C4.65393 7.44667 5.17893 7.39917 5.53309 7.69334L10.0089 11.4233L14.4773 7.82751C14.8356 7.53917 15.3606 7.59584 15.6489 7.95417C15.9373 8.31251 15.8806 8.83667 15.5223 9.12584L10.5223 13.1492C10.3698 13.2717 10.1848 13.3333 9.99976 13.3333Z" fill="white"/>
</mask>
<g mask="url(#mask0)">
<rect width="20" height="20" fill="#333333"/>
</g>
</svg>
