<svg width="10" height="10" viewBox="0 0 10 10" fill="none" xmlns="http://www.w3.org/2000/svg">
<path d="M2.35323 3.2353L3.5297 3.52942L4.11793 2.94119L4.70617 1.17648L5.58852 0.294128L6.17676 1.76472L8.23558 4.41178L8.82382 6.4706L7.64735 8.52942L5.88264 9.70589L2.64735 9.11766L1.76499 7.64707L1.17676 5.88236L2.35323 3.2353Z" fill="white"/>
<path d="M7.9284 3.54766C7.08054 2.61123 6.57668 1.78689 6.30325 1.26023C6.00713 0.689789 5.91009 0.336058 5.90935 0.333243L5.82121 0L5.5064 0.140417C5.46961 0.156818 4.59982 0.553477 4.11245 1.52819C3.8678 2.0175 3.81887 2.5623 3.82093 2.93314C3.82212 3.14895 3.66921 3.33634 3.45736 3.37871C3.30883 3.40838 3.15604 3.36221 3.04884 3.255L2.46244 2.66861L2.26072 2.94676C2.23978 2.97563 1.74681 3.65551 1.65706 3.79135C1.2188 4.45477 0.990283 5.22758 0.996206 6.02624C1.00414 7.0929 1.42361 8.09224 2.17735 8.84021C2.93104 9.58811 3.93358 10 5.00031 10C7.20821 9.99998 9.00447 8.20373 9.00447 5.99582C9.00449 5.19529 8.61227 4.30298 7.9284 3.54766ZM5.00033 9.41354C4.08939 9.41354 3.23355 9.0621 2.59047 8.42392C1.94736 7.78574 1.58946 6.93266 1.58268 6.02188C1.5776 5.34007 1.77254 4.68054 2.1464 4.11463C2.19205 4.04554 2.37516 3.79008 2.53411 3.56964L2.63418 3.6697C2.88033 3.91586 3.23099 4.02207 3.57243 3.95378C4.05895 3.85647 4.41012 3.4259 4.4074 2.92993C4.4057 2.623 4.44417 2.17618 4.63702 1.79045C4.87176 1.32099 5.22267 1.01418 5.46652 0.843557C5.68707 1.40452 6.24613 2.56345 7.49368 3.94131C7.7716 4.24826 8.41803 5.06293 8.41803 5.99584C8.41803 7.88036 6.88484 9.41354 5.00033 9.41354Z" fill="white"/>
</svg>
