<svg width="20" height="20" viewBox="0 0 20 20" fill="none" xmlns="http://www.w3.org/2000/svg">
<path d="M7.28868 11.0336C7.28868 10.783 7.08546 10.5801 6.83472 10.5801H5.25059C5.00013 10.5801 4.79688 10.783 4.79688 11.0336V12.6175C4.79688 12.8684 5.00013 13.0714 5.25059 13.0714H6.83472C7.08546 13.0714 7.28868 12.8684 7.28868 12.6175V11.0336Z" fill="#EDEDED"/>
<path d="M11.2455 11.0336C11.2455 10.783 11.0422 10.5801 10.792 10.5801H9.20762C8.95716 10.5801 8.75391 10.783 8.75391 11.0336V12.6175C8.75391 12.8684 8.95716 13.0714 9.20762 13.0714H10.792C11.0422 13.0714 11.2455 12.8684 11.2455 12.6175V11.0336Z" fill="#EDEDED"/>
<path d="M15.2066 11.0336C15.2066 10.783 15.0034 10.5801 14.7529 10.5801H13.1688C12.9181 10.5801 12.7148 10.783 12.7148 11.0336V12.6175C12.7148 12.8684 12.9181 13.0714 13.1688 13.0714H14.7529C15.0034 13.0714 15.2066 12.8684 15.2066 12.6175V11.0336Z" fill="#EDEDED"/>
<path d="M7.28868 14.9933C7.28868 14.7424 7.08546 14.5396 6.83472 14.5396H5.25059C5.00013 14.5396 4.79688 14.7424 4.79688 14.9933V16.577C4.79688 16.8277 5.00013 17.0307 5.25059 17.0307H6.83472C7.08546 17.0307 7.28868 16.8276 7.28868 16.577V14.9933Z" fill="#EDEDED"/>
<path d="M11.2455 14.9933C11.2455 14.7424 11.0422 14.5396 10.792 14.5396H9.20762C8.95716 14.5396 8.75391 14.7424 8.75391 14.9933V16.577C8.75391 16.8277 8.95716 17.0307 9.20762 17.0307H10.792C11.0422 17.0307 11.2455 16.8276 11.2455 16.577V14.9933Z" fill="#EDEDED"/>
<path d="M15.2066 14.9933C15.2066 14.7424 15.0034 14.5396 14.7531 14.5396H13.1688C12.9181 14.5396 12.7148 14.7424 12.7148 14.9933V16.577C12.7148 16.8277 12.9181 17.0307 13.1688 17.0307H14.7531C15.0034 17.0307 15.2066 16.8276 15.2066 16.577V14.9933Z" fill="#EDEDED"/>
<path d="M18.0385 2.22695V4.64628C18.0385 5.73979 17.1514 6.62099 16.0581 6.62099H14.8088C13.7153 6.62099 12.8165 5.73979 12.8165 4.64628V2.21826H7.18545V4.64628C7.18545 5.73979 6.28663 6.62099 5.19336 6.62099H3.94379C2.85049 6.62099 1.96343 5.73979 1.96343 4.64628V2.22695C1.00786 2.25575 0.222656 3.04645 0.222656 4.01832V18.1967C0.222656 19.1869 1.02519 20.0001 2.01534 20.0001H17.9866C18.9753 20.0001 19.7793 19.1852 19.7793 18.1967V4.01832C19.7793 3.04645 18.9941 2.25575 18.0385 2.22695ZM17.4583 17.3138C17.4583 17.7417 17.1113 18.0888 16.6833 18.0888H3.28453C2.85647 18.0888 2.50953 17.7417 2.50953 17.3138V9.99014C2.50953 9.56208 2.85643 9.21493 3.28453 9.21493H16.6832C17.1113 9.21493 17.4582 9.56208 17.4582 9.99014L17.4583 17.3138Z" fill="#EDEDED"/>
<path d="M3.93898 5.32396H5.17474C5.54983 5.32396 5.85396 5.02028 5.85396 4.64519V0.67901C5.85396 0.303881 5.54983 0 5.17474 0H3.93898C3.56385 0 3.25977 0.303881 3.25977 0.67901V4.64519C3.25977 5.02028 3.56385 5.32396 3.93898 5.32396Z" fill="#EDEDED"/>
<path d="M14.7925 5.32396H16.0282C16.4031 5.32396 16.7072 5.02028 16.7072 4.64519V0.67901C16.7072 0.303881 16.4031 0 16.0282 0H14.7925C14.4174 0 14.1133 0.303881 14.1133 0.67901V4.64519C14.1133 5.02028 14.4174 5.32396 14.7925 5.32396Z" fill="#EDEDED"/>
</svg>
