<svg width="31" height="31" viewBox="0 0 31 31" fill="none" xmlns="http://www.w3.org/2000/svg">
<g clip-path="url(#clip0)">
<path d="M6.87025 18.7337L5.79119 22.762L1.84722 22.8454C0.668559 20.6593 0 18.158 0 15.5C0 12.9297 0.625086 10.5059 1.73309 8.3717H1.73394L5.24518 9.01544L6.78331 12.5056C6.46138 13.4441 6.28592 14.4516 6.28592 15.5C6.28604 16.6378 6.49214 17.728 6.87025 18.7337Z" fill="white"/>
<path d="M30.7302 12.6046C30.9082 13.5422 31.001 14.5106 31.001 15.5002C31.001 16.6099 30.8844 17.6924 30.6621 18.7365C29.9076 22.2896 27.936 25.3921 25.2048 27.5877L25.2039 27.5868L20.7813 27.3612L20.1554 23.4538C21.9677 22.3909 23.384 20.7276 24.1301 18.7365H15.8418V12.6046H24.251H30.7302Z" fill="white"/>
<path d="M25.2032 27.5867L25.2041 27.5875C22.5478 29.7226 19.1736 31.0001 15.5004 31.0001C9.59766 31.0001 4.46564 27.7008 1.84766 22.8456L6.87069 18.7338C8.17965 22.2273 11.5496 24.7141 15.5004 24.7141C17.1986 24.7141 18.7895 24.255 20.1547 23.4536L25.2032 27.5867Z" fill="white"/>
<path d="M25.3929 3.56839L20.3716 7.67928C18.9587 6.79614 17.2886 6.28598 15.4993 6.28598C11.4591 6.28598 8.02609 8.88689 6.7827 12.5056L1.73327 8.3717H1.73242C4.31208 3.39807 9.50882 0 15.4993 0C19.2602 0 22.7085 1.33966 25.3929 3.56839Z" fill="white"/>
</g>
<defs>
<clipPath id="clip0">
<rect width="31" height="31" fill="white"/>
</clipPath>
</defs>
</svg>
