<svg width="25" height="23" viewBox="0 0 25 23" fill="none" xmlns="http://www.w3.org/2000/svg">
<path opacity="0.5" d="M17.2585 11.3294L24.3608 17.7665C24.7869 18.1527 25 18.6677 25 19.1827C25 19.762 24.7869 20.277 24.3608 20.6632L22.7983 22.0794C22.3011 22.4656 21.733 22.6587 21.1648 22.6587C20.5256 22.6587 20.0284 22.4656 19.6023 22.0794L12.5 15.6422L5.39773 22.0794C4.97159 22.4656 4.40341 22.6587 3.83523 22.6587C3.19602 22.6587 2.62784 22.4656 2.2017 22.0794L0.639205 20.6632C0.213068 20.277 0 19.762 0 19.1827C0 18.6677 0.213068 18.1527 0.639205 17.7665L7.74148 11.3294L0.639205 4.89222C0.213068 4.50599 0 4.05539 0 3.47605C0 2.96108 0.213068 2.44611 0.639205 1.99551L2.2017 0.579342C2.62784 0.193114 3.19602 0 3.83523 0C4.40341 0 4.97159 0.193114 5.39773 0.579342L12.5 7.01647L19.6023 0.579342C20.0284 0.193114 20.5256 0 21.1648 0C21.733 0 22.3011 0.193114 22.7983 0.579342L24.3608 1.99551C24.7869 2.44611 25 2.96108 25 3.47605C25 4.05539 24.7869 4.50599 24.3608 4.89222L17.2585 11.3294Z" fill="white"/>
</svg>
