<svg width="49" height="49" viewBox="0 0 49 49" fill="none" xmlns="http://www.w3.org/2000/svg">
<rect width="49" height="49" rx="24.5" fill="url(#paint0_linear)"/>
<path d="M35.3154 28.8204C35.6699 28.8011 35.9516 28.5081 35.9516 28.1484C35.9516 26.2094 34.3951 24.6905 32.4082 24.6905H31.7516L30.949 20.8811C31.7234 20.5446 32.2666 19.7718 32.2666 18.8742C32.2666 17.6684 31.2868 16.6874 30.0825 16.6874H26.9777C26.606 16.6874 26.3047 16.9891 26.3047 17.3612V18.2003H24.6503C24.2786 18.2003 23.9773 18.502 23.9773 18.8742C23.9773 19.2463 24.2786 19.548 24.6503 19.548H26.3047V20.3871C26.3047 20.7593 26.606 21.061 26.9777 21.061H27.2765C26.7193 21.7199 26.3823 22.5712 26.3823 23.5002V27.3347C26.3823 27.3543 26.3663 27.3703 26.3467 27.3703H23.628C23.6123 27.3703 23.5983 27.3598 23.5939 27.3448L22.861 24.865C23.4517 24.707 23.8881 24.1668 23.8881 23.5263C23.8881 22.0054 22.6523 20.768 21.1332 20.768H15.0694C13.9284 20.768 13 21.6975 13 22.8399C13 23.8844 13.7759 24.7503 14.7809 24.8913C13.7148 25.8461 13.0425 27.2331 13.0425 28.7746V30.8724C13.0425 31.2445 13.3439 31.5462 13.7156 31.5462H14.2979C14.6113 33.1113 15.9944 34.2941 17.6485 34.2941C19.3025 34.2941 20.6856 33.1113 20.9991 31.5462H29.2319C29.5454 33.1113 30.9284 34.2941 32.5825 34.2941C34.4669 34.2941 36 32.7591 36 30.8724C36 30.1031 35.745 29.3925 35.3154 28.8204ZM34.4953 27.4746H32.9803C32.8497 27.4594 32.7171 27.4507 32.5825 27.4507C32.3413 27.4507 32.106 27.4762 31.8788 27.524V26.0382H32.4082C33.3939 26.0382 34.2088 26.6315 34.4953 27.4746ZM27.6507 18.035H30.0825C30.5446 18.035 30.9206 18.4114 30.9206 18.8741C30.9206 19.3368 30.5446 19.7133 30.0825 19.7133H27.6507V18.035ZM23.6281 28.7179H26.3467C27.1086 28.7179 27.7283 28.0974 27.7283 27.3346V23.5001C27.7283 22.342 28.5408 21.3701 29.625 21.1261L30.5328 25.4345V28.1363C29.8741 28.6321 29.3998 29.3605 29.2319 30.1985H22.5408C22.2265 27.7809 20.2301 25.9721 17.7383 25.9721C16.6271 25.9721 15.6296 26.3351 14.8426 26.959C15.4927 25.742 16.7744 24.9119 18.2466 24.9119H21.4713L22.3034 27.7272C22.4757 28.3105 23.0205 28.7179 23.6281 28.7179ZM14.4432 30.1985C14.5609 29.4816 14.8671 28.835 15.3354 28.3339C15.9467 27.6799 16.8 27.3197 17.7382 27.3197C19.4741 27.3197 20.8764 28.5396 21.1774 30.1984H14.4432V30.1985ZM15.0694 23.5642C14.6705 23.5642 14.346 23.2393 14.346 22.8399C14.346 22.4405 14.6705 22.1156 15.0694 22.1156H21.1332C21.9101 22.1156 22.5421 22.7484 22.5421 23.5262C22.5364 23.5539 22.492 23.5722 22.4094 23.5642C21.8495 23.5642 22.0095 23.5642 21.8929 23.5642C21.0888 23.5642 15.0733 23.5642 15.0694 23.5642ZM17.6485 32.9464C16.7418 32.9464 15.9699 32.3599 15.6898 31.5461H19.6071C19.3271 32.3599 18.5551 32.9464 17.6485 32.9464ZM32.5825 32.9464C31.4403 32.9464 30.511 32.0159 30.511 30.8723C30.511 29.7287 31.4403 28.7983 32.5825 28.7983C33.7248 28.7983 34.654 29.7287 34.654 30.8723C34.654 32.0159 33.7247 32.9464 32.5825 32.9464Z" fill="white"/>
<path d="M32.5818 31.5506C32.9559 31.5506 33.2592 31.2469 33.2592 30.8723C33.2592 30.4977 32.9559 30.194 32.5818 30.194C32.2076 30.194 31.9043 30.4977 31.9043 30.8723C31.9043 31.2469 32.2076 31.5506 32.5818 31.5506Z" fill="white"/>
<path d="M13.7004 18.8147H19.7364C20.1081 18.8147 20.4094 18.513 20.4094 18.1409C20.4094 17.7687 20.1081 17.467 19.7364 17.467H13.7004C13.3287 17.467 13.0273 17.7687 13.0273 18.1409C13.0273 18.513 13.3287 18.8147 13.7004 18.8147Z" fill="white"/>
<path d="M15.9367 16.0535H22.0248C22.3965 16.0535 22.6978 15.7518 22.6978 15.3797C22.6978 15.0076 22.3965 14.7059 22.0248 14.7059H15.9367C15.565 14.7059 15.2637 15.0076 15.2637 15.3797C15.2637 15.7518 15.565 16.0535 15.9367 16.0535Z" fill="white"/>
<defs>
<linearGradient id="paint0_linear" x1="24.5" y1="0" x2="24.5" y2="49" gradientUnits="userSpaceOnUse">
<stop stop-color="#F29870"/>
<stop offset="1" stop-color="#F8C53E"/>
</linearGradient>
</defs>
</svg>
