<svg width="26" height="25" viewBox="0 0 26 25" fill="none" xmlns="http://www.w3.org/2000/svg">
<path fill-rule="evenodd" clip-rule="evenodd" d="M23.1365 1.21897C23.4177 1.1096 23.7341 1.01194 24.0701 0.996315C24.406 0.98069 24.7693 1.0471 25.1365 1.26585C25.4998 1.48069 25.8006 1.88303 25.9177 2.31272C26.0349 2.74241 26.0076 3.18382 25.9021 3.65647L22.1677 22.7854L22.1326 22.8752C22.1326 22.8752 21.9216 23.4338 21.3787 23.8713C20.8396 24.3049 19.8201 24.551 18.8123 24.1096L18.7029 24.0627L13.8709 20.3557L10.9881 22.9807L10.9529 23.008C10.9529 23.008 10.3318 23.4885 9.55837 23.2541L9.55112 23.253C9.5049 23.2459 9.47834 23.2418 9.44118 23.2307C9.43611 23.229 9.43104 23.2258 9.42565 23.2225C9.41859 23.2181 9.41098 23.2134 9.40212 23.2112L9.41196 23.2134C9.40464 23.2109 9.39752 23.2076 9.3904 23.2033C9.3279 23.1799 9.2654 23.1526 9.2068 23.1174C9.05837 23.0237 8.93337 22.9065 8.8279 22.7658C8.60915 22.4924 8.43337 22.133 8.25368 21.5588C8.06161 20.9531 7.48616 19.0714 7.03219 17.587C6.76599 16.7166 6.54157 15.9828 6.46071 15.7229L1.5779 14.0783H1.57009C1.57009 14.0783 1.24587 13.9651 0.906022 13.7229C0.570085 13.4846 0.101335 13.051 0.0114912 12.3283C-0.0431968 11.9026 0.105241 11.4885 0.288835 11.219C0.472428 10.9494 0.683366 10.7776 0.874772 10.6526C1.17227 10.448 1.45994 10.332 1.56613 10.2928C1.91673 10.145 6.94186 8.02645 12.0506 5.87522C13.3021 5.34808 14.5579 4.8192 15.7516 4.31648C17.0878 3.75378 18.3461 3.22385 19.4334 2.76585C19.8512 2.59061 20.2401 2.42744 20.597 2.27772C21.9981 1.68986 22.9053 1.30926 23.1326 1.21897H23.1365ZM23.9677 3.08848C23.9676 3.07736 23.9674 3.06516 23.9685 3.0471C23.9437 3.0471 23.9364 3.0471 23.93 3.04948C23.9213 3.05271 23.9142 3.06034 23.867 3.07835C23.781 3.1135 22.2615 3.74632 20.2068 4.6096C18.4848 5.3364 16.3292 6.24429 14.1149 7.1769C13.6872 7.35704 13.2573 7.53811 12.8279 7.71897C7.53102 9.94944 2.32009 12.1448 2.32009 12.1448L2.28884 12.1565L2.25759 12.1721C2.25759 12.1721 2.23024 12.1838 2.22634 12.1838C2.22829 12.1838 2.23122 12.1848 2.23415 12.1858C2.23708 12.1867 2.24001 12.1877 2.24196 12.1877V12.1916L8.0779 14.1565L8.0818 14.176L20.2576 6.63303C20.2576 6.63303 20.8865 6.31272 20.8591 6.76585C20.8591 6.76585 20.992 6.84397 20.5935 7.21507C20.1951 7.58616 10.9373 16.2151 10.9373 16.2151L10.1873 21.0041L13.7576 17.7502L19.6677 22.2815C19.992 22.4104 20.0545 22.3713 20.1326 22.3088C20.199 22.2564 20.2279 22.2039 20.2444 22.1739C20.2464 22.1704 20.2481 22.1671 20.2498 22.1643L23.949 3.2346V3.22288C23.9684 3.13679 23.9681 3.11585 23.9677 3.08848Z" fill="#9B9B9B"/>
</svg>
