<svg width="49" height="49" viewBox="0 0 49 49" fill="none" xmlns="http://www.w3.org/2000/svg">
<rect width="49" height="49" rx="24.5" fill="url(#paint0_linear)"/>
<g clip-path="url(#clip0)">
<path d="M33.5798 19.0518C33.1035 19.2823 32.9041 19.8555 33.1346 20.3316C33.7642 21.6323 34.0833 23.0342 34.0833 24.5C34.0833 29.7842 29.7842 34.0833 24.5 34.0833C19.2158 34.0833 14.9167 29.7842 14.9167 24.5C14.9167 19.2158 19.2158 14.9167 24.5 14.9167C26.6897 14.9167 28.7468 15.6317 30.4493 16.9842C30.8623 17.3139 31.4662 17.2449 31.7958 16.8305C32.1255 16.4164 32.0565 15.8132 31.6419 15.484C29.6262 13.8821 27.0898 13 24.5 13C18.1592 13 13 18.1592 13 24.5C13 30.8408 18.1592 36 24.5 36C30.8408 36 36 30.8408 36 24.5C36 22.7429 35.6163 21.059 34.8596 19.4971C34.6296 19.0198 34.0546 18.8209 33.5798 19.0518Z" fill="white"/>
<path d="M24.5003 16.8333C23.9713 16.8333 23.542 17.2627 23.542 17.7917V24.5C23.542 25.029 23.9713 25.4583 24.5003 25.4583H29.292C29.821 25.4583 30.2503 25.029 30.2503 24.5C30.2503 23.971 29.821 23.5417 29.292 23.5417H25.4587V17.7917C25.4587 17.2627 25.0293 16.8333 24.5003 16.8333Z" fill="white"/>
</g>
<defs>
<linearGradient id="paint0_linear" x1="24.5" y1="0" x2="24.5" y2="49" gradientUnits="userSpaceOnUse">
<stop stop-color="#F29870"/>
<stop offset="1" stop-color="#F8C53E"/>
</linearGradient>
<clipPath id="clip0">
<rect width="23" height="23" fill="white" transform="translate(13 13)"/>
</clipPath>
</defs>
</svg>
