<svg width="19" height="19" viewBox="0 0 19 19" fill="none" xmlns="http://www.w3.org/2000/svg">
<path d="M18.24 14.5593C18.1983 14.3013 18.0365 14.0808 17.7943 13.9498L14.2105 11.8383L14.181 11.8218C14.0308 11.7465 13.8648 11.708 13.6968 11.7093C13.3965 11.7093 13.1098 11.823 12.9108 12.0225L11.853 13.0808C11.8078 13.1238 11.6603 13.186 11.6155 13.1883C11.6033 13.1873 10.3848 13.0995 8.14154 10.856C5.90229 8.61725 5.80729 7.395 5.80654 7.395C5.80779 7.3325 5.86929 7.1855 5.91304 7.14L6.81504 6.23825C7.13279 5.91975 7.22804 5.39175 7.03954 4.98275L5.04754 1.2345C4.90279 0.936502 4.62154 0.752502 4.30954 0.752502C4.08879 0.752502 3.87579 0.844002 3.70929 1.01025L1.25054 3.4635C1.01479 3.698 0.811792 4.108 0.767542 4.438C0.746042 4.59575 0.309792 8.36125 5.47229 13.5245C9.85504 17.9068 13.2725 18.2473 14.2163 18.2473C14.3312 18.2487 14.4461 18.2428 14.5603 18.2295C14.8893 18.1855 15.2988 17.983 15.533 17.7483L17.9898 15.2918C18.1903 15.0903 18.2818 14.824 18.24 14.5593Z" fill="#EC8F79"/>
</svg>
