<svg width="49" height="49" viewBox="0 0 49 49" fill="none" xmlns="http://www.w3.org/2000/svg">
<rect width="49" height="49" rx="24.5" fill="url(#paint0_linear)"/>
<g clip-path="url(#clip0)">
<path d="M19.7159 27.6951C19.151 27.7996 18.6355 27.9382 18.1468 28.0697L18.1376 28.0722C17.2246 28.3179 16.3409 28.5557 15.4233 28.4673L19.7159 27.6951ZM19.7159 27.6951L19.7159 31.7523C19.7159 32.6801 20.4705 33.4348 21.3984 33.4348L27.2763 33.4348C27.655 33.4348 27.9622 33.1276 27.9622 32.7488C27.9622 32.3701 27.655 32.0629 27.2763 32.0629L21.3984 32.0629C21.2272 32.0629 21.0878 31.9234 21.0878 31.7523L21.0878 30.4701L38.7281 30.4701L38.7281 31.7523C38.7281 31.9234 38.5887 32.0628 38.4175 32.0628L32.5396 32.0628C32.1608 32.0628 31.8537 32.37 31.8537 32.7488C31.8537 33.1276 32.1608 33.4347 32.5396 33.4347L38.4175 33.4347C39.3454 33.4347 40.1 32.6801 40.1 31.7523L40.1 31.6523L40.1 21.3205C40.1 20.3927 39.3454 19.638 38.4175 19.638L26.3506 19.638C26.224 19.5444 26.0344 19.4009 25.8477 19.2596L25.7874 19.3393L25.8477 19.2596L25.8471 19.2591C25.1082 18.6997 23.9863 17.8506 23.1875 17.3432L23.1875 17.3431C22.3891 16.8368 21.5866 16.5763 20.7139 16.5656C19.8428 16.555 18.9091 16.7932 17.8476 17.2723M19.7159 27.6951L15.4231 28.4673C15.4103 28.4661 15.3979 28.4645 15.386 28.4627L15.3859 28.4627C14.9706 28.3996 14.6639 28.3116 14.3974 28.2352C14.3974 28.2352 14.3974 28.2351 14.3974 28.2351L14.3968 28.235C14.0107 28.1242 13.7135 28.0389 13.1435 28.0386C13.1434 28.0386 13.1434 28.0386 13.1434 28.0386L11.626 28.0436L11.6256 28.0436C10.674 28.0436 9.9 27.2696 9.9 26.318L9.90001 21.0232C9.90001 20.0716 10.674 19.2976 11.6256 19.2976L13.358 19.2976C13.3679 19.2976 13.3778 19.2978 13.3876 19.2982L13.3879 19.2982C13.7314 19.3132 14.1302 19.202 14.5191 19.0443C14.9063 18.8874 15.2728 18.6891 15.5509 18.5386C15.5975 18.5133 16.1586 18.2034 16.7089 17.8992L17.4593 17.4844L17.7044 17.3489L17.7729 17.311L17.7909 17.301L17.7955 17.2985L17.7967 17.2978L17.7969 17.2977C17.8133 17.2886 17.8302 17.2801 17.8476 17.2723M17.8476 17.2723C17.8476 17.2722 17.8476 17.2722 17.8477 17.2722L17.8887 17.3634L17.8476 17.2723ZM18.4347 18.5126L18.4372 18.5113C19.2971 18.1258 20.0041 17.9371 20.6421 17.9365C21.2785 17.9358 21.8544 18.1222 22.4523 18.5014C22.9154 18.7956 23.5093 19.2236 24.0678 19.638L21.3984 19.638C20.4705 19.638 19.7159 20.3927 19.7159 21.3205L19.7159 23.0992L17.8606 23.0992C17.4819 23.0992 17.1747 23.4063 17.1747 23.7852C17.1747 24.164 17.4819 24.4711 17.8606 24.4711L24.0309 24.4711C24.5043 24.4711 24.8896 24.8564 24.8896 25.3298C24.8896 25.56 24.7988 25.7772 24.633 25.942L24.633 25.942C24.4702 26.1039 24.2579 26.1914 24.035 26.19C24.0116 26.1899 23.9732 26.1897 23.9227 26.1895C23.5368 26.1878 22.4433 26.183 21.903 26.1623C21.3563 26.1414 20.8477 26.1645 20.3731 26.2146C20.3428 26.2166 20.2462 26.2287 20.148 26.2415C20.0398 26.2556 19.9182 26.2723 19.8492 26.2828L19.8642 26.3816L19.8491 26.2828C19.0674 26.4018 18.3853 26.5848 17.7904 26.7449C16.9436 26.9728 16.2341 27.1624 15.5728 27.1034C15.2558 27.054 15.0251 26.9879 14.7759 26.9164L14.7759 26.9164L14.7759 26.9164C14.3516 26.7947 13.9054 26.6667 13.1405 26.6667L13.134 26.6668L11.6257 26.6717C11.6257 26.6717 11.6257 26.6717 11.6257 26.6717C11.4349 26.6717 11.2719 26.5086 11.2719 26.3179L11.2719 21.0232C11.2719 20.8324 11.4349 20.6694 11.6256 20.6694L13.3442 20.6694C13.8877 20.6899 14.4392 20.5461 14.9338 20.3554C15.4288 20.1646 15.8734 19.9239 16.2024 19.7458L16.2039 19.7451L16.2039 19.745C16.2495 19.7204 16.8092 19.4112 17.3566 19.1086L18.1041 18.6954L18.3485 18.5603L18.4168 18.5226L18.4347 18.5126ZM21.0877 29.0982L21.0877 27.538C21.5069 27.5323 22.9354 27.5492 23.6401 27.5576C23.8421 27.56 23.9846 27.5617 24.0268 27.5619C24.6183 27.5654 25.1773 27.3353 25.6002 26.9149C26.0264 26.4912 26.2614 25.9279 26.2614 25.3297C26.2614 24.0997 25.2609 23.0992 24.0309 23.0992L21.0877 23.0992L21.0877 21.3204C21.0877 21.1493 21.2272 21.0098 21.3984 21.0098L38.4175 21.0098C38.5887 21.0098 38.7281 21.1493 38.7281 21.3204L38.7281 29.0982L21.0877 29.0982Z" fill="white" stroke="white" stroke-width="0.2"/>
<path d="M30.5932 32.7488C30.5932 32.3701 30.286 32.0629 29.9072 32.0629L29.9056 32.0629C29.5266 32.0629 29.2205 32.3702 29.2205 32.7488C29.2205 33.1278 29.5286 33.4348 29.9073 33.4348C30.2861 33.4348 30.5932 33.1276 30.5932 32.7488Z" fill="white" stroke="white" stroke-width="0.2"/>
</g>
<defs>
<linearGradient id="paint0_linear" x1="24.5" y1="0" x2="24.5" y2="49" gradientUnits="userSpaceOnUse">
<stop stop-color="#F29870"/>
<stop offset="1" stop-color="#F8C53E"/>
</linearGradient>
<clipPath id="clip0">
<rect width="30" height="30" fill="white" transform="translate(40 10) rotate(90)"/>
</clipPath>
</defs>
</svg>
