<svg width="17" height="15" viewBox="0 0 17 15" fill="none" xmlns="http://www.w3.org/2000/svg">
<path fill-rule="evenodd" clip-rule="evenodd" d="M7.99093 1.13402L8.49989 0L9.00885 1.13402L10.8341 5.13746L15.2918 5.60137L16.5554 5.73883L15.6077 6.56357L12.2907 9.50172L13.2209 13.7973L13.4842 15L12.3785 14.3814L8.49989 12.1821L4.62129 14.3814L3.51563 15L3.77888 13.7973L4.70904 9.50172L1.39205 6.56357L0.444336 5.73883L1.70795 5.60137L6.16571 5.13746L7.99093 1.13402ZM9.93902 5.87631L8.4999 2.69761L7.06078 5.87631L6.92038 6.1684L6.60447 6.20277L3.07688 6.56359L5.70941 8.88318L5.95511 9.10655L5.88491 9.41582L5.1478 12.8007L8.21909 11.0825L8.4999 10.9107L8.7807 11.0825L11.852 12.8007L11.1149 9.41582L11.0447 9.10655L11.2904 8.88318L13.9229 6.56359L10.3953 6.20277L10.0794 6.1684L9.93902 5.87631Z" fill="white"/>
</svg>
