<svg width="14" height="14" viewBox="0 0 14 14" fill="none" xmlns="http://www.w3.org/2000/svg">
<g clip-path="url(#clip0)">
<path d="M4.66126 6.69823L8.70669 10.7437C8.72534 10.3847 8.74144 9.59249 8.60533 8.64328C8.36003 6.93254 7.72912 5.52699 6.78079 4.57871C5.83248 3.6304 4.42696 2.99947 2.71622 2.75417C1.44332 2.57162 0.452133 2.66282 0.41057 2.66684C0.206942 2.6863 0.0457501 2.8475 0.0262813 3.05112C0.0222892 3.09269 -0.0689022 4.08384 0.113617 5.35678C0.358918 7.06751 0.98982 8.47306 1.93816 9.42134C2.88646 10.3697 4.29199 11.0006 6.00272 11.2459C6.63278 11.3362 7.19362 11.3595 7.6046 11.3595C7.81274 11.3595 7.98235 11.3535 8.10305 11.3472L4.05765 7.30185C3.89096 7.13519 3.89096 6.86492 4.05765 6.69821C4.22431 6.53157 4.49458 6.53157 4.66126 6.69823Z" fill="white"/>
<path d="M13.9807 5.62749C13.9612 5.42386 13.8 5.26267 13.5964 5.2432C13.4823 5.23232 10.7842 4.99426 9.21295 6.56549C9.15179 6.62666 9.09343 6.68963 9.0376 6.75402C9.22154 7.30407 9.36014 7.8953 9.45 8.5221C9.47876 8.7228 9.50116 8.91653 9.51857 9.10165L10.6338 7.98638C10.8005 7.81972 11.0708 7.81972 11.2375 7.98638C11.4042 8.15304 11.4042 8.4233 11.2375 8.59002L9.57272 10.2548C9.57231 10.6899 9.54753 10.9735 9.54212 11.0302C9.53255 11.1303 9.51125 11.227 9.47997 11.3191C10.4281 11.2315 11.737 10.9324 12.6584 10.0109C14.2296 8.43977 13.9916 5.74162 13.9807 5.62749Z" fill="white"/>
</g>
<defs>
<clipPath id="clip0">
<rect width="14" height="14" fill="white"/>
</clipPath>
</defs>
</svg>
