<svg width="242" height="149" viewBox="0 0 242 149" fill="none" xmlns="http://www.w3.org/2000/svg">
<path fill-rule="evenodd" clip-rule="evenodd" d="M84.776 143.863C83.3572 143.863 82.2071 145.013 82.2071 146.432C82.2071 147.851 83.3572 149.001 84.776 149.001C86.1948 149.001 87.345 147.851 87.345 146.432C87.345 145.013 86.1948 143.863 84.776 143.863ZM102.759 146.432C102.759 145.013 103.909 143.863 105.328 143.863C106.746 143.863 107.897 145.013 107.897 146.432C107.897 147.851 106.746 149.001 105.328 149.001C103.909 149.001 102.759 147.851 102.759 146.432ZM84.7757 123.311C83.3569 123.311 82.2067 124.462 82.2067 125.88C82.2067 127.299 83.3569 128.449 84.7757 128.449C86.1945 128.449 87.3447 127.299 87.3447 125.88C87.3447 124.462 86.1945 123.311 84.7757 123.311ZM105.328 123.311C103.909 123.311 102.759 124.461 102.759 125.88C102.759 127.299 103.909 128.449 105.328 128.449C106.747 128.449 107.897 127.299 107.897 125.88C107.897 124.461 106.747 123.311 105.328 123.311ZM61.6549 125.88C61.6549 124.462 62.8051 123.311 64.2239 123.311C65.6427 123.311 66.7929 124.462 66.7929 125.88C66.7929 127.299 65.6427 128.449 64.2239 128.449C62.8051 128.449 61.6549 127.299 61.6549 125.88ZM43.6721 123.311C42.2533 123.311 41.1031 124.462 41.1031 125.88C41.1031 127.299 42.2533 128.449 43.6721 128.449C45.0909 128.449 46.241 127.299 46.241 125.88C46.241 124.462 45.0909 123.311 43.6721 123.311ZM20.5513 125.88C20.5513 124.462 21.7014 123.311 23.1203 123.311C24.539 123.311 25.6892 124.462 25.6892 125.88C25.6892 127.299 24.539 128.449 23.1203 128.449C21.7014 128.449 20.5513 127.299 20.5513 125.88ZM2.56902 123.311C1.15023 123.311 6.31804e-05 124.462 6.30564e-05 125.88C6.29324e-05 127.299 1.15022 128.449 2.56902 128.449C3.98783 128.449 5.13799 127.299 5.13799 125.88C5.13799 124.462 3.98783 123.311 2.56902 123.311ZM61.6552 146.432C61.6552 145.013 62.8054 143.863 64.2242 143.863C65.643 143.863 66.7932 145.013 66.7932 146.432C66.7932 147.851 65.643 149.001 64.2242 149.001C62.8054 149.001 61.6552 147.851 61.6552 146.432ZM43.6724 143.863C42.2536 143.863 41.1034 145.013 41.1034 146.432C41.1034 147.851 42.2536 149.001 43.6724 149.001C45.0912 149.001 46.2414 147.851 46.2414 146.432C46.2414 145.013 45.0912 143.863 43.6724 143.863ZM20.5522 146.432C20.5522 145.013 21.7023 143.863 23.1212 143.863C24.5399 143.863 25.6901 145.013 25.6901 146.432C25.6901 147.851 24.5399 149.001 23.1212 149.001C21.7023 149.001 20.5522 147.851 20.5522 146.432ZM2.56934 143.863C1.15053 143.863 0.00036656 145.013 0.000366436 146.432C0.000366311 147.851 1.15053 149.001 2.56934 149.001C3.98813 149.001 5.13831 147.851 5.13831 146.432C5.13831 145.013 3.98813 143.863 2.56934 143.863ZM218.363 123.311C216.944 123.311 215.794 124.462 215.794 125.88C215.794 127.299 216.944 128.449 218.363 128.449C219.781 128.449 220.932 127.299 220.932 125.88C220.932 124.462 219.781 123.311 218.363 123.311ZM238.914 123.311C237.496 123.311 236.345 124.461 236.345 125.88C236.345 127.299 237.496 128.449 238.914 128.449C240.333 128.449 241.483 127.299 241.483 125.88C241.483 124.461 240.333 123.311 238.914 123.311ZM195.242 125.88C195.242 124.462 196.392 123.311 197.811 123.311C199.23 123.311 200.38 124.462 200.38 125.88C200.38 127.299 199.23 128.449 197.811 128.449C196.392 128.449 195.242 127.299 195.242 125.88ZM177.259 123.311C175.84 123.311 174.69 124.462 174.69 125.88C174.69 127.299 175.84 128.449 177.259 128.449C178.678 128.449 179.828 127.299 179.828 125.88C179.828 124.462 178.678 123.311 177.259 123.311ZM154.139 125.88C154.139 124.462 155.289 123.311 156.708 123.311C158.127 123.311 159.277 124.462 159.277 125.88C159.277 127.299 158.127 128.449 156.708 128.449C155.289 128.449 154.139 127.299 154.139 125.88ZM136.156 123.311C134.737 123.311 133.587 124.462 133.587 125.88C133.587 127.299 134.737 128.449 136.156 128.449C137.575 128.449 138.725 127.299 138.725 125.88C138.725 124.462 137.575 123.311 136.156 123.311ZM238.914 143.863C237.496 143.863 236.345 145.013 236.345 146.432C236.345 147.851 237.496 149.001 238.914 149.001C240.333 149.001 241.483 147.851 241.483 146.432C241.483 145.013 240.333 143.863 238.914 143.863ZM226.07 105.329C226.07 103.91 227.22 102.76 228.639 102.76C230.058 102.76 231.208 103.91 231.208 105.329C231.208 106.747 230.058 107.898 228.639 107.898C227.22 107.898 226.07 106.747 226.07 105.329ZM208.088 82.2079C206.669 82.2079 205.519 83.3581 205.519 84.7769C205.519 86.1957 206.669 87.3458 208.088 87.3458C209.506 87.3458 210.657 86.1957 210.657 84.7769C210.657 83.3581 209.506 82.2079 208.088 82.2079ZM228.639 82.2074C227.22 82.2074 226.07 83.3576 226.07 84.7764C226.07 86.1952 227.22 87.3454 228.639 87.3454C230.058 87.3454 231.208 86.1952 231.208 84.7764C231.208 83.3576 230.058 82.2074 228.639 82.2074ZM184.967 84.7769C184.967 83.3581 186.117 82.2079 187.536 82.2079C188.955 82.2079 190.105 83.3581 190.105 84.7769C190.105 86.1957 188.955 87.3458 187.536 87.3458C186.117 87.3458 184.967 86.1957 184.967 84.7769ZM166.984 82.2079C165.565 82.2079 164.415 83.3581 164.415 84.7769C164.415 86.1957 165.565 87.3458 166.984 87.3458C168.403 87.3458 169.553 86.1957 169.553 84.7769C169.553 83.3581 168.403 82.2079 166.984 82.2079ZM143.864 84.7769C143.864 83.3581 145.014 82.2079 146.433 82.2079C147.852 82.2079 149.002 83.3581 149.002 84.7769C149.002 86.1957 147.852 87.3458 146.433 87.3458C145.014 87.3458 143.864 86.1957 143.864 84.7769ZM125.881 82.2079C124.462 82.2079 123.312 83.3581 123.312 84.7769C123.312 86.1957 124.462 87.3458 125.881 87.3458C127.3 87.3458 128.45 86.1957 128.45 84.7769C128.45 83.3581 127.3 82.2079 125.881 82.2079ZM208.087 102.76C206.668 102.76 205.518 103.91 205.518 105.329C205.518 106.747 206.668 107.898 208.087 107.898C209.506 107.898 210.656 106.747 210.656 105.329C210.656 103.91 209.506 102.76 208.087 102.76ZM184.966 105.329C184.966 103.91 186.117 102.76 187.535 102.76C188.954 102.76 190.104 103.91 190.104 105.329C190.104 106.747 188.954 107.898 187.535 107.898C186.117 107.898 184.966 106.747 184.966 105.329ZM166.984 102.76C165.565 102.76 164.415 103.91 164.415 105.329C164.415 106.747 165.565 107.898 166.984 107.898C168.402 107.898 169.552 106.747 169.552 105.329C169.552 103.91 168.402 102.76 166.984 102.76ZM143.863 105.329C143.863 103.91 145.013 102.76 146.432 102.76C147.851 102.76 149.001 103.91 149.001 105.329C149.001 106.747 147.851 107.898 146.432 107.898C145.013 107.898 143.863 106.747 143.863 105.329ZM125.88 102.76C124.462 102.76 123.311 103.91 123.311 105.329C123.311 106.747 124.462 107.898 125.88 107.898C127.299 107.898 128.449 106.747 128.449 105.329C128.449 103.91 127.299 102.76 125.88 102.76ZM218.363 143.863C216.944 143.863 215.794 145.013 215.794 146.432C215.794 147.851 216.944 149.001 218.363 149.001C219.781 149.001 220.932 147.851 220.932 146.432C220.932 145.013 219.781 143.863 218.363 143.863ZM84.776 102.76C83.3572 102.76 82.2071 103.91 82.2071 105.329C82.2071 106.747 83.3572 107.898 84.776 107.898C86.1948 107.898 87.345 106.747 87.345 105.329C87.345 103.91 86.1948 102.76 84.776 102.76ZM102.759 105.328C102.759 103.909 103.909 102.759 105.328 102.759C106.746 102.759 107.897 103.909 107.897 105.328C107.897 106.747 106.746 107.897 105.328 107.897C103.909 107.897 102.759 106.747 102.759 105.328ZM84.7757 82.2079C83.3569 82.2079 82.2067 83.358 82.2067 84.7768C82.2067 86.1957 83.3569 87.3458 84.7757 87.3458C86.1945 87.3458 87.3447 86.1957 87.3447 84.7768C87.3447 83.358 86.1945 82.2079 84.7757 82.2079ZM105.328 82.2074C103.909 82.2074 102.759 83.3576 102.759 84.7764C102.759 86.1952 103.909 87.3454 105.328 87.3454C106.747 87.3454 107.897 86.1952 107.897 84.7764C107.897 83.3576 106.747 82.2074 105.328 82.2074ZM61.6549 84.7768C61.6549 83.358 62.8051 82.2079 64.2239 82.2079C65.6427 82.2079 66.7929 83.358 66.7929 84.7768C66.7929 86.1957 65.6427 87.3458 64.2239 87.3458C62.8051 87.3458 61.6549 86.1957 61.6549 84.7768ZM43.6721 82.2079C42.2533 82.2079 41.1031 83.358 41.1031 84.7768C41.1031 86.1956 42.2533 87.3458 43.6721 87.3458C45.0909 87.3458 46.241 86.1957 46.241 84.7768C46.241 83.358 45.0909 82.2079 43.6721 82.2079ZM20.5513 84.7768C20.5513 83.358 21.7015 82.2079 23.1202 82.2079C24.5391 82.2079 25.6892 83.358 25.6892 84.7768C25.6892 86.1956 24.5391 87.3458 23.1202 87.3458C21.7015 87.3458 20.5513 86.1956 20.5513 84.7768ZM2.56902 82.2079C1.15021 82.2079 6.67738e-05 83.358 6.66498e-05 84.7768C6.65257e-05 86.1956 1.15021 87.3458 2.56902 87.3458C3.98783 87.3458 5.13799 86.1956 5.13799 84.7768C5.13799 83.358 3.98783 82.2079 2.56902 82.2079ZM61.6552 105.329C61.6552 103.91 62.8054 102.76 64.2242 102.76C65.643 102.76 66.7932 103.91 66.7932 105.329C66.7932 106.747 65.643 107.898 64.2242 107.898C62.8054 107.898 61.6552 106.747 61.6552 105.329ZM43.6724 102.76C42.2536 102.76 41.1034 103.91 41.1034 105.329C41.1034 106.747 42.2536 107.898 43.6724 107.898C45.0912 107.898 46.2414 106.747 46.2414 105.329C46.2414 103.91 45.0912 102.76 43.6724 102.76ZM20.5522 105.329C20.5522 103.91 21.7024 102.76 23.1212 102.76C24.54 102.76 25.6901 103.91 25.6901 105.329C25.6901 106.747 24.54 107.898 23.1212 107.898C21.7024 107.898 20.5522 106.747 20.5522 105.329ZM2.56934 102.76C1.15053 102.76 0.000370153 103.91 0.000370029 105.329C0.000369905 106.747 1.15053 107.898 2.56934 107.898C3.98813 107.898 5.13831 106.747 5.13831 105.329C5.13831 103.91 3.98813 102.76 2.56934 102.76ZM197.811 143.863C196.392 143.863 195.242 145.013 195.242 146.432C195.242 147.851 196.392 149.001 197.811 149.001C199.23 149.001 200.38 147.851 200.38 146.432C200.38 145.013 199.23 143.863 197.811 143.863ZM174.69 146.432C174.69 145.013 175.84 143.863 177.259 143.863C178.678 143.863 179.828 145.013 179.828 146.432C179.828 147.851 178.678 149.001 177.259 149.001C175.84 149.001 174.69 147.851 174.69 146.432ZM156.708 143.863C155.289 143.863 154.139 145.013 154.139 146.432C154.139 147.851 155.289 149.001 156.708 149.001C158.127 149.001 159.277 147.851 159.277 146.432C159.277 145.013 158.127 143.863 156.708 143.863ZM133.587 146.432C133.587 145.013 134.737 143.863 136.156 143.863C137.575 143.863 138.725 145.013 138.725 146.432C138.725 147.851 137.575 149.001 136.156 149.001C134.737 149.001 133.587 147.851 133.587 146.432Z" fill="#333333"/>
<path fill-rule="evenodd" clip-rule="evenodd" d="M84.776 61.6558C83.3572 61.6558 82.2071 62.8059 82.2071 64.2247C82.2071 65.6435 83.3572 66.7937 84.776 66.7937C86.1948 66.7937 87.345 65.6435 87.345 64.2247C87.345 62.8059 86.1948 61.6558 84.776 61.6558ZM102.759 64.2246C102.759 62.8058 103.909 61.6556 105.328 61.6556C106.746 61.6556 107.897 62.8058 107.897 64.2246C107.897 65.6434 106.746 66.7936 105.328 66.7936C103.909 66.7936 102.759 65.6434 102.759 64.2246ZM105.328 41.1042C103.909 41.1042 102.759 42.2544 102.759 43.6732C102.759 45.092 103.909 46.2422 105.328 46.2422C106.747 46.2422 107.897 45.092 107.897 43.6732C107.897 42.2544 106.747 41.1042 105.328 41.1042ZM84.7757 41.1041C83.3569 41.1041 82.2067 42.2543 82.2067 43.6731C82.2067 45.0919 83.3569 46.242 84.7757 46.242C86.1945 46.242 87.3447 45.0919 87.3447 43.6731C87.3447 42.2543 86.1945 41.1041 84.7757 41.1041ZM61.6549 43.6731C61.6549 42.2543 62.8051 41.1041 64.2239 41.1041C65.6427 41.1041 66.7929 42.2543 66.7929 43.6731C66.7929 45.0919 65.6427 46.242 64.2239 46.242C62.8051 46.242 61.6549 45.0919 61.6549 43.6731ZM43.6721 41.1041C42.2533 41.1041 41.1031 42.2543 41.1031 43.6731C41.1031 45.0919 42.2533 46.242 43.6721 46.242C45.0909 46.242 46.241 45.0919 46.241 43.6731C46.241 42.2543 45.0909 41.1041 43.6721 41.1041ZM20.5513 43.6731C20.5513 42.2543 21.7014 41.1041 23.1202 41.1041C24.539 41.1041 25.6892 42.2543 25.6892 43.6731C25.6892 45.0919 24.539 46.242 23.1202 46.242C21.7014 46.242 20.5513 45.0919 20.5513 43.6731ZM2.56902 41.1041C1.15021 41.1041 6.31805e-05 42.2543 6.30564e-05 43.6731C6.29324e-05 45.0919 1.15021 46.242 2.56902 46.242C3.98781 46.242 5.13799 45.0919 5.13799 43.6731C5.13799 42.2543 3.98781 41.1041 2.56902 41.1041ZM61.6552 64.2247C61.6552 62.8059 62.8054 61.6558 64.2242 61.6558C65.643 61.6558 66.7932 62.8059 66.7932 64.2247C66.7932 65.6435 65.643 66.7937 64.2242 66.7937C62.8054 66.7937 61.6552 65.6435 61.6552 64.2247ZM43.6724 61.6557C42.2536 61.6557 41.1034 62.8059 41.1034 64.2247C41.1034 65.6435 42.2536 66.7937 43.6724 66.7937C45.0912 66.7937 46.2414 65.6435 46.2414 64.2247C46.2414 62.8059 45.0912 61.6557 43.6724 61.6557ZM20.5522 64.2247C20.5522 62.8059 21.7023 61.6557 23.1212 61.6557C24.5399 61.6557 25.6901 62.8059 25.6901 64.2247C25.6901 65.6435 24.5399 66.7937 23.1212 66.7937C21.7023 66.7937 20.5522 65.6435 20.5522 64.2247ZM2.56934 61.6557C1.15053 61.6557 0.00036656 62.8059 0.000366436 64.2247C0.000366311 65.6435 1.15053 66.7937 2.56934 66.7937C3.98813 66.7937 5.13831 65.6435 5.13831 64.2247C5.13831 62.8059 3.98813 61.6557 2.56934 61.6557ZM238.914 41.1042C237.496 41.1042 236.345 42.2544 236.345 43.6732C236.345 45.092 237.496 46.2421 238.914 46.2421C240.333 46.2421 241.483 45.092 241.483 43.6732C241.483 42.2544 240.333 41.1042 238.914 41.1042ZM218.363 41.1041C216.944 41.1041 215.794 42.2542 215.794 43.673C215.794 45.0918 216.944 46.242 218.363 46.242C219.781 46.242 220.932 45.0918 220.932 43.673C220.932 42.2542 219.781 41.1041 218.363 41.1041ZM195.242 43.673C195.242 42.2542 196.392 41.1041 197.811 41.1041C199.23 41.1041 200.38 42.2542 200.38 43.673C200.38 45.0918 199.23 46.242 197.811 46.242C196.392 46.242 195.242 45.0918 195.242 43.673ZM177.259 41.1041C175.84 41.1041 174.69 42.2542 174.69 43.673C174.69 45.0918 175.84 46.242 177.259 46.242C178.678 46.242 179.828 45.0918 179.828 43.673C179.828 42.2542 178.678 41.1041 177.259 41.1041ZM154.139 43.673C154.139 42.2542 155.289 41.1041 156.708 41.1041C158.127 41.1041 159.277 42.2542 159.277 43.673C159.277 45.0918 158.127 46.242 156.708 46.242C155.289 46.242 154.139 45.0918 154.139 43.673ZM136.156 41.1041C134.737 41.1041 133.587 42.2542 133.587 43.673C133.587 45.0918 134.737 46.242 136.156 46.242C137.575 46.242 138.725 45.0918 138.725 43.673C138.725 42.2542 137.575 41.1041 136.156 41.1041ZM238.914 61.6557C237.496 61.6557 236.345 62.8059 236.345 64.2247C236.345 65.6435 237.496 66.7937 238.914 66.7937C240.333 66.7937 241.483 65.6435 241.483 64.2247C241.483 62.8059 240.333 61.6557 238.914 61.6557ZM226.07 23.121C226.07 21.7022 227.22 20.552 228.639 20.552C230.058 20.552 231.208 21.7022 231.208 23.121C231.208 24.5398 230.058 25.6899 228.639 25.6899C227.22 25.6899 226.07 24.5398 226.07 23.121ZM228.639 0.000174353C227.22 0.000174229 226.07 1.15034 226.07 2.56914C226.07 3.98794 227.22 5.13811 228.639 5.13811C230.058 5.13811 231.208 3.98794 231.208 2.56914C231.208 1.15034 230.058 0.000174477 228.639 0.000174353ZM208.088 1.99686e-05C206.669 1.98446e-05 205.519 1.15019 205.519 2.56899C205.519 3.98779 206.669 5.13796 208.088 5.13796C209.506 5.13796 210.657 3.98779 210.657 2.56899C210.657 1.15019 209.506 2.00927e-05 208.088 1.99686e-05ZM184.967 2.56899C184.967 1.15019 186.117 1.80479e-05 187.536 1.81719e-05C188.955 1.8296e-05 190.105 1.15019 190.105 2.56899C190.105 3.98779 188.955 5.13795 187.536 5.13795C186.117 5.13795 184.967 3.98779 184.967 2.56899ZM166.984 1.63752e-05C165.565 1.62512e-05 164.415 1.15019 164.415 2.56899C164.415 3.98779 165.565 5.13795 166.984 5.13795C168.403 5.13795 169.553 3.98779 169.553 2.56899C169.553 1.15019 168.403 1.64993e-05 166.984 1.63752e-05ZM143.864 2.56898C143.864 1.15018 145.014 1.44546e-05 146.433 1.45786e-05C147.852 1.47026e-05 149.002 1.15018 149.002 2.56898C149.002 3.98778 147.852 5.13795 146.433 5.13795C145.014 5.13795 143.864 3.98778 143.864 2.56898ZM125.881 1.27819e-05C124.462 1.26579e-05 123.312 1.15018 123.312 2.56898C123.312 3.98778 124.462 5.13795 125.881 5.13795C127.3 5.13795 128.45 3.98778 128.45 2.56898C128.45 1.15018 127.3 1.29059e-05 125.881 1.27819e-05ZM208.087 20.552C206.668 20.552 205.518 21.7022 205.518 23.121C205.518 24.5398 206.668 25.6899 208.087 25.6899C209.506 25.6899 210.656 24.5398 210.656 23.121C210.656 21.7022 209.506 20.552 208.087 20.552ZM184.966 23.121C184.966 21.7022 186.117 20.552 187.535 20.552C188.954 20.552 190.104 21.7022 190.104 23.121C190.104 24.5398 188.954 25.6899 187.535 25.6899C186.117 25.6899 184.966 24.5398 184.966 23.121ZM166.984 20.552C165.565 20.552 164.415 21.7022 164.415 23.121C164.415 24.5398 165.565 25.6899 166.984 25.6899C168.402 25.6899 169.552 24.5398 169.552 23.121C169.552 21.7022 168.402 20.552 166.984 20.552ZM143.863 23.121C143.863 21.7022 145.013 20.552 146.432 20.552C147.851 20.552 149.001 21.7022 149.001 23.121C149.001 24.5398 147.851 25.6899 146.432 25.6899C145.013 25.6899 143.863 24.5398 143.863 23.121ZM125.88 20.552C124.462 20.552 123.311 21.7022 123.311 23.121C123.311 24.5398 124.462 25.6899 125.88 25.6899C127.299 25.6899 128.449 24.5398 128.449 23.121C128.449 21.7022 127.299 20.552 125.88 20.552ZM218.363 61.6557C216.944 61.6557 215.794 62.8059 215.794 64.2247C215.794 65.6435 216.944 66.7937 218.363 66.7937C219.781 66.7937 220.932 65.6435 220.932 64.2247C220.932 62.8059 219.781 61.6557 218.363 61.6557ZM102.759 23.121C102.759 21.7022 103.909 20.5521 105.328 20.5521C106.746 20.5521 107.897 21.7022 107.897 23.121C107.897 24.5398 106.746 25.69 105.328 25.69C103.909 25.69 102.759 24.5398 102.759 23.121ZM105.328 0.000163573C103.909 0.000163449 102.759 1.15033 102.759 2.56913C102.759 3.98793 103.909 5.1381 105.328 5.1381C106.747 5.1381 107.897 3.98793 107.897 2.56913C107.897 1.15033 106.747 0.000163697 105.328 0.000163573ZM84.7757 9.18836e-06C83.3569 9.06433e-06 82.2067 1.15018 82.2067 2.56898C82.2067 3.98778 83.3569 5.13794 84.7757 5.13794C86.1945 5.13794 87.3447 3.98778 87.3447 2.56898C87.3447 1.15018 86.1945 9.3124e-06 84.7757 9.18836e-06ZM61.6549 2.56898C61.6549 1.15018 62.8051 7.26763e-06 64.2239 7.39167e-06C65.6427 7.5157e-06 66.7929 1.15018 66.7929 2.56898C66.7929 3.98778 65.6427 5.13794 64.2239 5.13794C62.8051 5.13794 61.6549 3.98778 61.6549 2.56898ZM43.6721 5.59497e-06C42.2533 5.47093e-06 41.1031 1.15017 41.1031 2.56898C41.1031 3.98778 42.2533 5.13794 43.6721 5.13794C45.0909 5.13794 46.241 3.98778 46.241 2.56898C46.241 1.15018 45.0909 5.719e-06 43.6721 5.59497e-06ZM20.5513 2.56897C20.5513 1.15017 21.7015 3.67424e-06 23.1202 3.79827e-06C24.5391 3.92231e-06 25.6892 1.15017 25.6892 2.56897C25.6892 3.98777 24.5391 5.13794 23.1202 5.13794C21.7015 5.13794 20.5513 3.98777 20.5513 2.56897ZM2.56902 2.00162e-06C1.15021 1.87759e-06 6.67739e-05 1.15017 6.66499e-05 2.56897C6.65258e-05 3.98777 1.15021 5.13794 2.56902 5.13794C3.98783 5.13794 5.13799 3.98777 5.13799 2.56897C5.13799 1.15017 3.98783 2.12566e-06 2.56902 2.00162e-06ZM84.776 20.552C83.3572 20.552 82.2071 21.7021 82.2071 23.121C82.2071 24.5398 83.3572 25.6899 84.776 25.6899C86.1948 25.6899 87.345 24.5398 87.345 23.121C87.345 21.7022 86.1948 20.552 84.776 20.552ZM61.6552 23.1209C61.6552 21.7021 62.8054 20.552 64.2242 20.552C65.643 20.552 66.7932 21.7021 66.7932 23.1209C66.7932 24.5398 65.643 25.6899 64.2242 25.6899C62.8054 25.6899 61.6552 24.5398 61.6552 23.1209ZM43.6724 20.552C42.2536 20.552 41.1034 21.7021 41.1034 23.1209C41.1034 24.5398 42.2536 25.6899 43.6724 25.6899C45.0912 25.6899 46.2414 24.5398 46.2414 23.1209C46.2414 21.7021 45.0912 20.552 43.6724 20.552ZM20.5522 23.1209C20.5522 21.7021 21.7024 20.552 23.1212 20.552C24.54 20.552 25.6901 21.7021 25.6901 23.1209C25.6901 24.5397 24.54 25.6899 23.1212 25.6899C21.7024 25.6899 20.5522 24.5397 20.5522 23.1209ZM2.56934 20.552C1.15053 20.552 0.000370153 21.7021 0.000370029 23.1209C0.000369905 24.5397 1.15053 25.6899 2.56934 25.6899C3.98813 25.6899 5.13829 24.5397 5.13829 23.1209C5.13829 21.7021 3.98813 20.552 2.56934 20.552ZM197.811 61.6557C196.392 61.6557 195.242 62.8059 195.242 64.2247C195.242 65.6435 196.392 66.7937 197.811 66.7937C199.23 66.7937 200.38 65.6435 200.38 64.2247C200.38 62.8059 199.23 61.6557 197.811 61.6557ZM174.69 64.2247C174.69 62.8059 175.84 61.6557 177.259 61.6557C178.678 61.6557 179.828 62.8059 179.828 64.2247C179.828 65.6435 178.678 66.7937 177.259 66.7937C175.84 66.7937 174.69 65.6435 174.69 64.2247ZM156.708 61.6557C155.289 61.6557 154.139 62.8059 154.139 64.2247C154.139 65.6435 155.289 66.7937 156.708 66.7937C158.127 66.7937 159.277 65.6435 159.277 64.2247C159.277 62.8059 158.127 61.6557 156.708 61.6557ZM133.587 64.2247C133.587 62.8059 134.737 61.6557 136.156 61.6557C137.575 61.6557 138.725 62.8059 138.725 64.2247C138.725 65.6435 137.575 66.7937 136.156 66.7937C134.737 66.7937 133.587 65.6435 133.587 64.2247Z" fill="#333333"/>
</svg>
