<svg width="70" height="54" viewBox="0 0 70 54" fill="none" xmlns="http://www.w3.org/2000/svg">
<path d="M28.4769 29.6998C26.5025 31.6734 24.0962 32.6602 21.2581 32.6602C18.4199 32.6602 16.0136 31.6734 14.0392 29.6998C12.0648 27.7262 11.0776 25.3208 11.0776 22.4632C11.0776 19.6055 12.0648 17.2002 14.0392 15.2265C16.0136 13.2529 18.4199 12.2661 21.2581 12.2661C24.0962 12.2661 26.5025 13.2529 28.4769 15.2265C30.4513 17.2002 31.603 19.6055 31.603 22.4632C31.603 25.3208 30.4719 27.7262 28.4769 29.6998ZM16.754 27.0683C17.9674 28.2812 19.4688 28.8774 21.2581 28.8774C23.0473 28.8774 24.5487 28.2812 25.7621 27.0683C26.9755 25.8553 27.572 24.334 27.572 22.4632C27.572 20.5923 26.955 19.0504 25.7621 17.8375C24.5487 16.6245 23.0473 16.0078 21.2581 16.0078C19.4688 16.0078 17.9674 16.6245 16.754 17.8375C15.5406 19.0504 14.9236 20.5923 14.9236 22.4632C14.9236 24.334 15.5406 25.8759 16.754 27.0683Z" fill="#01B2E8"/>
<path d="M28.3948 31.2622C26.6055 32.7013 24.4872 33.4208 22.0603 33.4208C19.2221 33.4208 16.8159 32.434 14.8415 30.4604C12.8671 28.4868 11.8799 26.0814 11.8799 23.2238C11.8799 20.3661 12.8671 17.9608 14.8415 15.9872C16.8159 14.0135 19.2221 13.0267 22.0603 13.0267C24.8985 13.0267 27.3048 14.0135 29.2792 15.9872C31.2535 17.9608 32.4053 20.3661 32.4053 23.2238C32.4053 23.306 32.4053 23.3883 32.4053 23.491L28.3948 31.2622ZM17.5562 27.8289C18.7697 29.0419 20.271 29.6381 22.0603 29.6381C23.8496 29.6381 25.351 29.0419 26.5644 27.8289C27.7778 26.616 28.3742 25.0946 28.3742 23.2238C28.3742 21.353 27.7572 19.8111 26.5644 18.5981C25.351 17.3851 23.8496 16.7684 22.0603 16.7684C20.271 16.7684 18.7697 17.3851 17.5562 18.5981C16.3428 19.8111 15.7258 21.353 15.7258 23.2238C15.7464 25.0946 16.3428 26.616 17.5562 27.8289Z" stroke="black" stroke-width="0.5" stroke-miterlimit="10"/>
<path d="M46.5962 22.7304V42.1171H42.8119V29.5353L37.3412 38.5399H36.9093L31.4387 29.5764V42.1171H27.6133V22.7304H31.5621L37.115 31.8995L42.668 22.7304H46.5962Z" fill="#E52527"/>
<path d="M47.4189 26.9655V42.8778H43.6141V30.296L38.164 39.3006H37.7115L32.2614 30.3165V42.8778H28.436V23.4911H32.3642L37.9378 32.6602L42.0099 25.917" stroke="black" stroke-width="0.5" stroke-miterlimit="10"/>
<path d="M55.3366 15.4321V16.9329C55.3366 19.7083 54.4522 21.9492 52.6835 23.6556C50.9148 25.3825 48.6114 26.2254 45.8143 26.2254C42.8116 26.2254 40.3436 25.2591 38.3692 23.3061C36.3949 21.353 35.4282 18.9888 35.4282 16.1723C35.4282 13.3557 36.3949 10.9504 38.3487 8.99731C40.3025 7.04425 42.7088 6.05743 45.5881 6.05743C47.3979 6.05743 49.0433 6.46861 50.5446 7.29095C52.046 8.11329 53.1977 9.2029 54.0409 10.5803L50.7708 12.4717C50.3184 11.6699 49.6191 11.0326 48.6731 10.5392C47.7476 10.0458 46.6987 9.7991 45.5469 9.7991C43.696 9.7991 42.174 10.3953 40.9812 11.6082C39.7883 12.8212 39.1919 14.3425 39.1919 16.1928C39.1919 18.0225 39.7883 19.5233 41.0017 20.7157C42.2152 21.9081 43.8194 22.5043 45.8143 22.5043C47.2951 22.5043 48.5085 22.1754 49.4957 21.5175C50.4623 20.8596 51.1205 19.955 51.4701 18.8243H45.5881V15.4527H55.3366V15.4321Z" fill="#E72686"/>
<path d="M56.1389 16.1928V17.6936C56.1389 20.469 55.2545 22.7099 53.4858 24.4163C51.7171 26.1432 49.4136 26.9861 46.6166 26.9861C43.6138 26.9861 41.1459 26.0198 39.1715 24.0668C37.1971 22.1137 36.2305 19.7495 36.2305 16.9329C36.2305 14.1164 37.1971 11.7111 39.1509 9.75799C41.1047 7.80492 43.511 6.81812 46.3903 6.81812C48.2002 6.81812 49.8455 7.22929 51.3469 8.05163C52.8482 8.87397 53.9999 9.96358 54.8432 11.341L51.5731 13.2324C51.1206 12.4306 50.4214 11.7933 49.4753 11.2999C48.5498 10.8065 47.5009 10.5598 46.3492 10.5598C44.4982 10.5598 42.9763 11.156 41.7834 12.3689C40.5906 13.5819 39.9941 15.1032 39.9941 16.9535C39.9941 18.7832 40.5906 20.284 41.804 21.4764C43.0174 22.6688 44.6216 23.265 46.6166 23.265C48.0973 23.265 49.3108 22.936 50.298 22.2782C51.2646 21.6203 51.9227 20.7157 52.2724 19.585H46.3903V16.2134H56.1389V16.1928Z" stroke="black" stroke-width="0.5" stroke-miterlimit="10"/>
<path d="M18.8517 50.7518C18.8517 50.834 18.8928 50.8957 19.0162 50.9368C19.1191 50.9779 19.2425 51.019 19.3864 51.0601C19.5304 51.1013 19.6744 51.1424 19.8183 51.204C19.9623 51.2657 20.0857 51.3479 20.1885 51.4919C20.2914 51.6152 20.3325 51.7797 20.3325 51.9853C20.3325 52.2936 20.2297 52.5198 20.0034 52.6843C19.7772 52.8487 19.5098 52.931 19.1602 52.931C18.5638 52.931 18.1524 52.7048 17.9468 52.232L18.6049 51.8619C18.6872 52.1086 18.8723 52.232 19.1808 52.232C19.4481 52.232 19.5921 52.1497 19.5921 51.9853C19.5921 51.903 19.551 51.8414 19.4276 51.8002C19.3247 51.7591 19.2013 51.718 19.0574 51.6769C18.9134 51.6358 18.7694 51.5947 18.6049 51.533C18.4609 51.4713 18.3375 51.3891 18.2347 51.2657C18.1319 51.1424 18.0702 50.9779 18.0702 50.7929C18.0702 50.5051 18.173 50.2789 18.3787 50.1144C18.5843 49.95 18.8517 49.8677 19.1602 49.8677C19.3864 49.8677 19.6127 49.9294 19.7978 50.0322C19.9829 50.135 20.1474 50.2995 20.2502 50.4845L19.6127 50.834C19.5098 50.6284 19.3659 50.5462 19.1396 50.5462C19.0368 50.5462 18.9545 50.5667 18.8928 50.6078C18.8928 50.6078 18.8517 50.6695 18.8517 50.7518Z" fill="black"/>
<path d="M22.7595 49.9294H23.4999V52.8282H22.7595V52.4993C22.5744 52.7665 22.2864 52.9104 21.8957 52.9104C21.5872 52.9104 21.3198 52.8076 21.1142 52.5815C20.9085 52.3759 20.8057 52.0675 20.8057 51.6975V49.9089H21.5461V51.5947C21.5461 51.7797 21.6078 51.9442 21.7106 52.047C21.8134 52.1498 21.9574 52.2114 22.1219 52.2114C22.307 52.2114 22.4715 52.1498 22.5949 52.0264C22.7183 51.9031 22.7595 51.718 22.7595 51.4919V49.9294Z" fill="black"/>
<path d="M24.8571 50.7518C24.8571 50.834 24.8982 50.8957 25.0216 50.9368C25.1244 50.9779 25.2478 51.019 25.3918 51.0601C25.5358 51.1013 25.6797 51.1424 25.8237 51.204C25.9677 51.2657 26.0911 51.3479 26.1939 51.4919C26.2967 51.6152 26.3379 51.7797 26.3379 51.9853C26.3379 52.2936 26.235 52.5198 26.0088 52.6843C25.7826 52.8487 25.5152 52.931 25.1656 52.931C24.5691 52.931 24.1578 52.7048 23.9521 52.232L24.6103 51.8619C24.6925 52.1086 24.8776 52.232 25.1861 52.232C25.4535 52.232 25.5975 52.1497 25.5975 51.9853C25.5975 51.903 25.5563 51.8414 25.4535 51.8002C25.3507 51.7591 25.2273 51.718 25.0833 51.6769C24.9393 51.6358 24.7954 51.5947 24.6514 51.533C24.5074 51.4713 24.384 51.3891 24.2812 51.2657C24.1784 51.1424 24.1167 50.9779 24.1167 50.7929C24.1167 50.5051 24.2195 50.2789 24.4252 50.1144C24.6308 49.95 24.8982 49.8677 25.2067 49.8677C25.4329 49.8677 25.6592 49.9294 25.8443 50.0322C26.0294 50.135 26.1939 50.2995 26.2967 50.4845L25.6592 50.834C25.5563 50.6284 25.4124 50.5462 25.1861 50.5462C25.0833 50.5462 25.001 50.5667 24.9393 50.6078C24.8982 50.6078 24.8571 50.6695 24.8571 50.7518Z" fill="black"/>
<path d="M28.4563 49.8472C28.7648 49.8472 29.0322 49.95 29.2378 50.1761C29.4435 50.3817 29.5463 50.6901 29.5463 51.0601V52.8487H28.8059V51.1629C28.8059 50.9779 28.7442 50.8134 28.6414 50.7106C28.5386 50.6078 28.3946 50.5462 28.2301 50.5462C28.045 50.5462 27.8804 50.6078 27.757 50.7312C27.6336 50.8545 27.5925 51.0396 27.5925 51.2657V52.8282H26.8315V48.7576H27.5925V50.2378C27.7776 49.9705 28.0655 49.8472 28.4563 49.8472Z" fill="black"/>
<path d="M30.5746 49.5799C30.4512 49.5799 30.3484 49.5388 30.2455 49.436C30.1633 49.3538 30.1016 49.2304 30.1016 49.1071C30.1016 48.9837 30.1427 48.8809 30.2455 48.7781C30.3278 48.6753 30.4512 48.6342 30.5746 48.6342C30.698 48.6342 30.8214 48.6753 30.9037 48.7781C30.9859 48.8809 31.0476 48.9837 31.0476 49.1071C31.0476 49.2304 31.0065 49.3332 30.9037 49.436C30.8214 49.5182 30.698 49.5799 30.5746 49.5799ZM30.2044 49.9294H30.9448V52.8282H30.2044V49.9294Z" fill="black"/>
<path d="M36.5388 52.602L35.9013 52.9721L35.5311 52.5609C35.2226 52.7871 34.8524 52.9104 34.4411 52.9104C34.0297 52.9104 33.6801 52.8076 33.4127 52.5815C33.1454 52.3553 33.022 52.0675 33.022 51.6975C33.022 51.4508 33.0837 51.2246 33.1865 51.019C33.3099 50.8134 33.4744 50.649 33.7007 50.5256C33.5773 50.32 33.495 50.0939 33.495 49.8472C33.495 49.4977 33.6184 49.2099 33.8652 49.0043C34.112 48.7781 34.3999 48.6754 34.7701 48.6754C35.0581 48.6754 35.3254 48.7576 35.5517 48.9015C35.7779 49.0454 35.963 49.2715 36.0658 49.5594L35.3871 49.95C35.2843 49.621 35.0786 49.4566 34.7907 49.4566C34.6467 49.4566 34.5439 49.4977 34.4411 49.5799C34.3588 49.6622 34.2971 49.765 34.2971 49.8883C34.2971 49.9911 34.3177 50.0939 34.3794 50.1761C34.4411 50.2584 34.5233 50.3817 34.6262 50.5051L35.49 51.4507C35.5722 51.2657 35.6339 51.0396 35.6956 50.7723L36.3743 51.1629C36.292 51.4713 36.1892 51.7591 36.0247 52.0264L36.5388 52.602ZM34.5028 52.1703C34.7084 52.1703 34.8935 52.1292 35.0375 52.0264L34.1531 51.0807L34.1326 51.0601C33.9269 51.1835 33.8035 51.3891 33.8035 51.6152C33.8035 51.7797 33.8652 51.9236 33.968 52.0264C34.112 52.1292 34.2765 52.1703 34.5028 52.1703Z" fill="black"/>
<path d="M40.1586 49.8472C40.5494 49.8472 40.8784 49.9911 41.1664 50.2995C41.4337 50.5873 41.5777 50.9573 41.5777 51.3891C41.5777 51.8208 41.4337 52.1908 41.1664 52.4787C40.899 52.7665 40.5494 52.931 40.1586 52.931C39.7473 52.931 39.4388 52.7871 39.2126 52.4992V54H38.4722V49.9294H39.2126V50.2789C39.4388 49.9911 39.7473 49.8472 40.1586 49.8472ZM39.4388 51.9647C39.5828 52.1086 39.7884 52.1909 40.0147 52.1909C40.2409 52.1909 40.4465 52.1086 40.5905 51.9647C40.7345 51.8208 40.8167 51.6152 40.8167 51.3685C40.8167 51.1218 40.7345 50.9368 40.5905 50.7723C40.4465 50.6284 40.2409 50.5462 40.0147 50.5462C39.7884 50.5462 39.5828 50.6284 39.4388 50.7723C39.2948 50.9162 39.2126 51.1218 39.2126 51.3685C39.2126 51.6152 39.2948 51.8208 39.4388 51.9647Z" fill="black"/>
<path d="M42.4828 49.5799C42.3594 49.5799 42.2566 49.5388 42.1537 49.436C42.0715 49.3538 42.0098 49.2304 42.0098 49.1071C42.0098 48.9837 42.0509 48.8809 42.1537 48.7781C42.236 48.6753 42.3594 48.6342 42.4828 48.6342C42.6062 48.6342 42.7296 48.6753 42.8119 48.7781C42.8941 48.8809 42.9558 48.9837 42.9558 49.1071C42.9558 49.2304 42.9147 49.3332 42.8119 49.436C42.7296 49.5182 42.6062 49.5799 42.4828 49.5799ZM42.1126 49.9294H42.853V52.8282H42.1126V49.9294Z" fill="black"/>
<path d="M44.457 52.1292H45.7527V52.8282H43.4492V52.3348L44.6832 50.6284H43.5109V49.9294H45.691V50.4228L44.457 52.1292Z" fill="black"/>
<path d="M47.1513 52.1292H48.447V52.8282H46.1436V52.3348L47.3775 50.6284H46.2053V49.9294H48.3853V50.4228L47.1513 52.1292Z" fill="black"/>
<path d="M51.0385 49.9294H51.7789V52.8281H51.0385V52.4786C50.8123 52.7665 50.5038 52.9104 50.0924 52.9104C49.7017 52.9104 49.3726 52.7665 49.0847 52.4581C48.8173 52.1703 48.6733 51.8002 48.6733 51.3685C48.6733 50.9368 48.8173 50.5667 49.0847 50.2789C49.352 49.9911 49.7017 49.8266 50.0924 49.8266C50.5038 49.8266 50.8123 49.9705 51.0385 50.2583V49.9294ZM49.64 51.9647C49.7839 52.1086 49.9896 52.1908 50.2158 52.1908C50.4421 52.1908 50.6477 52.1086 50.7917 51.9647C50.9357 51.8208 51.0179 51.6152 51.0179 51.3685C51.0179 51.1218 50.9357 50.9368 50.7917 50.7723C50.6477 50.6284 50.4421 50.5461 50.2158 50.5461C49.9896 50.5461 49.7839 50.6284 49.64 50.7723C49.496 50.9162 49.4137 51.1218 49.4137 51.3685C49.4137 51.6152 49.496 51.8208 49.64 51.9647Z" fill="black"/>
<path d="M11.2627 50.0322H1V1H69.3219V50.0322H58.3394" stroke="black" stroke-miterlimit="10"/>
</svg>
