<svg width="79" height="61" viewBox="0 0 79 61" fill="none" xmlns="http://www.w3.org/2000/svg">
<path d="M32.106 33.4901C29.8708 35.7244 27.1467 36.8416 23.9337 36.8416C20.7207 36.8416 17.9966 35.7244 15.7614 33.4901C13.5263 31.2559 12.4087 28.5328 12.4087 25.2977C12.4087 22.0627 13.5263 19.3396 15.7614 17.1053C17.9966 14.8711 20.7207 13.7539 23.9337 13.7539C27.1467 13.7539 29.8708 14.8711 32.106 17.1053C34.3411 19.3396 35.645 22.0627 35.645 25.2977C35.645 28.5328 34.3644 31.2559 32.106 33.4901ZM18.8348 30.5111C20.2084 31.8842 21.9081 32.5592 23.9337 32.5592C25.9593 32.5592 27.659 31.8842 29.0326 30.5111C30.4063 29.1379 31.0815 27.4157 31.0815 25.2977C31.0815 23.1798 30.3831 21.4343 29.0326 20.0611C27.659 18.688 25.9593 17.9898 23.9337 17.9898C21.9081 17.9898 20.2084 18.688 18.8348 20.0611C17.4611 21.4343 16.7626 23.1798 16.7626 25.2977C16.7626 27.4157 17.4611 29.1612 18.8348 30.5111Z" fill="#01B2E8"/>
<path d="M32.013 35.2592C29.9874 36.8883 27.5893 37.7029 24.8419 37.7029C21.6289 37.7029 18.9048 36.5858 16.6696 34.3515C14.4345 32.1172 13.3169 29.3941 13.3169 26.1591C13.3169 22.924 14.4345 20.201 16.6696 17.9667C18.9048 15.7324 21.6289 14.6152 24.8419 14.6152C28.0549 14.6152 30.779 15.7324 33.0142 17.9667C35.2493 20.201 36.5532 22.924 36.5532 26.1591C36.5532 26.2522 36.5532 26.3453 36.5532 26.4616L32.013 35.2592ZM19.743 31.3724C21.1167 32.7456 22.8163 33.4205 24.8419 33.4205C26.8675 33.4205 28.5672 32.7456 29.9409 31.3724C31.3145 29.9993 31.9897 28.277 31.9897 26.1591C31.9897 24.0411 31.2913 22.2956 29.9409 20.9224C28.5672 19.5493 26.8675 18.8511 24.8419 18.8511C22.8163 18.8511 21.1167 19.5493 19.743 20.9224C18.3693 22.2956 17.6708 24.0411 17.6708 26.1591C17.6941 28.277 18.3693 29.9993 19.743 31.3724Z" stroke="white" stroke-width="0.5" stroke-miterlimit="10"/>
<path d="M52.618 25.6006V47.5478H48.334V33.3042L42.1407 43.4982H41.6518L35.4585 33.3508V47.5478H31.1279V25.6006H35.5982L41.8846 35.9807L48.171 25.6006H52.618Z" fill="#E52527"/>
<path d="M53.5497 30.3952V48.4092H49.2423V34.1656L43.0724 44.3595H42.5601L36.3902 34.1888V48.4092H32.0596V26.4619H36.5066L42.8163 36.8421L47.4263 29.2082" stroke="white" stroke-width="0.5" stroke-miterlimit="10"/>
<path d="M62.5134 17.3385V19.0375C62.5134 22.1794 61.5122 24.7163 59.5099 26.648C57.5076 28.603 54.8999 29.5573 51.7334 29.5573C48.3341 29.5573 45.5402 28.4634 43.305 26.2524C41.0699 24.0413 39.9756 21.3649 39.9756 18.1763C39.9756 14.9878 41.0699 12.2648 43.2818 10.0538C45.4936 7.84274 48.2177 6.72559 51.4773 6.72559C53.5262 6.72559 55.3888 7.19106 57.0885 8.12202C58.7881 9.05297 60.092 10.2865 61.0466 11.8458L57.3446 13.987C56.8324 13.0794 56.0408 12.3579 54.9697 11.7993C53.922 11.2407 52.7346 10.9614 51.4308 10.9614C49.3353 10.9614 47.6124 11.6364 46.262 13.0095C44.9116 14.3827 44.2364 16.105 44.2364 18.1996C44.2364 20.271 44.9116 21.97 46.2852 23.3199C47.6589 24.6697 49.475 25.3447 51.7334 25.3447C53.4098 25.3447 54.7835 24.9723 55.9011 24.2275C56.9954 23.4828 57.7404 22.4587 58.1362 21.1787H51.4773V17.3617H62.5134V17.3385Z" fill="#E72686"/>
<path d="M63.4216 18.1993V19.8983C63.4216 23.0403 62.4204 25.5771 60.4181 27.5089C58.4158 29.4639 55.8081 30.4181 52.6416 30.4181C49.2423 30.4181 46.4484 29.3242 44.2132 27.1132C41.9781 24.9022 40.8838 22.2257 40.8838 19.0372C40.8838 15.8487 41.9781 13.1256 44.19 10.9146C46.4018 8.70357 49.1259 7.58643 52.3855 7.58643C54.4344 7.58643 56.297 8.0519 57.9967 8.98286C59.6963 9.91381 61.0002 11.1473 61.9548 12.7067L58.2528 14.8479C57.7406 13.9402 56.949 13.2187 55.878 12.6601C54.8302 12.1016 53.6428 11.8223 52.339 11.8223C50.2435 11.8223 48.5206 12.4972 47.1702 13.8704C45.8198 15.2435 45.1445 16.9658 45.1445 19.0604C45.1445 21.1318 45.8198 22.8308 47.1934 24.1807C48.5671 25.5306 50.3832 26.2055 52.6416 26.2055C54.318 26.2055 55.6917 25.8331 56.8093 25.0884C57.9036 24.3436 58.6486 23.3196 59.0444 22.0395H52.3855V18.2226H63.4216V18.1993Z" stroke="white" stroke-width="0.5" stroke-miterlimit="10"/>
<path d="M21.2095 57.3226C21.2095 57.4157 21.2561 57.4855 21.3958 57.532C21.5122 57.5786 21.6519 57.6251 21.8149 57.6717C21.9778 57.7182 22.1408 57.7648 22.3038 57.8346C22.4668 57.9044 22.6065 57.9975 22.7229 58.1604C22.8393 58.3 22.8859 58.4862 22.8859 58.719C22.8859 59.0681 22.7695 59.3241 22.5133 59.5103C22.2572 59.6965 21.9546 59.7896 21.5588 59.7896C20.8836 59.7896 20.4179 59.5336 20.1851 58.9983L20.9301 58.5793C21.0232 58.8586 21.2328 58.9983 21.582 58.9983C21.8847 58.9983 22.0477 58.9052 22.0477 58.719C22.0477 58.6259 22.0011 58.5561 21.8614 58.5095C21.745 58.463 21.6053 58.4164 21.4423 58.3699C21.2794 58.3233 21.1164 58.2768 20.9301 58.207C20.7671 58.1371 20.6274 58.044 20.511 57.9044C20.3946 57.7648 20.3248 57.5786 20.3248 57.3691C20.3248 57.0433 20.4412 56.7873 20.674 56.6011C20.9068 56.4149 21.2095 56.3218 21.5588 56.3218C21.8149 56.3218 22.071 56.3916 22.2805 56.508C22.4901 56.6243 22.6763 56.8105 22.7927 57.02L22.071 57.4156C21.9546 57.1829 21.7916 57.0898 21.5355 57.0898C21.4191 57.0898 21.3259 57.1131 21.2561 57.1596C21.2561 57.1596 21.2095 57.2295 21.2095 57.3226Z" fill="white"/>
<path d="M25.6333 56.3914H26.4714V59.6731H25.6333V59.3007C25.4237 59.6032 25.0977 59.7662 24.6554 59.7662C24.3061 59.7662 24.0035 59.6498 23.7706 59.3938C23.5378 59.161 23.4214 58.8119 23.4214 58.393V56.3682H24.2596V58.2766C24.2596 58.4861 24.3294 58.6723 24.4458 58.7887C24.5622 58.905 24.7252 58.9748 24.9115 58.9748C25.121 58.9748 25.3073 58.905 25.447 58.7654C25.5867 58.6257 25.6333 58.4163 25.6333 58.1603V56.3914Z" fill="white"/>
<path d="M28.0083 57.3226C28.0083 57.4157 28.0549 57.4855 28.1946 57.532C28.311 57.5786 28.4507 57.6251 28.6137 57.6717C28.7767 57.7182 28.9396 57.7648 29.1026 57.8346C29.2656 57.9044 29.4053 57.9975 29.5217 58.1604C29.6381 58.3 29.6847 58.4862 29.6847 58.719C29.6847 59.0681 29.5683 59.3241 29.3122 59.5103C29.0561 59.6965 28.7534 59.7896 28.3576 59.7896C27.6824 59.7896 27.2167 59.5336 26.9839 58.9983L27.7289 58.5793C27.8221 58.8586 28.0316 58.9983 28.3809 58.9983C28.6835 58.9983 28.8465 58.9052 28.8465 58.719C28.8465 58.6259 28.7999 58.5561 28.6835 58.5095C28.5671 58.463 28.4274 58.4164 28.2644 58.3699C28.1015 58.3233 27.9385 58.2768 27.7755 58.207C27.6125 58.1371 27.4728 58.044 27.3564 57.9044C27.24 57.7648 27.1701 57.5786 27.1701 57.3691C27.1701 57.0433 27.2866 56.7873 27.5194 56.6011C27.7522 56.4149 28.0549 56.3218 28.4041 56.3218C28.6603 56.3218 28.9164 56.3916 29.1259 56.508C29.3355 56.6243 29.5217 56.8105 29.6381 57.02L28.9164 57.4156C28.7999 57.1829 28.637 57.0898 28.3809 57.0898C28.2644 57.0898 28.1713 57.1131 28.1015 57.1596C28.0549 57.1596 28.0083 57.2295 28.0083 57.3226Z" fill="white"/>
<path d="M32.0825 56.2985C32.4317 56.2985 32.7344 56.4148 32.9673 56.6708C33.2001 56.9036 33.3165 57.2527 33.3165 57.6716V59.6965H32.4783V57.788C32.4783 57.5785 32.4085 57.3923 32.2921 57.276C32.1756 57.1596 32.0127 57.0898 31.8264 57.0898C31.6168 57.0898 31.4306 57.1596 31.2909 57.2992C31.1512 57.4389 31.1046 57.6483 31.1046 57.9044V59.6732H30.2432V55.0649H31.1046V56.7407C31.3142 56.4381 31.6401 56.2985 32.0825 56.2985Z" fill="white"/>
<path d="M34.4808 55.9959C34.3411 55.9959 34.2247 55.9493 34.1083 55.833C34.0152 55.7399 33.9453 55.6002 33.9453 55.4606C33.9453 55.321 33.9919 55.2046 34.1083 55.0882C34.2014 54.9718 34.3411 54.9253 34.4808 54.9253C34.6205 54.9253 34.7602 54.9718 34.8533 55.0882C34.9465 55.2046 35.0163 55.321 35.0163 55.4606C35.0163 55.6002 34.9698 55.7166 34.8533 55.833C34.7602 55.9261 34.6205 55.9959 34.4808 55.9959ZM34.0617 56.3916H34.8999V59.6732H34.0617V56.3916Z" fill="white"/>
<path d="M41.2328 59.4175L40.5111 59.8364L40.092 59.3709C39.7427 59.6269 39.3236 59.7666 38.858 59.7666C38.3923 59.7666 37.9965 59.6502 37.6938 59.3942C37.3912 59.1382 37.2515 58.8123 37.2515 58.3934C37.2515 58.1141 37.3213 57.8581 37.4377 57.6254C37.5774 57.3926 37.7637 57.2064 38.0198 57.0668C37.8801 56.8341 37.787 56.5781 37.787 56.2988C37.787 55.9031 37.9267 55.5773 38.2061 55.3446C38.4855 55.0885 38.8114 54.9722 39.2305 54.9722C39.5565 54.9722 39.8591 55.0653 40.1153 55.2282C40.3714 55.3911 40.5809 55.6471 40.6973 55.9729L39.929 56.4151C39.8126 56.0428 39.5798 55.8566 39.2538 55.8566C39.0908 55.8566 38.9744 55.9031 38.858 55.9962C38.7648 56.0893 38.695 56.2057 38.695 56.3453C38.695 56.4617 38.7183 56.5781 38.7881 56.6712C38.858 56.7642 38.9511 56.9039 39.0675 57.0435L40.0454 58.1141C40.1385 57.9047 40.2084 57.6487 40.2782 57.3461L41.0466 57.7883C40.9534 58.1374 40.837 58.4632 40.6508 58.7658L41.2328 59.4175ZM38.9278 58.9287C39.1607 58.9287 39.3702 58.8822 39.5332 58.7658L38.532 57.6952L38.5087 57.6719C38.2759 57.8116 38.1362 58.0443 38.1362 58.3003C38.1362 58.4865 38.2061 58.6494 38.3225 58.7658C38.4855 58.8822 38.6717 58.9287 38.9278 58.9287Z" fill="white"/>
<path d="M45.3306 56.2988C45.7729 56.2988 46.1455 56.4617 46.4714 56.8109C46.7741 57.1367 46.9371 57.5556 46.9371 58.0444C46.9371 58.5331 46.7741 58.952 46.4714 59.2779C46.1688 59.6037 45.7729 59.7899 45.3306 59.7899C44.8649 59.7899 44.5157 59.627 44.2596 59.3012V61.0002H43.4214V56.3919H44.2596V56.7876C44.5157 56.4617 44.8649 56.2988 45.3306 56.2988ZM44.5157 58.696C44.6787 58.859 44.9115 58.9521 45.1676 58.9521C45.4237 58.9521 45.6565 58.859 45.8195 58.696C45.9825 58.5331 46.0756 58.3004 46.0756 58.0211C46.0756 57.7418 45.9825 57.5323 45.8195 57.3462C45.6565 57.1832 45.4237 57.0901 45.1676 57.0901C44.9115 57.0901 44.6787 57.1832 44.5157 57.3462C44.3527 57.5091 44.2596 57.7418 44.2596 58.0211C44.2596 58.3004 44.3527 58.5331 44.5157 58.696Z" fill="white"/>
<path d="M47.9618 55.9959C47.8221 55.9959 47.7057 55.9493 47.5893 55.833C47.4961 55.7399 47.4263 55.6002 47.4263 55.4606C47.4263 55.321 47.4728 55.2046 47.5893 55.0882C47.6824 54.9718 47.8221 54.9253 47.9618 54.9253C48.1015 54.9253 48.2412 54.9718 48.3343 55.0882C48.4274 55.2046 48.4973 55.321 48.4973 55.4606C48.4973 55.6002 48.4507 55.7166 48.3343 55.833C48.2412 55.9261 48.1015 55.9959 47.9618 55.9959ZM47.5427 56.3916H48.3809V59.6732H47.5427V56.3916Z" fill="white"/>
<path d="M50.197 58.8819H51.6638V59.6732H49.0562V59.1146L50.4531 57.1829H49.126V56.3916H51.594V56.9502L50.197 58.8819Z" fill="white"/>
<path d="M53.2468 58.8819H54.7136V59.6732H52.106V59.1146L53.5029 57.1829H52.1758V56.3916H54.6438V56.9502L53.2468 58.8819Z" fill="white"/>
<path d="M57.6473 56.3918H58.4854V59.6734H57.6473V59.2777C57.3911 59.6035 57.0419 59.7665 56.5762 59.7665C56.1339 59.7665 55.7613 59.6035 55.4354 59.2544C55.1327 58.9286 54.9697 58.5097 54.9697 58.0209C54.9697 57.5322 55.1327 57.1132 55.4354 56.7874C55.7381 56.4616 56.1339 56.2754 56.5762 56.2754C57.0419 56.2754 57.3911 56.4383 57.6473 56.7641V56.3918ZM56.064 58.6959C56.227 58.8588 56.4598 58.9519 56.7159 58.9519C56.9721 58.9519 57.2049 58.8588 57.3679 58.6959C57.5308 58.5329 57.624 58.3002 57.624 58.0209C57.624 57.7416 57.5308 57.5322 57.3679 57.346C57.2049 57.1831 56.9721 57.09 56.7159 57.09C56.4598 57.09 56.227 57.1831 56.064 57.346C55.901 57.5089 55.8079 57.7416 55.8079 58.0209C55.8079 58.3002 55.901 58.5329 56.064 58.6959Z" fill="white"/>
<path d="M12.6181 56.5082H1V1H78.3456V56.5082H65.9126" stroke="white" stroke-miterlimit="10"/>
</svg>
