<svg width="30" height="30" viewBox="0 0 30 30" fill="none" xmlns="http://www.w3.org/2000/svg">
<g clip-path="url(#clip0)">
<path d="M14.5888 17.0154C19.2874 17.0154 23.0965 13.2064 23.0965 8.5077C23.0965 3.80903 19.2874 0 14.5888 0C9.89008 0 6.08105 3.80903 6.08105 8.5077C6.08105 13.2064 9.89008 17.0154 14.5888 17.0154Z" fill="url(#paint0_linear)"/>
<path d="M15.1891 5.97811C15.6168 5.97811 15.9636 5.63134 15.9636 5.20358C15.9636 4.77581 15.6168 4.42905 15.1891 4.42905C14.7613 4.42905 14.4146 4.77581 14.4146 5.20358C14.4146 5.63134 14.7613 5.97811 15.1891 5.97811Z" fill="url(#paint1_linear)"/>
<path d="M10.985 4.42906C11.4127 4.42906 11.7595 4.0823 11.7595 3.65453C11.7595 3.22677 11.4127 2.88 10.985 2.88C10.5572 2.88 10.2104 3.22677 10.2104 3.65453C10.2105 4.08236 10.5573 4.42906 10.985 4.42906Z" fill="url(#paint2_linear)"/>
<path d="M23.0575 7.69118C22.6469 3.3753 19.0122 0 14.5887 0C14.1893 0 13.7963 0.0276471 13.4116 0.0805883C15.5363 0.0805883 17.0825 1.23759 18.1715 2.61953C19.5624 4.38471 18.9859 7.01024 16.9786 8.02094C16.0598 8.48359 15.2477 9.12706 14.5887 9.90471C13.7433 8.90724 12.6457 8.13106 11.3945 7.67347C11.3742 6.87694 10.7226 6.23736 9.92117 6.23736C9.28058 6.23736 8.73564 6.64606 8.53229 7.21683C7.686 7.24412 6.87482 7.4093 6.11988 7.69118C6.094 7.96 6.08105 8.23236 6.08105 8.50765C6.08105 12.8071 9.26988 16.3612 13.4116 16.9347C13.7963 16.9877 14.1893 17.0153 14.5887 17.0153C19.2875 17.0153 23.0963 13.2065 23.0963 8.50765C23.0963 8.23236 23.0834 7.96 23.0575 7.69118Z" fill="url(#paint3_linear)"/>
<path d="M28.0318 5.13447C29.0921 6.19477 29.0921 7.91382 28.0318 8.97412L20.3704 16.6356L16.5308 12.7959L24.1922 5.13447C25.2525 4.07424 26.9716 4.07424 28.0318 5.13447Z" fill="url(#paint4_linear)"/>
<path d="M28.0319 5.13446C27.1941 4.29675 25.9454 4.12152 24.935 4.60758C25.2034 4.73669 25.4552 4.91193 25.6778 5.13446C26.7381 6.19475 26.7381 7.91381 25.6778 8.97411L19.1934 15.4585L20.3704 16.6356L28.0319 8.97411C29.0921 7.91381 29.0921 6.19475 28.0319 5.13446Z" fill="url(#paint5_linear)"/>
<path d="M8.78189 23.9025C12.9845 23.9025 16.3914 20.4956 16.3914 16.2929C16.3914 12.0903 12.9845 8.68341 8.78189 8.68341C4.57927 8.68341 1.17236 12.0903 1.17236 16.2929C1.17236 20.4956 4.57927 23.9025 8.78189 23.9025Z" fill="url(#paint6_linear)"/>
<path d="M10.2107 15.0668C10.2107 14.6391 9.86392 14.2923 9.43615 14.2923C9.00839 14.2923 8.66162 14.6391 8.66162 15.0668C8.66162 15.4946 9.00839 15.8414 9.43615 15.8414C9.86392 15.8413 10.2107 15.4946 10.2107 15.0668Z" fill="url(#paint7_linear)"/>
<path d="M5.23205 12.7433C4.80428 12.7433 4.45752 13.0901 4.45752 13.5178C4.45752 13.9456 4.80428 14.2924 5.23205 14.2924C5.65981 14.2924 6.00658 13.9456 6.00658 13.5178C6.00658 13.0901 5.65981 12.7433 5.23205 12.7433Z" fill="url(#paint8_linear)"/>
<path d="M4.16808 19.0491C4.98228 19.0491 5.64232 18.389 5.64232 17.5749C5.64232 16.7607 4.98228 16.1006 4.16808 16.1006C3.35388 16.1006 2.69385 16.7607 2.69385 17.5749C2.69385 18.389 3.35388 19.0491 4.16808 19.0491Z" fill="url(#paint9_linear)"/>
<path d="M13.8527 10.62C12.5068 9.41589 10.7298 8.68353 8.78155 8.68353C8.38096 8.68353 7.98802 8.71471 7.60449 8.77412C8.60461 8.9293 9.5402 9.27924 10.3714 9.78394C11.7113 10.5976 12.2861 12.2518 11.7577 13.7277C11.4708 14.5292 11.3145 15.3929 11.3145 16.2929C11.3145 17.193 11.4708 18.0567 11.7577 18.8582C12.2861 20.3341 11.7113 21.9883 10.3714 22.8019C9.5402 23.3067 8.60461 23.6566 7.60449 23.8118C7.98802 23.8712 8.38096 23.9024 8.78155 23.9024C10.7298 23.9024 12.5068 23.17 13.8527 21.9659C15.411 20.5729 16.391 18.5471 16.391 16.2929C16.391 14.0388 15.411 12.0129 13.8527 10.62Z" fill="url(#paint10_linear)"/>
<path d="M20.3957 23.9025C24.5983 23.9025 28.0052 20.4956 28.0052 16.2929C28.0052 12.0903 24.5983 8.68341 20.3957 8.68341C16.193 8.68341 12.7861 12.0903 12.7861 16.2929C12.7861 20.4956 16.193 23.9025 20.3957 23.9025Z" fill="url(#paint11_linear)"/>
<path d="M21.717 13.7237C21.717 13.2959 21.3703 12.9491 20.9425 12.9491C20.5147 12.9491 20.168 13.2959 20.168 13.7237C20.168 14.1514 20.5147 14.4982 20.9425 14.4982C21.3703 14.4982 21.717 14.1514 21.717 13.7237Z" fill="url(#paint12_linear)"/>
<path d="M19.8785 19.255C20.6927 19.255 21.3528 18.5949 21.3528 17.7807C21.3528 16.9665 20.6927 16.3065 19.8785 16.3065C19.0643 16.3065 18.4043 16.9665 18.4043 17.7807C18.4043 18.5949 19.0643 19.255 19.8785 19.255Z" fill="url(#paint13_linear)"/>
<path d="M20.3142 8.68383C19.942 8.68777 19.5763 8.7186 19.2188 8.77413C22.2917 9.2513 24.7565 11.5671 25.4533 14.5616C25.3435 14.5141 25.2207 14.4911 25.0915 14.5001C24.7016 14.5274 24.3862 14.8544 24.3726 15.2449C24.3572 15.6854 24.7096 16.0472 25.1466 16.0472C25.2042 16.0472 25.2603 16.0409 25.3143 16.029C25.4855 15.9912 25.6511 16.1134 25.6512 16.2887V16.2929C25.6512 20.0952 22.8625 23.2459 19.2188 23.8117C19.6024 23.8713 19.9955 23.9024 20.3958 23.9024C24.5985 23.9024 28.0053 20.4955 28.0053 16.2929C28.0053 12.1025 24.5043 8.63954 20.3142 8.68383Z" fill="url(#paint14_linear)"/>
<path d="M22.1561 30H7.0218C5.86256 30 4.83792 29.2158 4.49239 28.064L2.87574 22.6755C2.67468 22.0052 3.15574 21.3243 3.83039 21.3243H25.3476C26.0222 21.3243 26.5033 22.0052 26.3022 22.6755L24.6856 28.064C24.34 29.2158 23.3153 30 22.1561 30Z" fill="url(#paint15_linear)"/>
<path d="M26.3023 22.6753L24.6853 28.0641C24.34 29.2159 23.3153 30 22.1559 30H19.8018C20.9612 30 21.9859 29.2159 22.3312 28.0641L22.7681 26.6079C23.1938 25.1888 22.1312 23.7606 20.6496 23.7606H3.20129L2.87541 22.6753C2.83658 22.5453 2.82305 22.4147 2.83247 22.2894C2.86894 21.7665 3.28717 21.3241 3.83011 21.3241H25.3477C26.0218 21.3241 26.5029 22.0053 26.3023 22.6753Z" fill="url(#paint16_linear)"/>
<path d="M26.2011 20.8187H2.97651C2.57045 20.8187 2.24121 21.1479 2.24121 21.554C2.24121 21.96 2.57045 22.2893 2.97651 22.2893H26.2012C26.6072 22.2893 26.9365 21.96 26.9365 21.554C26.9365 21.1479 26.6072 20.8187 26.2011 20.8187Z" fill="url(#paint17_linear)"/>
</g>
<defs>
<linearGradient id="paint0_linear" x1="6.2447" y1="8.5077" x2="29.2358" y2="8.5077" gradientUnits="userSpaceOnUse">
<stop stop-color="#FFDCBD"/>
<stop offset="0.0028" stop-color="#FFDCBD"/>
<stop offset="1" stop-color="#FFA9B1"/>
</linearGradient>
<linearGradient id="paint1_linear" x1="2.88282" y1="5.20358" x2="23.1363" y2="5.20358" gradientUnits="userSpaceOnUse">
<stop stop-color="#FFDCBD"/>
<stop offset="0.0028" stop-color="#FFDCBD"/>
<stop offset="1" stop-color="#FFA9B1"/>
</linearGradient>
<linearGradient id="paint2_linear" x1="2.8828" y1="3.65459" x2="23.1363" y2="3.65459" gradientUnits="userSpaceOnUse">
<stop stop-color="#FFDCBD"/>
<stop offset="0.0028" stop-color="#FFDCBD"/>
<stop offset="1" stop-color="#FFA9B1"/>
</linearGradient>
<linearGradient id="paint3_linear" x1="2.88282" y1="8.50765" x2="23.1363" y2="8.50765" gradientUnits="userSpaceOnUse">
<stop stop-color="#FFDCBD"/>
<stop offset="0.0028" stop-color="#FFDCBD"/>
<stop offset="1" stop-color="#FFA9B1"/>
</linearGradient>
<linearGradient id="paint4_linear" x1="18.2436" y1="10.4874" x2="29.3081" y2="10.4874" gradientUnits="userSpaceOnUse">
<stop stop-color="#FEF056"/>
<stop offset="0.5213" stop-color="#F4D902"/>
<stop offset="1" stop-color="#FE9738"/>
</linearGradient>
<linearGradient id="paint5_linear" x1="15.1771" y1="10.4876" x2="28.9888" y2="10.4876" gradientUnits="userSpaceOnUse">
<stop stop-color="#FEF056"/>
<stop offset="0.5213" stop-color="#F4D902"/>
<stop offset="1" stop-color="#FE9738"/>
</linearGradient>
<linearGradient id="paint6_linear" x1="1.31872" y1="16.2929" x2="21.8826" y2="16.2929" gradientUnits="userSpaceOnUse">
<stop stop-color="#A2E62E"/>
<stop offset="0.5857" stop-color="#81B823"/>
<stop offset="1" stop-color="#037E73"/>
</linearGradient>
<linearGradient id="paint7_linear" x1="-2.5288" y1="15.0668" x2="17.9808" y2="15.0668" gradientUnits="userSpaceOnUse">
<stop stop-color="#A2E62E"/>
<stop offset="0.5857" stop-color="#81B823"/>
<stop offset="1" stop-color="#037E73"/>
</linearGradient>
<linearGradient id="paint8_linear" x1="-2.52883" y1="13.5178" x2="17.9807" y2="13.5178" gradientUnits="userSpaceOnUse">
<stop stop-color="#A2E62E"/>
<stop offset="0.5857" stop-color="#81B823"/>
<stop offset="1" stop-color="#037E73"/>
</linearGradient>
<linearGradient id="paint9_linear" x1="-2.52897" y1="17.5749" x2="17.9805" y2="17.5749" gradientUnits="userSpaceOnUse">
<stop stop-color="#A2E62E"/>
<stop offset="0.5857" stop-color="#81B823"/>
<stop offset="1" stop-color="#037E73"/>
</linearGradient>
<linearGradient id="paint10_linear" x1="-2.52904" y1="16.2929" x2="17.9805" y2="16.2929" gradientUnits="userSpaceOnUse">
<stop stop-color="#A2E62E"/>
<stop offset="0.5857" stop-color="#81B823"/>
<stop offset="1" stop-color="#037E73"/>
</linearGradient>
<linearGradient id="paint11_linear" x1="12.9325" y1="16.2929" x2="33.4964" y2="16.2929" gradientUnits="userSpaceOnUse">
<stop stop-color="#FBC56D"/>
<stop offset="0.593" stop-color="#C86D36"/>
<stop offset="1" stop-color="#904D24"/>
</linearGradient>
<linearGradient id="paint12_linear" x1="8.88303" y1="13.7237" x2="30.2856" y2="13.7237" gradientUnits="userSpaceOnUse">
<stop stop-color="#FBC56D"/>
<stop offset="0.593" stop-color="#C86D36"/>
<stop offset="1" stop-color="#904D24"/>
</linearGradient>
<linearGradient id="paint13_linear" x1="8.88287" y1="17.7807" x2="30.2855" y2="17.7807" gradientUnits="userSpaceOnUse">
<stop stop-color="#FBC56D"/>
<stop offset="0.593" stop-color="#C86D36"/>
<stop offset="1" stop-color="#904D24"/>
</linearGradient>
<linearGradient id="paint14_linear" x1="8.88304" y1="16.2929" x2="30.2856" y2="16.2929" gradientUnits="userSpaceOnUse">
<stop stop-color="#FBC56D"/>
<stop offset="0.593" stop-color="#C86D36"/>
<stop offset="1" stop-color="#904D24"/>
</linearGradient>
<linearGradient id="paint15_linear" x1="2.67421" y1="25.6621" x2="29.661" y2="25.6621" gradientUnits="userSpaceOnUse">
<stop stop-color="#FE646F"/>
<stop offset="0.593" stop-color="#FB2B3A"/>
<stop offset="1" stop-color="#C41926"/>
</linearGradient>
<linearGradient id="paint16_linear" x1="-5.762" y1="25.662" x2="26.3763" y2="25.662" gradientUnits="userSpaceOnUse">
<stop stop-color="#FE646F"/>
<stop offset="0.593" stop-color="#FB2B3A"/>
<stop offset="1" stop-color="#C41926"/>
</linearGradient>
<linearGradient id="paint17_linear" x1="3.35274" y1="21.554" x2="24.0862" y2="21.554" gradientUnits="userSpaceOnUse">
<stop stop-color="#F8F6F7"/>
<stop offset="0.1788" stop-color="#F8F6F7"/>
<stop offset="1" stop-color="#E7E6F5"/>
</linearGradient>
<clipPath id="clip0">
<rect width="30" height="30" fill="white"/>
</clipPath>
</defs>
</svg>
