<svg width="19" height="33" viewBox="0 0 19 33" fill="none" xmlns="http://www.w3.org/2000/svg">
<g clip-path="url(#clip0)">
<path d="M7.9374 2.26274e-07C7.08477 -0.000452715 6.39322 0.679153 6.39276 1.51794L6.39092 4.91914C6.39072 5.31921 6.36533 5.7167 6.31738 6.10914L12.6644 6.11167C12.6169 5.71922 12.592 5.32167 12.5922 4.92159L12.594 1.52039C12.5945 0.681612 11.9036 0.00129434 11.051 0.000841403L7.9374 2.26274e-07Z" fill="url(#paint0_linear)"/>
<path d="M13.0975 8.9549L13.1002 4.03499L5.87503 4.03201L5.87233 8.95193C5.87141 10.6556 5.33325 12.3171 4.33203 13.7072C3.33082 15.0974 2.79266 16.7588 2.79173 18.4625L2.78516 30.5929C2.78443 31.9196 3.87707 32.9957 5.22571 32.9964L13.7181 33C15.0666 33.0007 16.1605 31.9258 16.1612 30.5991L16.1678 18.4687C16.1687 16.765 15.6323 15.1029 14.6326 13.7118C13.633 12.3206 13.0966 10.6586 13.0975 8.9549Z" fill="url(#paint1_linear)"/>
<path d="M5.87506 4.03214L5.87237 8.95205C5.87217 9.35212 5.84119 9.74961 5.78271 10.142L13.1859 10.145C13.1279 9.75259 13.0973 9.35503 13.0975 8.95496L13.1002 4.03505L5.87506 4.03214Z" fill="url(#paint2_linear)"/>
<path d="M13.186 10.1452L11.3693 10.1446L5.87451 4.73907L5.87517 4.03183L13.0998 4.03507L13.0972 8.95465C13.0972 9.35518 13.1274 9.75248 13.186 10.1452Z" fill="url(#paint3_linear)"/>
<path d="M12.4943 4.89228L6.47998 4.88995C5.79145 4.88956 5.23356 4.34021 5.23389 3.6628C5.23428 2.98546 5.7927 2.43663 6.48129 2.43695L12.4956 2.43928C13.1841 2.43967 13.742 2.98902 13.7417 3.66643C13.7413 4.34383 13.1828 4.89267 12.4943 4.89228Z" fill="url(#paint4_linear)"/>
<path d="M16.1612 30.5991L16.1657 22.2618L2.7897 22.2556L2.78516 30.5929C2.78443 31.9196 3.87714 32.9956 5.22571 32.9963L13.7181 33C15.0666 33.0008 16.1605 31.9258 16.1612 30.5991Z" fill="url(#paint5_linear)"/>
<path d="M5.22564 32.9964L13.718 33C15.0666 33.0007 16.1605 31.9258 16.1611 30.5991L16.1613 30.3327L4.74141 19.0983C4.41458 18.7426 4.02914 18.4399 3.59997 18.2054C3.35174 18.0697 3.0889 17.9571 2.81449 17.8699C2.79995 18.0666 2.7918 18.2642 2.79173 18.4626L2.78516 30.593C2.78443 31.9196 3.87707 32.9957 5.22564 32.9964Z" fill="url(#paint6_linear)"/>
<path d="M15.1849 20.9135C14.6837 20.4204 13.8712 20.4204 13.37 20.9135L8.66789 25.5393C8.16669 26.0323 8.16669 26.8317 8.66789 27.3247L14.3532 32.9177C15.3938 32.643 16.1604 31.7095 16.161 30.5991L16.1658 21.8784L15.1849 20.9135Z" fill="url(#paint7_linear)"/>
<path d="M15.0858 20.8161L10.3837 16.1903C9.88246 15.6973 9.06995 15.6973 8.56875 16.1903L3.86662 20.8161C3.36542 21.3092 3.36542 22.1085 3.86662 22.6015L8.56875 27.2273C9.06995 27.7203 9.88246 27.7203 10.3837 27.2273L15.0858 22.6015C15.587 22.1085 15.587 21.3092 15.0858 20.8161Z" fill="url(#paint8_linear)"/>
<path d="M5.17704 19.5269L3.86662 20.816C3.36542 21.3091 3.36542 22.1085 3.86662 22.6014L8.56875 27.2272C9.06995 27.7203 9.88246 27.7203 10.3837 27.2272L11.6941 25.9381L5.17704 19.5269Z" fill="url(#paint9_linear)"/>
<path d="M11.7106 23.4039L9.77568 25.3075C9.61058 25.4699 9.34203 25.4699 9.17694 25.3075L7.24199 23.4039C7.04934 23.2144 6.73698 23.2144 6.54439 23.4039C6.35174 23.5935 6.35174 23.9008 6.54439 24.0902L8.47934 25.9937C8.75427 26.2642 9.11517 26.3994 9.47634 26.3994C9.83737 26.3994 10.1985 26.2641 10.4733 25.9937L12.4083 24.0902C12.6009 23.9007 12.6009 23.5934 12.4083 23.4039C12.2156 23.2144 11.9033 23.2144 11.7106 23.4039Z" fill="url(#paint10_linear)"/>
<path d="M10.4733 25.9937L11.1119 25.3654L10.4143 24.6791L9.77568 25.3074C9.61058 25.4698 9.34203 25.4698 9.17694 25.3074L7.24199 23.4039C7.04934 23.2144 6.73698 23.2144 6.54439 23.4039C6.35174 23.5934 6.35174 23.9007 6.54439 24.0902L8.47934 25.9937C8.75427 26.2642 9.11517 26.3993 9.47634 26.3993C9.83731 26.3993 10.1984 26.2641 10.4733 25.9937Z" fill="url(#paint11_linear)"/>
<path d="M7.24199 21.0137L9.17694 19.1102C9.34203 18.9478 9.61059 18.9478 9.77568 19.1102L11.7106 21.0137C11.8069 21.1084 11.9332 21.1559 12.0594 21.1559C12.1856 21.1559 12.3119 21.1085 12.4082 21.0137C12.6009 20.8242 12.6009 20.5169 12.4082 20.3274L10.4733 18.4239C9.92354 17.8831 9.02901 17.8831 8.47934 18.4239L6.54439 20.3274C6.35174 20.5169 6.35174 20.8242 6.54439 21.0137C6.73698 21.2032 7.04941 21.2032 7.24199 21.0137Z" fill="url(#paint12_linear)"/>
<path d="M12.6804 24L6.31818 23.9962C5.58982 23.9956 4.99965 23.1006 5 21.997C5.00042 20.8936 5.59114 19.9995 6.31957 20L12.6818 20.0038C13.4102 20.0044 14.0003 20.8994 14 22.003C13.9996 23.1064 13.4088 24.0005 12.6804 24Z" fill="url(#paint13_linear)"/>
<path d="M6.12235 20C5.47949 20.2113 5.00039 21.0119 5 21.97C4.99954 23.0897 5.65225 23.998 6.45779 23.9986L9 24L6.12235 20Z" fill="url(#paint14_linear)"/>
<path d="M7.56136 21C7.72816 21 7.86798 21.0824 7.98083 21.2472L7.98954 21.2806V21.3166C7.98954 21.3825 7.94764 21.4231 7.86383 21.4382C7.82566 21.4382 7.77379 21.399 7.70824 21.3206C7.6626 21.2895 7.61862 21.2739 7.5763 21.2739H7.54767C7.45805 21.2739 7.39001 21.326 7.34354 21.4302C7.33358 21.4534 7.3286 21.4765 7.3286 21.4997V21.5411C7.3286 21.6515 7.39084 21.7317 7.51531 21.7816C7.62401 21.7816 7.74309 21.8377 7.87254 21.9499C7.99784 22.0862 8.06049 22.2358 8.06049 22.3988C8.06049 22.5992 7.98042 22.7631 7.82026 22.8904C7.72235 22.9635 7.61406 23 7.49539 23C7.30288 23 7.14231 22.9092 7.01369 22.7275L7 22.67C7.01577 22.5783 7.05892 22.5324 7.12945 22.5324C7.17426 22.5324 7.22529 22.5716 7.28255 22.65C7.35142 22.7007 7.41449 22.7261 7.47175 22.7261H7.51407C7.62526 22.7261 7.71529 22.658 7.78417 22.5217C7.79495 22.4781 7.80035 22.4456 7.80035 22.4242V22.3734C7.80035 22.255 7.73645 22.1583 7.60866 22.0835L7.36594 22.0114C7.17011 21.8902 7.07219 21.7317 7.07219 21.5357V21.4997C7.07219 21.3055 7.16804 21.1541 7.35972 21.0454C7.43191 21.0151 7.49913 21 7.56136 21Z" fill="white"/>
<path d="M9.35997 21.0027C9.67364 21.0027 9.93586 21.1585 10.1466 21.4703C10.2421 21.6475 10.2898 21.8261 10.2898 22.006C10.2898 22.3391 10.1495 22.6161 9.86906 22.837C9.70973 22.9457 9.54294 23 9.36868 23H9.35001C9.02971 23 8.76873 22.8406 8.56709 22.5217C8.47498 22.3596 8.42893 22.1846 8.42893 21.9967C8.42893 21.6778 8.55921 21.4097 8.81977 21.1924C8.98988 21.0659 9.16994 21.0027 9.35997 21.0027ZM8.68658 22.0114C8.68658 22.242 8.78201 22.4367 8.97287 22.5952C9.0907 22.6807 9.21641 22.7234 9.35001 22.7234H9.37366C9.5836 22.7234 9.7616 22.6228 9.90764 22.4215C9.99062 22.2933 10.0321 22.153 10.0321 22.0007C10.0321 21.7397 9.9205 21.5331 9.69729 21.3808C9.58775 21.3131 9.47531 21.2792 9.35997 21.2792C9.13758 21.2792 8.95295 21.3834 8.80607 21.5919C8.72641 21.7148 8.68658 21.8546 8.68658 22.0114Z" fill="white"/>
<path d="M11.3266 21.7615C11.6195 21.2886 11.7739 21.0459 11.7896 21.0334C11.8129 21.0147 11.8345 21.0053 11.8544 21.0053H11.883C11.9403 21.0053 11.9793 21.049 12 21.1363C12 21.1772 11.944 21.2797 11.832 21.4436L11.4573 22.0448V22.8517C11.4465 22.9506 11.4075 23 11.3403 23H11.3204C11.2606 23 11.22 22.9617 11.1984 22.8851V22.0488C11.1984 22.0443 11.1345 21.9401 11.0067 21.7361L10.6669 21.187L10.6594 21.1403C10.6785 21.0503 10.7179 21.0053 10.7777 21.0053H10.7976C10.8549 21.0053 10.8984 21.0445 10.9283 21.1229L11.3266 21.7615Z" fill="white"/>
</g>
<defs>
<linearGradient id="paint0_linear" x1="9.69723" y1="0.415289" x2="9.59714" y2="2.44007" gradientUnits="userSpaceOnUse">
<stop stop-color="#C41926"/>
<stop offset="0.207" stop-color="#C41926"/>
<stop offset="0.5288" stop-color="#E31E24"/>
<stop offset="0.9233" stop-color="#E31E24"/>
<stop offset="1" stop-color="#E31E24"/>
</linearGradient>
<linearGradient id="paint1_linear" x1="6.06433" y1="18.516" x2="15.4487" y2="16.5023" gradientUnits="userSpaceOnUse">
<stop stop-color="#1D0103"/>
<stop offset="0.711176" stop-color="#260300"/>
<stop offset="1" stop-color="#4A0E00"/>
</linearGradient>
<linearGradient id="paint2_linear" x1="6.26168" y1="7.08858" x2="12.3807" y2="7.08858" gradientUnits="userSpaceOnUse">
<stop stop-color="#EDF5FF"/>
<stop offset="1" stop-color="#C7E9FF"/>
</linearGradient>
<linearGradient id="paint3_linear" x1="9.53024" y1="7.54911" x2="9.53024" y2="3.66424" gradientUnits="userSpaceOnUse">
<stop stop-color="#9AC0E7" stop-opacity="0"/>
<stop offset="1" stop-color="#9DC1E7"/>
</linearGradient>
<linearGradient id="paint4_linear" x1="7.55573" y1="1.86466" x2="11.1152" y2="5.49019" gradientUnits="userSpaceOnUse">
<stop stop-color="#1D0002"/>
<stop offset="1" stop-color="#2D0800"/>
</linearGradient>
<linearGradient id="paint5_linear" x1="9.47544" y1="28.0824" x2="9.47544" y2="32.0342" gradientUnits="userSpaceOnUse">
<stop stop-color="#F82814" stop-opacity="0"/>
<stop offset="1" stop-color="#C0272D"/>
</linearGradient>
<linearGradient id="paint6_linear" x1="14.0619" y1="29.1333" x2="4.05982" y2="25.4039" gradientUnits="userSpaceOnUse">
<stop stop-color="#3A0A01"/>
<stop offset="1" stop-color="#320900"/>
</linearGradient>
<linearGradient id="paint7_linear" x1="18.8491" y1="30.9294" x2="11.7856" y2="23.7492" gradientUnits="userSpaceOnUse">
<stop stop-color="#270401"/>
<stop offset="1" stop-color="#490E01"/>
</linearGradient>
<linearGradient id="paint8_linear" x1="6.56573" y1="18.8456" x2="11.516" y2="23.8776" gradientUnits="userSpaceOnUse">
<stop stop-color="#EDF5FF"/>
<stop offset="1" stop-color="#C7E9FF"/>
</linearGradient>
<linearGradient id="paint9_linear" x1="13.345" y1="29.744" x2="2.76797" y2="18.9924" gradientUnits="userSpaceOnUse">
<stop stop-color="white" stop-opacity="0"/>
<stop offset="0.3432" stop-color="#CDE0F3" stop-opacity="0.343"/>
<stop offset="0.7872" stop-color="#92BAE4" stop-opacity="0.787"/>
<stop offset="1" stop-color="#7BACDF"/>
</linearGradient>
<linearGradient id="paint10_linear" x1="4.89399" y1="19.2392" x2="11.4052" y2="25.8579" gradientUnits="userSpaceOnUse">
<stop stop-color="#FEF056"/>
<stop offset="1" stop-color="#FBC56D"/>
</linearGradient>
<linearGradient id="paint11_linear" x1="14.6392" y1="30.4445" x2="4.80181" y2="20.4447" gradientUnits="userSpaceOnUse">
<stop stop-color="#FBC56D"/>
<stop offset="1" stop-color="#E9B054"/>
</linearGradient>
<linearGradient id="paint12_linear" x1="6.96594" y1="18.2009" x2="13.4771" y2="24.8196" gradientUnits="userSpaceOnUse">
<stop stop-color="#FEF056"/>
<stop offset="1" stop-color="#FE9738"/>
</linearGradient>
<linearGradient id="paint13_linear" x1="7.44705" y1="19.0677" x2="12.7842" y2="22.5976" gradientUnits="userSpaceOnUse">
<stop stop-color="#22B27F"/>
<stop offset="1" stop-color="#017B4E"/>
</linearGradient>
<linearGradient id="paint14_linear" x1="11.3207" y1="29.4111" x2="0.948447" y2="21.949" gradientUnits="userSpaceOnUse">
<stop stop-color="#017B4E" stop-opacity="0"/>
<stop offset="1" stop-color="#026841"/>
</linearGradient>
<clipPath id="clip0">
<rect width="19" height="33" fill="white"/>
</clipPath>
</defs>
</svg>
