<svg width="58" height="59" fill="none" xmlns="http://www.w3.org/2000/svg"><g clip-path="url(#clip0)"><path d="M29 58.6c16.016 0 29-12.983 29-29 0-16.016-12.984-29-29-29S0 13.585 0 29.6c0 16.017 12.984 29 29 29z" fill="url(#paint0_linear)"/><path d="M29 57.66c15.497 0 28.06-12.562 28.06-28.06C57.06 14.104 44.497 1.54 29 1.54 13.503 1.54.94 14.105.94 29.6.94 45.099 13.503 57.66 29 57.66z" fill="url(#paint1_linear)"/><path d="M29 54.907c13.976 0 25.306-11.33 25.306-25.306S42.976 4.295 29 4.295c-13.977 0-25.307 11.33-25.307 25.306S15.023 54.907 29 54.907z" fill="url(#paint2_linear)"/><path d="M29 54.907c13.976 0 25.306-11.33 25.306-25.306S42.976 4.295 29 4.295c-13.977 0-25.307 11.33-25.307 25.306S15.023 54.907 29 54.907z" fill="url(#paint3_radial)"/><path d="M54.02 33.422l-8.46-8.39-2.399.59-12.266-12.16a1.234 1.234 0 00-.596-.596 1.231 1.231 0 00-1.116-.712h-.366c-.68 0-1.232.551-1.232 1.232v14.356a2.332 2.332 0 00-.823 2.537l-7.973 7.973a1.232 1.232 0 000 1.742l14.559 14.54c10.666-1.847 19.044-10.371 20.671-21.111z" fill="url(#paint4_linear)"/><path d="M54.019 33.422c-1.627 10.742-10.005 19.264-20.671 21.11L19.066 40.27c.481.464 1.25.457 1.725-.017l8.318-8.32a2.334 2.334 0 002.229-2.32l14.471-3.563a.523.523 0 00.385-.389l7.825 7.76z" fill="url(#paint5_linear)"/><path d="M29.183 29.6h-.365c-.68 0-1.232-.55-1.232-1.231V13.386c0-.68.551-1.232 1.232-1.232h.365c.68 0 1.232.551 1.232 1.232v14.983c0 .68-.551 1.232-1.232 1.232z" fill="url(#paint6_linear)"/><path d="M29.183 29.6l.258.26a1.232 1.232 0 010 1.741l-8.65 8.651a1.232 1.232 0 01-1.743 0l-.258-.258a1.232 1.232 0 010-1.742l8.65-8.651a1.232 1.232 0 011.743 0z" fill="url(#paint7_linear)"/><path d="M46.193 25.415a.524.524 0 01-.383.634l-16.548 4.076a.524.524 0 01-.25-1.018l16.547-4.075c.28-.07.565.102.634.383z" fill="url(#paint8_linear)"/><path d="M29 31.939a2.338 2.338 0 100-4.677 2.338 2.338 0 000 4.677z" fill="url(#paint9_linear)"/><path d="M29.09 10.66h-.18a1.324 1.324 0 01-1.324-1.324V7.688c0-.731.593-1.324 1.324-1.324h.18c.732 0 1.325.593 1.325 1.324v1.648c0 .731-.593 1.324-1.324 1.324z" fill="url(#paint10_linear)"/><path d="M29.09 52.837h-.18a1.324 1.324 0 01-1.324-1.324v-1.648c0-.731.593-1.324 1.324-1.324h.18c.732 0 1.325.593 1.325 1.325v1.647c0 .731-.593 1.324-1.324 1.324z" fill="url(#paint11_linear)"/><path d="M47.94 29.69v-.18c0-.731.593-1.324 1.325-1.324h1.647c.732 0 1.325.593 1.325 1.324v.18c0 .732-.593 1.325-1.325 1.325h-1.647a1.324 1.324 0 01-1.325-1.324z" fill="url(#paint12_linear)"/><path d="M5.764 29.69v-.18c0-.731.593-1.324 1.324-1.324h1.647c.732 0 1.325.593 1.325 1.324v.18c0 .732-.593 1.325-1.325 1.325H7.088a1.325 1.325 0 01-1.324-1.324z" fill="url(#paint13_linear)"/></g><defs><linearGradient id="paint0_linear" x1="29.001" y1="71.384" x2="29.001" y2="-2.145" gradientUnits="userSpaceOnUse"><stop stop-color="#fff"/><stop offset="1" stop-color="#E8EFEE"/></linearGradient><linearGradient id="paint1_linear" x1="29.001" y1="-10.831" x2="29.001" y2="60.315" gradientUnits="userSpaceOnUse"><stop stop-color="#fff"/><stop offset="1" stop-color="#E8EFEE"/></linearGradient><linearGradient id="paint2_linear" x1="15.255" y1="15.854" x2="41.41" y2="42.01" gradientUnits="userSpaceOnUse"><stop stop-color="#1ACEB8"/><stop offset="1" stop-color="#0BBFBA"/></linearGradient><linearGradient id="paint4_linear" x1="32.66" y1="32.962" x2="20.172" y2="20.476" gradientUnits="userSpaceOnUse"><stop offset="0" stop-color="#1ACEB8" stop-opacity="0"/><stop offset="1" stop-color="#04959C"/></linearGradient><linearGradient id="paint5_linear" x1="44.35" y1="47.238" x2="26.64" y2="23.66" gradientUnits="userSpaceOnUse"><stop offset="0" stop-color="#1ACEB8" stop-opacity="0"/><stop offset="1" stop-color="#04959C"/></linearGradient><linearGradient id="paint6_linear" x1="29.002" y1="5.629" x2="29.002" y2="31.088" gradientUnits="userSpaceOnUse"><stop stop-color="#fff"/><stop offset="1" stop-color="#E8EFEE"/></linearGradient><linearGradient id="paint7_linear" x1="26.549" y1="32.493" x2="18.055" y2="40.986" gradientUnits="userSpaceOnUse"><stop stop-color="#fff"/><stop offset="1" stop-color="#E8EFEE"/></linearGradient><linearGradient id="paint8_linear" x1="28.59" y1="29.676" x2="49.368" y2="24.733" gradientUnits="userSpaceOnUse"><stop stop-color="#D63305"/><stop offset=".366" stop-color="#CF3004"/><stop offset=".899" stop-color="#BC2602"/><stop offset="1" stop-color="#B72401"/></linearGradient><linearGradient id="paint9_linear" x1="29" y1="34.473" x2="29" y2="27.092" gradientUnits="userSpaceOnUse"><stop stop-color="#97AAAA"/><stop offset="1" stop-color="#E8EFEE"/></linearGradient><linearGradient id="paint10_linear" x1="29.002" y1="4.756" x2="29.002" y2="11.026" gradientUnits="userSpaceOnUse"><stop stop-color="#fff"/><stop offset="1" stop-color="#E8EFEE"/></linearGradient><linearGradient id="paint11_linear" x1="29.002" y1="46.935" x2="29.002" y2="53.204" gradientUnits="userSpaceOnUse"><stop stop-color="#fff"/><stop offset="1" stop-color="#E8EFEE"/></linearGradient><linearGradient id="paint12_linear" x1="53.655" y1="71.4" x2="47.384" y2="-2.129" gradientUnits="userSpaceOnUse"><stop stop-color="#fff"/><stop offset="1" stop-color="#E8EFEE"/></linearGradient><linearGradient id="paint13_linear" x1="11.476" y1="71.4" x2="5.207" y2="-2.129" gradientUnits="userSpaceOnUse"><stop stop-color="#fff"/><stop offset="1" stop-color="#E8EFEE"/></linearGradient><radialGradient id="paint3_radial" cx="0" cy="0" r="1" gradientUnits="userSpaceOnUse" gradientTransform="translate(30.704 31.815) scale(27.3225)"><stop offset="0" stop-color="#1ACEB8" stop-opacity="0"/><stop offset=".504" stop-color="#19CCB7" stop-opacity=".503"/><stop offset=".685" stop-color="#17C5B4" stop-opacity=".685"/><stop offset=".814" stop-color="#12BAAE" stop-opacity=".814"/><stop offset=".918" stop-color="#0CA9A6" stop-opacity=".918"/><stop offset="1" stop-color="#04959C"/></radialGradient><clipPath id="clip0"><path fill="#fff" transform="translate(0 .6)" d="M0 0h58v58H0z"/></clipPath></defs></svg>