<svg width="56" height="57" fill="none" xmlns="http://www.w3.org/2000/svg"><path d="M31.48.6h-6.96v56h6.961C45.021 56.6 56 44.065 56 28.6 56 13.138 45.02.6 31.48.6z" fill="url(#paint0_linear)"/><path d="M50.296 46.554C45.8 52.694 39.038 56.6 31.48 56.6h-6.96V46.554h25.777z" fill="url(#paint1_linear)"/><path d="M55.008 36.508c-.96 3.73-2.583 7.14-4.712 10.046H24.52V36.508h30.489z" fill="url(#paint2_linear)"/><path d="M56 28.6c0 2.747-.346 5.4-.992 7.908h-30.49V26.46H55.93c.046.706.07 1.42.07 2.14z" fill="url(#paint3_linear)"/><path d="M55.93 26.46H24.518V16.415h29.043a30.98 30.98 0 012.367 10.046z" fill="url(#paint4_linear)"/><path d="M53.562 16.415H24.519V6.368h21.867c3.027 2.65 5.497 6.088 7.176 10.047z" fill="url(#paint5_linear)"/><path d="M24.52 56.6c13.542 0 24.52-12.535 24.52-28 0-15.463-10.978-28-24.52-28S0 13.138 0 28.6c0 15.465 10.978 28 24.52 28z" fill="url(#paint6_linear)"/><path d="M24.52 50.277c10.483 0 18.982-9.705 18.982-21.676 0-11.972-8.499-21.677-18.983-21.677-10.483 0-18.982 9.705-18.982 21.677 0 11.971 8.499 21.676 18.983 21.676z" fill="url(#paint7_linear)"/><path d="M.054 30.373C.855 45.01 11.499 56.6 24.519 56.6s23.665-11.59 24.466-26.227H.054z" fill="url(#paint8_linear)"/><path d="M48.574 34.047A10553.575 10553.575 0 0038.062 23.39a.82.82 0 00-.564-.224h-.977l-.022-.018-3.828-3.829c-1.595-1.883-4.097-2.665-6.953-2.665h-7.7c-1.301 0-2.157.818-2.157 1.748v4.765h-3.123a.824.824 0 00-.6 1.386l1.628 1.62h-1.028a.824.824 0 00-.619 1.366l3.742 3.71v10.81c0 .588.355 1.03.89 1.328l12.657 12.658c9.66-2.232 17.258-10.947 19.166-21.996z" fill="url(#paint9_linear)"/><path d="M37.388 26.061h-3.026c.014-.253.024-.51.024-.777v-.186c0-.134-.004-.264-.008-.395h3.01a.824.824 0 000-1.648h-3.16c-.769-4.715-4.288-6.512-8.62-6.512h-7.7c-1.302 0-2.157.818-2.157 1.748v4.765h-3.124a.824.824 0 000 1.647h3.124v1.358h-3.124a.824.824 0 000 1.648h3.124v14.238c0 1.19 1.45 1.786 2.901 1.786 1.45 0 2.901-.595 2.901-1.785v-8.035h3.683c4.406 0 7.987-1.756 8.914-6.204h3.238a.824.824 0 000-1.648zm-15.834-4.46h3.682c1.312 0 2.299.473 2.85 1.454h-6.533v-1.453zm0 3.102h7.001a6.7 6.7 0 01.028.618v.41c0 .113-.003.222-.008.33h-7.021v-1.358zm3.682 4.747h-3.683v-1.742h6.676c-.513 1.177-1.559 1.742-2.993 1.742z" fill="url(#paint10_linear)"/><defs><linearGradient id="paint0_linear" x1="40.259" y1="-6.24" x2="40.259" y2="40.169" gradientUnits="userSpaceOnUse"><stop stop-color="#FFE177"/><stop offset="1" stop-color="#FE9738"/></linearGradient><linearGradient id="paint1_linear" x1="37.407" y1="37.275" x2="37.407" y2="50.27" gradientUnits="userSpaceOnUse"><stop stop-color="#FE9738" stop-opacity="0"/><stop offset="1" stop-color="#FE7701"/></linearGradient><linearGradient id="paint2_linear" x1="39.763" y1="35.281" x2="39.763" y2="45.735" gradientUnits="userSpaceOnUse"><stop stop-color="#FE9738" stop-opacity="0"/><stop offset="1" stop-color="#FE7701"/></linearGradient><linearGradient id="paint3_linear" x1="40.259" y1="25.233" x2="40.259" y2="36.836" gradientUnits="userSpaceOnUse"><stop stop-color="#FE9738" stop-opacity="0"/><stop offset="1" stop-color="#FE7701"/></linearGradient><linearGradient id="paint4_linear" x1="40.224" y1="15.187" x2="40.224" y2="28.99" gradientUnits="userSpaceOnUse"><stop stop-color="#FE9738" stop-opacity="0"/><stop offset="1" stop-color="#FE7701"/></linearGradient><linearGradient id="paint5_linear" x1="39.04" y1="6.129" x2="39.04" y2="22.243" gradientUnits="userSpaceOnUse"><stop stop-color="#FE9738" stop-opacity="0"/><stop offset="1" stop-color="#FE7701"/></linearGradient><linearGradient id="paint6_linear" x1="13.11" y1="17.191" x2="36.389" y2="40.47" gradientUnits="userSpaceOnUse"><stop stop-color="#FFE177"/><stop offset="1" stop-color="#FE9738"/></linearGradient><linearGradient id="paint7_linear" x1="39.617" y1="43.698" x2="9.296" y2="13.377" gradientUnits="userSpaceOnUse"><stop stop-color="#FFE177"/><stop offset="1" stop-color="#FE9738"/></linearGradient><linearGradient id="paint8_linear" x1="24.519" y1="36.398" x2="24.519" y2="53.242" gradientUnits="userSpaceOnUse"><stop stop-color="#FE9738" stop-opacity="0"/><stop offset="1" stop-color="#FE7701"/></linearGradient><linearGradient id="paint9_linear" x1="39.92" y1="45.962" x2="23.376" y2="29.419" gradientUnits="userSpaceOnUse"><stop stop-color="#FE9738" stop-opacity="0"/><stop offset="1" stop-color="#FE7701"/></linearGradient><linearGradient id="paint10_linear" x1="11.828" y1="17.87" x2="29.627" y2="35.67" gradientUnits="userSpaceOnUse"><stop stop-color="#FFE177"/><stop offset="1" stop-color="#FE9738"/></linearGradient></defs></svg>