<svg width="465" height="185" fill="none" xmlns="http://www.w3.org/2000/svg"><path opacity=".304" d="M257.213-109.018c39.413 10.56 70.051 29.373 91.371 55.7 21.32 26.328 33.35 60.208 35.486 100.955 1.065 20.323-4.146 32.027-13.596 38.725-9.505 6.736-23.415 8.505-39.988 8.63-7.6.058-15.732-.228-24.225-.528l-2.268-.08c-9.311-.325-19.026-.63-28.901-.486-19.748.29-40.165 2.383-59.33 9.74-19.134 7.345-39.656 19.226-60.455 31.9-4.26 2.596-8.532 5.225-12.806 7.855-16.608 10.222-33.254 20.467-49.41 28.879-20.318 10.58-39.798 18.225-57.38 19.285-17.543 1.058-33.203-4.438-45.959-20.19-12.781-15.784-17.01-32.358-15.484-49.422 1.528-17.085 8.826-34.687 19.148-52.492 10.32-17.803 23.64-35.77 37.178-53.59a5673.37 5673.37 0 015.26-6.909c11.788-15.467 23.466-30.79 33.17-45.733 22.223-34.22 49.582-57.546 81.209-69.687 31.628-12.14 67.567-13.113 106.98-2.552z" stroke="#B1B1B1" stroke-opacity=".43"/><path opacity=".304" d="M256.82-108.606c39.423 10.564 61.964 23.211 75.256 43.197 13.328 20.038 17.49 47.631 19.631 88.481 1.065 20.317-2.248 32.937-8.782 41.007-6.528 8.065-16.438 11.795-29.094 13.933-7.758 1.31-16.409 2.005-25.831 2.763-6.008.483-12.33.991-18.932 1.7-16.883 1.813-35.407 4.928-54.607 12.298-18.457 7.085-37.822 16.808-57.255 26.565l-2.164 1.087c-20.181 10.129-40.407 20.195-59.844 27.361-19.443 7.169-38.001 11.4-54.85 9.937-16.799-1.459-31.951-8.583-44.642-24.254-12.745-15.739-17.252-29.98-16.284-43.532.971-13.59 7.459-26.647 17.024-39.98C4.68 40.484 15.124 28.89 26.17 16.633c1.793-1.99 3.602-3.997 5.419-6.024C44.582-3.884 57.999-19.36 69.18-36.577c22.177-34.15 49.458-57.396 80.969-69.492 31.511-12.097 67.34-13.075 106.671-2.537z" stroke="#B1B1B1" stroke-opacity=".43" stroke-width="2"/><path opacity=".304" d="M284.216-126.776c39.166 10.495 71.744 40.637 95.084 78.432 23.336 37.787 37.365 83.114 39.496 123.774.529 10.093-.973 17.612-4.056 23.154-3.071 5.521-7.764 9.175-13.815 11.454-12.2 4.596-29.776 3.559-50.15.831-6.795-.909-13.894-2.006-21.181-3.132-14.441-2.23-29.619-4.575-44.623-5.804-22.6-1.851-45.013-1.199-64.309 6.208-19.257 7.392-41.704 23.875-65.268 43.329-11.177 9.228-22.631 19.146-34.137 29.11l-1.908 1.653c-12.152 10.521-24.349 21.054-36.35 30.86-24.024 19.632-47.164 36.268-67.458 44.056-10.138 3.89-19.487 5.541-27.84 4.313-8.32-1.224-15.733-5.315-22.018-13.076-12.614-15.577-15.386-36.782-11.602-61.092 3.783-24.304 14.097-51.552 27.442-79.023C3.72 62.575 34.206 16.446 56.666-17.539c4.546-6.878 8.763-13.259 12.516-19.038 44.342-68.282 136.527-111.234 215.034-90.199z" stroke="#B1B1B1" stroke-opacity=".43" stroke-width="2"/></svg>