<svg width="681" height="611" fill="none" xmlns="http://www.w3.org/2000/svg"><path opacity=".304" d="M300.609 654.748c-57.102-16.127-101.299-44.085-131.799-82.804-30.499-38.718-47.331-88.233-49.638-147.524-1.152-29.594 6.66-46.591 20.612-56.2 14.007-9.646 34.32-11.941 58.406-11.8 11.049.065 22.864.641 35.198 1.243l3.297.16c13.523.655 27.629 1.289 41.975 1.271 28.69-.035 58.368-2.676 86.326-12.978 27.925-10.29 57.963-27.144 88.434-45.153 6.239-3.687 12.496-7.423 18.757-11.161 24.334-14.529 48.732-29.096 72.382-41.008 29.739-14.98 58.23-25.725 83.847-26.924 25.579-1.197 48.301 7.122 66.577 30.323 18.302 23.234 24.137 47.459 21.581 72.282-2.559 24.844-13.527 50.312-28.881 75.995-15.353 25.682-35.069 51.54-55.089 77.169-2.591 3.316-5.187 6.628-7.779 9.936-17.432 22.245-34.695 44.275-49.084 65.792-32.984 49.324-73.231 82.718-119.479 99.76-46.248 17.042-98.541 17.749-155.643 1.621z" stroke="#B1B1B1" stroke-opacity=".43"/><path opacity=".304" d="M301.126 654.375c-57.112-16.13-89.752-34.989-108.768-64.431-19.05-29.496-24.555-69.793-26.866-129.186-1.151-29.589 3.911-47.997 13.667-59.724 9.752-11.72 24.362-16.97 42.83-19.834 11.313-1.754 23.936-2.598 37.661-3.517 8.737-.584 17.921-1.198 27.498-2.096 24.549-2.302 51.484-6.461 79.476-16.775 26.937-9.927 55.248-23.667 83.685-37.469l3.158-1.533c29.52-14.322 59.13-28.564 87.542-38.608 28.418-10.045 55.541-15.855 80.092-13.39 24.502 2.461 46.494 13.169 64.706 36.289 18.266 23.188 24.591 44.081 22.907 63.894-1.688 19.852-11.426 38.777-25.607 57.992-12.204 16.534-27.629 33.197-43.916 50.791-2.644 2.856-5.31 5.736-7.989 8.644-19.164 20.804-38.943 43.008-55.505 67.775-32.936 49.253-73.105 82.57-119.237 99.569-46.131 16.999-98.314 17.714-155.334 1.609z" stroke="#B1B1B1" stroke-opacity=".43" stroke-width="2"/><path opacity=".304" d="M260.961 680.242c-56.856-16.058-103.687-60.597-136.899-116.033-33.208-55.429-52.73-121.641-55.034-180.845-.573-14.729 1.763-25.719 6.407-33.81 4.633-8.069 11.617-13.35 20.537-16.574 17.942-6.484 43.573-4.609 73.111-.249 9.874 1.458 20.178 3.192 30.749 4.971 20.931 3.522 42.909 7.221 64.674 9.299 32.78 3.131 65.28 2.614 93.369-7.736 28.049-10.336 60.938-33.804 95.561-61.613 16.42-13.188 33.255-27.375 50.172-41.63l2.8-2.36c17.863-15.05 35.797-30.121 53.433-44.14 35.295-28.058 69.295-51.822 99.012-62.769 14.849-5.47 28.551-7.709 40.768-5.744 12.185 1.959 22.976 8.114 32.022 19.598 18.137 23.024 21.739 54.044 15.754 89.357-5.983 35.307-21.526 74.746-41.463 114.42-33.163 65.997-78.387 132.461-111.688 181.404-6.738 9.903-12.988 19.089-18.552 27.409-65.861 98.489-200.846 159.21-314.733 127.045z" stroke="#B1B1B1" stroke-opacity=".43" stroke-width="2"/></svg>