<svg width="71" height="67" fill="none" xmlns="http://www.w3.org/2000/svg"><path d="M44.495 55.105c-9.057 0-17.227-3.89-23.014-10.13a4.61 4.61 0 010-6.271c5.787-6.24 13.957-10.13 23.014-10.13 9.056 0 17.226 3.89 23.013 10.13a4.61 4.61 0 010 6.271c-5.787 6.24-13.957 10.13-23.013 10.13z" fill="url(#paint0_linear)"/><path d="M40.965 54.905c-7.638-.867-14.459-4.512-19.484-9.93a4.61 4.61 0 010-6.271c5.025-5.418 11.846-9.063 19.484-9.93v26.13z" fill="url(#paint1_linear)"/><path d="M43.959 33.886a1.503 1.503 0 012.151.033c.563.596.504 1.545-.077 2.123l-4.32 4.305h2.164a6.747 6.747 0 004.761-1.965l4.513-4.495a1.503 1.503 0 012.151.033c.563.595.504 1.544-.076 2.122l-4.321 4.305h8.315c.82 0 1.536.63 1.56 1.447a1.496 1.496 0 01-1.497 1.539h-8.378l4.32 4.304c.581.578.64 1.528.078 2.123a1.503 1.503 0 01-2.152.033l-4.513-4.495a6.746 6.746 0 00-4.761-1.965h-2.164l4.32 4.305c.58.578.64 1.527.077 2.122a1.503 1.503 0 01-2.151.033l-4.513-4.495a6.746 6.746 0 00-4.761-1.965H32.52l4.321 4.305c.58.578.64 1.527.077 2.123a1.503 1.503 0 01-2.152.033l-4.512-4.496a6.747 6.747 0 00-4.762-1.964h-9.71c-.82 0-1.536-.63-1.56-1.448a1.496 1.496 0 011.497-1.539h9.773a6.747 6.747 0 004.762-1.964l4.512-4.496a1.503 1.503 0 012.152.033c.563.596.504 1.545-.077 2.123l-4.32 4.304h2.163a6.747 6.747 0 004.762-1.964l4.513-4.496z" fill="url(#paint2_linear)"/><path d="M26.136 34.57a32.21 32.21 0 00-4.655 4.134 4.61 4.61 0 000 6.271c5.788 6.24 13.958 10.13 23.014 10.13 9.057 0 17.227-3.89 23.014-10.13a4.61 4.61 0 000-6.271 32.209 32.209 0 00-4.654-4.135H26.136z" fill="url(#paint3_linear)"/><path d="M37.203 33.602c-6.404 6.38-14.943 9.384-23.464 9.048a4.632 4.632 0 01-4.452-4.434c-.337-8.49 2.679-16.995 9.083-23.374 6.403-6.38 14.942-9.384 23.464-9.048a4.632 4.632 0 014.451 4.434c.337 8.49-2.678 16.995-9.082 23.374z" fill="url(#paint4_linear)"/><path d="M34.564 35.947c-6.016 4.767-13.427 6.995-20.825 6.703a4.632 4.632 0 01-4.452-4.434c-.293-7.37 1.944-14.753 6.729-20.745l18.548 18.476z" fill="url(#paint5_linear)"/><path d="M21.761 18.976c0-.84.696-1.517 1.545-1.492.82.025 1.453.738 1.453 1.555v6.087l1.53-1.524a6.695 6.695 0 001.972-4.743v-6.357c0-.84.696-1.518 1.545-1.493.82.025 1.453.738 1.453 1.555v6.088l5.88-5.858c.58-.578 1.533-.636 2.13-.076.619.58.63 1.55.034 2.144l-5.924 5.901h6.11c.82 0 1.537.63 1.561 1.447a1.496 1.496 0 01-1.498 1.54H33.17a6.746 6.746 0 00-4.761 1.964l-1.53 1.524h6.11c.821 0 1.537.63 1.562 1.447a1.496 1.496 0 01-1.498 1.54H26.67a6.746 6.746 0 00-4.762 1.964l-1.53 1.524h6.11c.822 0 1.537.63 1.562 1.447a1.496 1.496 0 01-1.498 1.54H20.17a6.746 6.746 0 00-4.761 1.964l-6.867 6.84c-.58.578-1.533.637-2.13.076a1.489 1.489 0 01-.034-2.143l6.911-6.884a6.695 6.695 0 001.972-4.744v-6.357c0-.84.696-1.518 1.545-1.492.82.024 1.453.737 1.453 1.555v6.087l1.53-1.524a6.694 6.694 0 001.972-4.744v-6.358z" fill="url(#paint6_linear)"/><path d="M9.643 32.013a32.003 32.003 0 00-.356 6.203 4.632 4.632 0 004.451 4.434c8.522.336 17.06-2.668 23.465-9.047 6.403-6.38 9.42-14.886 9.082-23.375a4.632 4.632 0 00-4.451-4.434 32.37 32.37 0 00-6.227.355L9.643 32.013z" fill="url(#paint7_linear)"/><defs><linearGradient id="paint0_linear" x1="44.494" y1="33.54" x2="44.494" y2="51.805" gradientUnits="userSpaceOnUse"><stop stop-color="#22B27F"/><stop offset="1" stop-color="#017B4E"/></linearGradient><linearGradient id="paint1_linear" x1="39.638" y1="41.808" x2="21.988" y2="41.808" gradientUnits="userSpaceOnUse"><stop stop-color="#017B4E" stop-opacity="0"/><stop offset="1" stop-color="#026841"/></linearGradient><linearGradient id="paint2_linear" x1="37.501" y1="21.064" x2="37.501" y2="38.305" gradientUnits="userSpaceOnUse"><stop stop-color="#22B27F"/><stop offset="1" stop-color="#017B4E"/></linearGradient><linearGradient id="paint3_linear" x1="48.845" y1="39.526" x2="33.443" y2="48.236" gradientUnits="userSpaceOnUse"><stop stop-color="#017B4E" stop-opacity="0"/><stop offset=".621" stop-color="#017147" stop-opacity=".621"/><stop offset="1" stop-color="#026841"/></linearGradient><linearGradient id="paint4_linear" x1="21.895" y1="18.354" x2="34.81" y2="31.319" gradientUnits="userSpaceOnUse"><stop stop-color="#22B27F"/><stop offset="1" stop-color="#017B4E"/></linearGradient><linearGradient id="paint5_linear" x1="24.329" y1="27.622" x2="11.897" y2="40.102" gradientUnits="userSpaceOnUse"><stop stop-color="#017B4E" stop-opacity="0"/><stop offset="1" stop-color="#026841"/></linearGradient><linearGradient id="paint6_linear" x1="8.093" y1="14.458" x2="20.284" y2="26.696" gradientUnits="userSpaceOnUse"><stop stop-color="#22B27F"/><stop offset="1" stop-color="#017B4E"/></linearGradient><linearGradient id="paint7_linear" x1="29.22" y1="19.522" x2="24.489" y2="36.524" gradientUnits="userSpaceOnUse"><stop stop-color="#017B4E" stop-opacity="0"/><stop offset=".621" stop-color="#017147" stop-opacity=".621"/><stop offset="1" stop-color="#026841"/></linearGradient></defs></svg>