<svg width="1055" height="611" fill="none" xmlns="http://www.w3.org/2000/svg"><path opacity=".304" d="M674.609 654.748c-57.102-16.127-101.299-44.085-131.799-82.804-30.499-38.718-47.331-88.233-49.638-147.524-1.152-29.594 6.66-46.591 20.612-56.2 14.007-9.646 34.32-11.941 58.406-11.8 11.049.065 22.865.641 35.199 1.243l3.296.16c13.523.655 27.629 1.289 41.975 1.271 28.69-.035 58.368-2.676 86.326-12.978 27.925-10.29 57.963-27.144 88.434-45.153a4875.072 4875.072 0 0018.758-11.162c24.334-14.529 48.732-29.096 72.381-41.007 29.739-14.98 58.23-25.725 83.851-26.924 25.58-1.197 48.3 7.122 66.57 30.323 18.31 23.234 24.14 47.459 21.58 72.282-2.56 24.844-13.52 50.312-28.88 75.995-15.35 25.682-35.07 51.54-55.09 77.169-2.59 3.316-5.18 6.629-7.775 9.936-17.432 22.245-34.695 44.275-49.084 65.792-32.984 49.324-73.231 82.718-119.479 99.76-46.248 17.042-98.541 17.749-155.643 1.621z" stroke="#B1B1B1" stroke-opacity=".43"/><path opacity=".304" d="M675.126 654.375c-57.112-16.13-89.752-34.989-108.768-64.431-19.05-29.496-24.555-69.793-26.866-129.186-1.151-29.589 3.911-47.997 13.667-59.724 9.752-11.72 24.362-16.97 42.83-19.834 11.313-1.754 23.935-2.598 37.66-3.517 8.738-.584 17.922-1.198 27.5-2.096 24.548-2.302 51.483-6.461 79.475-16.775 26.938-9.927 55.248-23.667 83.686-37.469l3.157-1.533c29.52-14.322 59.13-28.564 87.542-38.608 28.418-10.045 55.541-15.855 80.092-13.39 24.499 2.461 46.499 13.169 64.709 36.289 18.26 23.188 24.59 44.081 22.9 63.894-1.68 19.852-11.42 38.777-25.6 57.992-12.21 16.535-27.63 33.197-43.92 50.791-2.64 2.856-5.31 5.736-7.99 8.644-19.162 20.804-38.941 43.008-55.503 67.775-32.936 49.253-73.105 82.57-119.237 99.569-46.131 16.999-98.314 17.714-155.334 1.609z" stroke="#B1B1B1" stroke-opacity=".43" stroke-width="2"/><path opacity=".304" d="M634.961 680.242c-56.856-16.058-103.687-60.597-136.899-116.033-33.208-55.429-52.73-121.641-55.034-180.845-.573-14.729 1.763-25.719 6.407-33.81 4.633-8.069 11.617-13.35 20.537-16.574 17.942-6.484 43.573-4.609 73.111-.249 9.874 1.458 20.178 3.192 30.749 4.971 20.931 3.522 42.909 7.221 64.674 9.299 32.78 3.131 65.28 2.614 93.369-7.736 28.049-10.336 60.938-33.804 95.561-61.613 16.42-13.188 33.254-27.374 50.171-41.629l2.801-2.361c17.863-15.05 35.797-30.121 53.433-44.14 35.295-28.058 69.299-51.822 99.009-62.769 14.85-5.47 28.55-7.709 40.77-5.744 12.19 1.959 22.98 8.114 32.02 19.598 18.14 23.024 21.74 54.044 15.76 89.357-5.99 35.307-21.53 74.746-41.47 114.42-33.16 65.997-78.38 132.461-111.684 181.404-6.738 9.903-12.988 19.089-18.552 27.409-65.861 98.489-200.846 159.21-314.733 127.045z" stroke="#B1B1B1" stroke-opacity=".43" stroke-width="2"/><path opacity=".304" d="M186.719-33.787c47.007 12.595 83.554 35.034 108.988 66.442 25.434 31.408 39.783 71.822 42.33 120.42 1.271 24.248-4.946 38.242-16.251 46.254-11.358 8.05-27.971 10.157-47.73 10.308-9.064.069-18.761-.273-28.887-.63l-2.705-.096c-11.1-.388-22.681-.752-34.452-.579-23.54.346-47.869 2.841-70.704 11.606-22.804 8.754-47.265 22.915-72.063 38.025a4111.19 4111.19 0 00-15.266 9.365c-19.801 12.187-39.651 24.404-58.918 34.436-24.228 12.615-47.467 21.737-68.45 23.003-20.944 1.263-39.647-5.301-54.876-24.107-15.255-18.839-20.303-38.624-18.482-58.993 1.823-20.39 10.532-41.391 22.841-62.625 12.308-21.231 28.193-42.658 44.334-63.904 2.088-2.748 4.181-5.494 6.271-8.237 14.054-18.44 27.975-36.706 39.543-54.52 26.505-40.813 59.14-68.639 96.87-83.122 37.73-14.483 80.6-15.642 127.607-3.046z" stroke="#B1B1B1" stroke-opacity=".43"/><path opacity=".304" d="M186.276-33.388c47.016 12.598 73.948 27.693 89.835 51.58 15.923 23.94 20.885 56.89 23.437 105.59 1.271 24.243-2.679 39.346-10.512 49.023-7.829 9.67-19.702 14.129-34.806 16.679-9.256 1.563-19.586 2.394-30.828 3.298-7.162.576-14.694 1.182-22.553 2.026-20.121 2.16-42.188 5.871-65.057 14.65-21.997 8.444-45.077 20.032-68.25 31.667l-2.577 1.294c-24.06 12.076-48.184 24.081-71.37 32.63-23.19 8.552-45.348 13.607-65.477 11.859-20.08-1.744-38.194-10.262-53.358-28.988-15.219-18.794-20.616-35.82-19.457-52.037 1.161-16.255 8.919-31.856 20.332-47.764 9.822-13.69 22.285-27.521 35.452-42.135a3916.8 3916.8 0 006.46-7.181c15.49-17.278 31.48-35.72 44.8-56.233 26.46-40.743 59.016-68.49 96.63-82.928 37.614-14.44 80.374-15.604 127.299-3.03z" stroke="#B1B1B1" stroke-opacity=".43" stroke-width="2"/><path opacity=".304" d="M218.939-55.052c46.76 12.53 85.637 48.51 113.48 93.596 27.839 45.08 44.575 99.151 47.117 147.662.632 12.056-1.161 21.06-4.86 27.71-3.687 6.628-9.321 11.012-16.57 13.743-14.598 5.499-35.601 4.253-59.886 1.001-8.109-1.085-16.578-2.393-25.267-3.736-17.214-2.659-35.296-5.452-53.179-6.917-26.935-2.207-53.623-1.427-76.589 7.389-22.927 8.801-49.668 28.434-77.763 51.629-13.325 11.001-26.98 22.826-40.7 34.706l-2.272 1.968c-14.488 12.544-29.032 25.104-43.342 36.797-28.644 23.407-56.254 43.26-80.481 52.557-12.105 4.645-23.287 6.624-33.29 5.153-9.97-1.466-18.851-6.371-26.372-15.659-15.088-18.631-18.389-43.978-13.873-72.989 4.514-29.004 16.821-61.511 32.734-94.271 26.471-54.494 62.827-109.505 89.605-150.023 5.42-8.2 10.446-15.806 14.92-22.694C15.255-28.898 125.244-80.157 218.938-55.052z" stroke="#B1B1B1" stroke-opacity=".43" stroke-width="2"/></svg>