<svg width="28" height="20" fill="none" xmlns="http://www.w3.org/2000/svg"><path d="M3 0C1.355 0 0 1.355 0 3v14c0 1.645 1.355 3 3 3h22c1.645 0 3-1.355 3-3V3c0-1.645-1.355-3-3-3H3z" fill="#fff"/><path d="M3 2h22c.566 0 1 .434 1 1v14c0 .566-.434 1-1 1H3c-.566 0-1-.434-1-1V3c0-.566.434-1 1-1z" fill="#fff"/><path d="M8.998 5c-.465 0-.996.265-1.34.652-.266.321-.555.831-.455 1.34.477.056.998-.243 1.297-.63.332-.355.52-.853.498-1.362zM11 7v6h.932v-2.055h1.296c1.175 0 2.006-.808 2.006-1.972 0-1.175-.82-1.973-1.984-1.973H11zm-5.162.523C4.798 7.523 4 8.433 4 9.738 4 11.438 5.194 13 5.94 13c.45 0 .614-.303 1.212-.303.551 0 .725.303 1.194.303.89 0 1.626-1.81 1.654-1.92-.147-.074-1.003-.477-1.002-1.451 0-.946.781-1.37.818-1.389-.432-.643-1.112-.717-1.369-.717-.597 0-1.119.323-1.404.323-.294 0-.727-.323-1.205-.323z" fill="#9B9B9B"/><path d="M11.932 7.787h1.074c.809 0 1.275.432 1.275 1.186s-.466 1.197-1.275 1.197h-1.074V7.787z" fill="#fff"/><path d="M17.43 8.531c-.986 0-1.719.566-1.74 1.342h.841c.067-.366.41-.61.875-.61.576 0 .889.267.889.755v.332l-1.164.078c-1.075.067-1.664.51-1.664 1.275 0 .776.599 1.297 1.463 1.297.587 0 1.132-.3 1.375-.766h.021v.721h.865V9.963c0-.865-.697-1.432-1.761-1.432z" fill="#9B9B9B"/><path d="M18.295 10.98v.335h-.002c0 .565-.476.962-1.107.962-.5 0-.809-.231-.809-.597 0-.377.299-.6.887-.633l1.03-.067z" fill="#fff"/><path d="M19.574 8.588l1.574 4.379-.078.265c-.144.444-.377.622-.787.622-.077 0-.22-.012-.275-.012v.72c.056.011.286.022.353.022.91 0 1.342-.354 1.72-1.396l1.628-4.6h-.943l-1.096 3.547h-.024l-1.095-3.547h-.977z" fill="#9B9B9B"/></svg>