<svg width="242" height="149" fill="none" xmlns="http://www.w3.org/2000/svg"><path fill-rule="evenodd" clip-rule="evenodd" d="M84.776 143.863a2.569 2.569 0 100 5.138 2.569 2.569 0 000-5.138zm17.983 2.569a2.569 2.569 0 115.138 0 2.569 2.569 0 01-5.138 0zm-17.983-23.121a2.57 2.57 0 100 5.14 2.57 2.57 0 000-5.14zm20.552 0a2.569 2.569 0 100 5.138 2.569 2.569 0 000-5.138zm-43.673 2.569a2.57 2.57 0 115.139.001 2.57 2.57 0 01-5.14-.001zm-17.983-2.569a2.57 2.57 0 10.001 5.14 2.57 2.57 0 000-5.14zm-23.12 2.569a2.57 2.57 0 115.138 0 2.57 2.57 0 01-5.139 0zm-17.983-2.569a2.57 2.57 0 10.001 5.139 2.57 2.57 0 00-.001-5.139zm59.086 23.121a2.569 2.569 0 115.138 0 2.569 2.569 0 01-5.138 0zm-17.983-2.569a2.569 2.569 0 100 5.138 2.569 2.569 0 000-5.138zm-23.12 2.569a2.569 2.569 0 115.138 0 2.569 2.569 0 01-5.138 0zM2.57 143.863a2.569 2.569 0 100 5.138 2.569 2.569 0 000-5.138zm215.794-20.552a2.57 2.57 0 100 5.139 2.57 2.57 0 000-5.139zm20.551 0a2.57 2.57 0 100 5.139 2.57 2.57 0 000-5.139zm-43.672 2.569a2.57 2.57 0 115.139 0 2.57 2.57 0 01-5.139 0zm-17.983-2.569a2.57 2.57 0 100 5.139 2.57 2.57 0 000-5.139zm-23.12 2.569a2.57 2.57 0 115.139 0 2.57 2.57 0 01-5.139 0zm-17.983-2.569a2.57 2.57 0 100 5.139 2.57 2.57 0 000-5.139zm102.758 20.552a2.57 2.57 0 100 5.139 2.57 2.57 0 000-5.139zm-12.844-38.534a2.569 2.569 0 115.138 0 2.569 2.569 0 01-5.138 0zm-17.982-23.121a2.569 2.569 0 100 5.138 2.569 2.569 0 000-5.138zm20.551 0a2.569 2.569 0 100 5.137 2.569 2.569 0 000-5.138zm-43.672 2.569a2.569 2.569 0 115.138 0 2.569 2.569 0 01-5.138 0zm-17.983-2.57a2.569 2.569 0 100 5.139 2.569 2.569 0 000-5.138zm-23.12 2.57a2.569 2.569 0 115.138 0 2.569 2.569 0 01-5.138 0zm-17.983-2.57a2.569 2.569 0 100 5.139 2.569 2.569 0 000-5.138zm82.206 20.553a2.569 2.569 0 100 5.138 2.569 2.569 0 000-5.138zm-23.121 2.569a2.57 2.57 0 115.139 0 2.57 2.57 0 01-5.139 0zm-17.982-2.569a2.569 2.569 0 100 5.138 2.569 2.569 0 000-5.138zm-23.121 2.569a2.569 2.569 0 115.138 0 2.569 2.569 0 01-5.138 0zm-17.983-2.569a2.57 2.57 0 100 5.139 2.57 2.57 0 000-5.139zm92.483 41.103a2.569 2.569 0 100 5.138 2.569 2.569 0 000-5.138zM84.776 102.76a2.569 2.569 0 100 5.138 2.569 2.569 0 000-5.138zm17.983 2.568a2.569 2.569 0 115.138 0 2.569 2.569 0 01-5.138 0zm-17.983-23.12a2.569 2.569 0 100 5.138 2.569 2.569 0 000-5.138zm20.552 0a2.569 2.569 0 100 5.137 2.569 2.569 0 000-5.138zm-43.673 2.569a2.569 2.569 0 115.138 0 2.569 2.569 0 01-5.138 0zm-17.983-2.57a2.569 2.569 0 100 5.139 2.569 2.569 0 000-5.138zm-23.12 2.57a2.569 2.569 0 115.137 0 2.569 2.569 0 01-5.138 0zm-17.983-2.57a2.569 2.569 0 100 5.139 2.569 2.569 0 000-5.138zm59.086 23.122a2.569 2.569 0 115.138 0 2.569 2.569 0 01-5.138 0zm-17.983-2.569a2.569 2.569 0 100 5.138 2.569 2.569 0 000-5.138zm-23.12 2.569a2.569 2.569 0 115.138 0 2.569 2.569 0 01-5.138 0zM2.57 102.76a2.569 2.569 0 100 5.138 2.569 2.569 0 000-5.138zm195.242 41.103a2.569 2.569 0 100 5.138 2.569 2.569 0 000-5.138zm-23.121 2.569a2.569 2.569 0 115.138 0 2.569 2.569 0 01-5.138 0zm-17.982-2.569a2.569 2.569 0 100 5.138 2.569 2.569 0 000-5.138zm-23.121 2.569a2.569 2.569 0 115.138 0 2.569 2.569 0 01-5.138 0zM84.776 61.656a2.569 2.569 0 100 5.138 2.569 2.569 0 000-5.138zm17.983 2.569a2.569 2.569 0 115.138 0 2.569 2.569 0 01-5.138 0zm2.569-23.12a2.569 2.569 0 100 5.137 2.569 2.569 0 000-5.138zm-20.552 0a2.569 2.569 0 100 5.137 2.569 2.569 0 000-5.138zm-23.121 2.568a2.569 2.569 0 115.138 0 2.569 2.569 0 01-5.138 0zm-17.983-2.569a2.569 2.569 0 100 5.138 2.569 2.569 0 000-5.138zm-23.12 2.57a2.569 2.569 0 115.137-.001 2.569 2.569 0 01-5.138 0zm-17.983-2.57a2.569 2.569 0 100 5.138 2.569 2.569 0 000-5.138zm59.086 23.12a2.569 2.569 0 115.138 0 2.569 2.569 0 01-5.138 0zm-17.983-2.568a2.569 2.569 0 100 5.138 2.569 2.569 0 000-5.138zm-23.12 2.569a2.569 2.569 0 115.138 0 2.569 2.569 0 01-5.138 0zM2.57 61.655a2.569 2.569 0 100 5.139 2.569 2.569 0 000-5.138zm236.345-20.55a2.57 2.57 0 10.001 5.138 2.57 2.57 0 00-.001-5.139zm-20.551 0a2.569 2.569 0 100 5.137 2.569 2.569 0 000-5.138zm-23.121 2.568a2.569 2.569 0 115.138 0 2.569 2.569 0 01-5.138 0zm-17.983-2.569a2.569 2.569 0 100 5.138 2.569 2.569 0 000-5.138zm-23.12 2.569a2.569 2.569 0 115.138 0 2.569 2.569 0 01-5.138 0zm-17.983-2.569a2.569 2.569 0 100 5.138 2.569 2.569 0 000-5.138zm102.758 20.552a2.57 2.57 0 10.001 5.139 2.57 2.57 0 00-.001-5.14zM226.07 23.12a2.569 2.569 0 115.138 0 2.569 2.569 0 01-5.138 0zM228.639 0a2.569 2.569 0 100 5.137 2.569 2.569 0 000-5.138zm-20.551 0a2.569 2.569 0 100 5.138 2.569 2.569 0 000-5.138zm-23.121 2.569a2.569 2.569 0 115.138 0 2.569 2.569 0 01-5.138 0zM166.984 0a2.569 2.569 0 100 5.138 2.569 2.569 0 000-5.138zm-23.12 2.569a2.569 2.569 0 115.138 0 2.569 2.569 0 01-5.138 0zM125.881 0a2.569 2.569 0 100 5.138 2.569 2.569 0 000-5.138zm82.206 20.552a2.569 2.569 0 100 5.138 2.569 2.569 0 000-5.138zm-23.121 2.569a2.57 2.57 0 115.14.001 2.57 2.57 0 01-5.14-.001zm-17.982-2.569a2.569 2.569 0 100 5.138 2.569 2.569 0 000-5.138zm-23.121 2.569a2.569 2.569 0 115.138 0 2.569 2.569 0 01-5.138 0zm-17.983-2.569a2.57 2.57 0 10.001 5.14 2.57 2.57 0 00-.001-5.14zm92.483 41.104a2.569 2.569 0 100 5.137 2.569 2.569 0 000-5.137zM102.759 23.12a2.569 2.569 0 115.138 0 2.569 2.569 0 01-5.138 0zM105.328 0a2.569 2.569 0 100 5.137 2.569 2.569 0 000-5.138zM84.776 0a2.569 2.569 0 100 5.138 2.569 2.569 0 000-5.138zM61.655 2.569a2.569 2.569 0 115.138 0 2.569 2.569 0 01-5.138 0zM43.672 0a2.569 2.569 0 100 5.138 2.569 2.569 0 000-5.138zm-23.12 2.569a2.569 2.569 0 115.137 0 2.569 2.569 0 01-5.138 0zM2.568 0a2.569 2.569 0 100 5.138 2.569 2.569 0 000-5.138zm82.207 20.552a2.569 2.569 0 100 5.138 2.569 2.569 0 000-5.138zm-23.12 2.569a2.569 2.569 0 115.137 0 2.569 2.569 0 01-5.138 0zm-17.984-2.569a2.569 2.569 0 100 5.138 2.569 2.569 0 000-5.138zm-23.12 2.569a2.569 2.569 0 115.138 0 2.569 2.569 0 01-5.138 0zM2.57 20.552a2.569 2.569 0 100 5.138 2.569 2.569 0 000-5.138zm195.242 41.104a2.569 2.569 0 100 5.137 2.569 2.569 0 000-5.137zm-23.121 2.569a2.569 2.569 0 115.138 0 2.569 2.569 0 01-5.138 0zm-17.982-2.57a2.569 2.569 0 100 5.138 2.569 2.569 0 000-5.137zm-23.121 2.57a2.569 2.569 0 115.138 0 2.569 2.569 0 01-5.138 0z" fill="#333"/></svg>