<svg width="477" height="547" fill="none" xmlns="http://www.w3.org/2000/svg"><path opacity=".197" d="M476 273.5C476 423.998 353.998 546 203.5 546S-69 423.998-69 273.5 53.002 1 203.5 1 476 123.002 476 273.5z" stroke="#333" stroke-width="2"/><path opacity=".197" d="M437.795 273.5c0 53.926-31.137 92.046-76.022 116.712-44.898 24.672-103.507 35.848-158.272 35.848-54.714 0-92.829-16.874-117.272-44.331-24.453-27.468-35.288-65.598-35.288-108.229 0-12.746-1.03-27.14-2.121-42.372-.737-10.297-1.502-20.977-1.995-31.789-1.223-26.853-.774-54.604 5.88-79.672 6.65-25.056 19.497-47.417 43.07-63.523C119.356 40.03 153.728 30.14 203.5 30.14c99.54 0 158.07 33.833 191.74 81.1 33.692 47.299 42.554 108.138 42.554 162.26z" stroke="#333"/><path opacity=".197" d="M398.716 245.965c0 43.25-24.853 73.826-60.698 93.616-35.858 19.798-82.673 28.768-126.424 28.768-43.699 0-74.125-13.54-93.635-35.557-19.518-22.029-28.173-52.615-28.173-86.827 0-10.234-.824-21.798-1.696-34.031-.589-8.266-1.2-16.838-1.593-25.513-.977-21.556-.618-43.824 4.695-63.935 5.31-20.099 15.564-38.029 34.377-50.943 18.822-12.92 46.266-20.86 86.025-20.86 79.515 0 126.252 27.153 153.135 65.069 26.905 37.949 33.987 86.77 33.987 130.213z" stroke="#333"/></svg>