<svg width="1440" height="104" fill="none" xmlns="http://www.w3.org/2000/svg"><mask id="a" maskUnits="userSpaceOnUse" x="0" y="0" width="1450" height="104"><rect width="1450" height="104" rx="16" fill="#C4C4C4"/></mask><g mask="url(#a)"><path fill="url(#paint0_linear)" d="M0-192h1440V834H0z"/><path opacity=".304" d="M567.473 975.48c54.03-12.435 78.812-34.713 87.143-63.533 4.377-15.143 4.173-31.984 1.422-49.949-2.752-17.965-8.065-37.125-13.959-56.924-1.28-4.299-2.588-8.628-3.903-12.983-10.814-35.811-22.139-73.315-22.987-109.729-.948-40.75 11.232-80.087 52.106-114.01 41.261-34.244 63.763-67.667 76.601-99.956 12.831-32.27 15.986-63.354 18.633-92.826l.313-3.499c2.521-28.217 4.902-54.877 15.179-79.883 10.679-25.984 29.916-50.241 66.893-72.46 74.229-44.601 115.221-60.571 164.226-65.447 24.55-2.442 51.12-2.104 84.93-1.151 5.73.162 11.67.341 17.85.527 30.21.912 65.99 1.991 110.27 1.991 53.61 0 94.87-22.592 129.1-50.741 17.12-14.07 32.49-29.54 46.77-44.276 2.01-2.076 4-4.136 5.97-6.176 12.03-12.458 23.31-24.141 34.31-33.757 12.79-11.194 25.1-19.493 37.61-22.941 12.46-3.432 25.18-2.077 38.92 6.207 13.78 8.31 28.6 23.609 45.1 48.11 16.49 24.492 34.62 58.113 55.06 102.989 81.68 179.359 81.7 384.6 61.26 545.078-10.22 80.227-25.54 149.238-38.32 198.19-6.38 24.475-12.13 43.934-16.28 57.273a829.037 829.037 0 01-4.9 15.277c-.58 1.735-1.03 3.053-1.33 3.936-.09.259-.17.48-.23.663H567.473zm-211.075-10.642c17.613 4.157 35.1 7.756 52.359 10.642H-186.51a47.13 47.13 0 01-2.242-2.215 68.774 68.774 0 01-5.961-7.248c-4.556-6.353-9.692-15.652-12.037-27.446-4.673-23.503 1.676-57.266 46.773-97.745 11.079-9.944 26.761-14.655 46.347-15.267 19.585-.612 42.964 2.878 69.308 9.221 48.189 11.603 106.09 32.698 168.498 55.434 5.834 2.126 11.708 4.266 17.617 6.414 69.082 25.111 142.931 51.293 214.605 68.21zm79.987 12.642h110.182c-34.385 5.346-71.516 4.743-110.182 0z" stroke="#fff" stroke-width="2"/><path opacity=".304" d="M574.945 926.559c51.208-10.822 78.051-28.106 91.416-49.937 13.769-22.49 13.148-49.682 10.393-79.208-.442-4.735-.939-9.531-1.441-14.38-2.634-25.432-5.418-52.303-1.201-79.388 5.015-32.212 19.937-64.726 56.88-95.367 37.129-30.794 53.858-63.891 60.137-97.47 6.274-33.554 2.107-67.565-2.496-100.164-.303-2.144-.608-4.282-.912-6.413-4.318-30.306-8.442-59.251-4.293-85.459 4.433-27.998 18.313-52.878 51.619-72.878 66.727-40.067 128.641-40.08 197.923-30.048 18.73 2.713 38.01 6.162 58.07 9.751 54.1 9.677 113.86 20.369 183.91 20.369 48.15 0 85.18-21.998 115.9-49.867 15.37-13.933 29.16-29.341 41.99-44.208 2.8-3.253 5.56-6.478 8.28-9.657 9.72-11.361 18.92-22.121 27.91-31.342 11.51-11.803 22.62-21.034 33.95-25.76 11.31-4.713 22.84-4.95 35.24 1.267 12.44 6.232 25.79 18.966 40.64 40.278 14.84 21.306 31.17 51.143 49.57 91.525 73.56 161.419 48.71 338.54 5.44 475.361-21.63 68.403-47.86 126.714-68.69 167.923-10.41 20.605-19.47 36.933-25.93 48.109-3.23 5.588-5.8 9.888-7.57 12.79-.89 1.451-1.57 2.552-2.03 3.291-.23.369-.41.647-.53.833l-.03.049H574.945zm-10.181 1c-94.559 17.778-216.962 16.531-331.887 15.361-16.388-.167-32.625-.333-48.607-.441-65.03-.442-125.846.061-175.505 5.248-24.83 2.594-46.886 6.361-65.294 11.772-18.403 5.411-33.195 12.475-43.465 21.687-10.186 9.137-17.713 15.122-23.089 18.61-2.689 1.744-4.82 2.854-6.461 3.414-1.663.58-2.717.57-3.342.24-.583-.3-.952-.96-1.005-2.15-.054-1.18.219-2.769.788-4.704 1.136-3.861 3.406-8.948 6.328-14.633 5.838-11.361 14.225-25.014 21.159-35.834a853.63 853.63 0 0111.438-17.374l.713-1.051.1-.145h658.129z" stroke="#fff"/><path opacity=".304" d="M1598.95 882.79c-.04.098-.08.187-.12.269H668.91c15.676-7.927 26.199-17.324 33.124-27.944 13.029-19.98 13.153-44.056 11.376-70.06-.298-4.362-.65-8.78-1.006-13.247-1.772-22.251-3.639-45.7.548-69.444 5.014-28.436 18.725-57.295 51.866-84.778 66.261-54.948 148.508-45.72 229.625-31.581a3871.932 3871.932 0 0121.727 3.868c33.1 5.955 65.73 11.826 96.59 13.456 37.61 1.986 72.75-2.316 103.08-20.522 30.41-18.262 43.08-45.853 47.71-76.8 3.87-25.876 2.14-54.204.48-81.472-.32-5.278-.64-10.516-.92-15.689-1.71-32.015-1.74-61.457 9.27-82.902 5.48-10.68 13.71-19.385 25.89-25.433 12.2-6.058 28.43-9.476 49.92-9.476 74.43 0 107.17-53.681 130.42-91.793 3.93-6.447 7.59-12.449 11.14-17.669 6.17-9.09 11.88-15.676 17.95-18.388 2.99-1.338 6.07-1.732 9.36-1.001 3.32.736 6.92 2.625 10.91 5.966 8 6.697 17.37 19.062 28.9 38.916 11.52 19.833 25.15 47.055 41.71 83.384 66.15 145.131 66.16 293.425 49.61 405.475-8.27 56.02-20.68 102.965-31.02 135.902-5.17 16.468-9.82 29.432-13.18 38.277a411.176 411.176 0 01-3.97 10.099c-.46 1.142-.83 2.008-1.07 2.587zm-1692.227 3.886l.773-1.617h752.356c-12.335 5.256-27.48 9.773-46.046 13.44-71.623 14.148-178.741 24.532-289.376 35.258-40.268 3.903-81.001 7.852-120.659 12.044-74.28 7.852-144.776 16.556-201.296 27.414-28.26 5.43-53.049 11.402-73.083 18.084-20.007 6.673-35.377 14.091-44.705 22.451-4.562 4.09-8.449 7.15-11.727 9.29-3.289 2.14-5.911 3.33-7.95 3.76-2.016.43-3.356.09-4.27-.68-.953-.79-1.647-2.22-1.986-4.4-.678-4.36.166-11.07 2.141-19.35 1.965-8.235 5.016-17.892 8.647-28.084 7.261-20.381 16.816-42.827 24.561-60.187a1310.42 1310.42 0 019.737-21.313 998.755 998.755 0 012.883-6.11z" stroke="#fff" stroke-width="2"/><ellipse cx="-22.387" cy="-143.608" rx="503.238" ry="837.151" transform="rotate(60 -22.387 -143.608)" fill="url(#paint1_radial)"/><path opacity=".304" d="M123.546-125.5c54.72 0 100.948 13.734 137.717 40.449 36.77 26.714 64.117 66.436 81.026 118.477 8.439 25.972 5.764 43.001-4.199 55.013-10.006 12.063-27.449 19.189-48.862 25.102-9.823 2.712-20.454 5.162-31.552 7.72l-2.967.685c-12.166 2.808-24.847 5.782-37.576 9.394-25.458 7.224-51.143 17.009-73.381 33.166-22.209 16.136-44.648 38.627-67.18 62.251-4.613 4.837-9.23 9.721-13.85 14.609-17.957 18.996-35.959 38.04-53.963 54.54-22.64 20.75-45.229 37.425-67.658 44.908-22.393 7.472-44.633 5.785-66.659-10.219-22.061-16.027-33.307-36.058-37.259-58.722-3.956-22.684-.607-48.032 6.583-74.675 7.188-26.641 18.204-54.533 29.55-82.299 1.468-3.593 2.941-7.184 4.413-10.769 9.896-24.115 19.696-47.997 27.074-70.704C-78.287-18.615-50.94-58.337-14.17-85.05c36.77-26.716 82.997-40.45 137.716-40.45z" stroke="#fff"/><path opacity=".304" d="M123.181-125c54.729 0 88.404 8.557 112.641 29.903 24.285 21.389 39.268 55.755 56.209 107.894 8.436 25.967 8.552 43.552 2.843 56.38C289.168 82 277.538 90.312 261.87 97.48c-9.599 4.392-20.585 8.304-32.534 12.558-7.609 2.71-15.609 5.558-23.889 8.758-21.215 8.198-44.087 18.644-66.354 34.822-21.424 15.565-43.11 34.861-64.89 54.239l-2.42 2.152c-22.61 20.114-45.319 40.174-68.015 56.208-22.702 16.038-45.309 27.987-67.7 31.95-22.345 3.954-44.528-.032-66.471-15.975-22.014-15.994-32.85-32.937-36.318-50.921-3.475-18.023.419-37.246 8.187-57.85 6.685-17.731 16.197-36.383 26.243-56.082a4413.37 4413.37 0 004.924-9.676c11.795-23.269 23.787-47.94 32.28-74.081C-78.204-18.38-50.91-58.006-14.242-84.647 22.426-111.288 68.547-125 123.18-125z" fill="#E83F81" stroke="#fff" stroke-width="2"/><path opacity=".304" d="M152.344-158.027c54.464 0 107.177 27.779 150.544 68.65 43.36 40.864 77.279 94.728 94.161 146.686 4.198 12.921 4.877 23.245 2.787 31.572-2.083 8.303-6.946 14.726-14.043 19.815-14.281 10.24-37.481 15-64.794 18.535-9.127 1.181-18.705 2.225-28.533 3.296-19.463 2.121-39.903 4.348-59.744 7.96-29.884 5.439-58.615 14.047-80.966 30.286-22.317 16.214-45.632 45.298-69.391 78.66-11.268 15.823-22.655 32.635-34.097 49.529l-1.894 2.796c-12.082 17.837-24.222 35.708-36.36 52.572-24.293 33.751-48.508 63.357-72.129 80.515-11.802 8.573-23.39 13.988-34.708 15.305-11.286 1.312-22.387-1.439-33.281-9.354-21.844-15.871-32.812-42.475-36.352-75.308-3.538-32.826.369-71.72 8.118-111.929 12.891-66.885 36.366-137.209 53.655-188.998 3.498-10.48 6.744-20.2 9.596-28.98C-61.327-70.32 43.236-158.027 152.344-158.027z" stroke="#fff" stroke-width="2"/></g><defs><radialGradient id="paint1_radial" cx="0" cy="0" r="1" gradientUnits="userSpaceOnUse" gradientTransform="scale(503.238 837.151) rotate(90 .064 -.108)"><stop stop-color="#F7E21F"/><stop offset=".401" stop-color="#F7E120" stop-opacity=".85"/><stop offset=".698" stop-color="#F7DF21" stop-opacity=".547"/><stop offset="1" stop-color="#F6DC23" stop-opacity="0"/></radialGradient><linearGradient id="paint0_linear" x1="868" y1="97.385" x2="-120.918" y2="936.246" gradientUnits="userSpaceOnUse"><stop stop-color="#EB8E78"/><stop offset=".297" stop-color="#F1A959"/><stop offset=".568" stop-color="#F3B54C"/><stop offset=".786" stop-color="#ED856C"/></linearGradient></defs></svg>