<svg width="92" height="218" fill="none" xmlns="http://www.w3.org/2000/svg"><path opacity=".197" d="M91 109c0 59.647-48.353 108-108 108s-108-48.353-108-108S-76.647 1-17 1 91 49.353 91 109z" stroke="#333" stroke-width="2"/><path opacity=".197" d="M76.074 109c0 21.351-12.319 36.456-30.142 46.25C28.096 165.052 4.792 169.5-17 169.5c-21.741 0-36.841-6.703-46.513-17.567C-73.193 141.059-77.5 125.943-77.5 109c0-5.086-.412-10.845-.848-16.928-.293-4.102-.597-8.352-.793-12.642-.487-10.693-.306-21.716 2.334-31.661 2.636-9.933 7.721-18.776 17.043-25.145C-50.432 16.247-36.799 12.313-17 12.313c39.594 0 62.82 13.452 76.17 32.195C72.544 63.283 76.074 87.454 76.074 109z" stroke="#333"/><path opacity=".197" d="M60.5 98.026c0 17.097-9.815 29.196-24.035 37.046-14.234 7.859-32.837 11.428-50.24 11.428-17.35 0-29.386-5.373-37.091-14.069-7.715-8.707-11.153-20.817-11.153-34.405 0-4.085-.33-8.716-.677-13.603-.235-3.293-.478-6.703-.634-10.14-.389-8.584-.244-17.421 1.862-25.391 2.102-7.957 6.154-15.034 13.58-20.132 7.434-5.103 18.305-8.26 34.114-8.26 31.613 0 50.138 10.79 60.784 25.806 10.67 15.048 13.49 34.43 13.49 51.72z" stroke="#333"/></svg>