<svg width="36" height="36" fill="none" xmlns="http://www.w3.org/2000/svg"><path d="M18 .975h0A12.615 12.615 0 0130.525 13.65s0 0 0 0h-.15c0 4.41-2.025 9.305-6.019 14.546L18 .975zm0 0a12.615 12.615 0 00-8.884 3.748M18 .975L9.116 4.723m0 0a12.615 12.615 0 00-3.64 8.928l3.64-8.928zM18 33.345c-1.068-1.004-3.773-3.677-6.246-7.175C9.194 22.55 6.9 18.069 6.9 13.65a11.1 11.1 0 1122.2 0c0 4.42-2.294 8.9-4.853 12.52-2.473 3.498-5.178 6.17-6.247 7.175z" fill="url(#paint0_linear)" stroke="url(#paint1_linear)" stroke-width=".3"/><path d="M18 3.225h0A10.275 10.275 0 1028.275 13.5v0A10.287 10.287 0 0018 3.225zm0 19.125a8.85 8.85 0 118.85-8.85A8.861 8.861 0 0118 22.35z" fill="url(#paint2_linear)" stroke="url(#paint3_linear)" stroke-width=".3"/><path d="M16.105 12.62l-.58.29V8.437a.713.713 0 00-1.425 0v4.473l-.58-.29c-.156-.079-.21-.132-.23-.161-.013-.02-.015-.033-.015-.084V8.437a.713.713 0 00-1.425 0v3.938h0v.002a1.669 1.669 0 001.037 1.52l1.09.545h0l.008.003c.038.017.076.032.115.046v5.197a.713.713 0 001.425 0V14.49c.039-.014.077-.03.115-.046h0l.007-.003 1.09-.545a1.669 1.669 0 001.038-1.52h0v-3.94a.713.713 0 00-1.425 0v3.938c0 .051-.002.064-.016.084-.019.029-.073.082-.229.16z" fill="url(#paint4_linear)" stroke="url(#paint5_linear)" stroke-width=".3" stroke-linecap="round" stroke-linejoin="round"/><path d="M21.563 7.725c-1.659 0-2.963 1.608-2.963 3.525 0 1.637.945 3.038 2.25 3.422v5.015a.713.713 0 001.425 0v-5.015c1.305-.384 2.25-1.787 2.25-3.422 0-1.917-1.304-3.525-2.962-3.525zm0 5.625c-.408 0-.789-.22-1.073-.6-.284-.379-.465-.909-.465-1.5s.18-1.121.465-1.5c.284-.38.665-.6 1.073-.6.407 0 .788.22 1.072.6.284.379.465.909.465 1.5s-.18 1.121-.465 1.5c-.284.38-.665.6-1.073.6z" fill="url(#paint6_linear)" stroke="url(#paint7_linear)" stroke-width=".3" stroke-linecap="round" stroke-linejoin="round"/><defs><linearGradient id="paint0_linear" x1="18" y1="1.125" x2="18" y2="34.875" gradientUnits="userSpaceOnUse"><stop stop-color="#F39A6E"/><stop offset="1" stop-color="#F8C242"/></linearGradient><linearGradient id="paint1_linear" x1="18" y1="1.125" x2="18" y2="34.875" gradientUnits="userSpaceOnUse"><stop stop-color="#F39A6E"/><stop offset="1" stop-color="#F8C242"/></linearGradient><linearGradient id="paint2_linear" x1="18" y1="3.375" x2="18" y2="23.625" gradientUnits="userSpaceOnUse"><stop stop-color="#F39A6E"/><stop offset="1" stop-color="#F8C242"/></linearGradient><linearGradient id="paint3_linear" x1="18" y1="3.375" x2="18" y2="23.625" gradientUnits="userSpaceOnUse"><stop stop-color="#F39A6E"/><stop offset="1" stop-color="#F8C242"/></linearGradient><linearGradient id="paint4_linear" x1="14.813" y1="7.875" x2="14.813" y2="20.25" gradientUnits="userSpaceOnUse"><stop stop-color="#F39A6E"/><stop offset="1" stop-color="#F8C242"/></linearGradient><linearGradient id="paint5_linear" x1="14.813" y1="7.875" x2="14.813" y2="20.25" gradientUnits="userSpaceOnUse"><stop stop-color="#F39A6E"/><stop offset="1" stop-color="#F8C242"/></linearGradient><linearGradient id="paint6_linear" x1="21.563" y1="7.875" x2="21.563" y2="20.25" gradientUnits="userSpaceOnUse"><stop stop-color="#F39A6E"/><stop offset="1" stop-color="#F8C242"/></linearGradient><linearGradient id="paint7_linear" x1="21.563" y1="7.875" x2="21.563" y2="20.25" gradientUnits="userSpaceOnUse"><stop stop-color="#F39A6E"/><stop offset="1" stop-color="#F8C242"/></linearGradient></defs></svg>