<svg width="29" height="29" fill="none" xmlns="http://www.w3.org/2000/svg"><path d="M28.137 19.947a.848.848 0 00.802-.847c0-2.445-1.962-4.36-4.468-4.36h-.828l-1.012-4.803a2.759 2.759 0 00-1.093-5.288h-3.914a.85.85 0 00-.848.85v1.058H14.69a.85.85 0 000 1.7h2.086v1.057c0 .47.38.85.848.85h.377a4.749 4.749 0 00-1.128 3.075v4.835c0 .025-.02.045-.045.045H13.4a.045.045 0 01-.043-.032l-.924-3.127a1.75 1.75 0 001.296-1.688 3.48 3.48 0 00-3.474-3.478H2.609a2.614 2.614 0 00-.364 5.2A6.558 6.558 0 00.054 19.89v2.645c0 .469.38.85.848.85h.734a4.317 4.317 0 004.225 3.464 4.317 4.317 0 004.225-3.465h10.38a4.317 4.317 0 004.225 3.465A4.317 4.317 0 0029 22.535c0-.97-.322-1.866-.863-2.588zm-1.034-1.696h-1.91a4.326 4.326 0 00-1.39.062V16.44h.668c1.243 0 2.27.747 2.632 1.81zm-8.63-11.903h3.066a1.059 1.059 0 010 2.117h-3.066V6.348zM13.4 19.818h3.427c.961 0 1.742-.782 1.742-1.744V13.24a3.073 3.073 0 012.392-2.993l1.145 5.432v3.407a4.321 4.321 0 00-1.64 2.6H12.03c-.397-3.048-2.914-5.329-6.056-5.329-1.4 0-2.658.458-3.65 1.244a4.867 4.867 0 014.291-2.58h4.066l1.05 3.549a1.75 1.75 0 001.67 1.25zM1.82 21.685c.148-.904.534-1.72 1.125-2.35.77-.826 1.846-1.28 3.03-1.28 2.188 0 3.956 1.538 4.336 3.63H1.82zm.79-8.365a.914.914 0 010-1.826h7.645c.98 0 1.776.797 1.776 1.778-.007.035-.063.058-.167.048H2.609zm3.25 11.83a2.616 2.616 0 01-2.47-1.766h4.94a2.616 2.616 0 01-2.47 1.766zm18.83 0a2.617 2.617 0 01-2.612-2.615 2.617 2.617 0 012.612-2.615 2.616 2.616 0 012.612 2.615 2.617 2.617 0 01-2.612 2.615z" fill="url(#paint0_linear)"/><path d="M24.691 23.39a.855.855 0 100-1.71.855.855 0 000 1.71z" fill="url(#paint1_linear)"/><path d="M.885 7.332h7.61a.85.85 0 000-1.7H.885a.85.85 0 000 1.7z" fill="url(#paint2_linear)"/><path d="M3.703 3.85h7.676a.85.85 0 000-1.699H3.703a.85.85 0 000 1.7z" fill="url(#paint3_linear)"/><defs><linearGradient id="paint0_linear" x1="14.5" y1="4.649" x2="14.5" y2="26.849" gradientUnits="userSpaceOnUse"><stop stop-color="#F39A6E"/><stop offset="1" stop-color="#F8C242"/></linearGradient><linearGradient id="paint1_linear" x1="24.691" y1="21.68" x2="24.691" y2="23.39" gradientUnits="userSpaceOnUse"><stop stop-color="#F39A6E"/><stop offset="1" stop-color="#F8C242"/></linearGradient><linearGradient id="paint2_linear" x1="4.69" y1="5.632" x2="4.69" y2="7.332" gradientUnits="userSpaceOnUse"><stop stop-color="#F39A6E"/><stop offset="1" stop-color="#F8C242"/></linearGradient><linearGradient id="paint3_linear" x1="7.541" y1="2.151" x2="7.541" y2="3.85" gradientUnits="userSpaceOnUse"><stop stop-color="#F39A6E"/><stop offset="1" stop-color="#F8C242"/></linearGradient></defs></svg>