<svg width="31" height="31" fill="none" xmlns="http://www.w3.org/2000/svg"><g clip-path="url(#clip0)" fill="#fff"><path d="M6.87 18.734l-1.079 4.028-3.944.083A15.43 15.43 0 010 15.5c0-2.57.625-4.994 1.733-7.128l3.512.643 1.538 3.49a9.213 9.213 0 00-.497 2.995c0 1.138.206 2.228.584 3.234zm23.86-6.129a15.541 15.541 0 01-.068 6.131 15.497 15.497 0 01-5.457 8.852l-.001-.001-4.423-.226-.626-3.907a9.239 9.239 0 003.975-4.718h-8.288v-6.131H30.73z"/><path d="M25.203 27.587h.001A15.435 15.435 0 0115.5 31c-5.902 0-11.034-3.3-13.652-8.154l5.023-4.112a9.216 9.216 0 0013.284 4.72l5.048 4.133zm.19-24.019L20.372 7.68a9.219 9.219 0 00-13.589 4.826l-5.05-4.133C4.312 3.398 9.508 0 15.498 0c3.761 0 7.21 1.34 9.894 3.568z"/></g><defs><clipPath id="clip0"><path fill="#fff" d="M0 0h31v31H0z"/></clipPath></defs></svg>