<svg width="79" height="61" fill="none" xmlns="http://www.w3.org/2000/svg"><path d="M32.106 33.49c-2.235 2.234-4.96 3.352-8.172 3.352-3.213 0-5.937-1.118-8.173-3.352-2.235-2.234-3.352-4.957-3.352-8.192 0-3.235 1.117-5.958 3.352-8.193 2.236-2.234 4.96-3.351 8.173-3.351s5.937 1.117 8.172 3.351c2.235 2.235 3.539 4.958 3.539 8.193 0 3.235-1.28 5.958-3.539 8.192zm-13.271-2.979c1.373 1.373 3.073 2.048 5.099 2.048 2.025 0 3.725-.675 5.099-2.048 1.373-1.373 2.048-3.095 2.048-5.213s-.698-3.864-2.048-5.237c-1.374-1.373-3.074-2.071-5.1-2.071-2.025 0-3.725.698-5.098 2.071-1.374 1.373-2.072 3.119-2.072 5.237s.698 3.863 2.072 5.213z" fill="#01B2E8"/><path d="M32.013 35.26c-2.026 1.628-4.424 2.443-7.171 2.443-3.213 0-5.937-1.117-8.172-3.352-2.236-2.234-3.353-4.957-3.353-8.192 0-3.235 1.117-5.958 3.353-8.192 2.235-2.235 4.959-3.352 8.172-3.352 3.213 0 5.937 1.117 8.172 3.352 2.235 2.234 3.54 4.957 3.54 8.192v.303l-4.541 8.797zm-12.27-3.888c1.374 1.374 3.073 2.048 5.099 2.048 2.026 0 3.725-.674 5.099-2.048C31.314 30 31.99 28.277 31.99 26.16s-.699-3.863-2.05-5.237c-1.373-1.373-3.073-2.07-5.098-2.07-2.026 0-3.725.697-5.099 2.07-1.374 1.374-2.072 3.12-2.072 5.237.023 2.118.698 3.84 2.072 5.213z" stroke="#fff" stroke-width=".5" stroke-miterlimit="10"/><path d="M52.618 25.6v21.948h-4.284V33.304l-6.193 10.194h-.49l-6.193-10.147v14.197h-4.33V25.6h4.47l6.287 10.38L48.17 25.6h4.447z" fill="#E52527"/><path d="M53.55 30.395V48.41h-4.308V34.166l-6.17 10.194h-.512l-6.17-10.171v14.22h-4.33V26.462h4.447l6.31 10.38 4.61-7.634" stroke="#fff" stroke-width=".5" stroke-miterlimit="10"/><path d="M62.513 17.338v1.7c0 3.141-1 5.678-3.003 7.61-2.002 1.955-4.61 2.91-7.777 2.91-3.399 0-6.193-1.095-8.428-3.306-2.235-2.21-3.33-4.887-3.33-8.076 0-3.188 1.095-5.911 3.307-8.122 2.212-2.211 4.936-3.328 8.195-3.328 2.05 0 3.912.465 5.612 1.396 1.7.931 3.003 2.165 3.958 3.724l-3.702 2.141c-.513-.908-1.304-1.63-2.375-2.188-1.048-.558-2.235-.838-3.54-.838-2.095 0-3.818.675-5.168 2.048-1.35 1.374-2.026 3.096-2.026 5.19 0 2.072.676 3.771 2.05 5.12 1.373 1.35 3.189 2.026 5.447 2.026 1.677 0 3.05-.373 4.168-1.117 1.094-.745 1.84-1.77 2.235-3.05h-6.659v-3.816h11.036v-.023z" fill="#E72686"/><path d="M63.422 18.2v1.698c0 3.142-1.002 5.68-3.004 7.61-2.002 1.956-4.61 2.91-7.776 2.91-3.4 0-6.194-1.094-8.429-3.305-2.235-2.21-3.33-4.887-3.33-8.076 0-3.188 1.095-5.911 3.307-8.122 2.212-2.211 4.936-3.329 8.196-3.329 2.048 0 3.911.466 5.61 1.397 1.7.93 3.004 2.164 3.959 3.724l-3.702 2.14c-.512-.907-1.304-1.628-2.375-2.187-1.048-.558-2.235-.838-3.539-.838-2.096 0-3.818.675-5.169 2.048-1.35 1.373-2.026 3.096-2.026 5.19 0 2.072.676 3.77 2.05 5.12 1.373 1.35 3.19 2.026 5.448 2.026 1.676 0 3.05-.373 4.167-1.118 1.095-.744 1.84-1.768 2.235-3.049h-6.658v-3.816h11.036v-.024z" stroke="#fff" stroke-width=".5" stroke-miterlimit="10"/><path d="M21.21 57.323c0 .093.046.163.186.209.116.047.256.093.419.14.163.046.326.093.489.163.163.07.303.163.419.325.116.14.163.326.163.559 0 .35-.116.605-.373.791-.256.187-.558.28-.954.28-.675 0-1.141-.256-1.374-.792l.745-.419c.093.28.303.42.652.42.303 0 .466-.094.466-.28 0-.093-.047-.163-.187-.21a4.395 4.395 0 00-.419-.14c-.163-.046-.326-.092-.512-.162a1.079 1.079 0 01-.419-.303.83.83 0 01-.186-.535c0-.326.116-.582.349-.768.233-.186.535-.28.885-.28.256 0 .512.07.721.187.21.116.396.302.513.512l-.722.396c-.116-.233-.28-.326-.536-.326a.497.497 0 00-.279.07s-.047.07-.047.163zm4.423-.932h.838v3.282h-.838v-.372c-.21.302-.535.465-.978.465-.349 0-.652-.116-.884-.372-.233-.233-.35-.582-.35-1.001v-2.025h.839v1.909c0 .21.07.395.186.512a.65.65 0 00.465.186c.21 0 .396-.07.536-.21.14-.14.186-.349.186-.605v-1.769zm2.375.932c0 .093.047.163.187.209.116.047.256.093.419.14.163.046.326.093.489.163.163.07.302.163.419.325.116.14.163.326.163.559 0 .35-.117.605-.373.791-.256.187-.559.28-.954.28-.676 0-1.141-.256-1.374-.792l.745-.419c.093.28.303.42.652.42.302 0 .465-.094.465-.28 0-.093-.046-.163-.163-.21a4.395 4.395 0 00-.419-.14c-.162-.046-.325-.092-.488-.162a1.079 1.079 0 01-.42-.303.83.83 0 01-.186-.535c0-.326.117-.582.35-.768.232-.186.535-.28.884-.28.256 0 .512.07.722.187.21.116.396.302.512.512l-.722.396c-.116-.233-.279-.326-.535-.326a.497.497 0 00-.28.07c-.046 0-.093.07-.093.163zm4.075-1.025c.349 0 .651.117.884.373.233.233.35.582.35 1v2.026h-.839v-1.909c0-.21-.07-.396-.186-.512a.65.65 0 00-.466-.186c-.21 0-.395.07-.535.21-.14.139-.186.348-.186.604v1.77h-.862v-4.61h.862v1.677c.21-.303.535-.443.978-.443zm2.397-.302a.496.496 0 01-.372-.163.55.55 0 01-.163-.372c0-.14.047-.256.163-.373a.463.463 0 01.373-.163c.14 0 .28.047.372.163.093.117.163.233.163.373 0 .14-.046.256-.163.372a.55.55 0 01-.372.163zm-.418.396h.838v3.281h-.838v-3.281zm7.171 3.025l-.722.42-.419-.466c-.35.256-.768.396-1.234.396-.466 0-.861-.117-1.164-.373-.303-.256-.443-.582-.443-1 0-.28.07-.536.187-.769.14-.232.326-.419.582-.558a1.486 1.486 0 01-.233-.768c0-.396.14-.722.42-.954.279-.256.604-.373 1.023-.373.327 0 .63.093.885.256.256.163.466.42.582.745l-.768.442c-.116-.372-.35-.558-.675-.558a.587.587 0 00-.396.14.495.495 0 00-.163.348c0 .117.023.233.093.326s.163.233.28.373l.977 1.07c.093-.21.163-.465.233-.768l.769.442c-.094.35-.21.675-.396.978l.582.651zm-2.305-.488c.233 0 .442-.047.605-.163l-1.001-1.07-.023-.024a.734.734 0 00-.373.628c0 .187.07.35.186.466.163.116.35.163.606.163zm6.402-2.63c.443 0 .816.163 1.141.512.303.326.466.745.466 1.233 0 .49-.163.908-.466 1.234a1.537 1.537 0 01-1.14.512c-.466 0-.815-.163-1.071-.489v1.7h-.839v-4.61h.839v.397c.256-.326.605-.49 1.07-.49zm-.814 2.397a.914.914 0 00.652.256.914.914 0 00.651-.256.93.93 0 00.257-.675.97.97 0 00-.257-.675.914.914 0 00-.651-.256.914.914 0 00-.652.256.93.93 0 00-.256.675c0 .28.093.512.256.675zm3.446-2.7a.496.496 0 01-.373-.163.549.549 0 01-.163-.372c0-.14.047-.256.163-.373a.463.463 0 01.373-.163c.14 0 .28.047.372.163.093.117.163.233.163.373 0 .14-.046.256-.163.372a.55.55 0 01-.372.163zm-.42.396h.839v3.281h-.838v-3.281zm2.655 2.49h1.467v.791h-2.608v-.558l1.397-1.932h-1.327v-.791h2.468v.558l-1.397 1.932zm3.05 0h1.467v.791h-2.608v-.558l1.397-1.932h-1.327v-.791h2.468v.558l-1.397 1.932zm4.4-2.49h.838v3.281h-.838v-.395c-.256.325-.605.489-1.07.489-.443 0-.816-.164-1.142-.513a1.763 1.763 0 01-.465-1.233c0-.489.163-.908.465-1.234a1.537 1.537 0 011.141-.512c.466 0 .815.163 1.071.49v-.373zm-1.583 2.304a.915.915 0 00.652.256.915.915 0 00.652-.256.932.932 0 00.256-.675.971.971 0 00-.256-.675.915.915 0 00-.652-.256.915.915 0 00-.652.256.93.93 0 00-.256.675c0 .28.093.512.256.675z" fill="#fff"/><path d="M12.618 56.508H1V1h77.346v55.508H65.913" stroke="#fff" stroke-miterlimit="10"/></svg>