<svg width="70" height="54" fill="none" xmlns="http://www.w3.org/2000/svg"><path d="M28.477 29.7c-1.974 1.973-4.38 2.96-7.219 2.96-2.838 0-5.244-.987-7.219-2.96-1.974-1.974-2.961-4.38-2.961-7.237 0-2.858.987-5.263 2.961-7.237 1.975-1.973 4.38-2.96 7.22-2.96 2.837 0 5.244.987 7.218 2.96 1.974 1.974 3.126 4.38 3.126 7.237 0 2.858-1.131 5.263-3.126 7.237zm-11.723-2.632c1.213 1.213 2.715 1.81 4.504 1.81 1.79 0 3.29-.597 4.504-1.81 1.213-1.213 1.81-2.734 1.81-4.605 0-1.87-.617-3.413-1.81-4.626-1.213-1.212-2.715-1.83-4.504-1.83-1.79 0-3.29.617-4.504 1.83-1.213 1.213-1.83 2.755-1.83 4.626 0 1.871.617 3.413 1.83 4.605z" fill="#01B2E8"/><path d="M28.395 31.262c-1.79 1.44-3.908 2.159-6.335 2.159-2.838 0-5.244-.987-7.218-2.96-1.975-1.974-2.962-4.38-2.962-7.237 0-2.858.987-5.263 2.961-7.237 1.975-1.973 4.381-2.96 7.22-2.96 2.837 0 5.244.987 7.218 2.96 1.974 1.974 3.126 4.38 3.126 7.237v.267l-4.01 7.771zM17.556 27.83c1.214 1.213 2.715 1.81 4.504 1.81 1.79 0 3.291-.597 4.504-1.81 1.214-1.213 1.81-2.734 1.81-4.605 0-1.871-.617-3.413-1.81-4.626-1.213-1.213-2.714-1.83-4.504-1.83-1.789 0-3.29.617-4.504 1.83-1.213 1.213-1.83 2.755-1.83 4.626.02 1.87.617 3.392 1.83 4.605z" stroke="#000" stroke-width=".5" stroke-miterlimit="10"/><path d="M46.596 22.73v19.387h-3.784V29.535l-5.47 9.005h-.433l-5.47-8.964v12.541h-3.826V22.73h3.95l5.552 9.17 5.553-9.17h3.928z" fill="#E52527"/><path d="M47.419 26.965v15.913h-3.805V30.296l-5.45 9.005h-.453l-5.45-8.985v12.562h-3.825V23.49h3.928l5.574 9.17 4.072-6.744" stroke="#000" stroke-width=".5" stroke-miterlimit="10"/><path d="M55.337 15.432v1.5c0 2.776-.885 5.017-2.654 6.724-1.768 1.727-4.072 2.57-6.869 2.57-3.002 0-5.47-.967-7.445-2.92-1.974-1.953-2.94-4.317-2.94-7.134 0-2.816.966-5.222 2.92-7.175 1.954-1.953 4.36-2.94 7.24-2.94 1.809 0 3.454.412 4.956 1.234 1.501.822 2.653 1.912 3.496 3.29l-3.27 1.89c-.453-.801-1.152-1.438-2.098-1.932-.925-.493-1.974-.74-3.126-.74-1.851 0-3.373.596-4.566 1.81-1.193 1.212-1.79 2.733-1.79 4.584 0 1.83.597 3.33 1.81 4.523 1.214 1.192 2.818 1.788 4.813 1.788 1.481 0 2.694-.329 3.682-.987.966-.657 1.624-1.562 1.974-2.693h-5.882v-3.371h9.749v-.02z" fill="#E72686"/><path d="M56.139 16.193v1.5c0 2.776-.885 5.017-2.653 6.723-1.769 1.727-4.072 2.57-6.87 2.57-3.002 0-5.47-.966-7.444-2.92-1.975-1.952-2.941-4.316-2.941-7.133s.966-5.222 2.92-7.175c1.954-1.953 4.36-2.94 7.24-2.94 1.81 0 3.455.411 4.956 1.234 1.501.822 2.653 1.912 3.496 3.289l-3.27 1.891c-.452-.801-1.152-1.439-2.098-1.932-.925-.494-1.974-.74-3.126-.74-1.85 0-3.373.596-4.566 1.809-1.192 1.213-1.789 2.734-1.789 4.584 0 1.83.597 3.331 1.81 4.523 1.213 1.193 2.818 1.789 4.813 1.789 1.48 0 2.694-.329 3.681-.987.967-.658 1.625-1.562 1.974-2.693H46.39v-3.372h9.749v-.02z" stroke="#000" stroke-width=".5" stroke-miterlimit="10"/><path d="M18.852 50.752c0 .082.04.144.164.185.103.04.227.082.37.123.144.041.288.082.432.144a.829.829 0 01.37.288c.103.123.145.288.145.493 0 .309-.103.535-.33.7-.226.164-.493.246-.843.246-.596 0-1.008-.226-1.213-.699l.658-.37c.082.247.267.37.576.37.267 0 .411-.082.411-.247 0-.082-.041-.144-.164-.185a3.898 3.898 0 00-.37-.123 5.594 5.594 0 01-.453-.144.951.951 0 01-.37-.267.733.733 0 01-.165-.473c0-.288.103-.514.309-.679.205-.164.473-.246.781-.246.226 0 .453.061.638.164.185.103.35.268.452.453l-.637.349c-.103-.206-.247-.288-.473-.288a.439.439 0 00-.247.062s-.041.062-.041.144zm3.908-.822h.74v2.898h-.74V52.5c-.186.267-.474.411-.864.411-.309 0-.576-.102-.782-.328-.206-.206-.308-.514-.308-.885V49.91h.74v1.686c0 .185.062.35.165.452a.574.574 0 00.41.164.65.65 0 00.474-.185c.123-.123.165-.308.165-.534V49.93zm2.097.822c0 .082.041.144.165.185.102.04.226.082.37.123.144.041.288.082.432.144a.829.829 0 01.37.288c.103.123.144.288.144.493 0 .309-.103.535-.33.7-.225.164-.493.246-.842.246-.597 0-1.008-.226-1.214-.699l.658-.37c.082.247.268.37.576.37.267 0 .412-.082.412-.247 0-.082-.042-.144-.145-.185a3.879 3.879 0 00-.37-.123 3.538 3.538 0 01-.432-.144.951.951 0 01-.37-.267.733.733 0 01-.164-.473c0-.288.102-.514.308-.679.206-.164.473-.246.782-.246.226 0 .452.061.637.164.185.103.35.268.453.453l-.638.349c-.103-.206-.247-.288-.473-.288a.439.439 0 00-.247.062c-.04 0-.082.062-.082.144zm3.599-.905c.309 0 .576.103.782.33.206.205.308.513.308.883v1.789h-.74v-1.686a.64.64 0 00-.165-.452.574.574 0 00-.41-.165.652.652 0 00-.474.185c-.123.123-.165.309-.165.535v1.562h-.76v-4.07h.76v1.48c.186-.267.474-.39.864-.39zm2.119-.267a.438.438 0 01-.33-.144.485.485 0 01-.143-.329c0-.123.04-.226.143-.329a.41.41 0 01.33-.144.41.41 0 01.329.144c.082.103.144.206.144.33a.438.438 0 01-.144.328.486.486 0 01-.33.144zm-.37.35h.74v2.898h-.74V49.93zm6.334 2.672l-.638.37-.37-.411c-.308.226-.679.35-1.09.35-.411 0-.76-.103-1.028-.33-.268-.226-.391-.514-.391-.884 0-.246.062-.472.165-.678a1.32 1.32 0 01.514-.493 1.313 1.313 0 01-.206-.679c0-.35.123-.637.37-.843.247-.226.535-.329.905-.329.288 0 .555.083.782.227.226.143.411.37.514.657l-.679.391c-.103-.329-.308-.493-.596-.493a.519.519 0 00-.35.123.437.437 0 00-.144.308c0 .103.02.206.082.288.062.082.144.206.247.33l.864.945c.082-.185.144-.411.206-.679l.678.39a3.175 3.175 0 01-.35.864l.515.576zm-2.036-.432c.205 0 .39-.04.535-.144l-.885-.945-.02-.02a.648.648 0 00-.33.554.57.57 0 00.165.411c.144.103.308.144.535.144zm5.656-2.323c.39 0 .72.144 1.007.453.268.287.412.657.412 1.09 0 .43-.144.8-.412 1.089a1.358 1.358 0 01-1.007.452c-.412 0-.72-.144-.946-.432V54h-.74v-4.07h.74v.349c.226-.288.534-.432.946-.432zm-.72 2.118c.144.144.35.226.576.226a.808.808 0 00.575-.226.822.822 0 00.227-.597.858.858 0 00-.227-.596.808.808 0 00-.575-.226.808.808 0 00-.576.226.822.822 0 00-.226.596c0 .247.082.453.226.597zm3.044-2.385a.438.438 0 01-.33-.144.485.485 0 01-.143-.329c0-.123.04-.226.144-.329a.41.41 0 01.329-.144.41.41 0 01.329.144c.082.103.144.206.144.33a.438.438 0 01-.144.328.486.486 0 01-.33.144zm-.37.35h.74v2.898h-.74V49.93zm2.344 2.2h1.296v.698h-2.304v-.493l1.234-1.707h-1.172v-.699h2.18v.494l-1.234 1.706zm2.694 0h1.296v.698h-2.303v-.493l1.233-1.707h-1.172v-.699h2.18v.494l-1.234 1.706zm3.887-2.2h.74v2.898h-.74v-.35c-.226.288-.534.432-.946.432-.39 0-.72-.143-1.007-.452a1.558 1.558 0 01-.412-1.09c0-.431.144-.801.412-1.09a1.358 1.358 0 011.007-.451c.412 0 .72.144.947.431v-.329zm-1.398 2.035c.144.144.35.226.576.226a.808.808 0 00.576-.226.822.822 0 00.226-.597.858.858 0 00-.226-.596.808.808 0 00-.576-.226.808.808 0 00-.576.226.822.822 0 00-.226.596c0 .247.082.453.226.597z" fill="#000"/><path d="M11.263 50.032H1V1h68.322v49.032H58.339" stroke="#000" stroke-miterlimit="10"/></svg>