<svg width="28" height="24" fill="none" xmlns="http://www.w3.org/2000/svg"><path fill-rule="evenodd" clip-rule="evenodd" d="M3 2C1.355 2 0 3.355 0 5v14c0 1.645 1.355 3 3 3h22c1.645 0 3-1.355 3-3V5c0-1.645-1.355-3-3-3H3zm0 2h22c.566 0 1 .434 1 1v14c0 .566-.434 1-1 1H3c-.566 0-1-.434-1-1V5c0-.566.434-1 1-1zm0 8c0-3.855 3.145-7 7-7 1.484 0 2.863.453 4 1.25A6.944 6.944 0 0118 5c3.855 0 7 3.145 7 7s-3.145 7-7 7a6.944 6.944 0 01-4-1.25A6.933 6.933 0 0110 19c-3.855 0-7-3.145-7-7zm7-5c1.281 0 2.43.496 3.313 1.281a5.913 5.913 0 00-.97 1.719h2.22c.14.32.273.652.343 1h-2.812A5.984 5.984 0 0012 12c0 .344.04.676.094 1h2.812c-.07.348-.203.68-.344 1h-2.218c.222.629.558 1.207.969 1.719C12.43 16.504 11.28 17 10 17c-2.773 0-5-2.227-5-5s2.227-5 5-5zm13 5c0-2.773-2.227-5-5-5-.914 0-1.762.258-2.5.688A6.92 6.92 0 0117 12a6.92 6.92 0 01-1.5 4.313c.738.43 1.586.687 2.5.687 2.773 0 5-2.227 5-5z" fill="#fff"/><rect x="1" y="3" width="26" height="18" rx="3" fill="#fff"/><g clip-path="url(#clip0)"><path d="M26 12c0 3.962-3.2 7.2-7.2 7.2-3.962 0-7.2-3.238-7.2-7.2s3.2-7.2 7.162-7.2C22.8 4.8 26 8.038 26 12z" fill="#FFB600"/><path d="M18.8 4.8c3.962 0 7.2 3.238 7.2 7.2s-3.2 7.2-7.2 7.2c-3.962 0-7.2-3.238-7.2-7.2" fill="#FFB600"/><path d="M18.8 4.8c3.962 0 7.2 3.238 7.2 7.2s-3.2 7.2-7.2 7.2" fill="#FFB600"/><path d="M9.124 4.8A7.203 7.203 0 002 12c0 3.962 3.2 7.2 7.2 7.2 1.867 0 3.543-.723 4.838-1.866.267-.229.495-.496.724-.762h-1.486a8.747 8.747 0 01-.533-.724h2.552a4.88 4.88 0 00.42-.762h-3.391a4.54 4.54 0 01-.305-.762h3.962c.228-.724.38-1.486.38-2.286 0-.533-.075-1.028-.152-1.523h-4.418c.038-.267.114-.496.19-.762h3.962a4.54 4.54 0 00-.305-.762h-3.352c.114-.267.266-.495.419-.762h2.552a3.619 3.619 0 00-.571-.762h-1.41c.229-.267.457-.495.724-.724-1.257-1.18-2.971-1.867-4.838-1.867 0-.076 0-.076-.038-.076z" fill="#E52836"/><path d="M2 12c0 3.962 3.2 7.2 7.2 7.2 1.867 0 3.543-.723 4.838-1.866.267-.229.495-.496.724-.762h-1.486a8.764 8.764 0 01-.533-.724h2.552a4.88 4.88 0 00.42-.762h-3.391a4.54 4.54 0 01-.305-.762h3.962c.228-.724.38-1.486.38-2.286 0-.533-.075-1.028-.152-1.523h-4.418c.038-.267.114-.496.19-.762h3.962a4.54 4.54 0 00-.305-.762h-3.352c.114-.267.266-.495.419-.762h2.552a3.619 3.619 0 00-.571-.762h-1.41c.229-.267.457-.495.724-.724-1.257-1.18-2.971-1.867-4.838-1.867h-.038" fill="#E52836"/><path d="M9.2 19.2c1.866 0 3.543-.723 4.838-1.866.267-.229.495-.496.724-.762h-1.486a8.787 8.787 0 01-.533-.724h2.552c.152-.229.305-.495.419-.762h-3.39a4.54 4.54 0 01-.305-.762h3.962c.228-.724.38-1.486.38-2.286 0-.533-.076-1.028-.152-1.523H11.79c.038-.267.115-.496.19-.762h3.963a4.54 4.54 0 00-.305-.762h-3.353c.115-.267.267-.495.42-.762h2.552a3.623 3.623 0 00-.572-.762h-1.41A6.5 6.5 0 0114 6.743c-1.257-1.18-2.972-1.867-4.838-1.867h-.038" fill="#E52836"/><path d="M11.752 13.829l.114-.648c-.038 0-.114.038-.19.038-.267 0-.305-.152-.267-.229l.229-1.333h.419l.114-.724h-.38l.075-.457h-.761s-.457 2.514-.457 2.82c0 .456.266.647.609.647.229 0 .419-.076.495-.114zm.267-1.219c0 1.066.724 1.333 1.333 1.333.572 0 .8-.115.8-.115l.153-.723s-.42.19-.8.19c-.838 0-.686-.61-.686-.61h1.562s.114-.495.114-.685c0-.495-.266-1.105-1.104-1.105-.8-.076-1.372.762-1.372 1.714zm1.333-1.105c.42 0 .343.495.343.533h-.838c0-.038.076-.534.495-.534zm4.838 2.324l.153-.839s-.381.19-.648.19c-.533 0-.762-.418-.762-.875 0-.915.457-1.41.99-1.41.382 0 .687.229.687.229l.114-.8s-.457-.19-.876-.19c-.877 0-1.753.761-1.753 2.209 0 .952.457 1.6 1.372 1.6.304 0 .724-.114.724-.114zm-10.628-3.01c-.533 0-.914.152-.914.152l-.115.648s.343-.152.838-.152c.267 0 .496.038.496.266 0 .152-.038.19-.038.19h-.343c-.648 0-1.372.267-1.372 1.143 0 .686.457.839.724.839.533 0 .762-.343.8-.343l-.038.305h.686l.304-2.096c0-.914-.761-.952-1.028-.952zm.152 1.714c0 .114-.076.724-.533.724-.229 0-.305-.19-.305-.305 0-.19.114-.457.686-.457.114.038.152.038.152.038zm1.6 1.372c.19 0 1.143.038 1.143-.99 0-.953-.914-.763-.914-1.144 0-.19.152-.266.419-.266.114 0 .533.038.533.038l.114-.686s-.266-.076-.723-.076c-.572 0-1.143.228-1.143.99 0 .876.952.8.952 1.143 0 .229-.267.267-.457.267-.343 0-.686-.114-.686-.114l-.114.685c.038.076.229.153.876.153zm15.2-3.695l-.152 1.028s-.305-.38-.724-.38c-.686 0-1.295.837-1.295 1.828 0 .61.305 1.257.952 1.257.457 0 .724-.305.724-.305l-.038.267h.762l.571-3.657-.8-.038zm-.343 2.018c0 .42-.19.953-.61.953-.266 0-.418-.229-.418-.61 0-.61.266-.99.61-.99.266 0 .418.19.418.648zM3.41 13.867l.456-2.743.077 2.743h.533l.99-2.743-.419 2.743h.8l.61-3.658H5.2l-.762 2.248L4.4 10.21H3.295l-.61 3.658h.724zm11.809 0c.229-1.258.267-2.286.8-2.096.076-.495.19-.686.267-.876h-.153c-.343 0-.61.457-.61.457l.077-.419h-.724l-.495 2.972h.838v-.038zm4.724-3.048c-.534 0-.915.152-.915.152l-.114.648s.343-.152.838-.152c.267 0 .495.038.495.266 0 .152-.038.19-.038.19h-.343c-.647 0-1.37.267-1.37 1.143 0 .686.456.839.723.839.533 0 .762-.343.8-.343l-.038.305h.685l.305-2.096c.038-.914-.762-.952-1.028-.952zm.19 1.714c0 .114-.076.724-.533.724-.229 0-.305-.19-.305-.305 0-.19.114-.457.686-.457.114.038.114.038.152.038zm1.486 1.334c.228-1.258.267-2.286.8-2.096.076-.495.19-.686.267-.876h-.153c-.343 0-.61.457-.61.457l.077-.419h-.724l-.495 2.972h.838v-.038z" fill="#fff"/><path d="M10.571 13.295c0 .457.267.648.61.648.267 0 .495-.076.571-.114l.114-.648c-.038 0-.114.038-.19.038-.267 0-.305-.152-.267-.229l.229-1.333h.419l.114-.724h-.38l.075-.457m.534 2.134c0 1.066.343 1.333.952 1.333.572 0 .8-.115.8-.115l.153-.723s-.42.19-.8.19c-.838 0-.686-.61-.686-.61h1.562s.114-.495.114-.685c0-.495-.266-1.105-1.105-1.105-.8-.076-.99.762-.99 1.714zm.952-1.105c.42 0 .495.495.495.533h-.99c0-.038.076-.534.495-.534zm4.838 2.324l.153-.839s-.381.19-.648.19c-.533 0-.762-.418-.762-.875 0-.915.457-1.41.99-1.41.382 0 .686.229.686.229l.115-.8s-.457-.19-.877-.19c-.876 0-1.37.761-1.37 2.209 0 .952.075 1.6.99 1.6.304 0 .723-.114.723-.114zM6.533 11.657s.343-.152.838-.152c.267 0 .496.038.496.266 0 .153-.038.19-.038.19h-.343c-.648 0-1.372.267-1.372 1.143 0 .686.457.839.724.839.533 0 .762-.343.8-.343l-.038.305h.686l.304-2.096c0-.876-.761-.914-1.066-.914l-.99.762zm1.562.876c0 .114-.457.724-.914.724-.229 0-.305-.19-.305-.305 0-.19.114-.457.686-.457.114.038.533.038.533.038zm.381 1.295s.229.077.876.077c.19 0 1.143.038 1.143-.99 0-.953-.914-.763-.914-1.144 0-.19.152-.266.419-.266.114 0 .533.038.533.038l.115-.686s-.267-.076-.724-.076c-.572 0-.762.228-.762.99 0 .876.571.8.571 1.143 0 .229-.266.267-.457.267m15.086-1.943s-.305-.38-.724-.38c-.686 0-.915.837-.915 1.828 0 .61-.076 1.257.572 1.257.457 0 .724-.305.724-.305l-.038.267h.761l.572-3.657-.952.99zm-.038.99c0 .42-.343.953-.762.953-.267 0-.42-.229-.42-.61 0-.61.267-.99.61-.99.267 0 .572.19.572.648zM3.41 13.867l.456-2.743.077 2.743h.533l.99-2.743-.419 2.743h.8l.61-3.658h-.952l-1.067 2.248L4.4 10.21h-.42l-1.294 3.658h.723zm11.009 0h.8c.229-1.258.267-2.286.8-2.096.076-.495.19-.686.267-.876h-.153c-.343 0-.61.457-.61.457l.077-.419m3.314.724s.343-.152.838-.152c.267 0 .495.038.495.266 0 .153-.038.19-.038.19h-.343c-.647 0-1.37.267-1.37 1.143 0 .686.456.839.723.839.533 0 .762-.343.8-.343l-.038.305h.685l.305-2.096c0-.876-.762-.914-1.066-.914l-.99.762zm1.562.876c0 .114-.457.724-.914.724-.229 0-.305-.19-.305-.305 0-.19.114-.457.686-.457.152.038.533.038.533.038zm.343 1.334h.8c.228-1.258.267-2.286.8-2.096.076-.495.19-.686.267-.876h-.153c-.343 0-.61.457-.61.457l.077-.419" fill="#DCE5E5"/></g><defs><clipPath id="clip0"><path fill="#fff" transform="translate(2)" d="M0 0h24v24H0z"/></clipPath></defs></svg>