<svg width="30" height="30" fill="none" xmlns="http://www.w3.org/2000/svg"><g clip-path="url(#clip0)"><path d="M15 17.015A8.508 8.508 0 1015 0a8.508 8.508 0 000 17.015z" fill="url(#paint0_linear)"/><path d="M15 0c-.4 0-.793.028-1.177.081a8.509 8.509 0 010 16.853A8.508 8.508 0 1015 0z" fill="url(#paint1_linear)"/><path d="M15 15.227a6.72 6.72 0 100-13.439 6.72 6.72 0 000 13.44z" fill="url(#paint2_linear)"/><path d="M15.066 12.938a.77.77 0 00-.069-.317 2.441 2.441 0 001.186-3.661 2.388 2.388 0 00-2.92-2.26 2.104 2.104 0 00-1.348.12 1.474 1.474 0 10-1.128 2.607c.004.012.007.025.012.037a2.272 2.272 0 002.732 3.327.774.774 0 101.535.147z" fill="url(#paint3_linear)"/><path d="M16.257 5.26a.775.775 0 100-1.548.775.775 0 000 1.549z" fill="url(#paint4_linear)"/><path d="M12.053 4.684a.775.775 0 100-1.549.775.775 0 000 1.55z" fill="url(#paint5_linear)"/><path d="M14.954 1.788a6.756 6.756 0 00-1.131.103 6.721 6.721 0 014.266 10.557 1.271 1.271 0 00-2.258 1.128.852.852 0 01-.449 1.07 6.666 6.666 0 01-1.56.478 6.72 6.72 0 007.896-6.685c-.035-3.684-3.08-6.675-6.764-6.65z" fill="url(#paint6_linear)"/><path d="M16.339 5.762a2.758 2.758 0 10-4.471 3.23c.891 1.234 5.363-1.995 4.471-3.23z" fill="url(#paint7_linear)"/><path d="M18.21 7.276c-.937-1.299-5.64 2.098-4.703 3.397a2.901 2.901 0 004.704-3.397z" fill="url(#paint8_linear)"/><path d="M11.83 10.898a2.958 2.958 0 01-.378-2.76c.086.299.223.587.416.853.475.659 1.97.047 3.125-.855.999 1.25 1.695 2.908.974 3.429a2.963 2.963 0 01-4.136-.667z" fill="url(#paint9_linear)"/><path d="M18.473 6.306a2.545 2.545 0 00-3.554-.574c-1.14.823 1.841 4.95 2.98 4.127a2.545 2.545 0 00.574-3.553z" fill="url(#paint10_linear)"/><path d="M8.508 27.124a8.508 8.508 0 100-17.016 8.508 8.508 0 000 17.016z" fill="url(#paint11_linear)"/><path d="M8.508 10.108c-.4 0-.793.028-1.177.082a8.509 8.509 0 010 16.852 8.508 8.508 0 101.177-16.934z" fill="url(#paint12_linear)"/><path d="M8.508 25.335a6.72 6.72 0 100-13.439 6.72 6.72 0 000 13.44z" fill="url(#paint13_linear)"/><path d="M8.574 23.046a.77.77 0 00-.069-.317 2.441 2.441 0 001.186-3.661 2.388 2.388 0 00-2.92-2.26 2.103 2.103 0 00-1.349.12 1.474 1.474 0 10-1.128 2.607l.013.037A2.272 2.272 0 007.039 22.9a.774.774 0 101.535.147z" fill="url(#paint14_linear)"/><path d="M9.765 15.37a.775.775 0 100-1.55.775.775 0 000 1.55z" fill="url(#paint15_linear)"/><path d="M5.561 14.793a.774.774 0 100-1.55.774.774 0 000 1.55z" fill="url(#paint16_linear)"/><path d="M8.462 11.896A6.757 6.757 0 007.331 12a6.721 6.721 0 014.266 10.557 1.271 1.271 0 00-2.258 1.129.852.852 0 01-.45 1.07 6.666 6.666 0 01-1.558.478 6.72 6.72 0 007.896-6.685c-.037-3.685-3.08-6.676-6.765-6.652z" fill="url(#paint17_linear)"/><path d="M5.584 17.731a2.758 2.758 0 003.9 3.9c1.077-1.076-2.823-4.977-3.9-3.9z" fill="url(#paint18_linear)"/><path d="M6.78 15.642c-1.133 1.133 2.97 5.236 4.103 4.103a2.901 2.901 0 00-4.103-4.103z" fill="url(#paint19_linear)"/><path d="M11.372 21.364a2.958 2.958 0 01-2.664.813c.281-.132.544-.314.776-.546.574-.574-.268-1.952-1.342-2.949 1.075-1.185 2.6-2.137 3.23-1.508a2.963 2.963 0 010 4.19z" fill="url(#paint20_linear)"/><path d="M5.78 15.538a2.545 2.545 0 000 3.6c.995.993 4.594-2.606 3.6-3.6a2.545 2.545 0 00-3.6 0z" fill="url(#paint21_linear)"/><path d="M21.493 27.124a8.508 8.508 0 100-17.016 8.508 8.508 0 000 17.016z" fill="url(#paint22_linear)"/><path d="M21.492 10.108a8.47 8.47 0 00-1.177.082 8.509 8.509 0 010 16.852 8.508 8.508 0 101.177-16.934z" fill="url(#paint23_linear)"/><path d="M21.492 25.335a6.72 6.72 0 100-13.438 6.72 6.72 0 000 13.438z" fill="url(#paint24_linear)"/><path d="M21.559 23.046a.77.77 0 00-.069-.317 2.441 2.441 0 001.186-3.661 2.388 2.388 0 00-2.92-2.26 2.103 2.103 0 00-1.349.12 1.474 1.474 0 10-1.128 2.607l.012.037a2.272 2.272 0 002.733 3.327.774.774 0 101.535.147z" fill="url(#paint25_linear)"/><path d="M22.75 15.37a.774.774 0 100-1.55.774.774 0 000 1.55z" fill="url(#paint26_linear)"/><path d="M18.546 14.793a.774.774 0 100-1.55.774.774 0 000 1.55z" fill="url(#paint27_linear)"/><path d="M21.447 11.896a6.756 6.756 0 00-1.131.103 6.721 6.721 0 014.266 10.557 1.271 1.271 0 00-2.258 1.129.852.852 0 01-.45 1.07 6.666 6.666 0 01-1.559.478 6.72 6.72 0 007.896-6.685c-.036-3.685-3.08-6.676-6.764-6.652z" fill="url(#paint28_linear)"/><path d="M24.416 19.5a2.758 2.758 0 00-3.9-3.9c-1.077 1.077 2.824 4.978 3.9 3.9z" fill="url(#paint29_linear)"/><path d="M23.22 21.59c1.133-1.133-2.97-5.236-4.103-4.103a2.901 2.901 0 004.103 4.103z" fill="url(#paint30_linear)"/><path d="M18.628 15.868a2.958 2.958 0 012.664-.813c-.28.132-.544.313-.776.546-.574.574.268 1.952 1.342 2.949-1.075 1.185-2.6 2.137-3.23 1.508a2.964 2.964 0 010-4.19z" fill="url(#paint31_linear)"/><path d="M24.22 21.694a2.545 2.545 0 000-3.6c-.994-.993-4.594 2.606-3.6 3.6a2.545 2.545 0 003.6 0z" fill="url(#paint32_linear)"/><path d="M6.384 30H3.88a.805.805 0 01-.805-.805v-1.313H7.19v1.313c0 .445-.36.805-.805.805z" fill="url(#paint33_linear)"/><path d="M26.12 30h-2.503a.805.805 0 01-.806-.805v-1.313h4.114v1.313c0 .445-.36.805-.805.805z" fill="url(#paint34_linear)"/><path d="M28.501 28.435H1.5a1.499 1.499 0 110-2.998h27a1.499 1.499 0 110 2.998z" fill="url(#paint35_linear)"/><path d="M28.501 25.437h-2.354a1.499 1.499 0 010 2.998h2.354a1.499 1.499 0 000-2.998z" fill="url(#paint36_linear)"/></g><defs><linearGradient id="paint0_linear" x1="6.656" y1="8.508" x2="29.647" y2="8.508" gradientUnits="userSpaceOnUse"><stop stop-color="#537983"/><stop offset=".593" stop-color="#554E56"/><stop offset="1" stop-color="#433F43"/></linearGradient><linearGradient id="paint1_linear" x1=".176" y1="8.508" x2="21.719" y2="8.508" gradientUnits="userSpaceOnUse"><stop stop-color="#537983"/><stop offset=".593" stop-color="#554E56"/><stop offset="1" stop-color="#433F43"/></linearGradient><linearGradient id="paint2_linear" x1="8.156" y1="8.508" x2="21.127" y2="8.508" gradientUnits="userSpaceOnUse"><stop stop-color="#F8F6F7"/><stop offset=".179" stop-color="#F8F6F7"/><stop offset="1" stop-color="#E7E6F5"/></linearGradient><linearGradient id="paint3_linear" x1="4.627" y1="10.103" x2="21.939" y2="10.103" gradientUnits="userSpaceOnUse"><stop stop-color="#F8F6F7"/><stop offset="1" stop-color="#D1CEEB"/></linearGradient><linearGradient id="paint4_linear" x1="4.628" y1="4.486" x2="21.939" y2="4.486" gradientUnits="userSpaceOnUse"><stop stop-color="#F8F6F7"/><stop offset="1" stop-color="#D1CEEB"/></linearGradient><linearGradient id="paint5_linear" x1="4.628" y1="3.91" x2="21.939" y2="3.91" gradientUnits="userSpaceOnUse"><stop stop-color="#F8F6F7"/><stop offset="1" stop-color="#D1CEEB"/></linearGradient><linearGradient id="paint6_linear" x1="4.627" y1="8.508" x2="21.939" y2="8.508" gradientUnits="userSpaceOnUse"><stop stop-color="#F8F6F7"/><stop offset="1" stop-color="#D1CEEB"/></linearGradient><linearGradient id="paint7_linear" x1="11.118" y1="6.943" x2="16.593" y2="6.943" gradientUnits="userSpaceOnUse"><stop stop-color="#FEF056"/><stop offset=".521" stop-color="#F4D902"/><stop offset="1" stop-color="#FE9738"/></linearGradient><linearGradient id="paint8_linear" x1="12.588" y1="9.43" x2="18.63" y2="9.43" gradientUnits="userSpaceOnUse"><stop stop-color="#FBC56D"/><stop offset=".593" stop-color="#C86D36"/><stop offset="1" stop-color="#904D24"/></linearGradient><linearGradient id="paint9_linear" x1="11.088" y1="10.131" x2="17.676" y2="10.131" gradientUnits="userSpaceOnUse"><stop stop-color="#A2E62E"/><stop offset=".586" stop-color="#81B823"/><stop offset="1" stop-color="#037E73"/></linearGradient><linearGradient id="paint10_linear" x1="14.97" y1="7.609" x2="22.3" y2="7.609" gradientUnits="userSpaceOnUse"><stop stop-color="#FE646F"/><stop offset=".593" stop-color="#FB2B3A"/><stop offset="1" stop-color="#C41926"/></linearGradient><linearGradient id="paint11_linear" x1=".164" y1="18.616" x2="23.155" y2="18.616" gradientUnits="userSpaceOnUse"><stop stop-color="#537983"/><stop offset=".593" stop-color="#554E56"/><stop offset="1" stop-color="#433F43"/></linearGradient><linearGradient id="paint12_linear" x1="-6.316" y1="18.616" x2="15.227" y2="18.616" gradientUnits="userSpaceOnUse"><stop stop-color="#537983"/><stop offset=".593" stop-color="#554E56"/><stop offset="1" stop-color="#433F43"/></linearGradient><linearGradient id="paint13_linear" x1="1.664" y1="18.616" x2="14.635" y2="18.616" gradientUnits="userSpaceOnUse"><stop stop-color="#F8F6F7"/><stop offset=".179" stop-color="#F8F6F7"/><stop offset="1" stop-color="#E7E6F5"/></linearGradient><linearGradient id="paint14_linear" x1="-1.865" y1="20.211" x2="15.447" y2="20.211" gradientUnits="userSpaceOnUse"><stop stop-color="#F8F6F7"/><stop offset="1" stop-color="#D1CEEB"/></linearGradient><linearGradient id="paint15_linear" x1="-1.865" y1="14.595" x2="15.447" y2="14.595" gradientUnits="userSpaceOnUse"><stop stop-color="#F8F6F7"/><stop offset="1" stop-color="#D1CEEB"/></linearGradient><linearGradient id="paint16_linear" x1="-1.865" y1="14.018" x2="15.447" y2="14.018" gradientUnits="userSpaceOnUse"><stop stop-color="#F8F6F7"/><stop offset="1" stop-color="#D1CEEB"/></linearGradient><linearGradient id="paint17_linear" x1="-1.865" y1="18.616" x2="15.447" y2="18.616" gradientUnits="userSpaceOnUse"><stop stop-color="#F8F6F7"/><stop offset="1" stop-color="#D1CEEB"/></linearGradient><linearGradient id="paint18_linear" x1="3.891" y1="19.992" x2="10.125" y2="19.992" gradientUnits="userSpaceOnUse"><stop stop-color="#FEF056"/><stop offset=".521" stop-color="#F4D902"/><stop offset="1" stop-color="#FE9738"/></linearGradient><linearGradient id="paint19_linear" x1="5.881" y1="17.367" x2="12.892" y2="17.367" gradientUnits="userSpaceOnUse"><stop stop-color="#FBC56D"/><stop offset=".593" stop-color="#C86D36"/><stop offset="1" stop-color="#904D24"/></linearGradient><linearGradient id="paint20_linear" x1="7.782" y1="19.603" x2="13.12" y2="19.603" gradientUnits="userSpaceOnUse"><stop stop-color="#A2E62E"/><stop offset=".586" stop-color="#81B823"/><stop offset="1" stop-color="#037E73"/></linearGradient><linearGradient id="paint21_linear" x1="4.291" y1="17.051" x2="11.079" y2="17.051" gradientUnits="userSpaceOnUse"><stop stop-color="#FE646F"/><stop offset=".593" stop-color="#FB2B3A"/><stop offset="1" stop-color="#C41926"/></linearGradient><linearGradient id="paint22_linear" x1="13.149" y1="18.616" x2="36.14" y2="18.616" gradientUnits="userSpaceOnUse"><stop stop-color="#537983"/><stop offset=".593" stop-color="#554E56"/><stop offset="1" stop-color="#433F43"/></linearGradient><linearGradient id="paint23_linear" x1="6.669" y1="18.616" x2="28.212" y2="18.616" gradientUnits="userSpaceOnUse"><stop stop-color="#537983"/><stop offset=".593" stop-color="#554E56"/><stop offset="1" stop-color="#433F43"/></linearGradient><linearGradient id="paint24_linear" x1="14.648" y1="18.616" x2="27.619" y2="18.616" gradientUnits="userSpaceOnUse"><stop stop-color="#F8F6F7"/><stop offset=".179" stop-color="#F8F6F7"/><stop offset="1" stop-color="#E7E6F5"/></linearGradient><linearGradient id="paint25_linear" x1="11.12" y1="20.211" x2="28.432" y2="20.211" gradientUnits="userSpaceOnUse"><stop stop-color="#F8F6F7"/><stop offset="1" stop-color="#D1CEEB"/></linearGradient><linearGradient id="paint26_linear" x1="11.12" y1="14.595" x2="28.432" y2="14.595" gradientUnits="userSpaceOnUse"><stop stop-color="#F8F6F7"/><stop offset="1" stop-color="#D1CEEB"/></linearGradient><linearGradient id="paint27_linear" x1="11.12" y1="14.018" x2="28.432" y2="14.018" gradientUnits="userSpaceOnUse"><stop stop-color="#F8F6F7"/><stop offset="1" stop-color="#D1CEEB"/></linearGradient><linearGradient id="paint28_linear" x1="11.12" y1="18.616" x2="28.432" y2="18.616" gradientUnits="userSpaceOnUse"><stop stop-color="#F8F6F7"/><stop offset="1" stop-color="#D1CEEB"/></linearGradient><linearGradient id="paint29_linear" x1="19.765" y1="17.24" x2="25.72" y2="17.24" gradientUnits="userSpaceOnUse"><stop stop-color="#FEF056"/><stop offset=".521" stop-color="#F4D902"/><stop offset="1" stop-color="#FE9738"/></linearGradient><linearGradient id="paint30_linear" x1="17.441" y1="19.865" x2="23.647" y2="19.865" gradientUnits="userSpaceOnUse"><stop stop-color="#FBC56D"/><stop offset=".593" stop-color="#C86D36"/><stop offset="1" stop-color="#904D24"/></linearGradient><linearGradient id="paint31_linear" x1="17.765" y1="17.629" x2="23.27" y2="17.629" gradientUnits="userSpaceOnUse"><stop stop-color="#A2E62E"/><stop offset=".586" stop-color="#81B823"/><stop offset="1" stop-color="#037E73"/></linearGradient><linearGradient id="paint32_linear" x1="20.383" y1="20.181" x2="27.231" y2="20.181" gradientUnits="userSpaceOnUse"><stop stop-color="#FE646F"/><stop offset=".593" stop-color="#FB2B3A"/><stop offset="1" stop-color="#C41926"/></linearGradient><linearGradient id="paint33_linear" x1=".134" y1="28.941" x2="8.452" y2="28.941" gradientUnits="userSpaceOnUse"><stop stop-color="#FBC56D"/><stop offset=".593" stop-color="#C86D36"/><stop offset="1" stop-color="#904D24"/></linearGradient><linearGradient id="paint34_linear" x1="19.87" y1="28.941" x2="28.189" y2="28.941" gradientUnits="userSpaceOnUse"><stop stop-color="#FBC56D"/><stop offset=".593" stop-color="#C86D36"/><stop offset="1" stop-color="#904D24"/></linearGradient><linearGradient id="paint35_linear" x1="0" y1="26.936" x2="33.765" y2="26.936" gradientUnits="userSpaceOnUse"><stop stop-color="#FBC56D"/><stop offset=".593" stop-color="#C86D36"/><stop offset="1" stop-color="#904D24"/></linearGradient><linearGradient id="paint36_linear" x1="5.921" y1="26.936" x2="21.69" y2="26.936" gradientUnits="userSpaceOnUse"><stop stop-color="#FBC56D"/><stop offset=".593" stop-color="#C86D36"/><stop offset="1" stop-color="#904D24"/></linearGradient><clipPath id="clip0"><path fill="#fff" d="M0 0h30v30H0z"/></clipPath></defs></svg>