<svg width="19" height="33" fill="none" xmlns="http://www.w3.org/2000/svg"><g clip-path="url(#clip0)"><path d="M7.937 0c-.852 0-1.544.68-1.544 1.518L6.39 4.919c0 .4-.026.798-.074 1.19l6.347.003a9.865 9.865 0 01-.072-1.19l.002-3.402c0-.838-.69-1.519-1.543-1.52H7.937z" fill="url(#paint0_linear)"/><path d="M13.098 8.955l.002-4.92-7.225-.003-.003 4.92a8.135 8.135 0 01-1.54 4.755 8.142 8.142 0 00-1.54 4.755l-.007 12.13c0 1.328 1.092 2.404 2.44 2.404l8.493.004c1.349 0 2.442-1.074 2.443-2.4l.007-12.131a8.142 8.142 0 00-1.535-4.757 8.142 8.142 0 01-1.535-4.757z" fill="url(#paint1_linear)"/><path d="M5.875 4.032l-.003 4.92c0 .4-.03.798-.09 1.19l7.404.003a8.11 8.11 0 01-.088-1.19l.002-4.92-7.225-.003z" fill="url(#paint2_linear)"/><path d="M13.186 10.145h-1.817L5.875 4.739v-.707l7.225.003-.003 4.92c0 .4.03.797.089 1.19z" fill="url(#paint3_linear)"/><path d="M12.494 4.892L6.48 4.89c-.689 0-1.246-.55-1.246-1.227 0-.678.559-1.226 1.247-1.226l6.015.002c.688 0 1.246.55 1.246 1.227 0 .678-.56 1.227-1.248 1.226z" fill="url(#paint4_linear)"/><path d="M16.161 30.6l.005-8.338-13.376-.006-.005 8.337c0 1.327 1.092 2.403 2.44 2.403l8.493.004c1.349 0 2.442-1.074 2.443-2.4z" fill="url(#paint5_linear)"/><path d="M5.226 32.996l8.492.004c1.349 0 2.442-1.074 2.443-2.4v-.267L4.741 19.098a4.446 4.446 0 00-1.927-1.228 8.077 8.077 0 00-.022.593l-.007 12.13c0 1.327 1.092 2.403 2.44 2.403z" fill="url(#paint6_linear)"/><path d="M15.185 20.913a1.298 1.298 0 00-1.815 0L8.668 25.54a1.248 1.248 0 000 1.786l5.685 5.593c1.04-.275 1.807-1.209 1.808-2.319l.005-8.72-.981-.966z" fill="url(#paint7_linear)"/><path d="M15.086 20.816l-4.702-4.626a1.298 1.298 0 00-1.815 0l-4.702 4.626a1.248 1.248 0 000 1.786l4.702 4.625a1.298 1.298 0 001.815 0l4.702-4.625a1.248 1.248 0 000-1.786z" fill="url(#paint8_linear)"/><path d="M5.177 19.527l-1.31 1.289a1.248 1.248 0 000 1.785l4.702 4.626a1.298 1.298 0 001.815 0l1.31-1.289-6.517-6.411z" fill="url(#paint9_linear)"/><path d="M11.71 23.404l-1.934 1.904a.429.429 0 01-.6 0l-1.934-1.904a.5.5 0 00-.698 0 .48.48 0 000 .686l1.935 1.904c.275.27.636.405.997.405s.722-.135.997-.405l1.935-1.904a.48.48 0 000-.686.5.5 0 00-.697 0z" fill="url(#paint10_linear)"/><path d="M10.473 25.994l.639-.629-.698-.686-.638.628a.429.429 0 01-.6 0l-1.934-1.903a.5.5 0 00-.698 0 .48.48 0 000 .686l1.935 1.904c.275.27.636.405.997.405s.722-.135.997-.405z" fill="url(#paint11_linear)"/><path d="M7.242 21.014l1.935-1.904a.429.429 0 01.599 0l1.935 1.904a.496.496 0 00.697 0 .48.48 0 000-.687l-1.935-1.903a1.428 1.428 0 00-1.994 0l-1.935 1.903a.48.48 0 000 .687.5.5 0 00.698 0z" fill="url(#paint12_linear)"/><path d="M12.68 24l-6.362-.004C5.59 23.996 5 23.101 5 21.997 5 20.894 5.591 20 6.32 20l6.362.004c.728 0 1.318.895 1.318 1.999C14 23.106 13.409 24 12.68 24z" fill="url(#paint13_linear)"/><path d="M6.122 20C5.48 20.211 5 21.012 5 21.97c0 1.12.652 2.028 1.458 2.029L9 24l-2.878-4z" fill="url(#paint14_linear)"/><path d="M7.561 21c.167 0 .307.082.42.247l.009.034v.036c0 .066-.042.106-.126.121-.038 0-.09-.039-.156-.117a.236.236 0 00-.132-.047h-.028c-.09 0-.158.052-.204.156a.175.175 0 00-.015.07v.041c0 .11.062.19.186.24.109 0 .228.057.358.169a.65.65 0 01.187.449.6.6 0 01-.24.491.53.53 0 01-.325.11c-.192 0-.353-.09-.481-.273L7 22.67c.016-.092.059-.138.13-.138.044 0 .095.04.153.118.068.05.131.076.189.076h.042c.111 0 .201-.068.27-.204a.452.452 0 00.016-.098v-.05c0-.119-.064-.216-.191-.29l-.243-.073c-.196-.12-.294-.28-.294-.475V21.5c0-.195.096-.346.288-.455a.524.524 0 01.2-.045zm1.799.003c.314 0 .576.155.787.467.095.178.143.356.143.536 0 .333-.14.61-.42.831a.875.875 0 01-.501.163H9.35c-.32 0-.581-.16-.783-.478a1.045 1.045 0 01-.138-.525c0-.32.13-.587.39-.805a.89.89 0 01.541-.19zm-.673 1.008a.73.73 0 00.286.584.63.63 0 00.377.128h.024c.21 0 .388-.1.534-.301a.759.759 0 00.124-.421.713.713 0 00-.335-.62.634.634 0 00-.337-.102c-.222 0-.407.104-.554.313a.754.754 0 00-.12.42zm2.64-.249c.293-.473.447-.716.463-.729.023-.018.045-.028.064-.028h.029c.057 0 .096.044.117.131 0 .041-.056.144-.168.308l-.375.6v.808c-.01.099-.05.148-.117.148h-.02c-.06 0-.1-.038-.122-.115v-.836c0-.005-.064-.109-.191-.313l-.34-.549-.008-.047c.02-.09.059-.135.119-.135h.02c.057 0 .1.04.13.118l.399.639z" fill="#fff"/></g><defs><linearGradient id="paint0_linear" x1="9.697" y1=".415" x2="9.597" y2="2.44" gradientUnits="userSpaceOnUse"><stop stop-color="#C41926"/><stop offset=".207" stop-color="#C41926"/><stop offset=".529" stop-color="#E31E24"/><stop offset=".923" stop-color="#E31E24"/><stop offset="1" stop-color="#E31E24"/></linearGradient><linearGradient id="paint1_linear" x1="6.064" y1="18.516" x2="15.449" y2="16.502" gradientUnits="userSpaceOnUse"><stop stop-color="#1D0103"/><stop offset=".711" stop-color="#260300"/><stop offset="1" stop-color="#4A0E00"/></linearGradient><linearGradient id="paint2_linear" x1="6.262" y1="7.089" x2="12.381" y2="7.089" gradientUnits="userSpaceOnUse"><stop stop-color="#EDF5FF"/><stop offset="1" stop-color="#C7E9FF"/></linearGradient><linearGradient id="paint3_linear" x1="9.53" y1="7.549" x2="9.53" y2="3.664" gradientUnits="userSpaceOnUse"><stop stop-color="#9AC0E7" stop-opacity="0"/><stop offset="1" stop-color="#9DC1E7"/></linearGradient><linearGradient id="paint4_linear" x1="7.556" y1="1.865" x2="11.115" y2="5.49" gradientUnits="userSpaceOnUse"><stop stop-color="#1D0002"/><stop offset="1" stop-color="#2D0800"/></linearGradient><linearGradient id="paint5_linear" x1="9.475" y1="28.082" x2="9.475" y2="32.034" gradientUnits="userSpaceOnUse"><stop stop-color="#F82814" stop-opacity="0"/><stop offset="1" stop-color="#C0272D"/></linearGradient><linearGradient id="paint6_linear" x1="14.062" y1="29.133" x2="4.06" y2="25.404" gradientUnits="userSpaceOnUse"><stop stop-color="#3A0A01"/><stop offset="1" stop-color="#320900"/></linearGradient><linearGradient id="paint7_linear" x1="18.849" y1="30.929" x2="11.786" y2="23.749" gradientUnits="userSpaceOnUse"><stop stop-color="#270401"/><stop offset="1" stop-color="#490E01"/></linearGradient><linearGradient id="paint8_linear" x1="6.566" y1="18.846" x2="11.516" y2="23.878" gradientUnits="userSpaceOnUse"><stop stop-color="#EDF5FF"/><stop offset="1" stop-color="#C7E9FF"/></linearGradient><linearGradient id="paint9_linear" x1="13.345" y1="29.744" x2="2.768" y2="18.992" gradientUnits="userSpaceOnUse"><stop stop-color="#fff" stop-opacity="0"/><stop offset=".343" stop-color="#CDE0F3" stop-opacity=".343"/><stop offset=".787" stop-color="#92BAE4" stop-opacity=".787"/><stop offset="1" stop-color="#7BACDF"/></linearGradient><linearGradient id="paint10_linear" x1="4.894" y1="19.239" x2="11.405" y2="25.858" gradientUnits="userSpaceOnUse"><stop stop-color="#FEF056"/><stop offset="1" stop-color="#FBC56D"/></linearGradient><linearGradient id="paint11_linear" x1="14.639" y1="30.445" x2="4.802" y2="20.445" gradientUnits="userSpaceOnUse"><stop stop-color="#FBC56D"/><stop offset="1" stop-color="#E9B054"/></linearGradient><linearGradient id="paint12_linear" x1="6.966" y1="18.201" x2="13.477" y2="24.82" gradientUnits="userSpaceOnUse"><stop stop-color="#FEF056"/><stop offset="1" stop-color="#FE9738"/></linearGradient><linearGradient id="paint13_linear" x1="7.447" y1="19.068" x2="12.784" y2="22.598" gradientUnits="userSpaceOnUse"><stop stop-color="#22B27F"/><stop offset="1" stop-color="#017B4E"/></linearGradient><linearGradient id="paint14_linear" x1="11.321" y1="29.411" x2=".948" y2="21.949" gradientUnits="userSpaceOnUse"><stop stop-color="#017B4E" stop-opacity="0"/><stop offset="1" stop-color="#026841"/></linearGradient><clipPath id="clip0"><path fill="#fff" d="M0 0h19v33H0z"/></clipPath></defs></svg>