<svg width="30" height="30" fill="none" xmlns="http://www.w3.org/2000/svg"><path d="M15 30c8.284 0 15-6.716 15-15 0-8.284-6.716-15-15-15C6.716 0 0 6.716 0 15c0 8.284 6.716 15 15 15z" fill="#F1EEE0"/><path d="M15 27.931c7.142 0 12.931-5.79 12.931-12.931 0-7.142-5.79-12.931-12.931-12.931C7.858 2.069 2.069 7.859 2.069 15c0 7.142 5.79 12.931 12.93 12.931z" fill="#E8E4D8"/><path d="M15 26.897c6.57 0 11.897-5.327 11.897-11.897S21.57 3.104 15 3.104 3.104 8.43 3.104 15c0 6.57 5.326 11.897 11.896 11.897z" fill="url(#paint0_linear)"/><path d="M15 3.104c-3.622 0-6.863 1.62-9.045 4.173a11.846 11.846 0 017.723-2.852c6.57 0 11.897 5.327 11.897 11.897 0 2.948-1.075 5.645-2.852 7.723A11.867 11.867 0 0026.897 15C26.897 8.43 21.57 3.104 15 3.104z" fill="#FEBF48"/><path d="M8.454 12.156c.03.121.072.306.244.495a6.732 6.732 0 014.013-3.97c-.144-.111-.322-.176-.564-.218-.124-.02-.244-.05-.364-.065-1.346-.16-2.62-.689-3.579-1.647L1.757.304A1.035 1.035 0 00.182.437C-.12.855-.03 1.442.335 1.807l6.407 6.407c.958.958 1.487 2.233 1.647 3.579.015.12.036.24.065.363z" fill="#EEE2D4"/><path d="M8.454 12.156c.029.121.071.305.243.494a6.712 6.712 0 011.295-2.136 8.196 8.196 0 00-1.466-2.022L.318.284A1.058 1.058 0 00.18.436c-.3.419-.211 1.006.153 1.37L6.74 8.213c.959.959 1.488 2.233 1.648 3.58.014.12.036.24.065.363z" fill="#E0D0BB"/><path d="M8.404 14.167a.517.517 0 01-.507-.621A7.243 7.243 0 0113.4 7.939a.516.516 0 11.226 1.009 6.208 6.208 0 00-4.716 4.805.517.517 0 01-.506.414z" fill="#FFCD6E"/><path d="M17.133 23.79a4.658 4.658 0 004.038-4.04.52.52 0 00-.517-.58h-3.585a.517.517 0 00-.517.517v3.585c0 .31.273.556.58.517z" fill="#fff"/><path d="M24.24 14.253a3.127 3.127 0 00-3.712-.96.35.35 0 00-.16.497l1.221 2.073c.098.166.31.22.476.123l2.073-1.22a.35.35 0 00.101-.513zm-9.293 8.38a2.337 2.337 0 00-2.774-.718.261.261 0 00-.12.372l.913 1.55a.26.26 0 00.355.092l1.55-.913a.261.261 0 00.076-.383z" fill="#F7F0E6"/><path d="M12.64 19.987l-2.564.34a.517.517 0 01-.58-.445l-.34-2.564a.517.517 0 01.445-.58l2.563-.34a.517.517 0 01.581.444l.34 2.564a.517.517 0 01-.445.58zm4.545-6.395l-2.061-.899a.517.517 0 01-.268-.68l.899-2.062a.517.517 0 01.68-.267l2.062.899a.517.517 0 01.267.68l-.898 2.062a.517.517 0 01-.681.267z" fill="#fff"/><path d="M12.413 15a.517.517 0 01-.286-.087l-1.552-1.034a.517.517 0 11.574-.861l1.552 1.034a.517.517 0 01-.288.948z" fill="url(#paint1_linear)"/><path d="M12.931 12.931a.517.517 0 01-.517-.517v-1.035a.517.517 0 111.035 0v1.035a.517.517 0 01-.518.517z" fill="#90CD28"/><path d="M15 19.138h-.005a.517.517 0 110-1.035.52.52 0 01.52.518.515.515 0 01-.515.517z" fill="#F7F0E6"/><path d="M20.172 8.793a.517.517 0 01-.366-.883l.518-.517a.517.517 0 11.731.731l-.517.518a.516.516 0 01-.366.151z" fill="url(#paint2_linear)"/><path d="M22.759 11.896a.515.515 0 01-.366-.151l-1.034-1.034a.517.517 0 11.731-.732l1.034 1.035a.517.517 0 01-.365.883z" fill="#F7F0E6"/><path d="M22.758 19.655a.516.516 0 01-.365-.883l1.034-1.034a.517.517 0 11.732.731l-1.035 1.035a.516.516 0 01-.366.151z" fill="url(#paint3_linear)"/><path d="M19.66 17.586h-.005a.517.517 0 110-1.034.52.52 0 01.52.517.515.515 0 01-.515.517zm-1.557-9.31h-.005a.517.517 0 110-1.035.52.52 0 01.52.518.515.515 0 01-.515.517z" fill="#90CD28"/><path d="M11.896 6.207h-.005a.517.517 0 110-1.035.52.52 0 01.52.518.515.515 0 01-.515.517z" fill="#F7F0E6"/><path d="M9.827 23.276a.515.515 0 01-.365-.152l-.518-.517a.517.517 0 11.732-.731l.517.517a.517.517 0 01-.366.883z" fill="#90CD28"/><path d="M6.207 15a.517.517 0 01-.518-.517v-1.035a.517.517 0 111.035 0v1.035a.517.517 0 01-.517.517zm11.487 4.244c-.005-.025.003-.05.001-.074h-.626a.517.517 0 00-.517.517v3.585c0 .31.273.556.58.517a4.634 4.634 0 001.324-.374l-.762-4.17zm-6.896-2.665l-1.197.158a.517.517 0 00-.445.581l.34 2.564a.517.517 0 00.58.445l.197-.026.525-3.722zm5.828-6.597a.515.515 0 01.06-.189l-.25-.11a.517.517 0 00-.681.268l-.899 2.061a.517.517 0 00.268.681l1.153.503.35-3.214z" fill="#F7F0E6"/><path d="M16.552 17.069a1.552 1.552 0 100-3.104 1.552 1.552 0 000 3.104z" fill="url(#paint4_linear)"/><path d="M17.328 16.293a1.552 1.552 0 01-1.552-1.552c0-.227.052-.441.14-.636a1.55 1.55 0 102.048 2.049 1.54 1.54 0 01-.636.14z" fill="#E88D24"/><path d="M7.759 18.103a1.035 1.035 0 100-2.069 1.035 1.035 0 000 2.07z" fill="url(#paint5_linear)"/><path d="M8.276 17.586a1.034 1.034 0 01-.942-1.459A1.033 1.033 0 108.7 17.493c-.13.059-.273.093-.424.093z" fill="#E88D24"/><path d="M15.517 7.759a1.035 1.035 0 100-2.07 1.035 1.035 0 000 2.07z" fill="url(#paint6_linear)"/><path d="M16.035 7.241a1.034 1.034 0 01-.942-1.458 1.033 1.033 0 101.366 1.365c-.13.059-.273.093-.424.093z" fill="#E88D24"/><defs><linearGradient id="paint0_linear" x1="25.887" y1="6.532" x2="8.468" y2="25.403" gradientUnits="userSpaceOnUse"><stop stop-color="#FFC350"/><stop offset="1" stop-color="#F8AB1E"/></linearGradient><linearGradient id="paint1_linear" x1="11.638" y1="12.931" x2="11.638" y2="15" gradientUnits="userSpaceOnUse"><stop stop-color="#CE763C"/><stop offset="1" stop-color="#EFB060"/></linearGradient><linearGradient id="paint2_linear" x1="20.431" y1="7.241" x2="20.431" y2="8.793" gradientUnits="userSpaceOnUse"><stop stop-color="#CE763C"/><stop offset="1" stop-color="#EFB060"/></linearGradient><linearGradient id="paint3_linear" x1="23.276" y1="17.586" x2="23.276" y2="19.655" gradientUnits="userSpaceOnUse"><stop stop-color="#CE763C"/><stop offset="1" stop-color="#EFB060"/></linearGradient><linearGradient id="paint4_linear" x1="16.552" y1="13.966" x2="16.552" y2="17.069" gradientUnits="userSpaceOnUse"><stop stop-color="#FAF120"/><stop offset="1" stop-color="#F6DD0F"/></linearGradient><linearGradient id="paint5_linear" x1="7.759" y1="16.034" x2="7.759" y2="18.103" gradientUnits="userSpaceOnUse"><stop stop-color="#FAF120"/><stop offset="1" stop-color="#F6DD0F"/></linearGradient><linearGradient id="paint6_linear" x1="15.517" y1="5.69" x2="15.517" y2="7.759" gradientUnits="userSpaceOnUse"><stop stop-color="#FAF120"/><stop offset="1" stop-color="#F6DD0F"/></linearGradient></defs></svg>