<svg width="30" height="30" fill="none" xmlns="http://www.w3.org/2000/svg"><g clip-path="url(#clip0)"><path d="M25.698 10.698c0 5.908-21.396 5.908-21.396 0S9.092 0 15 0s10.698 4.79 10.698 10.698z" fill="url(#paint0_linear)"/><path d="M15 0c-.398 0-.79.022-1.177.065 1.83.2 3.522.863 4.956 1.868-.256.036-.486.14-.663.318-.57.57-.39 1.676.404 2.47.794.794 1.9.975 2.47.404.186-.186.291-.429.323-.699a10.648 10.648 0 012.03 6.272c0 2.737-4.591 4.206-9.52 4.407 5.71.233 11.875-1.236 11.875-4.407C25.698 4.79 20.908 0 15 0z" fill="url(#paint1_linear)"/><path d="M15 12.743a1.029 1.029 0 01-.976-1.357l2.069-6.16a4.084 4.084 0 012.055-2.348l2.633-1.296a1.03 1.03 0 11.909 1.847l-2.633 1.296a2.013 2.013 0 00-1.012 1.157l-2.07 6.16a1.03 1.03 0 01-.975.701z" fill="url(#paint2_linear)"/><path d="M22.159 2.05a1.03 1.03 0 00-1.378-.468l-.327.16a1.03 1.03 0 01-.236 1.687l-1.973.971c-.313-.424-.472-.897-.461-1.319a4.098 4.098 0 00-1.3 1.316c.032.077.07.154.112.23.187.336.195.74.04 1.092a1.927 1.927 0 00-.062.163l-2.07 6.16a1.023 1.023 0 01-.24.39 1.025 1.025 0 00.736.311c.43 0 .831-.271.976-.702l2.069-6.16a2.012 2.012 0 011.012-1.156l2.633-1.296c.51-.251.72-.868.469-1.378z" fill="url(#paint3_linear)"/><path d="M20.583 30H9.417a1.5 1.5 0 01-1.481-1.265L4.947 11.37h20.106l-2.989 17.365A1.5 1.5 0 0120.583 30z" fill="url(#paint4_linear)"/><path d="M25.053 11.37l-2.99 17.365A1.5 1.5 0 0120.584 30H18.23a1.5 1.5 0 001.48-1.265l1.672-9.059a4.078 4.078 0 00-4.028-4.717H5.516l-.233-1.47-.336-2.119h20.106z" fill="url(#paint5_linear)"/><path d="M13.5 13.057l-2.472 7.464a1.03 1.03 0 001.952.656l2.69-8.12H13.5z" fill="url(#paint6_linear)"/><path d="M15.669 13.057H13.5l-.63 1.902c.344 0 .586.336.478.662l-1.84 5.556a1.024 1.024 0 01-.24.392 1.024 1.024 0 00.736.31c.43 0 .831-.272.976-.702l2.689-8.12z" fill="url(#paint7_linear)"/><path d="M18.795 17.988l-2.464 1.511a6.925 6.925 0 01-7.686-.296.571.571 0 00-.9.555l1.317 8.04c.097.644.625 1.118 1.245 1.118h9.385c.62 0 1.149-.474 1.246-1.118l1.235-7.542a2.237 2.237 0 00-3.378-2.268z" fill="url(#paint8_linear)"/><path d="M18.087 22.974a.775.775 0 100 1.549.775.775 0 000-1.55z" fill="url(#paint9_linear)"/><path d="M13.882 21.424a.775.775 0 100 1.55.775.775 0 000-1.55z" fill="url(#paint10_linear)"/><path d="M12.819 27.73a1.474 1.474 0 100-2.948 1.474 1.474 0 000 2.948z" fill="url(#paint11_linear)"/><path d="M8.645 19.203a.572.572 0 00-.9.371 6.925 6.925 0 004.232.908 6.915 6.915 0 01-3.332-1.279z" fill="url(#paint12_linear)"/><path d="M21.547 18.313a2.237 2.237 0 00-2.318-.531 2.237 2.237 0 011.473 2.474l-1.235 7.542c-.097.644-.625 1.118-1.245 1.118h1.47c.621 0 1.15-.474 1.246-1.118l1.235-7.542a2.237 2.237 0 00-.626-1.944z" fill="url(#paint13_linear)"/><path d="M25.382 13.488H4.618a1.499 1.499 0 01-1.499-1.499v-1.238c0-.827.671-1.498 1.499-1.498h20.764c.828 0 1.499.67 1.499 1.498v1.238c0 .828-.671 1.499-1.499 1.499z" fill="url(#paint14_linear)"/><path d="M6.264 10.615a.441.441 0 00-.44.441v2.432h.882v-2.432a.441.441 0 00-.442-.44z" fill="url(#paint15_linear)"/><path d="M8.764 10.615a.441.441 0 00-.44.441v2.432h.882v-2.432a.441.441 0 00-.442-.44z" fill="url(#paint16_linear)"/><path d="M11.264 10.615a.441.441 0 00-.44.441v2.432h.882v-2.432a.441.441 0 00-.442-.44z" fill="url(#paint17_linear)"/><path d="M13.764 10.615a.441.441 0 00-.44.441v2.432h.882v-2.432a.441.441 0 00-.442-.44z" fill="url(#paint18_linear)"/><path d="M16.264 10.615a.441.441 0 00-.44.441v2.432h.882v-2.432a.441.441 0 00-.442-.44z" fill="url(#paint19_linear)"/><path d="M18.735 10.615a.441.441 0 00-.441.441v2.432h.882v-2.432a.441.441 0 00-.44-.44z" fill="url(#paint20_linear)"/><path d="M21.235 10.615a.441.441 0 00-.441.441v2.432h.882v-2.432a.441.441 0 00-.44-.44z" fill="url(#paint21_linear)"/><path d="M25.382 9.253h-2.354c.828 0 1.498.67 1.498 1.498v1.238c0 .026 0 .052-.002.078-.011.224-.348.21-.348-.013v-.983a.451.451 0 00-.383-.452.441.441 0 00-.499.437v2.162c0 .147-.117.27-.263.27h-.003 2.354c.828 0 1.499-.67 1.499-1.499v-1.238c0-.827-.671-1.498-1.5-1.498z" fill="url(#paint22_linear)"/></g><defs><linearGradient id="paint0_linear" x1="3.359" y1="7.565" x2="17.035" y2="7.565" gradientUnits="userSpaceOnUse"><stop stop-color="#F8F6F7"/><stop offset=".179" stop-color="#F8F6F7"/><stop offset="1" stop-color="#E7E6F5"/></linearGradient><linearGradient id="paint1_linear" x1="-3.965" y1="7.564" x2="25.366" y2="7.564" gradientUnits="userSpaceOnUse"><stop stop-color="#F8F6F7"/><stop offset="1" stop-color="#D1CEEB"/></linearGradient><linearGradient id="paint2_linear" x1="12.235" y1="7.109" x2="23.681" y2="7.109" gradientUnits="userSpaceOnUse"><stop stop-color="#FEF056"/><stop offset=".521" stop-color="#F4D902"/><stop offset="1" stop-color="#FE9738"/></linearGradient><linearGradient id="paint3_linear" x1="5.765" y1="7.109" x2="23.3" y2="7.109" gradientUnits="userSpaceOnUse"><stop stop-color="#FEF056"/><stop offset=".521" stop-color="#F4D902"/><stop offset="1" stop-color="#FE9738"/></linearGradient><linearGradient id="paint4_linear" x1="4.947" y1="20.685" x2="27.576" y2="20.685" gradientUnits="userSpaceOnUse"><stop stop-color="#F8F6F7"/><stop offset=".179" stop-color="#F8F6F7"/><stop offset="1" stop-color="#E7E6F5"/></linearGradient><linearGradient id="paint5_linear" x1="-6.765" y1="20.685" x2="24.708" y2="20.685" gradientUnits="userSpaceOnUse"><stop stop-color="#F8F6F7"/><stop offset="1" stop-color="#D1CEEB"/></linearGradient><linearGradient id="paint6_linear" x1="9.993" y1="17.468" x2="16.471" y2="17.468" gradientUnits="userSpaceOnUse"><stop stop-color="#FEF056"/><stop offset=".521" stop-color="#F4D902"/><stop offset="1" stop-color="#FE9738"/></linearGradient><linearGradient id="paint7_linear" x1="7.206" y1="17.468" x2="17.483" y2="17.468" gradientUnits="userSpaceOnUse"><stop stop-color="#FEF056"/><stop offset=".521" stop-color="#F4D902"/><stop offset="1" stop-color="#FE9738"/></linearGradient><linearGradient id="paint8_linear" x1="7.765" y1="23.286" x2="26.416" y2="23.286" gradientUnits="userSpaceOnUse"><stop stop-color="#60B7FF"/><stop offset=".586" stop-color="#0182FC"/><stop offset="1" stop-color="#2740B0"/></linearGradient><linearGradient id="paint9_linear" x1="12.765" y1="23.748" x2="26.635" y2="23.748" gradientUnits="userSpaceOnUse"><stop stop-color="#60B7FF"/><stop offset=".586" stop-color="#0182FC"/><stop offset="1" stop-color="#2740B0"/></linearGradient><linearGradient id="paint10_linear" x1="12.765" y1="22.199" x2="26.634" y2="22.199" gradientUnits="userSpaceOnUse"><stop stop-color="#60B7FF"/><stop offset=".586" stop-color="#0182FC"/><stop offset="1" stop-color="#2740B0"/></linearGradient><linearGradient id="paint11_linear" x1="12.765" y1="26.256" x2="26.634" y2="26.256" gradientUnits="userSpaceOnUse"><stop stop-color="#60B7FF"/><stop offset=".586" stop-color="#0182FC"/><stop offset="1" stop-color="#2740B0"/></linearGradient><linearGradient id="paint12_linear" x1="3.765" y1="19.807" x2="25.527" y2="19.807" gradientUnits="userSpaceOnUse"><stop stop-color="#60B7FF"/><stop offset=".586" stop-color="#0182FC"/><stop offset="1" stop-color="#2740B0"/></linearGradient><linearGradient id="paint13_linear" x1="3.765" y1="23.286" x2="25.527" y2="23.286" gradientUnits="userSpaceOnUse"><stop stop-color="#60B7FF"/><stop offset=".586" stop-color="#0182FC"/><stop offset="1" stop-color="#2740B0"/></linearGradient><linearGradient id="paint14_linear" x1="3.119" y1="11.37" x2="29.863" y2="11.37" gradientUnits="userSpaceOnUse"><stop stop-color="#F8F6F7"/><stop offset=".179" stop-color="#F8F6F7"/><stop offset="1" stop-color="#E7E6F5"/></linearGradient><linearGradient id="paint15_linear" x1=".274" y1="12.052" x2="21.422" y2="12.052" gradientUnits="userSpaceOnUse"><stop stop-color="#F8F6F7"/><stop offset="1" stop-color="#D1CEEB"/></linearGradient><linearGradient id="paint16_linear" x1=".274" y1="12.052" x2="21.422" y2="12.052" gradientUnits="userSpaceOnUse"><stop stop-color="#F8F6F7"/><stop offset="1" stop-color="#D1CEEB"/></linearGradient><linearGradient id="paint17_linear" x1=".274" y1="12.052" x2="21.422" y2="12.052" gradientUnits="userSpaceOnUse"><stop stop-color="#F8F6F7"/><stop offset="1" stop-color="#D1CEEB"/></linearGradient><linearGradient id="paint18_linear" x1=".274" y1="12.052" x2="21.422" y2="12.052" gradientUnits="userSpaceOnUse"><stop stop-color="#F8F6F7"/><stop offset="1" stop-color="#D1CEEB"/></linearGradient><linearGradient id="paint19_linear" x1=".274" y1="12.052" x2="21.422" y2="12.052" gradientUnits="userSpaceOnUse"><stop stop-color="#F8F6F7"/><stop offset="1" stop-color="#D1CEEB"/></linearGradient><linearGradient id="paint20_linear" x1=".275" y1="12.052" x2="21.422" y2="12.052" gradientUnits="userSpaceOnUse"><stop stop-color="#F8F6F7"/><stop offset="1" stop-color="#D1CEEB"/></linearGradient><linearGradient id="paint21_linear" x1=".275" y1="12.052" x2="21.422" y2="12.052" gradientUnits="userSpaceOnUse"><stop stop-color="#F8F6F7"/><stop offset="1" stop-color="#D1CEEB"/></linearGradient><linearGradient id="paint22_linear" x1=".274" y1="11.37" x2="21.422" y2="11.37" gradientUnits="userSpaceOnUse"><stop stop-color="#F8F6F7"/><stop offset="1" stop-color="#D1CEEB"/></linearGradient><clipPath id="clip0"><path fill="#fff" d="M0 0h30v30H0z"/></clipPath></defs></svg>