<svg width="30" height="30" fill="none" xmlns="http://www.w3.org/2000/svg"><path d="M26.079 17.224L16.703.983c-.757-1.31-2.649-1.31-3.406 0L3.92 17.223l-2.188 3.789C4.378 24.275 9.33 26.47 15 26.47c5.671 0 10.622-2.196 13.266-5.46l-2.187-3.787z" fill="url(#paint0_linear)"/><path d="M13.69 16.84a5.429 5.429 0 00-6.471-5.329l-3.298 5.713-.796 1.378a5.43 5.43 0 0010.566-1.762z" fill="url(#paint1_linear)"/><path d="M13.256 9.337a2.744 2.744 0 100-5.488 2.744 2.744 0 000 5.488z" fill="url(#paint2_linear)"/><path d="M26.079 17.224L16.703.983C16.118-.03 14.858-.26 13.965.292l7.85 13.598a4.386 4.386 0 00-3.816 7.308c.923 1.007.472 2.63-.847 2.985a20.87 20.87 0 01-5.408.7c-2.499 0-4.858-.427-6.941-1.183 2.707 1.723 6.28 2.77 10.197 2.77 5.671 0 10.622-2.195 13.266-5.458l-2.187-3.788z" fill="url(#paint3_linear)"/><path d="M28.088 19.1c-.555 0-1.074.281-1.37.75-2.202 3.489-6.623 5.87-11.718 5.87s-9.516-2.38-11.718-5.87a1.618 1.618 0 00-1.37-.75c-1.296 0-2.221 1.267-1.816 2.498C1.682 26.414 7.753 30 15 30s13.318-3.586 14.904-8.402c.405-1.231-.52-2.497-1.816-2.497z" fill="url(#paint4_linear)"/><path d="M15.076 29.569a.774.774 0 100-1.55.774.774 0 000 1.55z" fill="url(#paint5_linear)"/><path d="M10.872 26.47a.774.774 0 100 1.55.774.774 0 000-1.55z" fill="url(#paint6_linear)"/><path d="M3.288 19.86a1.628 1.628 0 00-1.376-.76 1.89 1.89 0 00-1.23.45c.092.089.175.19.246.3 1.18 1.87 2.997 3.421 5.214 4.459a1.473 1.473 0 00.695 2.716 1.474 1.474 0 001.569-1.471v-.005c0-.202.184-.351.38-.302a15.8 15.8 0 003.86.474c.396 0 .789-.015 1.177-.043-4.589-.335-8.503-2.607-10.535-5.818z" fill="url(#paint7_linear)"/><path d="M28.087 19.1c-.422 0-.824.164-1.123.45.566.477.842 1.27.585 2.048-.53 1.61-1.563 3.083-2.972 4.33a1.547 1.547 0 00-1.39-.642 1.554 1.554 0 00-1.413 1.412l-.002.02a2 2 0 01-1.193 1.705c-1.998.864-4.296 1.411-6.756 1.545.388.02.78.032 1.177.032 7.247 0 13.318-3.586 14.904-8.402.405-1.231-.52-2.497-1.817-2.497z" fill="url(#paint8_linear)"/><path d="M9.733 21.297a5.429 5.429 0 100-10.859 5.429 5.429 0 000 10.859z" fill="url(#paint9_linear)"/><path d="M9.734 10.438c-.333 0-.658.032-.974.09a5.43 5.43 0 013.888 7.755 1.772 1.772 0 00-1.84-1.383 1.78 1.78 0 00-1.654 1.618c-.038.456.097.88.347 1.212a.91.91 0 01-.527 1.434c-.07.016-.142.03-.214.044a5.429 5.429 0 10.974-10.77z" fill="url(#paint10_linear)"/><path d="M6.988 16.897a1.149 1.149 0 100-2.297 1.149 1.149 0 000 2.297z" fill="url(#paint11_linear)"/><path d="M22.704 21.65a4.386 4.386 0 100-8.772 4.386 4.386 0 000 8.771z" fill="url(#paint12_linear)"/><path d="M22.704 12.878c-.27 0-.532.025-.787.072a4.386 4.386 0 013.14 6.265 1.431 1.431 0 10-2.542 1.169.735.735 0 01-.425 1.159 4.507 4.507 0 01-.173.035 4.386 4.386 0 10.787-8.7z" fill="url(#paint13_linear)"/><path d="M21.776 17.168a.928.928 0 100-1.856.928.928 0 000 1.856z" fill="url(#paint14_linear)"/><path d="M14.727 8.366a2.744 2.744 0 100-5.488 2.744 2.744 0 000 5.488z" fill="url(#paint15_linear)"/><path d="M14.727 2.877c-.255 0-.502.036-.736.1a2.744 2.744 0 010 5.287 2.744 2.744 0 10.736-5.387z" fill="url(#paint16_linear)"/><path d="M17.379 12.267c-1.17 0-2.26-.629-2.845-1.642a.735.735 0 111.273-.736c.324.56.926.908 1.572.908a1.82 1.82 0 001.571-.908.735.735 0 111.274.736 3.295 3.295 0 01-2.845 1.642z" fill="url(#paint17_linear)"/><path d="M16.888 22.436a3.295 3.295 0 01-2.97 1.405.735.735 0 01.12-1.466 1.82 1.82 0 001.64-.776 1.82 1.82 0 00.15-1.808.735.735 0 111.33-.628 3.295 3.295 0 01-.27 3.273z" fill="url(#paint18_linear)"/><defs><linearGradient id="paint0_linear" x1="1.39" y1="13.235" x2="29.096" y2="13.235" gradientUnits="userSpaceOnUse"><stop stop-color="#FEF056"/><stop offset=".521" stop-color="#F4D902"/><stop offset="1" stop-color="#FE9738"/></linearGradient><linearGradient id="paint1_linear" x1="-4.059" y1="16.84" x2="23.851" y2="16.84" gradientUnits="userSpaceOnUse"><stop stop-color="#FEF056"/><stop offset=".521" stop-color="#F4D902"/><stop offset="1" stop-color="#FE9738"/></linearGradient><linearGradient id="paint2_linear" x1="-4.059" y1="6.593" x2="23.851" y2="6.593" gradientUnits="userSpaceOnUse"><stop stop-color="#FEF056"/><stop offset=".521" stop-color="#F4D902"/><stop offset="1" stop-color="#FE9738"/></linearGradient><linearGradient id="paint3_linear" x1="-4.059" y1="13.236" x2="23.851" y2="13.236" gradientUnits="userSpaceOnUse"><stop stop-color="#FEF056"/><stop offset=".521" stop-color="#F4D902"/><stop offset="1" stop-color="#FE9738"/></linearGradient><linearGradient id="paint4_linear" x1="1.302" y1="24.55" x2="31.83" y2="24.55" gradientUnits="userSpaceOnUse"><stop stop-color="#FEF056"/><stop offset=".521" stop-color="#FBC56D"/><stop offset="1" stop-color="#C86D36"/></linearGradient><linearGradient id="paint5_linear" x1="-5.137" y1="28.794" x2="30.017" y2="28.794" gradientUnits="userSpaceOnUse"><stop stop-color="#FEF056"/><stop offset=".521" stop-color="#FBC56D"/><stop offset="1" stop-color="#C86D36"/></linearGradient><linearGradient id="paint6_linear" x1="-5.137" y1="27.245" x2="30.017" y2="27.245" gradientUnits="userSpaceOnUse"><stop stop-color="#FEF056"/><stop offset=".521" stop-color="#FBC56D"/><stop offset="1" stop-color="#C86D36"/></linearGradient><linearGradient id="paint7_linear" x1="-5.137" y1="23.064" x2="30.017" y2="23.064" gradientUnits="userSpaceOnUse"><stop stop-color="#FEF056"/><stop offset=".521" stop-color="#FBC56D"/><stop offset="1" stop-color="#C86D36"/></linearGradient><linearGradient id="paint8_linear" x1="-5.137" y1="24.55" x2="30.017" y2="24.55" gradientUnits="userSpaceOnUse"><stop stop-color="#FEF056"/><stop offset=".521" stop-color="#FBC56D"/><stop offset="1" stop-color="#C86D36"/></linearGradient><linearGradient id="paint9_linear" x1="4.304" y1="15.867" x2="16.399" y2="15.867" gradientUnits="userSpaceOnUse"><stop stop-color="#FE646F"/><stop offset=".593" stop-color="#FB2B3A"/><stop offset="1" stop-color="#C41926"/></linearGradient><linearGradient id="paint10_linear" x1="-3.646" y1="15.867" x2="14.94" y2="15.867" gradientUnits="userSpaceOnUse"><stop stop-color="#FE646F"/><stop offset=".593" stop-color="#FB2B3A"/><stop offset="1" stop-color="#C41926"/></linearGradient><linearGradient id="paint11_linear" x1="-3.646" y1="15.749" x2="14.94" y2="15.749" gradientUnits="userSpaceOnUse"><stop stop-color="#FE646F"/><stop offset=".593" stop-color="#FB2B3A"/><stop offset="1" stop-color="#C41926"/></linearGradient><linearGradient id="paint12_linear" x1="18.318" y1="17.264" x2="28.088" y2="17.264" gradientUnits="userSpaceOnUse"><stop stop-color="#FE646F"/><stop offset=".593" stop-color="#FB2B3A"/><stop offset="1" stop-color="#C41926"/></linearGradient><linearGradient id="paint13_linear" x1="13.451" y1="17.264" x2="26.085" y2="17.264" gradientUnits="userSpaceOnUse"><stop stop-color="#FE646F"/><stop offset=".593" stop-color="#FB2B3A"/><stop offset="1" stop-color="#C41926"/></linearGradient><linearGradient id="paint14_linear" x1="13.451" y1="16.24" x2="26.085" y2="16.24" gradientUnits="userSpaceOnUse"><stop stop-color="#FE646F"/><stop offset=".593" stop-color="#FB2B3A"/><stop offset="1" stop-color="#C41926"/></linearGradient><linearGradient id="paint15_linear" x1="11.983" y1="5.622" x2="18.934" y2="5.622" gradientUnits="userSpaceOnUse"><stop stop-color="#FE646F"/><stop offset=".593" stop-color="#FB2B3A"/><stop offset="1" stop-color="#C41926"/></linearGradient><linearGradient id="paint16_linear" x1="9.197" y1="5.621" x2="17.435" y2="5.621" gradientUnits="userSpaceOnUse"><stop stop-color="#FE646F"/><stop offset=".593" stop-color="#FB2B3A"/><stop offset="1" stop-color="#C41926"/></linearGradient><linearGradient id="paint17_linear" x1="12.611" y1="10.895" x2="21.946" y2="10.895" gradientUnits="userSpaceOnUse"><stop stop-color="#A2E62E"/><stop offset=".586" stop-color="#81B823"/><stop offset="1" stop-color="#037E73"/></linearGradient><linearGradient id="paint18_linear" x1="12.196" y1="21.297" x2="19.059" y2="21.297" gradientUnits="userSpaceOnUse"><stop stop-color="#A2E62E"/><stop offset=".586" stop-color="#81B823"/><stop offset="1" stop-color="#037E73"/></linearGradient></defs></svg>