<svg width="30" height="30" fill="none" xmlns="http://www.w3.org/2000/svg"><path d="M22.015.016c-4.952 2.51-6.298 8.651-6.67 11.854h1.823c.632-6.78 3.598-10.318 5-11.635.114-.106-.014-.29-.153-.22z" fill="#04A550"/><path d="M18.945 4.892c.188-.414.384-.802.582-1.163a.614.614 0 00-.138-.762l-.009-.008a.616.616 0 00-.908.106 12.82 12.82 0 00-.78 1.19.696.696 0 00.438 1.024.697.697 0 00.815-.387zm4.463-1.378c-3.466 1.758-5.165 5.294-6 8.356h1.734c1.115-4.537 3.282-7.068 4.419-8.136.113-.107-.014-.29-.153-.22z" fill="#0CC166"/><path d="M25.357 6.302c-3.75.448-6.508 3.046-8.345 5.568h2.046c2.446-3.296 5.037-4.74 6.367-5.309.143-.061.086-.277-.068-.259z" fill="#04A550"/><path d="M22.767 6.992c-.699.294-1.354.66-1.964 1.08a.63.63 0 00-.164.872l.007.011a.63.63 0 00.943.119A15.966 15.966 0 0123.205 7.8a.457.457 0 00.13-.619l-.005-.007a.457.457 0 00-.563-.182z" fill="#0CC166"/><path d="M24.552 2.418c-5.243 1.129-8.094 6.389-9.342 9.452h1.937c2.347-5.836 5.876-8.322 7.497-9.2.137-.075.06-.285-.092-.252z" fill="#29E088"/><path d="M21.915 3.411a11.69 11.69 0 00-2.59 1.974.693.693 0 00-.023.954l.01.01a.693.693 0 001.052-.023 16.518 16.518 0 012.086-2.134.47.47 0 00.092-.61l-.004-.008a.47.47 0 00-.623-.163z" fill="#6DEC6D"/><path d="M27.648 10.335s-.16-.384-.114-.843a.236.236 0 00-.314-.246c-.435.155-.845.09-.845.09a4.04 4.04 0 00-4.038 6.463 4.041 4.041 0 005.31-5.464z" fill="#29E088"/><path d="M24.5 11.369a.324.324 0 01.361.283l.107.881-.566.722-.184-1.526a.324.324 0 01.282-.36z" fill="#0CC166"/><path d="M27.207 14.62a4.041 4.041 0 01-4.87 1.179 4.014 4.014 0 01-.68-1.263 4.42 4.42 0 006.36-3.038 4.021 4.021 0 01-.81 3.121zm-.249-3.046a.324.324 0 00-.361-.283l-.882.107-.565.721 1.525-.184a.324.324 0 00.283-.361z" fill="#0CC166"/><path d="M22.197 15.977a.324.324 0 01-.055-.455l4.077-5.201a.324.324 0 01.51.4l-4.077 5.201a.324.324 0 01-.455.055z" fill="#04A550"/><path d="M24.67 14.493a.324.324 0 00-.361-.283l-.882.107-.565.721 1.525-.184a.324.324 0 00.282-.36zm1.144-1.459a.324.324 0 00-.361-.283l-.882.107-.565.72 1.525-.184a.324.324 0 00.283-.36z" fill="#04A550"/><path d="M23.356 12.829a.324.324 0 01.36.282l.108.882-.566.721-.184-1.525a.324.324 0 01.282-.36z" fill="#04A550"/><path d="M22.264 14.214l.013-.003a.663.663 0 00.543-.701 2.68 2.68 0 01.565-1.887 2.697 2.697 0 011.996-1.022.674.674 0 00.65-.599.667.667 0 00-.674-.758 4.017 4.017 0 00-3.038 1.544 4.025 4.025 0 00-.846 2.839c.034.39.406.66.79.587z" fill="#6DEC6D"/><path d="M21.56 7.831s-.386-.157-.677-.516a.236.236 0 00-.396.048c-.198.418-.534.663-.534.663a4.04 4.04 0 001.715 7.424 4.042 4.042 0 00-.109-7.619z" fill="#6DEC6D"/><path d="M24.276 11.172a4.041 4.041 0 01-2.609 4.278 4.016 4.016 0 01-1.373-.412 4.42 4.42 0 002.348-6.645 4.022 4.022 0 011.634 2.78zm-2.329-1.977a.324.324 0 00-.455.055l-.548.7.11.91.948-1.21a.324.324 0 00-.055-.455z" fill="#29E088"/><path d="M20.064 10.788a.324.324 0 01.455-.055l.699.548.11.91-1.209-.948a.324.324 0 01-.055-.455zm.223 1.841a.324.324 0 01.455-.055l.7.548.11.91-1.21-.948a.324.324 0 01-.055-.455z" fill="#29E088"/><path d="M21.694 15.675a.324.324 0 01-.36-.283l-.796-6.56a.324.324 0 11.644-.079l.795 6.561a.324.324 0 01-.283.36z" fill="#0CC166"/><path d="M22.393 12.877a.324.324 0 00-.455.056l-.548.699.11.91.948-1.21a.324.324 0 00-.055-.455zm-.223-1.841a.324.324 0 00-.455.055l-.548.7.11.91.948-1.21a.324.324 0 00-.055-.455z" fill="#0CC166"/><path d="M20.494 14.381l.008-.01a.663.663 0 00-.112-.88 2.68 2.68 0 01-.934-1.734 2.697 2.697 0 01.688-2.135.675.675 0 00.048-.868l-.011-.015a.667.667 0 00-1.014-.06 4.04 4.04 0 00-1.056 3.24 4.025 4.025 0 001.41 2.606c.299.252.753.18.973-.144z" fill="#C2FFC2"/><path d="M10.842 11.54a2.774 2.774 0 00-4.561-1.362 2.396 2.396 0 00-3.384 3.384 2.774 2.774 0 001.361 4.562A3.279 3.279 0 009.823 20.9l3.794-3.795a3.279 3.279 0 00-2.775-5.565z" fill="#29E088"/><path d="M13.617 17.105l-3.794 3.794a3.28 3.28 0 01-5.565-2.775 2.762 2.762 0 01-1.277-.727 2.76 2.76 0 01-.768-1.467 5.467 5.467 0 003.105-6.282c.349.097.678.274.963.53a2.774 2.774 0 014.561 1.362 3.28 3.28 0 012.775 5.565z" fill="#0CC166"/><path d="M16.872 10.12a2.774 2.774 0 00-2.817-3.837 2.396 2.396 0 00-4.74.657 2.774 2.774 0 00-1.666 4.46 3.279 3.279 0 002.765 5.57l5.315-.738a3.279 3.279 0 001.143-6.113z" fill="#6DEC6D"/><path d="M15.729 16.232l-5.315.738a3.279 3.279 0 01-3.379-4.723 7.895 7.895 0 005.099-7.871c.95.174 1.732.915 1.92 1.906a2.774 2.774 0 012.818 3.837 3.279 3.279 0 01-1.143 6.112z" fill="#29E088"/><path d="M15.729 16.232l-5.314.738a.072.072 0 01-.013.001 7.894 7.894 0 003.994-10.7 2.773 2.773 0 012.476 3.848 3.279 3.279 0 01-1.143 6.112z" fill="#0CC166"/><path d="M8.23 19.43a3.367 3.367 0 100-6.735 3.367 3.367 0 000 6.735z" fill="#EF4343"/><path d="M7.371 18.315a2.474 2.474 0 100-4.948 2.474 2.474 0 000 4.948z" fill="url(#paint0_linear)"/><path d="M6.61 16.601a1.411 1.411 0 100-2.822 1.411 1.411 0 000 2.822z" fill="#FC9595"/><path d="M17.655 17.346c-2.279 2.664-4.938 2.545-6.904.863-1.966-1.682-2.494-4.29-.215-6.954 2.279-2.664 6.502-4.375 8.468-2.693 1.966 1.682.93 6.12-1.349 8.784z" fill="#FFFDF3"/><path d="M17.655 17.346c-2.279 2.663-4.938 2.545-6.904.863a5.382 5.382 0 01-1-1.119 8.714 8.714 0 007.727-2.984A8.68 8.68 0 0019.539 9.2c1.192 1.984.148 5.77-1.884 8.146z" fill="#FFF7C7"/><path d="M15.658 16.678c1.127-1.318 1.11-3.183-.037-4.164-1.147-.981-2.991-.708-4.119.61-1.127 1.318-1.11 3.182.037 4.164 1.147.981 2.991.708 4.119-.61z" fill="#FFE059"/><path d="M15.657 16.68c-1.128 1.32-2.972 1.592-4.12.61-.602-.516-.893-1.275-.869-2.07a3.518 3.518 0 005.803-1.064c.1.842-.17 1.772-.814 2.525z" fill="#FFC751"/><path d="M14.447 13.89a.648.648 0 01.184.28c.112.317.38.554.714.6l.018.003c.659.091 1.197-.54.985-1.17a2.444 2.444 0 00-.728-1.086c-1.147-.981-2.99-.708-4.118.61a3.523 3.523 0 00-.423.612.905.905 0 00.796 1.34.882.882 0 00.779-.458c.058-.109.13-.217.22-.32.511-.598 1.24-.697 1.573-.412z" fill="#FFF370"/><path d="M14.517 13.153l.017-.052a.878.878 0 00-.953-1.144 3.16 3.16 0 00-.9.268.878.878 0 00-.275 1.39.873.873 0 001.04.246c.118-.055.237-.091.351-.11a.897.897 0 00.72-.598z" fill="#FFF7C7"/><path d="M20.47 18.272a3.367 3.367 0 100-6.734 3.367 3.367 0 000 6.734z" fill="#EF4343"/><path d="M19.611 17.157a2.474 2.474 0 100-4.948 2.474 2.474 0 000 4.948z" fill="url(#paint1_linear)"/><path d="M18.851 15.444a1.411 1.411 0 100-2.823 1.411 1.411 0 000 2.823z" fill="#FC9595"/><path d="M23.948 18.775a2.773 2.773 0 100-5.547 2.773 2.773 0 000 5.547z" fill="#EF4343"/><path d="M24.012 17.31a2.038 2.038 0 100-4.074 2.038 2.038 0 000 4.075z" fill="url(#paint2_linear)"/><path d="M24.438 15.73a1.162 1.162 0 100-2.325 1.162 1.162 0 000 2.325z" fill="#FC9595"/><path d="M18.655 30h-7.616a.675.675 0 01-.675-.675v-1.787h8.966v1.787a.675.675 0 01-.675.675z" fill="#E8E4D8"/><path d="M19.33 27.538h-8.966v1.45h6.558c.58 0 .724.816.176 1.006L17.08 30h1.575a.674.674 0 00.674-.675v-1.787z" fill="#D8D4C9"/><path d="M1.938 17.555c.561 4.546 3.467 8.365 7.471 10.21.37.171.775.256 1.183.256h8.51c.408 0 .812-.085 1.183-.255 4.003-1.846 6.91-5.665 7.47-10.21a.676.676 0 00-.67-.762H2.609a.676.676 0 00-.67.761z" fill="#F1EEE0"/><path d="M27.755 17.555c-.56 4.547-3.467 8.365-7.47 10.21a2.82 2.82 0 01-1.183.256h-2.029a12.596 12.596 0 006.878-11.226h3.135c.407 0 .72.356.67.76z" fill="#E8E4D8"/><path d="M13.584 18.925H3.995a1.066 1.066 0 010-2.13h9.589a1.066 1.066 0 010 2.13z" fill="#F9F8F2"/><path d="M9.242 16.794H7.126a1.066 1.066 0 100 2.131h2.116a1.066 1.066 0 100-2.13z" fill="#fff"/><path d="M8.12 9.747a.836.836 0 00.694-.5 1.08 1.08 0 01.805-.648 1.686 1.686 0 001.376-1.806.705.705 0 01.192-.549.847.847 0 00.233-.69l-.002-.017c-.087-.688-.93-.984-1.418-.491-.48.485-.75 1.17-.686 1.894-.95.175-1.705.82-2.056 1.659a.83.83 0 00.846 1.15l.017-.002z" fill="#C2FFC2"/><path d="M3.627 12.755a.82.82 0 00.342-.731.708.708 0 01.315-.66.844.844 0 00.365-.71v-.019c-.004-.641-.712-1.047-1.254-.703a2.397 2.397 0 00-1.106 2.232c.056.649.8.986 1.324.6l.014-.01z" fill="#6DEC6D"/><defs><linearGradient id="paint0_linear" x1="7.371" y1="13.367" x2="7.371" y2="18.315" gradientUnits="userSpaceOnUse"><stop stop-color="#FC3947"/><stop offset="1" stop-color="#FE525F"/></linearGradient><linearGradient id="paint1_linear" x1="19.611" y1="12.209" x2="19.611" y2="17.157" gradientUnits="userSpaceOnUse"><stop stop-color="#FC3947"/><stop offset="1" stop-color="#FE525F"/></linearGradient><linearGradient id="paint2_linear" x1="24.012" y1="13.236" x2="24.012" y2="17.311" gradientUnits="userSpaceOnUse"><stop stop-color="#FC3947"/><stop offset="1" stop-color="#FE525F"/></linearGradient></defs></svg>