<svg width="30" height="30" fill="none" xmlns="http://www.w3.org/2000/svg"><g clip-path="url(#clip0)"><path d="M14.589 17.015a8.508 8.508 0 100-17.015 8.508 8.508 0 000 17.015z" fill="url(#paint0_linear)"/><path d="M15.19 5.978a.775.775 0 10-.001-1.549.775.775 0 000 1.55z" fill="url(#paint1_linear)"/><path d="M10.985 4.43a.775.775 0 100-1.55.775.775 0 000 1.55z" fill="url(#paint2_linear)"/><path d="M23.058 7.691a8.508 8.508 0 00-9.646-7.61c2.124 0 3.67 1.157 4.76 2.539 1.39 1.765.814 4.39-1.193 5.4a7.638 7.638 0 00-2.39 1.885 7.624 7.624 0 00-3.194-2.232 1.474 1.474 0 00-2.863-.456 7.583 7.583 0 00-2.412.474 8.51 8.51 0 008.469 9.324 8.507 8.507 0 008.469-9.324z" fill="url(#paint3_linear)"/><path d="M28.032 5.134a2.715 2.715 0 010 3.84l-7.662 7.662-3.84-3.84 7.662-7.662a2.715 2.715 0 013.84 0z" fill="url(#paint4_linear)"/><path d="M28.032 5.134a2.716 2.716 0 00-3.097-.526 2.715 2.715 0 01.743 4.367l-6.485 6.483 1.177 1.178 7.662-7.662a2.715 2.715 0 000-3.84z" fill="url(#paint5_linear)"/><path d="M8.782 23.902a7.61 7.61 0 100-15.219 7.61 7.61 0 000 15.22z" fill="url(#paint6_linear)"/><path d="M10.21 15.067a.775.775 0 10-1.548 0 .775.775 0 001.549 0z" fill="url(#paint7_linear)"/><path d="M5.232 12.743a.775.775 0 100 1.55.775.775 0 000-1.55z" fill="url(#paint8_linear)"/><path d="M4.168 19.05a1.474 1.474 0 100-2.95 1.474 1.474 0 000 2.95z" fill="url(#paint9_linear)"/><path d="M13.853 10.62a7.58 7.58 0 00-5.071-1.936c-.401 0-.794.03-1.178.09a7.55 7.55 0 012.767 1.01 3.31 3.31 0 011.387 3.944 7.597 7.597 0 00-.443 2.565c0 .9.156 1.764.443 2.565a3.31 3.31 0 01-1.387 3.944 7.557 7.557 0 01-2.767 1.01c.384.06.777.09 1.178.09a7.58 7.58 0 005.07-1.936 7.588 7.588 0 002.539-5.673c0-2.254-.98-4.28-2.538-5.673z" fill="url(#paint10_linear)"/><path d="M20.396 23.902a7.61 7.61 0 100-15.219 7.61 7.61 0 000 15.22z" fill="url(#paint11_linear)"/><path d="M21.717 13.724a.775.775 0 10-1.549 0 .775.775 0 001.549 0z" fill="url(#paint12_linear)"/><path d="M19.878 19.255a1.474 1.474 0 100-2.949 1.474 1.474 0 000 2.949z" fill="url(#paint13_linear)"/><path d="M20.314 8.684a7.662 7.662 0 00-1.095.09 7.617 7.617 0 016.234 5.788.772.772 0 00-1.08.683.774.774 0 00.941.784.272.272 0 01.337.26v.004a7.611 7.611 0 01-6.432 7.519 7.61 7.61 0 008.786-7.519c0-4.19-3.5-7.653-7.69-7.61z" fill="url(#paint14_linear)"/><path d="M22.156 30H7.022c-1.16 0-2.184-.784-2.53-1.936l-1.616-5.389c-.201-.67.28-1.35.954-1.35h21.518c.674 0 1.155.68.954 1.35l-1.616 5.389C24.34 29.216 23.316 30 22.156 30z" fill="url(#paint15_linear)"/><path d="M26.302 22.675l-1.617 5.39c-.345 1.15-1.37 1.935-2.53 1.935h-2.353c1.16 0 2.184-.784 2.53-1.936l.436-1.456a2.212 2.212 0 00-2.118-2.847H3.2l-.326-1.086a1.068 1.068 0 01-.043-.386c.037-.523.455-.965.998-.965h21.518c.674 0 1.155.681.954 1.351z" fill="url(#paint16_linear)"/><path d="M26.201 20.819H2.977a.735.735 0 000 1.47H26.2a.735.735 0 000-1.47z" fill="url(#paint17_linear)"/></g><defs><linearGradient id="paint0_linear" x1="6.245" y1="8.508" x2="29.236" y2="8.508" gradientUnits="userSpaceOnUse"><stop stop-color="#FFDCBD"/><stop offset=".003" stop-color="#FFDCBD"/><stop offset="1" stop-color="#FFA9B1"/></linearGradient><linearGradient id="paint1_linear" x1="2.883" y1="5.204" x2="23.136" y2="5.204" gradientUnits="userSpaceOnUse"><stop stop-color="#FFDCBD"/><stop offset=".003" stop-color="#FFDCBD"/><stop offset="1" stop-color="#FFA9B1"/></linearGradient><linearGradient id="paint2_linear" x1="2.883" y1="3.655" x2="23.136" y2="3.655" gradientUnits="userSpaceOnUse"><stop stop-color="#FFDCBD"/><stop offset=".003" stop-color="#FFDCBD"/><stop offset="1" stop-color="#FFA9B1"/></linearGradient><linearGradient id="paint3_linear" x1="2.883" y1="8.508" x2="23.136" y2="8.508" gradientUnits="userSpaceOnUse"><stop stop-color="#FFDCBD"/><stop offset=".003" stop-color="#FFDCBD"/><stop offset="1" stop-color="#FFA9B1"/></linearGradient><linearGradient id="paint4_linear" x1="18.244" y1="10.487" x2="29.308" y2="10.487" gradientUnits="userSpaceOnUse"><stop stop-color="#FEF056"/><stop offset=".521" stop-color="#F4D902"/><stop offset="1" stop-color="#FE9738"/></linearGradient><linearGradient id="paint5_linear" x1="15.177" y1="10.488" x2="28.989" y2="10.488" gradientUnits="userSpaceOnUse"><stop stop-color="#FEF056"/><stop offset=".521" stop-color="#F4D902"/><stop offset="1" stop-color="#FE9738"/></linearGradient><linearGradient id="paint6_linear" x1="1.319" y1="16.293" x2="21.883" y2="16.293" gradientUnits="userSpaceOnUse"><stop stop-color="#A2E62E"/><stop offset=".586" stop-color="#81B823"/><stop offset="1" stop-color="#037E73"/></linearGradient><linearGradient id="paint7_linear" x1="-2.529" y1="15.067" x2="17.981" y2="15.067" gradientUnits="userSpaceOnUse"><stop stop-color="#A2E62E"/><stop offset=".586" stop-color="#81B823"/><stop offset="1" stop-color="#037E73"/></linearGradient><linearGradient id="paint8_linear" x1="-2.529" y1="13.518" x2="17.981" y2="13.518" gradientUnits="userSpaceOnUse"><stop stop-color="#A2E62E"/><stop offset=".586" stop-color="#81B823"/><stop offset="1" stop-color="#037E73"/></linearGradient><linearGradient id="paint9_linear" x1="-2.529" y1="17.575" x2="17.98" y2="17.575" gradientUnits="userSpaceOnUse"><stop stop-color="#A2E62E"/><stop offset=".586" stop-color="#81B823"/><stop offset="1" stop-color="#037E73"/></linearGradient><linearGradient id="paint10_linear" x1="-2.529" y1="16.293" x2="17.98" y2="16.293" gradientUnits="userSpaceOnUse"><stop stop-color="#A2E62E"/><stop offset=".586" stop-color="#81B823"/><stop offset="1" stop-color="#037E73"/></linearGradient><linearGradient id="paint11_linear" x1="12.932" y1="16.293" x2="33.496" y2="16.293" gradientUnits="userSpaceOnUse"><stop stop-color="#FBC56D"/><stop offset=".593" stop-color="#C86D36"/><stop offset="1" stop-color="#904D24"/></linearGradient><linearGradient id="paint12_linear" x1="8.883" y1="13.724" x2="30.286" y2="13.724" gradientUnits="userSpaceOnUse"><stop stop-color="#FBC56D"/><stop offset=".593" stop-color="#C86D36"/><stop offset="1" stop-color="#904D24"/></linearGradient><linearGradient id="paint13_linear" x1="8.883" y1="17.781" x2="30.285" y2="17.781" gradientUnits="userSpaceOnUse"><stop stop-color="#FBC56D"/><stop offset=".593" stop-color="#C86D36"/><stop offset="1" stop-color="#904D24"/></linearGradient><linearGradient id="paint14_linear" x1="8.883" y1="16.293" x2="30.286" y2="16.293" gradientUnits="userSpaceOnUse"><stop stop-color="#FBC56D"/><stop offset=".593" stop-color="#C86D36"/><stop offset="1" stop-color="#904D24"/></linearGradient><linearGradient id="paint15_linear" x1="2.674" y1="25.662" x2="29.661" y2="25.662" gradientUnits="userSpaceOnUse"><stop stop-color="#FE646F"/><stop offset=".593" stop-color="#FB2B3A"/><stop offset="1" stop-color="#C41926"/></linearGradient><linearGradient id="paint16_linear" x1="-5.762" y1="25.662" x2="26.376" y2="25.662" gradientUnits="userSpaceOnUse"><stop stop-color="#FE646F"/><stop offset=".593" stop-color="#FB2B3A"/><stop offset="1" stop-color="#C41926"/></linearGradient><linearGradient id="paint17_linear" x1="3.353" y1="21.554" x2="24.086" y2="21.554" gradientUnits="userSpaceOnUse"><stop stop-color="#F8F6F7"/><stop offset=".179" stop-color="#F8F6F7"/><stop offset="1" stop-color="#E7E6F5"/></linearGradient><clipPath id="clip0"><path fill="#fff" d="M0 0h30v30H0z"/></clipPath></defs></svg>