<svg width="1440" height="834" fill="none" xmlns="http://www.w3.org/2000/svg"><mask id="a" maskUnits="userSpaceOnUse" x="0" y="-23" width="1450" height="857"><rect y="-23" width="1450" height="857" rx="16" fill="#C4C4C4"/></mask><g mask="url(#a)"><path fill="url(#paint0_linear)" d="M0-215h1440V834H0z"/><path opacity=".304" d="M567.472 952.48c54.03-12.435 78.812-34.713 87.143-63.533 4.377-15.143 4.173-31.984 1.422-49.949-2.752-17.965-8.065-37.125-13.959-56.924-1.28-4.299-2.588-8.628-3.903-12.983-10.814-35.811-22.139-73.315-22.987-109.729-.948-40.75 11.232-80.087 52.106-114.01 41.261-34.244 63.763-67.667 76.601-99.956 12.831-32.27 15.986-63.354 18.633-92.826l.313-3.499c2.521-28.217 4.902-54.877 15.179-79.883 10.679-25.984 29.916-50.241 66.893-72.46 74.229-44.601 115.221-60.571 164.227-65.447 24.54-2.442 51.12-2.104 84.93-1.151 5.73.162 11.67.341 17.85.527 30.21.912 65.99 1.991 110.27 1.991 53.61 0 94.87-22.592 129.1-50.74 17.12-14.071 32.49-29.54 46.77-44.277 2.01-2.076 4-4.136 5.97-6.176 12.03-12.458 23.31-24.141 34.3-33.757 12.8-11.194 25.11-19.494 37.62-22.941 12.45-3.432 25.18-2.077 38.92 6.206 13.78 8.311 28.6 23.61 45.1 48.112 16.49 24.491 34.62 58.112 55.06 102.988 81.68 179.359 81.7 384.6 61.26 545.078-10.22 80.227-25.55 149.238-38.32 198.19-6.38 24.475-12.13 43.934-16.28 57.273a829.037 829.037 0 01-4.9 15.277c-.58 1.735-1.03 3.053-1.33 3.936-.09.259-.17.48-.23.663H567.472zm-211.075-10.642c17.613 4.157 35.1 7.756 52.359 10.642H-186.51a21.835 21.835 0 01-.395-.366 47.13 47.13 0 01-1.848-1.849 68.774 68.774 0 01-5.961-7.248c-4.556-6.353-9.692-15.652-12.037-27.446-4.673-23.503 1.676-57.266 46.773-97.745 11.079-9.944 26.761-14.655 46.347-15.267 19.585-.612 42.964 2.878 69.308 9.221 48.189 11.603 106.09 32.698 168.498 55.434 5.834 2.126 11.708 4.266 17.617 6.414 69.082 25.111 142.931 51.293 214.605 68.21zm79.987 12.642h110.182c-34.385 5.346-71.516 4.743-110.182 0z" stroke="#fff" stroke-width="2"/><path opacity=".304" d="M574.944 903.559c51.208-10.822 78.051-28.106 91.416-49.937 13.769-22.49 13.148-49.682 10.393-79.208-.442-4.735-.939-9.531-1.441-14.38-2.634-25.432-5.418-52.303-1.201-79.388 5.015-32.212 19.937-64.726 56.88-95.367 37.129-30.794 53.858-63.891 60.137-97.47 6.274-33.554 2.107-67.565-2.496-100.164-.303-2.144-.608-4.282-.911-6.413-4.319-30.306-8.443-59.251-4.294-85.459 4.433-27.998 18.313-52.878 51.619-72.878 66.727-40.067 128.642-40.08 197.924-30.048 18.73 2.713 38.01 6.162 58.07 9.751 54.1 9.677 113.86 20.369 183.9 20.369 48.16 0 85.19-21.998 115.91-49.867 15.36-13.933 29.16-29.341 41.99-44.208 2.8-3.253 5.56-6.478 8.28-9.657 9.72-11.361 18.92-22.12 27.91-31.342 11.51-11.803 22.62-21.034 33.95-25.76 11.31-4.713 22.84-4.95 35.24 1.267 12.44 6.232 25.78 18.966 40.64 40.278 14.84 21.306 31.17 51.143 49.57 91.525 73.55 161.419 48.71 338.54 5.44 475.361-21.63 68.403-47.86 126.714-68.69 167.923-10.41 20.605-19.47 36.933-25.93 48.109-3.23 5.588-5.8 9.888-7.57 12.79-.89 1.451-1.57 2.552-2.03 3.291-.23.369-.41.647-.53.833l-.03.049H574.944zm-10.181 1c-94.559 17.778-216.962 16.531-331.887 15.361-16.388-.167-32.625-.333-48.607-.441-65.03-.442-125.846.061-175.505 5.248-24.83 2.594-46.886 6.361-65.294 11.772-18.403 5.411-33.195 12.475-43.465 21.687-10.186 9.137-17.713 15.122-23.089 18.61-2.689 1.745-4.82 2.851-6.461 3.419-1.663.575-2.717.561-3.342.238-.583-.301-.952-.962-1.005-2.149-.053-1.185.219-2.773.788-4.708 1.136-3.861 3.406-8.948 6.328-14.633 5.838-11.361 14.225-25.014 21.159-35.834a853.529 853.529 0 0111.438-17.374l.713-1.051.1-.145h658.129z" stroke="#fff"/><path opacity=".304" d="M1598.95 859.79c-.04.098-.08.187-.12.269H668.91c15.675-7.927 26.198-17.324 33.123-27.944 13.029-19.98 13.154-44.056 11.376-70.06-.298-4.362-.65-8.78-1.005-13.247-1.772-22.251-3.64-45.7.547-69.444 5.015-28.436 18.725-57.295 51.867-84.778 66.26-54.948 148.507-45.72 229.625-31.581a3871.932 3871.932 0 0121.727 3.868c33.1 5.955 65.72 11.826 96.59 13.456 37.61 1.986 72.75-2.316 103.07-20.522 30.42-18.262 43.09-45.853 47.72-76.8 3.87-25.876 2.14-54.204.48-81.472-.32-5.278-.64-10.516-.92-15.689-1.71-32.015-1.74-61.457 9.27-82.902 5.48-10.68 13.71-19.385 25.89-25.433 12.2-6.058 28.43-9.476 49.92-9.476 74.43 0 107.17-53.681 130.42-91.793 3.93-6.447 7.59-12.449 11.13-17.669 6.18-9.09 11.89-15.676 17.96-18.388 2.99-1.338 6.07-1.732 9.36-1.001 3.32.736 6.92 2.625 10.91 5.966 8 6.697 17.37 19.062 28.9 38.916 11.52 19.833 25.15 47.055 41.71 83.384 66.15 145.131 66.16 293.425 49.61 405.475-8.27 56.02-20.68 102.965-31.02 135.902-5.17 16.468-9.82 29.432-13.18 38.277a411.176 411.176 0 01-3.97 10.099c-.47 1.142-.83 2.008-1.07 2.587zm-1692.228 3.886l.773-1.617h752.357c-12.335 5.256-27.481 9.773-46.046 13.44-71.623 14.148-178.741 24.532-289.376 35.258-40.268 3.903-81.002 7.852-120.66 12.044-74.28 7.852-144.775 16.556-201.295 27.414-28.26 5.43-53.05 11.402-73.083 18.084-20.008 6.673-35.377 14.087-44.705 22.453-4.563 4.092-8.449 7.145-11.727 9.288-3.29 2.14-5.911 3.33-7.95 3.76-2.017.43-3.356.09-4.271-.68-.953-.79-1.647-2.22-1.985-4.401-.679-4.363.166-11.073 2.14-19.348 1.965-8.236 5.016-17.893 8.647-28.085 7.262-20.381 16.817-42.827 24.561-60.187a1310.62 1310.62 0 019.737-21.313 998.755 998.755 0 012.883-6.11z" stroke="#fff" stroke-width="2"/><path opacity=".304" d="M1599.29 859.778c-.08.33-.14.59-.19.781H812.891c-6.199-12.827-14.224-26.403-22.64-40.427l-2.501-4.163c-17.743-29.522-36.591-60.883-43.667-91.527-3.701-16.031-4.173-31.84.41-47.067 4.581-15.225 14.227-29.908 30.826-43.674 33.2-27.531 76.301-36.824 124.232-36.363 47.933.462 100.629 10.679 152.969 22.104 9.07 1.98 18.14 3.997 27.16 6.006 43.02 9.573 85.17 18.956 123.53 23.298 46.39 5.253 87.34 3.15 117.57-15.001 30.32-18.201 38.08-48.502 35.46-83.53-2.35-31.615-13.17-67.202-23.58-101.442-1.11-3.673-2.23-7.331-3.32-10.967-5.66-18.776-10.91-36.968-14.25-53.698-3.34-16.735-4.76-31.969-2.8-44.838 1.95-12.853 7.27-23.324 17.42-30.596 10.16-7.284 25.23-11.404 46.77-11.404 43.2 0 74.02-2.451 97.33-4.566 2.59-.235 5.08-.466 7.49-.688 19.3-1.785 33.03-3.054 44.67-1.869 13.05 1.327 23.47 5.737 36.15 16.045 12.7 10.328 27.64 26.556 49.69 51.51 21.93 24.811 32.16 68.611 35.11 120.497 2.94 51.855-1.4 111.664-8.5 168.375-7.1 56.707-16.95 110.299-25.03 149.716a2059.116 2059.116 0 01-10.22 47.107c-1.29 5.617-2.34 10.003-3.05 12.984-.36 1.491-.64 2.63-.83 3.397zM-92.869 861.84l.095-.281h905.037c.487 1.014.962 2.024 1.425 3.029 6.371 13.827 10.369 26.657 10.199 38.141-.17 11.452-4.484 21.593-14.812 30.085-10.352 8.513-26.77 15.387-51.172 20.207-48.829 9.645-121.869 14.081-205.144 16.333-59.972 1.623-125.231 2.112-190.548 2.601-25.371.191-50.75.381-75.832.637-89.649.918-175.499 2.685-243.525 8.337-34.012 2.825-63.584 6.623-86.953 11.776-23.344 5.147-40.589 11.665-49.864 19.985-4.57 4.09-8.552 7.08-12.001 9.07-3.453 2-6.346 3-8.742 3.16-2.378.16-4.277-.49-5.789-1.83-1.526-1.35-2.696-3.43-3.529-6.17-1.668-5.49-1.934-13.47-1.19-23.002.744-9.521 2.49-20.542 4.812-32.087 4.643-23.091 11.578-48.243 17.354-67.627a1148.054 1148.054 0 017.36-23.762 864.678 864.678 0 012.82-8.602z" fill="#C02D63" stroke="#fff"/><ellipse cx="-22.386" cy="-166.608" rx="503.238" ry="837.151" transform="rotate(60 -22.386 -166.608)" fill="url(#paint1_radial)"/></g><path opacity=".304" d="M123.546-125.5c54.72 0 100.948 13.734 137.717 40.449 36.77 26.714 64.117 66.436 81.026 118.477 8.439 25.972 5.764 43.001-4.199 55.013-10.006 12.063-27.449 19.189-48.862 25.102-9.823 2.712-20.454 5.162-31.552 7.72l-2.967.685c-12.166 2.808-24.847 5.782-37.576 9.394-25.458 7.224-51.143 17.009-73.381 33.166-22.209 16.136-44.648 38.627-67.18 62.251-4.613 4.837-9.23 9.721-13.85 14.609-17.957 18.996-35.959 38.04-53.963 54.54-22.64 20.75-45.229 37.425-67.658 44.908-22.393 7.472-44.633 5.785-66.659-10.219-22.061-16.027-33.307-36.058-37.259-58.722-3.956-22.684-.607-48.032 6.583-74.675 7.188-26.641 18.204-54.533 29.55-82.299 1.468-3.593 2.941-7.184 4.413-10.769 9.896-24.115 19.696-47.997 27.074-70.704C-78.287-18.615-50.94-58.337-14.17-85.05c36.77-26.716 82.997-40.45 137.716-40.45z" stroke="#fff"/><path opacity=".304" d="M123.181-125c54.729 0 88.404 8.557 112.641 29.903 24.285 21.389 39.268 55.755 56.209 107.894 8.436 25.967 8.552 43.552 2.843 56.38C289.168 82 277.538 90.312 261.87 97.48c-9.599 4.392-20.585 8.304-32.534 12.558-7.609 2.71-15.609 5.558-23.889 8.758-21.215 8.198-44.087 18.644-66.354 34.822-21.424 15.565-43.11 34.861-64.89 54.239l-2.42 2.152c-22.61 20.114-45.319 40.174-68.015 56.208-22.702 16.038-45.309 27.987-67.7 31.95-22.345 3.954-44.528-.032-66.471-15.975-22.014-15.994-32.85-32.937-36.318-50.921-3.475-18.023.419-37.246 8.187-57.85 6.685-17.731 16.197-36.383 26.243-56.082a4413.37 4413.37 0 004.924-9.676c11.795-23.269 23.787-47.94 32.28-74.081C-78.204-18.38-50.91-58.006-14.242-84.647 22.426-111.288 68.547-125 123.18-125z" fill="#E83F81" stroke="#fff" stroke-width="2"/><path opacity=".304" d="M152.344-158.027c54.464 0 107.177 27.779 150.544 68.65 43.361 40.864 77.279 94.728 94.161 146.686 4.199 12.921 4.877 23.245 2.788 31.572-2.084 8.303-6.946 14.726-14.044 19.815-14.28 10.24-37.481 15-64.794 18.535-9.126 1.181-18.705 2.225-28.533 3.296-19.462 2.121-39.902 4.348-59.744 7.96-29.883 5.439-58.615 14.047-80.966 30.286-22.316 16.214-45.631 45.298-69.39 78.66-11.269 15.823-22.656 32.635-34.097 49.529l-1.894 2.796c-12.082 17.837-24.222 35.708-36.36 52.572-24.294 33.751-48.508 63.357-72.13 80.515-11.801 8.573-23.389 13.988-34.707 15.305-11.286 1.312-22.388-1.439-33.281-9.354-21.845-15.871-32.813-42.475-36.352-75.308-3.539-32.826.369-71.72 8.118-111.929 12.89-66.885 36.366-137.209 53.655-188.998 3.498-10.48 6.743-20.2 9.596-28.98 33.76-103.901 138.322-191.608 247.43-191.608z" stroke="#fff" stroke-width="2"/><path d="M953.175 498.966l-4.4-5.5h-.1l-7 .5c-.1 0-.2-.1-.1-.2l3.8-5.9v-.1l-2.7-6.5c0-.1 0-.2.1-.2l6.8 1.8h.1l5.3-4.6c.1-.1.2 0 .2.1l.4 7s0 .1.1.1l6 3.7c.1.1.1.2 0 .2l-6.6 2.5s-.1 0-.1.1l-1.6 6.8c0 .3-.1.3-.2.2z" fill="#FFE600"/><path d="M953.275 499.566c-.2 0-.4-.1-.5-.2l-4.3-5.3-6.8.5c-.2 0-.5-.1-.6-.3-.1-.2-.1-.5 0-.7l3.7-5.7-2.6-6.3c-.1-.2 0-.5.1-.6.2-.2.4-.2.6-.2l6.6 1.8 5.2-4.4c.2-.2.4-.2.6-.1.2.1.4.3.4.5l.4 6.8 5.9 3.5c.2.1.3.3.3.6 0 .2-.2.4-.4.5l-6.4 2.4-1.6 6.6c-.1.2-.2.4-.5.5 0 .1 0 .1-.1.1zm-4.6-6.6c.2 0 .3.1.5.2l3.9 4.9 1.5-6.1c0-.2.2-.4.4-.4l5.8-2.2-5.3-3.3c-.2-.1-.3-.3-.3-.5l-.3-6.2-4.8 4c-.1.1-.4.2-.6.1l-6-1.6 2.4 5.8c.1.2.1.4-.1.6l-3.4 5.2 6.3-.5z" fill="#2D0000"/><path d="M409.773 313.493l-7.868-9.836h-.179l-12.518.894c-.179 0-.358-.179-.179-.357l6.796-10.551v-.179l-4.829-11.624c0-.179 0-.358.179-.358l12.16 3.219h.179l9.478-8.226c.179-.179.358 0 .358.179l.715 12.518s0 .179.179.179l10.73 6.616c.179.179.179.358 0 .358l-11.803 4.471s-.179 0-.179.179l-2.861 12.16c0 .536-.179.536-.358.358z" fill="#E93F80"/><path d="M409.951 314.566c-.357 0-.715-.179-.894-.358l-7.69-9.478-12.16.894c-.358 0-.894-.179-1.073-.536a1.527 1.527 0 010-1.252l6.617-10.193-4.65-11.267c-.179-.357 0-.894.179-1.072.358-.358.715-.358 1.073-.358l11.803 3.219 9.299-7.869c.357-.357.715-.357 1.073-.179.357.179.715.537.715.895l.715 12.16 10.551 6.259c.358.179.537.536.537 1.073 0 .358-.358.715-.715.894l-11.446 4.292-2.861 11.803c-.179.357-.357.715-.894.894 0 .179 0 .179-.179.179zm-8.226-11.803c.358 0 .537.179.894.358l6.975 8.762 2.682-10.908c0-.358.358-.716.715-.716l10.372-3.934-9.478-5.901a.985.985 0 01-.536-.894l-.537-11.088-8.583 7.153c-.179.179-.716.358-1.073.179l-10.73-2.861 4.292 10.372c.179.358.179.715-.179 1.073l-6.08 9.299 11.266-.894z" fill="#2D0000"/><path d="M1022.99 478.46l7.84-9.686s.15-.154.15 0l12.45.923c.16 0 .31-.154.16-.308l-6.77-10.454v-.154l4.77-11.53a.328.328 0 00-.31-.308l-12.14 3.229h-.16l-9.53-8.148c-.15-.154-.31 0-.31.153l-.61 12.453s0 .154-.15.154l-10.61 6.611c-.16.153-.16.307 0 .307l11.68 4.459.16.153 2.92 12.146c.15.153.46.153.46 0z" fill="#fff"/><path d="M1022.84 479.382c.3 0 .61-.154.76-.307l7.69-9.532 12.15.922c.3 0 .77-.154.92-.461.15-.308.15-.769 0-1.076l-6.61-10.301 4.61-11.223c.15-.307.15-.768-.15-1.076-.31-.307-.62-.461-.93-.307l-11.83 3.228-9.23-7.994c-.31-.308-.61-.308-1.07-.154-.31.154-.62.461-.62.769l-.61 12.145-10.46 6.457c-.31.154-.46.615-.46.923 0 .307.31.615.62.768l11.37 4.305 2.92 11.838c.16.307.31.615.77.769l.16.307zm8.3-11.53c-.31 0-.62.153-.77.307l-7.23 8.917-2.61-11.069c0-.308-.31-.615-.62-.615l-10.6-3.997 9.68-5.996a.84.84 0 00.46-.769l.62-11.377 8.61 7.38c.31.154.61.307.92.154l10.92-2.922-4.31 10.455c-.15.307-.15.615.15.922l6.15 9.532-11.37-.922z" fill="#2D0000"/><path d="M554.534 260.139l4.612-5.689h.154l7.226.615c.154 0 .154-.154.154-.154l-3.998-6.149v-.154l2.768-6.764c0-.154 0-.154-.154-.154l-7.072 1.845h-.154l-5.534-4.766s-.154 0-.154.154l-.308 7.379v.154l-6.303 3.843c-.154 0 0 .154 0 .154l6.765 2.614v.153l1.691 7.072c.154-.153.307 0 .307-.153z" fill="#FF003C"/><path d="M554.533 260.907c.307 0 .461-.154.615-.307l4.458-5.381 7.379.615.308-.461a.98.98 0 000-.923l-3.844-5.842 2.921-6.918-.307-.461c-.154-.308-.615-.308-.922-.308l-6.765 1.845-5.688-4.766-.615.154a.843.843 0 00-.461.768l-.308 6.919-6.303 3.843v.615c0 .308.307.615.615.769l6.457 2.46 1.691 7.225.615.154h.154zm4.304-7.226l-.307.308-3.69 4.612-1.537-6.15-.462-.307-5.688-2.152 5.535-3.383v-.461l.307-5.996 4.92 4.151.461-.153 5.842-1.538-2.46 5.842.154.461 3.229 5.074-6.304-.308z" fill="#2D0000"/><path d="M418.534 221.984l4.612-5.688h.154l7.226.615c.154 0 .154-.154.154-.154l-3.997-6.149v-.154l2.767-6.765c0-.153 0-.153-.154-.153l-7.072 1.845h-.154l-5.534-4.766s-.154 0-.154.153l-.308 7.38v.154l-6.303 3.843c-.154 0 0 .154 0 .154l6.765 2.613v.154l1.691 7.072c.154 0 .307 0 .307-.154z" fill="#FFE600"/><path d="M418.533 222.907c.307 0 .461-.154.614-.307l4.459-5.381 7.379.615.308-.461a.98.98 0 000-.923l-3.844-5.842 2.921-6.918-.307-.461c-.154-.308-.615-.308-.922-.308l-6.765 1.845-5.688-4.766-.615.154a.843.843 0 00-.461.768l-.308 6.919-6.303 3.843v.615c0 .308.307.615.615.769l6.457 2.46 1.691 7.225.615.154c0-.154 0 0 .154 0zm4.458-7.379l-.307.307-3.844 4.612-1.537-6.149-.462-.308-5.688-2.152 5.535-3.382v-.462l.307-5.995 4.92 4.151h.461l5.842-1.538-2.46 5.996.154.461 3.229 5.074-6.15-.615z" fill="#2D0000"/><path d="M1015.99 367.233l6.76-8.456h.16l10.76.769c.15 0 .3-.154.15-.308l-5.84-9.07v-.154l4.15-9.993c0-.154 0-.308-.15-.308l-10.46 2.768h-.15l-8.15-7.072c-.15-.154-.31 0-.31.153l-.61 10.762s0 .154-.16.154l-9.22 5.688c-.15.154-.15.308 0 .308l10.15 3.843s.15 0 .15.154l2.46 10.454c0 .461.15.461.31.308z" fill="#FFE600"/><path d="M1015.84 368.155c.3 0 .61-.154.76-.308l6.62-8.148 10.45.769c.31 0 .77-.154.92-.461.16-.308.16-.769 0-1.076l-5.69-8.764 4-9.685c.15-.308 0-.769-.15-.923-.31-.307-.62-.307-.93-.307l-10.14 2.767-8-6.764c-.3-.308-.61-.308-.92-.154-.31.154-.61.461-.61.769l-.62 10.454-9.07 5.381c-.31.154-.46.461-.46.922 0 .308.31.615.61.769l9.84 3.69 2.46 10.146c.16.308.31.615.77.769 0 .154 0 .154.16.154zm7.07-10.147c-.31 0-.46.154-.77.308l-6 7.533-2.3-9.378c0-.308-.31-.615-.62-.615l-8.91-3.383 8.14-5.073a.84.84 0 00.46-.769l.47-9.531 7.38 6.149c.15.154.61.308.92.154l9.22-2.46-3.69 8.917c-.15.307-.15.615.16.922l5.22 7.995-9.68-.769z" fill="#2D0000"/><path d="M505.84 328.139l4.458-5.535h.154l7.072.615c.154 0 .154-.154.154-.154l-3.997-6.149v-.154l2.613-6.611c0-.154 0-.154-.154-.154l-6.918 1.845h-.154l-5.534-4.766s-.154 0-.154.154l-.307 7.226v.154l-5.996 3.689c-.154 0 0 .154 0 .154l6.61 2.614v.153l1.692 7.072c.153 0 .307 0 .461-.153z" fill="#FFE600"/><path d="M505.685 329.061c.308 0 .461-.154.615-.308l4.151-5.38 7.226.614.307-.461a.978.978 0 000-.922l-3.843-5.842 2.613-6.765-.307-.461c-.154-.307-.615-.307-.923-.307l-6.457 1.691-5.534-4.92-.615.154a.843.843 0 00-.461.768l-.308 6.919-6.149 3.843v.615c0 .308.307.615.615.769l6.303 2.613 1.845 7.226.615.154h.307zm4.305-7.226l-.308.308-3.536 4.612-1.537-6.15-.461-.307-5.535-2.153 5.227-3.228v-.461l.154-5.842 4.766 4.151.461-.154 5.535-1.538-2.306 5.842.153.462 3.229 5.073-5.842-.615z" fill="#2D0000"/><path d="M965.301 416.913l2.921-3.69 4.612.461s.154 0 0-.154l-2.614-3.997 1.692-4.305s0-.153-.154-.153l-4.459 1.23-3.536-3.075h-.153l-.154 4.766-3.997 2.46v.153l4.304 1.691 1.538 4.613z" fill="#FF006D"/><path d="M965.61 417.681l.308-.461 2.613-3.382 4.766.461.615-.922-.307-.462-2.46-3.689 1.691-4.459-.615-.768-.461.153-4.151 1.077-3.69-3.229-.769.307v.615l-.153 4.459-3.998 2.46v1.076l.462.307 3.997 1.691 1.23 4.766h.922zm2.306-5.38l-.307.307-1.999 2.614-.922-3.69-.461-.154-3.075-1.23 3.075-1.998v-.462l.153-3.228 2.768 2.46h.461l3.228-.769-1.383 3.536.153.461 1.845 2.767-3.536-.614z" fill="#2D0000"/><defs><radialGradient id="paint1_radial" cx="0" cy="0" r="1" gradientUnits="userSpaceOnUse" gradientTransform="scale(503.238 837.151) rotate(90 .077 -.122)"><stop stop-color="#F7E21F"/><stop offset=".401" stop-color="#F7E120" stop-opacity=".85"/><stop offset=".698" stop-color="#F7DF21" stop-opacity=".547"/><stop offset="1" stop-color="#F6DC23" stop-opacity="0"/></radialGradient><linearGradient id="paint0_linear" x1="868" y1="80.872" x2="-139.197" y2="916.506" gradientUnits="userSpaceOnUse"><stop stop-color="#EB8E78"/><stop offset=".297" stop-color="#F1A959"/><stop offset=".568" stop-color="#F3B54C"/><stop offset=".786" stop-color="#ED856C"/></linearGradient></defs></svg>