<svg width="28" height="20" fill="none" xmlns="http://www.w3.org/2000/svg"><path fill-rule="evenodd" clip-rule="evenodd" d="M0 3c0-1.645 1.355-3 3-3h22c1.645 0 3 1.355 3 3v14c0 1.645-1.355 3-3 3H3c-1.645 0-3-1.355-3-3V3zm25-1H3c-.566 0-1 .434-1 1v14c0 .566.434 1 1 1h22c.566 0 1-.434 1-1V3c0-.566-.434-1-1-1z" fill="#fff"/><path d="M3 2h22c.566 0 1 .434 1 1v14c0 .566-.434 1-1 1H3c-.566 0-1-.434-1-1V3c0-.566.434-1 1-1z" fill="#fff"/><path d="M17.406 6.375c-1.925 0-2.937.95-2.937 2.156 0 2.18 2.562 1.88 2.562 3 0 .192-.16.625-1.218.625-1.06 0-1.75-.375-1.75-.375l-.313 1.438s.656.406 1.969.406c1.312 0 3.156-1.008 3.156-2.469 0-1.758-2.563-1.875-2.563-2.656 0-.398.34-.719 1.25-.719.594 0 1.25.469 1.25.469l.313-1.531s-.871-.344-1.719-.344zM9.188 6.5L7.5 11.438s-.086-.426-.125-.688c-.953-2.14-2.5-2.938-2.5-2.938l1.469 5.594h2L11.156 6.5H9.187zm2.687 0l-1.094 6.906h1.844L13.719 6.5h-1.844zm9.938 0l-3 6.906h1.812l.375-.969h2.313l.187.97h1.656L23.75 6.5h-1.938z" fill="#00316A"/><path d="M2.844 6.531S6.44 7.633 7.28 10.344l-.625-3.125s-.273-.688-1-.688H2.844z" fill="#FFB600"/><path d="M22.5 8.5l.531 2.594h-1.5L22.5 8.5z" fill="#fff"/></svg>