<svg width="20" height="20" fill="none" xmlns="http://www.w3.org/2000/svg"><path fill-rule="evenodd" clip-rule="evenodd" d="M10 13.333a.827.827 0 01-.534-.193l-5-4.167a.833.833 0 111.067-1.28l4.476 3.73 4.468-3.595a.834.834 0 011.045 1.298l-5 4.023a.833.833 0 01-.522.184z" fill="#fff"/><mask id="a" maskUnits="userSpaceOnUse" x="4" y="7" width="12" height="7"><path fill-rule="evenodd" clip-rule="evenodd" d="M10 13.333a.827.827 0 01-.534-.193l-5-4.167a.833.833 0 111.067-1.28l4.476 3.73 4.468-3.595a.834.834 0 011.045 1.298l-5 4.023a.833.833 0 01-.522.184z" fill="#fff"/></mask><g mask="url(#a)"><path fill="#333" d="M0 0h20v20H0z"/></g></svg>