<svg width="10" height="10" fill="none" xmlns="http://www.w3.org/2000/svg"><path d="M2.353 3.235l1.177.294.588-.588.588-1.765.883-.882.588 1.47 2.059 2.648.588 2.059-1.177 2.058-1.764 1.177-3.236-.588-.882-1.47-.588-1.766 1.176-2.647z" fill="#fff"/><path d="M7.928 3.548C7.081 2.61 6.577 1.787 6.303 1.26 6.007.69 5.91.336 5.91.333L5.821 0l-.315.14a3.146 3.146 0 00-1.394 1.388c-.244.49-.293 1.034-.291 1.405a.453.453 0 01-.772.322l-.587-.586-.201.278c-.021.029-.514.709-.604.844a3.986 3.986 0 00-.66 2.235 3.98 3.98 0 001.18 2.814 4.009 4.009 0 006.827-2.844c0-.8-.392-1.693-1.076-2.448zM5 9.414c-.91 0-1.766-.352-2.41-.99a3.397 3.397 0 01-1.007-2.402 3.402 3.402 0 01.563-1.907c.046-.07.23-.325.388-.545l.1.1a1.04 1.04 0 001.773-.74c-.001-.307.037-.754.23-1.14.235-.469.586-.776.83-.946.22.56.78 1.72 2.027 3.097.278.307.924 1.122.924 2.055A3.422 3.422 0 015 9.414z" fill="#fff"/></svg>