<svg width="20" height="20" fill="none" xmlns="http://www.w3.org/2000/svg"><path d="M7.289 11.034a.454.454 0 00-.454-.454H5.25a.454.454 0 00-.454.454v1.583c0 .251.203.454.454.454h1.584c.25 0 .454-.203.454-.454v-1.583zm3.956 0a.454.454 0 00-.453-.454H9.208a.454.454 0 00-.454.454v1.583c0 .251.203.454.454.454h1.584c.25 0 .454-.203.454-.454v-1.583zm3.962 0a.454.454 0 00-.454-.454h-1.584a.454.454 0 00-.454.454v1.583c0 .251.203.454.454.454h1.584c.25 0 .454-.203.454-.454v-1.583zm-7.918 3.959a.454.454 0 00-.454-.453H5.25a.454.454 0 00-.454.453v1.584c0 .25.203.454.454.454h1.584c.25 0 .454-.203.454-.454v-1.584zm3.956 0a.454.454 0 00-.453-.453H9.208a.454.454 0 00-.454.453v1.584c0 .25.203.454.454.454h1.584c.25 0 .454-.203.454-.454v-1.584zm3.962 0a.453.453 0 00-.454-.453H13.17a.454.454 0 00-.454.453v1.584c0 .25.203.454.454.454h1.584c.25 0 .454-.203.454-.454v-1.584z" fill="#EDEDED"/><path d="M18.038 2.227v2.42a1.976 1.976 0 01-1.98 1.974h-1.25a1.986 1.986 0 01-1.992-1.975V2.218h-5.63v2.428a1.986 1.986 0 01-1.993 1.975h-1.25a1.976 1.976 0 01-1.98-1.975V2.227a1.8 1.8 0 00-1.74 1.791v14.179c0 .99.802 1.803 1.792 1.803h15.972c.988 0 1.792-.815 1.792-1.803V4.018a1.8 1.8 0 00-1.74-1.791zm-.58 15.087a.775.775 0 01-.775.775H3.285a.775.775 0 01-.775-.775V9.99c0-.428.346-.775.775-.775h13.398c.428 0 .775.347.775.775v7.324z" fill="#EDEDED"/><path d="M3.939 5.324h1.236a.679.679 0 00.679-.679V.68a.68.68 0 00-.68-.68H3.94a.679.679 0 00-.68.679v3.966a.68.68 0 00.68.679zm10.854 0h1.235a.679.679 0 00.68-.679V.68a.679.679 0 00-.68-.679h-1.235a.679.679 0 00-.68.679v3.966a.68.68 0 00.68.679z" fill="#EDEDED"/></svg>