<svg width="49" height="49" fill="none" xmlns="http://www.w3.org/2000/svg"><rect width="49" height="49" rx="24.5" fill="url(#paint0_linear)"/><g clip-path="url(#clip0)" fill="#fff"><path d="M33.58 19.052a.958.958 0 00-.445 1.28c.63 1.3.948 2.702.948 4.168 0 5.284-4.299 9.583-9.583 9.583s-9.583-4.299-9.583-9.583 4.299-9.583 9.583-9.583c2.19 0 4.247.715 5.95 2.067a.958.958 0 101.192-1.5A11.52 11.52 0 0024.5 13C18.16 13 13 18.16 13 24.5S18.16 36 24.5 36 36 30.84 36 24.5c0-1.757-.384-3.441-1.14-5.003a.957.957 0 00-1.28-.445z"/><path d="M24.5 16.833a.959.959 0 00-.958.959V24.5c0 .529.43.958.958.958h4.792a.959.959 0 000-1.916h-3.833v-5.75a.959.959 0 00-.959-.959z"/></g><defs><linearGradient id="paint0_linear" x1="24.5" y1="0" x2="24.5" y2="49" gradientUnits="userSpaceOnUse"><stop stop-color="#F29870"/><stop offset="1" stop-color="#F8C53E"/></linearGradient><clipPath id="clip0"><path fill="#fff" transform="translate(13 13)" d="M0 0h23v23H0z"/></clipPath></defs></svg>