<svg width="17" height="15" fill="none" xmlns="http://www.w3.org/2000/svg"><path fill-rule="evenodd" clip-rule="evenodd" d="M7.99 1.134L8.5 0l.509 1.134 1.825 4.003 4.458.464 1.263.138-.947.825-3.317 2.938.93 4.295.263 1.203-1.105-.619-3.88-2.199-3.878 2.2L3.516 15l.263-1.203.93-4.295-3.317-2.938-.948-.825L1.708 5.6l4.458-.464L7.99 1.134zm1.95 4.742L8.5 2.698 7.062 5.876l-.14.292-.317.035-3.527.36 2.632 2.32.246.224-.07.309-.737 3.385 3.071-1.719.28-.171.282.171 3.071 1.719-.737-3.385-.07-.31.245-.223 2.633-2.32-3.528-.36-.316-.035-.14-.292z" fill="#fff"/></svg>