<svg width="26" height="25" fill="none" xmlns="http://www.w3.org/2000/svg"><path fill-rule="evenodd" clip-rule="evenodd" d="M23.137 1.219c.28-.11.597-.207.933-.223.336-.015.7.051 1.067.27.363.215.664.617.78 1.047.118.43.09.87-.015 1.343l-3.734 19.13-.035.09s-.211.558-.754.995c-.54.434-1.559.68-2.567.239l-.11-.047-4.831-3.707-2.883 2.625-.035.027s-.621.48-1.395.246l-.007-.001a.732.732 0 01-.11-.022l-.015-.009a.083.083 0 00-.024-.01l.01.001a1.112 1.112 0 01-.205-.096 1.41 1.41 0 01-.38-.351c-.218-.274-.394-.633-.573-1.207a721.48 721.48 0 01-1.222-3.972c-.266-.87-.49-1.604-.571-1.864l-4.883-1.645H1.57s-.324-.113-.664-.355c-.336-.238-.805-.672-.895-1.395-.054-.425.094-.84.278-1.109.183-.27.394-.441.586-.566.297-.205.585-.321.691-.36a76205.359 76205.359 0 0117.867-7.527l1.164-.488a321.97 321.97 0 012.536-1.059h.004zm.83 1.87c0-.012 0-.024.002-.042-.025 0-.033 0-.039.002-.009.004-.016.011-.063.03-.086.034-1.605.667-3.66 1.53a9492.52 9492.52 0 01-7.38 3.11L2.32 12.145l-.031.011-.031.016s-.028.012-.032.012a.03.03 0 01.008.002l.008.002v.004l5.836 1.964.004.02 12.176-7.543s.629-.32.601.133c0 0 .133.078-.266.45l-9.656 9-.75 4.788 3.57-3.254 5.91 4.532c.325.128.387.09.466.027a.41.41 0 00.111-.135l.006-.01 3.699-18.93v-.011a.475.475 0 00.019-.135z" fill="#9B9B9B"/></svg>