<svg width="24" height="20" fill="none" xmlns="http://www.w3.org/2000/svg"><path fill-rule="evenodd" clip-rule="evenodd" d="M1 0C.45 0 0 .45 0 1s.45 1 1 1h2.219l2.625 10.5c.222.89 1.02 1.5 1.937 1.5H9c-1.645 0-3 1.355-3 3s1.355 3 3 3 3-1.355 3-3-1.355-3-3-3h9c-1.645 0-3 1.355-3 3s1.355 3 3 3 3-1.355 3-3-1.355-3-3-3h1.25c.902 0 1.668-.598 1.906-1.469L23.75 3H7l.5 2h13.656l-1.906 7H7.781L5.156 1.5A1.983 1.983 0 003.22 0H1zm8 16c.563 0 1 .438 1 1 0 .563-.438 1-1 1-.563 0-1-.438-1-1 0-.563.438-1 1-1zm10 1c0-.563-.438-1-1-1-.563 0-1 .438-1 1 0 .563.438 1 1 1 .563 0 1-.438 1-1z" fill="#F19659"/></svg>