<svg width="49" height="49" fill="none" xmlns="http://www.w3.org/2000/svg"><rect width="49" height="49" rx="24.5" fill="url(#paint0_linear)"/><path d="M35.315 28.82a.673.673 0 00.637-.672c0-1.939-1.557-3.457-3.544-3.457h-.656l-.803-3.81a2.188 2.188 0 00-.867-4.194h-3.104a.673.673 0 00-.673.674v.84H24.65a.673.673 0 000 1.347h1.655v.84c0 .371.301.673.673.673h.298a3.766 3.766 0 00-.894 2.44v3.834c0 .02-.016.035-.035.035h-2.719a.036.036 0 01-.034-.025l-.733-2.48a1.388 1.388 0 001.027-1.339 2.76 2.76 0 00-2.755-2.758H15.07a2.073 2.073 0 00-.288 4.123 5.201 5.201 0 00-1.739 3.884v2.097c0 .372.302.674.674.674h.582a3.424 3.424 0 003.35 2.748A3.424 3.424 0 0021 31.546h8.233a3.424 3.424 0 003.35 2.748 3.424 3.424 0 002.733-5.474zm-.82-1.345H32.98a3.438 3.438 0 00-1.101.049v-1.486h.53c.985 0 1.8.593 2.086 1.437zm-6.844-9.44h2.431a.84.84 0 010 1.678h-2.431v-1.678zm-4.023 10.683h2.719c.762 0 1.381-.62 1.381-1.383V23.5c0-1.158.813-2.13 1.897-2.374l.908 4.308v2.702a3.427 3.427 0 00-1.301 2.063H22.54c-.314-2.418-2.31-4.227-4.803-4.227a4.615 4.615 0 00-2.895.987 3.86 3.86 0 013.404-2.047h3.224l.832 2.815c.173.584.717.99 1.325.99zm-9.185 1.48a3.555 3.555 0 01.892-1.864c.612-.654 1.465-1.014 2.403-1.014 1.736 0 3.138 1.22 3.44 2.878h-6.735zm.626-6.634a.725.725 0 010-1.448h6.064c.777 0 1.41.632 1.41 1.41-.007.028-.051.046-.134.038h-7.34zm2.58 9.382a2.075 2.075 0 01-1.96-1.4h3.918a2.075 2.075 0 01-1.959 1.4zm14.934 0a2.075 2.075 0 010-4.148 2.075 2.075 0 010 4.148z" fill="#fff"/><path d="M32.582 31.55a.678.678 0 10-.001-1.355.678.678 0 000 1.356zM13.7 18.815h6.036a.673.673 0 000-1.348H13.7a.674.674 0 000 1.348zm2.237-2.762h6.088a.673.673 0 000-1.347h-6.088a.673.673 0 000 1.348z" fill="#fff"/><defs><linearGradient id="paint0_linear" x1="24.5" y1="0" x2="24.5" y2="49" gradientUnits="userSpaceOnUse"><stop stop-color="#F29870"/><stop offset="1" stop-color="#F8C53E"/></linearGradient></defs></svg>