<svg width="49" height="49" fill="none" xmlns="http://www.w3.org/2000/svg"><rect width="49" height="49" rx="24.5" fill="url(#paint0_linear)"/><g clip-path="url(#clip0)" fill="#fff" stroke="#fff" stroke-width=".2"><path d="M19.716 27.695a19.87 19.87 0 00-1.57.375l-.008.002c-.913.246-1.797.484-2.715.395l4.293-.772zm0 0v4.057c0 .928.755 1.683 1.682 1.683h5.878a.686.686 0 000-1.372h-5.878a.311.311 0 01-.31-.31V30.47h17.64v1.282a.31.31 0 01-.31.31H32.54a.686.686 0 000 1.373h5.877c.928 0 1.683-.755 1.683-1.683V21.32c0-.927-.755-1.682-1.683-1.682H26.351a61.51 61.51 0 01-.503-.378l-.06.08.06-.08h0c-.74-.56-1.862-1.41-2.66-1.917h0c-.799-.506-1.601-.767-2.474-.777-.871-.011-1.805.227-2.866.706m1.868 10.423l-4.293.772a.66.66 0 01-.037-.004h0a7.252 7.252 0 01-.989-.228s0 0 0 0h0c-.386-.11-.684-.196-1.254-.196 0 0 0 0 0 0l-1.517.005h0A1.727 1.727 0 019.9 26.318v-5.295c0-.951.774-1.725 1.726-1.725h1.762c.343.015.742-.096 1.131-.254.387-.157.754-.355 1.032-.505l1.158-.64.75-.415.245-.135.069-.038.018-.01.005-.002v-.001h0a.666.666 0 01.052-.026m0 0s0 0 0 0l.04.091-.04-.09zm.587 1.24h.002c.86-.386 1.567-.575 2.205-.576.637 0 1.212.186 1.81.565.463.295 1.057.723 1.616 1.137h-2.67c-.927 0-1.682.755-1.682 1.682v1.78H17.86a.686.686 0 000 1.371h6.17a.86.86 0 01.602 1.471h0a.836.836 0 01-.598.248h-.112c-.386-.002-1.48-.007-2.02-.028a10.64 10.64 0 00-2.054.12l.015.1-.015-.1c-.782.12-1.464.303-2.059.463-.846.228-1.556.417-2.217.358a6.024 6.024 0 01-.797-.187h0c-.424-.121-.87-.25-1.636-.25h-.006l-1.508.006s0 0 0 0a.36.36 0 01-.354-.354v-5.295a.36.36 0 01.354-.354h1.718c.544.02 1.095-.123 1.59-.314.495-.19.94-.431 1.268-.61h.002l1.153-.636.747-.414.245-.135.068-.037.018-.01zm2.653 10.586v-1.56c.419-.006 1.847.011 2.552.02l.387.004a2.2 2.2 0 001.573-.647 2.233 2.233 0 00-1.57-3.816h-2.942V21.32c0-.17.14-.31.31-.31h17.02c.17 0 .31.14.31.31v7.778h-17.64z"/><path d="M30.593 32.749a.686.686 0 00-.686-.686h-.001a.685.685 0 10.001 1.372.686.686 0 00.686-.686z"/></g><defs><linearGradient id="paint0_linear" x1="24.5" y1="0" x2="24.5" y2="49" gradientUnits="userSpaceOnUse"><stop stop-color="#F29870"/><stop offset="1" stop-color="#F8C53E"/></linearGradient><clipPath id="clip0"><path fill="#fff" transform="rotate(90 15 25)" d="M0 0h30v30H0z"/></clipPath></defs></svg>