<svg width="25" height="23" fill="none" xmlns="http://www.w3.org/2000/svg"><path opacity=".5" d="M17.259 11.33l7.102 6.437c.426.386.639.9.639 1.416 0 .579-.213 1.094-.64 1.48l-1.562 1.416a2.653 2.653 0 01-1.633.58c-.64 0-1.137-.193-1.563-.58L12.5 15.642 5.398 22.08c-.426.387-.995.58-1.563.58-.639 0-1.207-.193-1.633-.58L.639 20.663C.213 20.277 0 19.762 0 19.183c0-.515.213-1.03.64-1.416l7.101-6.438L.64 4.892C.213 4.506 0 4.055 0 3.476c0-.515.213-1.03.64-1.48L2.201.579C2.628.193 3.196 0 3.835 0c.568 0 1.137.193 1.563.58L12.5 7.015 19.602.58c.426-.387.924-.58 1.563-.58.568 0 1.136.193 1.633.58l1.563 1.416c.426.45.639.965.639 1.48 0 .58-.213 1.03-.64 1.416l-7.1 6.438z" fill="#FF9E2A"/></svg>