<svg width="19" height="19" fill="none" xmlns="http://www.w3.org/2000/svg"><path d="M18.24 14.56a.847.847 0 00-.446-.61l-3.584-2.112-.029-.016a1.062 1.062 0 00-.484-.113c-.3 0-.587.114-.786.314l-1.058 1.058a.62.62 0 01-.237.107c-.013 0-1.231-.088-3.474-2.332-2.24-2.239-2.335-3.461-2.335-3.461a.565.565 0 01.106-.255l.902-.902a1.15 1.15 0 00.225-1.255L5.048 1.235A.823.823 0 004.31.752a.85.85 0 00-.6.257L1.25 3.464a1.883 1.883 0 00-.482.974c-.022.158-.458 3.923 4.704 9.087 4.383 4.382 7.8 4.722 8.744 4.722.115.002.23-.004.344-.017.33-.044.739-.247.973-.482l2.457-2.456a.846.846 0 00.25-.733z" fill="#EC8F79"/></svg>