<svg width="14" height="14" fill="none" xmlns="http://www.w3.org/2000/svg"><g clip-path="url(#clip0)" fill="#fff"><path d="M4.661 6.698l4.046 4.046c.018-.36.034-1.152-.102-2.1-.245-1.711-.876-3.117-1.824-4.065-.949-.949-2.354-1.58-4.065-1.825a10.673 10.673 0 00-2.305-.087.427.427 0 00-.385.384c-.004.042-.095 1.033.088 2.306.245 1.71.876 3.116 1.824 4.064.948.949 2.354 1.58 4.065 1.825a11.414 11.414 0 002.1.101L4.058 7.302a.427.427 0 01.603-.604zm9.319-1.071a.427.427 0 00-.384-.384c-.114-.01-2.812-.249-4.383 1.322a3.84 3.84 0 00-.175.189c.184.55.322 1.141.412 1.768.029.2.051.395.069.58l1.115-1.116a.427.427 0 01.604.604l-1.665 1.665c0 .435-.025.718-.03.775-.01.1-.032.197-.063.29.948-.088 2.257-.388 3.178-1.31 1.572-1.57 1.334-4.268 1.323-4.383z"/></g><defs><clipPath id="clip0"><path fill="#fff" d="M0 0h14v14H0z"/></clipPath></defs></svg>