<svg width="681" height="611" viewBox="0 0 681 611" fill="none" xmlns="http://www.w3.org/2000/svg">
<path opacity="0.30385" d="M300.609 654.748C243.507 638.621 199.31 610.663 168.81 571.944C138.311 533.226 121.479 483.711 119.172 424.42C118.02 394.826 125.832 377.829 139.784 368.22C153.791 358.574 174.104 356.279 198.19 356.42C209.239 356.485 221.054 357.061 233.388 357.663C234.483 357.716 235.582 357.77 236.685 357.823C250.208 358.478 264.314 359.112 278.66 359.094C307.35 359.059 337.028 356.418 364.986 346.116C392.911 335.826 422.949 318.972 453.42 300.963C459.659 297.276 465.916 293.54 472.177 289.802C496.511 275.273 520.909 260.706 544.559 248.794C574.298 233.814 602.789 223.069 628.406 221.87C653.985 220.673 676.707 228.992 694.983 252.193C713.285 275.427 719.12 299.652 716.564 324.475C714.005 349.319 703.037 374.787 687.683 400.47C672.33 426.152 652.614 452.01 632.594 477.639C630.003 480.955 627.407 484.267 624.815 487.575C607.383 509.82 590.12 531.85 575.731 553.367C542.747 602.691 502.5 636.085 456.252 653.127C410.004 670.169 357.711 670.876 300.609 654.748Z" stroke="#B1B1B1" stroke-opacity="0.43"/>
<path opacity="0.30385" d="M301.126 654.375C244.014 638.245 211.374 619.386 192.358 589.944C173.308 560.448 167.803 520.151 165.492 460.758C164.341 431.169 169.403 412.761 179.159 401.034C188.911 389.314 203.521 384.064 221.989 381.2C233.302 379.446 245.925 378.602 259.65 377.683C268.387 377.099 277.571 376.485 287.148 375.587C311.697 373.285 338.632 369.126 366.624 358.812C393.561 348.885 421.872 335.145 450.309 321.343C451.361 320.832 452.414 320.321 453.467 319.81C482.987 305.488 512.597 291.246 541.009 281.202C569.427 271.157 596.55 265.347 621.101 267.812C645.603 270.273 667.595 280.981 685.807 304.101C704.073 327.289 710.398 348.182 708.714 367.995C707.026 387.847 697.288 406.772 683.107 425.987C670.903 442.521 655.478 459.184 639.191 476.778C636.547 479.634 633.881 482.514 631.202 485.422C612.038 506.226 592.259 528.43 575.697 553.197C542.761 602.45 502.592 635.767 456.46 652.766C410.329 669.765 358.146 670.48 301.126 654.375Z" stroke="#B1B1B1" stroke-opacity="0.43" stroke-width="2"/>
<path opacity="0.30385" d="M260.961 680.242C204.105 664.184 157.274 619.645 124.062 564.209C90.8543 508.78 71.3324 442.568 69.0285 383.364C68.4553 368.635 70.7908 357.645 75.4354 349.554C80.0678 341.485 87.0515 336.204 95.9725 332.98C113.914 326.496 139.545 328.371 169.083 332.731C178.957 334.189 189.261 335.923 199.832 337.702C220.763 341.224 242.741 344.923 264.506 347.001C297.286 350.132 329.786 349.615 357.875 339.265C385.924 328.929 418.813 305.461 453.436 277.652C469.856 264.464 486.691 250.277 503.608 236.022L506.408 233.662C524.271 218.612 542.205 203.541 559.841 189.522C595.136 161.464 629.136 137.7 658.853 126.753C673.702 121.283 687.404 119.044 699.621 121.009C711.806 122.968 722.597 129.123 731.643 140.607C749.78 163.631 753.382 194.651 747.397 229.964C741.414 265.271 725.871 304.71 705.934 344.384C672.771 410.381 627.547 476.845 594.246 525.788C587.508 535.691 581.258 544.877 575.694 553.197C509.833 651.686 374.848 712.407 260.961 680.242Z" stroke="#B1B1B1" stroke-opacity="0.43" stroke-width="2"/>
</svg>
