<svg width="465" height="185" viewBox="0 0 465 185" fill="none" xmlns="http://www.w3.org/2000/svg">
<path opacity="0.30385" d="M257.213 -109.018C296.626 -98.4574 327.264 -79.6455 348.584 -53.3179C369.904 -26.9903 381.934 6.88955 384.07 47.6371C385.135 67.9598 379.924 79.6637 370.474 86.3616C360.969 93.0978 347.059 94.8666 330.486 94.9926C322.886 95.0504 314.754 94.7636 306.261 94.4641C305.507 94.4375 304.751 94.4108 303.993 94.3843C294.682 94.0588 284.967 93.7533 275.092 93.8984C255.344 94.1888 234.927 96.2813 215.762 103.638C196.628 110.983 176.106 122.864 155.307 135.538C151.047 138.134 146.775 140.763 142.501 143.393C125.893 153.615 109.247 163.86 93.091 172.272C72.7726 182.852 53.293 190.497 35.7119 191.557C18.1683 192.615 2.50777 187.119 -10.2475 171.367C-23.0293 155.583 -27.2571 139.009 -25.7315 121.945C-24.204 104.86 -16.9062 87.2581 -6.58434 69.4528C3.73611 51.6499 17.0565 33.6821 30.5945 15.8626C32.346 13.5571 34.1012 11.254 35.854 8.95415C47.6418 -6.51269 59.3197 -21.8354 69.0242 -36.7791C91.2474 -70.9998 118.606 -94.3252 150.233 -106.466C181.861 -118.606 217.8 -119.579 257.213 -109.018Z" stroke="#B1B1B1" stroke-opacity="0.43"/>
<path opacity="0.30385" d="M256.82 -108.606C296.243 -98.0423 318.784 -85.3946 332.076 -65.4095C345.404 -45.3706 349.566 -17.7778 351.707 23.0724C352.772 43.3893 349.459 56.0087 342.925 64.0795C336.397 72.1441 326.487 75.8744 313.831 78.0118C306.073 79.3219 297.422 80.0175 288 80.7751C281.992 81.2582 275.67 81.7665 269.068 82.4754C252.185 84.288 233.661 87.4027 214.461 94.7728C196.004 101.858 176.639 111.581 157.206 121.338C156.485 121.7 155.763 122.063 155.042 122.425C134.861 132.554 114.635 142.62 95.1977 149.786C75.7548 156.955 57.1968 161.186 40.3489 159.723C23.5494 158.264 8.39689 151.14 -4.2937 135.469C-17.0388 119.73 -21.5459 105.489 -20.5776 91.9368C-19.6065 78.3461 -13.1191 65.2905 -3.5536 51.9577C4.67882 40.483 15.1244 28.89 26.1691 16.6322C27.962 14.6424 29.7706 12.6352 31.588 10.6081C44.5816 -3.88419 57.9994 -19.3609 69.18 -36.5774C91.3566 -70.7264 118.638 -93.9734 150.149 -106.069C181.66 -118.166 217.489 -119.144 256.82 -108.606Z" stroke="#B1B1B1" stroke-opacity="0.43" stroke-width="2"/>
<path opacity="0.30385" d="M284.216 -126.776C323.382 -116.281 355.96 -86.1389 379.3 -48.3441C402.636 -10.5567 416.665 34.7696 418.796 75.4296C419.325 85.5228 417.823 93.042 414.74 98.584C411.669 104.105 406.976 107.759 400.925 110.038C388.725 114.634 371.149 113.597 350.775 110.869C343.98 109.96 336.881 108.863 329.594 107.737C315.153 105.507 299.975 103.162 284.971 101.933C262.371 100.082 239.958 100.734 220.662 108.141C201.405 115.533 178.958 132.016 155.394 151.47C144.217 160.698 132.763 170.616 121.257 180.58L119.349 182.233C107.197 192.754 95.0002 203.287 82.9997 213.093C58.9752 232.725 35.8353 249.361 15.541 257.149C5.40348 261.039 -3.94649 262.69 -12.299 261.462C-20.6194 260.238 -28.0325 256.147 -34.3167 248.386C-46.9307 232.809 -49.7026 211.604 -45.9186 187.294C-42.1356 162.99 -31.8215 135.742 -18.4773 108.271C3.7197 62.5746 34.2056 16.4459 56.6657 -17.5388C61.2115 -24.4171 65.4285 -30.798 69.1815 -36.5771C113.524 -104.859 205.709 -147.811 284.216 -126.776Z" stroke="#B1B1B1" stroke-opacity="0.43" stroke-width="2"/>
</svg>
