<svg width="71" height="67" viewBox="0 0 71 67" fill="none" xmlns="http://www.w3.org/2000/svg">
<path d="M44.4945 55.1055C35.4381 55.1055 27.2678 51.2155 21.4805 44.9751C19.8399 43.206 19.8399 40.473 21.4805 38.7039C27.2678 32.4636 35.4381 28.5736 44.4945 28.5736C53.5508 28.5736 61.7211 32.4636 67.5084 38.7039C69.149 40.473 69.149 43.206 67.5084 44.9751C61.721 51.2153 53.5508 55.1055 44.4945 55.1055Z" fill="url(#paint0_linear)"/>
<path d="M40.965 54.9046C33.3275 54.0376 26.506 50.3931 21.4815 44.9752C19.8409 43.2061 19.8409 40.4731 21.4815 38.704C26.506 33.286 33.3275 29.6415 40.965 28.7745V54.9046Z" fill="url(#paint1_linear)"/>
<path d="M43.9585 33.8864C44.5547 33.2925 45.528 33.3035 46.1101 33.9194C46.6728 34.5145 46.6138 35.4642 46.0335 36.0423L41.7126 40.3466H43.8766C45.6625 40.3466 47.3753 39.6399 48.638 38.382L53.1507 33.8867C53.7469 33.2927 54.7202 33.3038 55.3023 33.9197C55.865 34.5148 55.806 35.4645 55.2257 36.0425L50.9048 40.3469H59.2199C60.0406 40.3469 60.7562 40.9768 60.7809 41.7939C60.8064 42.6395 60.1259 43.3329 59.2829 43.3329L50.9049 43.3329L55.2258 47.6373C55.8061 48.2153 55.865 49.1648 55.3025 49.7601C54.7203 50.376 53.7469 50.3869 53.1509 49.7931L48.6382 45.2977C47.3753 44.0397 45.6627 43.333 43.8767 43.3332H41.7127L46.0336 47.6375C46.6139 48.2156 46.6728 49.1651 46.1103 49.7604C45.5281 50.3763 44.5547 50.3872 43.9586 49.7934L39.446 45.298C38.1831 44.04 36.4705 43.3333 34.6845 43.3334H32.5205L36.8414 47.6378C37.4217 48.2159 37.4806 49.1654 36.9181 49.7606C36.3359 50.3766 35.3625 50.3874 34.7664 49.7937L30.2538 45.2983C28.9909 44.0403 27.2783 43.3336 25.4924 43.3336L15.7822 43.3336C14.9615 43.3336 14.2459 42.7037 14.2212 41.8865C14.1958 41.0409 14.8762 40.3475 15.7193 40.3475L25.4923 40.3475C27.2782 40.3475 28.9909 39.6407 30.2538 38.3827L34.7664 33.8873C35.3626 33.2934 36.3359 33.3044 36.9181 33.9203C37.4806 34.5156 37.4217 35.4651 36.8414 36.0432L32.5205 40.3475H34.6845C36.4704 40.3475 38.1832 39.6409 39.446 38.383L43.9592 33.8871L43.9585 33.8864Z" fill="url(#paint2_linear)"/>
<path d="M26.136 34.5692C24.4567 35.792 22.8974 37.1771 21.4814 38.7038C19.8408 40.4729 19.8408 43.2059 21.4814 44.975C27.2687 51.2154 35.439 55.1054 44.4953 55.1054C53.5517 55.1054 61.722 51.2154 67.5092 44.975C69.1499 43.2059 69.1498 40.4729 67.5092 38.7038C66.0933 37.1771 64.5339 35.792 62.8547 34.5692L26.136 34.5692Z" fill="url(#paint3_linear)"/>
<path d="M37.2028 33.6025C30.799 39.9818 22.2604 42.9862 13.7386 42.6502C11.3228 42.5549 9.38284 40.6224 9.28717 38.2158C8.94983 29.7267 11.9658 21.2209 18.3696 14.8416C24.7735 8.46233 33.312 5.4579 41.8338 5.79394C44.2496 5.88925 46.1896 7.82176 46.2853 10.2283C46.6224 18.7175 43.6066 27.2233 37.2028 33.6025Z" fill="url(#paint4_linear)"/>
<path d="M34.5637 35.9473C28.5478 40.7142 21.1373 42.9421 13.7386 42.6503C11.3228 42.555 9.38283 40.6225 9.28716 38.2159C8.99423 30.8456 11.2307 23.4635 16.0159 17.4706L34.5637 35.9473Z" fill="url(#paint5_linear)"/>
<path d="M21.7612 18.9764C21.7612 18.1364 22.4573 17.4587 23.3061 17.4841C24.1264 17.5086 24.7588 18.2217 24.7588 19.0392V25.1265L26.289 23.6021C27.5518 22.3442 28.2613 20.6379 28.2613 18.859V12.5016C28.2613 11.6617 28.9573 10.9839 29.8062 11.0094C30.6265 11.0338 31.2588 11.7469 31.2588 12.5644V18.6517L37.1385 12.7945C37.7188 12.2164 38.672 12.1578 39.2694 12.7182C39.8877 13.2982 39.8987 14.2678 39.3026 14.8617L33.3785 20.7631H39.4892C40.3098 20.7631 41.0255 21.393 41.0503 22.2101C41.0758 23.0557 40.3952 23.7491 39.5523 23.7491H33.1704C31.3844 23.7491 29.6718 24.4557 28.409 25.7139L26.8788 27.2382H32.9895C33.8102 27.2382 34.5258 27.8681 34.5506 28.6853C34.5761 29.5309 33.8955 30.2242 33.0526 30.2242H26.6707C24.8847 30.2242 23.1721 30.9308 21.9093 32.189L20.3791 33.7133H26.4898C27.3105 33.7133 28.0261 34.3433 28.0509 35.1604C28.0764 36.006 27.3959 36.6993 26.5529 36.6993H20.171C18.385 36.6993 16.6725 37.406 15.4097 38.664L8.54348 45.5038C7.96315 46.0819 7.01004 46.1406 6.41256 45.5801C5.79431 45.0001 5.78325 44.0305 6.3794 43.4367L13.29 36.5526C14.5528 35.2946 15.2621 33.5884 15.2621 31.8093V25.4519C15.2621 24.612 15.9582 23.9342 16.807 23.9596C17.6273 23.9843 18.2596 24.6972 18.2596 25.5147V31.602L19.7898 30.0776C21.0527 28.8197 21.7622 27.1135 21.7622 25.3345V18.9764H21.7612Z" fill="url(#paint6_linear)"/>
<path d="M9.64341 32.0134C9.32399 34.061 9.2045 36.1388 9.28702 38.2158C9.38269 40.6223 11.3226 42.5549 13.7385 42.6502C22.2603 42.9862 30.7988 39.9818 37.2026 33.6025C43.6064 27.2233 46.6224 18.7174 46.2851 10.2283C46.1894 7.82177 44.2495 5.88925 41.8336 5.79394C39.7486 5.71174 37.6629 5.83077 35.6074 6.14897L9.64341 32.0134Z" fill="url(#paint7_linear)"/>
<defs>
<linearGradient id="paint0_linear" x1="44.4943" y1="33.54" x2="44.4943" y2="51.8053" gradientUnits="userSpaceOnUse">
<stop stop-color="#22B27F"/>
<stop offset="1" stop-color="#017B4E"/>
</linearGradient>
<linearGradient id="paint1_linear" x1="39.6379" y1="41.808" x2="21.9883" y2="41.808" gradientUnits="userSpaceOnUse">
<stop stop-color="#017B4E" stop-opacity="0"/>
<stop offset="1" stop-color="#026841"/>
</linearGradient>
<linearGradient id="paint2_linear" x1="37.5009" y1="21.0637" x2="37.5009" y2="38.3047" gradientUnits="userSpaceOnUse">
<stop stop-color="#22B27F"/>
<stop offset="1" stop-color="#017B4E"/>
</linearGradient>
<linearGradient id="paint3_linear" x1="48.8449" y1="39.5261" x2="33.4432" y2="48.2356" gradientUnits="userSpaceOnUse">
<stop stop-color="#017B4E" stop-opacity="0"/>
<stop offset="0.6213" stop-color="#017147" stop-opacity="0.621"/>
<stop offset="1" stop-color="#026841"/>
</linearGradient>
<linearGradient id="paint4_linear" x1="21.8949" y1="18.3535" x2="34.8103" y2="31.3187" gradientUnits="userSpaceOnUse">
<stop stop-color="#22B27F"/>
<stop offset="1" stop-color="#017B4E"/>
</linearGradient>
<linearGradient id="paint5_linear" x1="24.329" y1="27.6215" x2="11.8968" y2="40.1015" gradientUnits="userSpaceOnUse">
<stop stop-color="#017B4E" stop-opacity="0"/>
<stop offset="1" stop-color="#026841"/>
</linearGradient>
<linearGradient id="paint6_linear" x1="8.09313" y1="14.458" x2="20.2843" y2="26.6961" gradientUnits="userSpaceOnUse">
<stop stop-color="#22B27F"/>
<stop offset="1" stop-color="#017B4E"/>
</linearGradient>
<linearGradient id="paint7_linear" x1="29.2196" y1="19.5224" x2="24.4889" y2="36.5237" gradientUnits="userSpaceOnUse">
<stop stop-color="#017B4E" stop-opacity="0"/>
<stop offset="0.6213" stop-color="#017147" stop-opacity="0.621"/>
<stop offset="1" stop-color="#026841"/>
</linearGradient>
</defs>
</svg>
