<svg width="56" height="57" viewBox="0 0 56 57" fill="none" xmlns="http://www.w3.org/2000/svg">
<path d="M31.4801 0.600571H24.5186V56.6006H31.4801C45.0211 56.6006 55.9993 44.0643 55.9993 28.6006C55.9993 13.1369 45.0211 0.600571 31.4801 0.600571Z" fill="url(#paint0_linear)"/>
<path d="M50.2961 46.5536C45.7986 52.6949 39.0379 56.6006 31.4801 56.6006H24.5186V46.5536H50.2961Z" fill="url(#paint1_linear)"/>
<path d="M55.0078 36.5077C54.0481 40.2388 52.4252 43.6471 50.2961 46.5537H24.5186V36.5077H55.0078Z" fill="url(#paint2_linear)"/>
<path d="M55.9993 28.6007C55.9993 31.3469 55.6535 33.9998 55.0078 36.5077H24.5186V26.4606H55.9291C55.9752 27.1666 55.9993 27.8804 55.9993 28.6007Z" fill="url(#paint3_linear)"/>
<path d="M55.9291 26.4605H24.5186V16.4145H53.5617C54.8662 19.4913 55.6919 22.882 55.9291 26.4605Z" fill="url(#paint4_linear)"/>
<path d="M53.5617 16.4146H24.5186V6.36755H46.386C49.4133 9.01822 51.8828 12.4562 53.5617 16.4146Z" fill="url(#paint5_linear)"/>
<path d="M24.5197 56.6006C38.0615 56.6006 49.0393 44.0646 49.0393 28.6006C49.0393 13.1366 38.0615 0.600586 24.5197 0.600586C10.9778 0.600586 0 13.1366 0 28.6006C0 44.0646 10.9778 56.6006 24.5197 56.6006Z" fill="url(#paint6_linear)"/>
<path d="M24.5195 50.2774C35.0031 50.2774 43.5018 40.5724 43.5018 28.6007C43.5018 16.629 35.0031 6.92395 24.5195 6.92395C14.0358 6.92395 5.53711 16.629 5.53711 28.6007C5.53711 40.5724 14.0358 50.2774 24.5195 50.2774Z" fill="url(#paint7_linear)"/>
<path d="M0.0537109 30.3726C0.85506 45.0102 11.4992 56.6005 24.5193 56.6005C37.5395 56.6005 48.1836 45.0102 48.985 30.3726H0.0537109Z" fill="url(#paint8_linear)"/>
<path d="M48.5743 34.0475C43.4304 28.8288 38.137 23.4597 38.0616 23.3887C37.9144 23.2502 37.7163 23.1654 37.4983 23.1654H36.5207C36.5134 23.1592 36.5064 23.1528 36.4992 23.1468L32.6707 19.3184C31.0765 17.4348 28.5742 16.6529 25.718 16.6529H18.0185C16.7167 16.6529 15.8612 17.4712 15.8612 18.4011V23.1655H12.7376C12.2828 23.1655 11.9141 23.5342 11.9141 23.989C11.9141 24.2071 11.9989 24.4052 12.1374 24.5523L13.7657 26.1712H12.7376C12.2828 26.1712 11.9141 26.54 11.9141 26.9948C11.9141 27.2031 11.9915 27.3931 12.1191 27.538L15.8613 31.2478V42.0573C15.8613 42.6459 16.2163 43.0886 16.7503 43.3862L29.4078 56.0437C39.0673 53.8121 46.6665 45.097 48.5743 34.0475Z" fill="url(#paint9_linear)"/>
<path d="M37.388 26.0613H34.3615C34.376 25.8083 34.3859 25.5509 34.3859 25.2839V25.098C34.3859 24.9636 34.3817 24.8335 34.3782 24.7026H37.388C37.8428 24.7026 38.2115 24.3339 38.2115 23.8791C38.2115 23.4242 37.8428 23.0555 37.388 23.0555H34.228C33.4595 18.3403 29.9399 16.543 25.6078 16.543H17.9084C16.6065 16.543 15.7511 17.3613 15.7511 18.2912V23.0556H12.6272C12.1724 23.0556 11.8037 23.4244 11.8037 23.8792C11.8037 24.334 12.1724 24.7027 12.6272 24.7027H15.7509V26.0614H12.6272C12.1724 26.0614 11.8037 26.4301 11.8037 26.8849C11.8037 27.3397 12.1724 27.7085 12.6272 27.7085H15.7509V41.9475C15.7509 43.1378 17.2016 43.7329 18.6523 43.7329C20.1029 43.7329 21.5535 43.1378 21.5535 41.9475V33.9134H25.2358C29.6416 33.9134 33.2226 32.157 34.1496 27.7085H37.388C37.8428 27.7085 38.2115 27.3397 38.2115 26.8849C38.2115 26.4301 37.8428 26.0613 37.388 26.0613ZM21.5535 21.6015H25.2358C26.5476 21.6015 27.5345 22.0741 28.0857 23.0555H21.5534V21.6015H21.5535ZM21.5535 24.7026H28.5553C28.5735 24.8992 28.5834 25.1049 28.5834 25.3211V25.7301C28.5834 25.8436 28.58 25.9532 28.5749 26.0613H21.5535V24.7026ZM25.2358 29.4497H21.5535V27.7084H28.2287C27.7161 28.8853 26.67 29.4497 25.2358 29.4497Z" fill="url(#paint10_linear)"/>
<defs>
<linearGradient id="paint0_linear" x1="40.2589" y1="-6.24032" x2="40.2589" y2="40.1689" gradientUnits="userSpaceOnUse">
<stop stop-color="#FFE177"/>
<stop offset="1" stop-color="#FE9738"/>
</linearGradient>
<linearGradient id="paint1_linear" x1="37.4073" y1="37.2751" x2="37.4073" y2="50.2697" gradientUnits="userSpaceOnUse">
<stop stop-color="#FE9738" stop-opacity="0"/>
<stop offset="1" stop-color="#FE7701"/>
</linearGradient>
<linearGradient id="paint2_linear" x1="39.7632" y1="35.2805" x2="39.7632" y2="45.7348" gradientUnits="userSpaceOnUse">
<stop stop-color="#FE9738" stop-opacity="0"/>
<stop offset="1" stop-color="#FE7701"/>
</linearGradient>
<linearGradient id="paint3_linear" x1="40.2589" y1="25.2333" x2="40.2589" y2="36.8361" gradientUnits="userSpaceOnUse">
<stop stop-color="#FE9738" stop-opacity="0"/>
<stop offset="1" stop-color="#FE7701"/>
</linearGradient>
<linearGradient id="paint4_linear" x1="40.2238" y1="15.1874" x2="40.2238" y2="28.9896" gradientUnits="userSpaceOnUse">
<stop stop-color="#FE9738" stop-opacity="0"/>
<stop offset="1" stop-color="#FE7701"/>
</linearGradient>
<linearGradient id="paint5_linear" x1="39.0401" y1="6.12851" x2="39.0401" y2="22.2431" gradientUnits="userSpaceOnUse">
<stop stop-color="#FE9738" stop-opacity="0"/>
<stop offset="1" stop-color="#FE7701"/>
</linearGradient>
<linearGradient id="paint6_linear" x1="13.1097" y1="17.1906" x2="36.389" y2="40.4701" gradientUnits="userSpaceOnUse">
<stop stop-color="#FFE177"/>
<stop offset="1" stop-color="#FE9738"/>
</linearGradient>
<linearGradient id="paint7_linear" x1="39.6166" y1="43.6978" x2="9.29613" y2="13.3775" gradientUnits="userSpaceOnUse">
<stop stop-color="#FFE177"/>
<stop offset="1" stop-color="#FE9738"/>
</linearGradient>
<linearGradient id="paint8_linear" x1="24.5193" y1="36.398" x2="24.5193" y2="53.2418" gradientUnits="userSpaceOnUse">
<stop stop-color="#FE9738" stop-opacity="0"/>
<stop offset="1" stop-color="#FE7701"/>
</linearGradient>
<linearGradient id="paint9_linear" x1="39.9199" y1="45.9621" x2="23.3764" y2="29.4186" gradientUnits="userSpaceOnUse">
<stop stop-color="#FE9738" stop-opacity="0"/>
<stop offset="1" stop-color="#FE7701"/>
</linearGradient>
<linearGradient id="paint10_linear" x1="11.828" y1="17.8705" x2="29.6271" y2="35.6696" gradientUnits="userSpaceOnUse">
<stop stop-color="#FFE177"/>
<stop offset="1" stop-color="#FE9738"/>
</linearGradient>
</defs>
</svg>
