<svg width="1055" height="611" viewBox="0 0 1055 611" fill="none" xmlns="http://www.w3.org/2000/svg">
<path opacity="0.30385" d="M674.609 654.748C617.507 638.621 573.31 610.663 542.81 571.944C512.311 533.226 495.479 483.711 493.172 424.42C492.02 394.826 499.832 377.829 513.784 368.22C527.791 358.574 548.104 356.279 572.19 356.42C583.239 356.485 595.055 357.061 607.389 357.663C608.484 357.716 609.583 357.77 610.685 357.823C624.208 358.478 638.314 359.112 652.66 359.094C681.35 359.059 711.028 356.418 738.986 346.116C766.911 335.826 796.949 318.972 827.42 300.963C833.659 297.275 839.917 293.54 846.178 289.801C870.512 275.272 894.91 260.705 918.559 248.794C948.298 233.814 976.789 223.069 1002.41 221.87C1027.99 220.673 1050.71 228.992 1068.98 252.193C1087.29 275.427 1093.12 299.652 1090.56 324.475C1088 349.319 1077.04 374.787 1061.68 400.47C1046.33 426.152 1026.61 452.01 1006.59 477.639C1004 480.955 1001.41 484.268 998.815 487.575C981.383 509.82 964.12 531.85 949.731 553.367C916.747 602.691 876.5 636.085 830.252 653.127C784.004 670.169 731.711 670.876 674.609 654.748Z" stroke="#B1B1B1" stroke-opacity="0.43"/>
<path opacity="0.30385" d="M675.126 654.375C618.014 638.245 585.374 619.386 566.358 589.944C547.308 560.448 541.803 520.151 539.492 460.758C538.341 431.169 543.403 412.761 553.159 401.034C562.911 389.314 577.521 384.064 595.989 381.2C607.302 379.446 619.924 378.602 633.649 377.683C642.387 377.099 651.571 376.485 661.149 375.587C685.697 373.285 712.632 369.126 740.624 358.812C767.562 348.885 795.872 335.145 824.31 321.343C825.362 320.832 826.414 320.321 827.467 319.81C856.987 305.488 886.597 291.246 915.009 281.202C943.427 271.157 970.55 265.347 995.101 267.812C1019.6 270.273 1041.6 280.981 1059.81 304.101C1078.07 327.289 1084.4 348.182 1082.71 367.995C1081.03 387.847 1071.29 406.772 1057.11 425.987C1044.9 442.522 1029.48 459.184 1013.19 476.778C1010.55 479.634 1007.88 482.514 1005.2 485.422C986.038 506.226 966.259 528.43 949.697 553.197C916.761 602.45 876.592 635.767 830.46 652.766C784.329 669.765 732.146 670.48 675.126 654.375Z" stroke="#B1B1B1" stroke-opacity="0.43" stroke-width="2"/>
<path opacity="0.30385" d="M634.961 680.242C578.105 664.184 531.274 619.645 498.062 564.209C464.854 508.78 445.332 442.568 443.028 383.364C442.455 368.635 444.791 357.645 449.435 349.554C454.068 341.485 461.052 336.204 469.972 332.98C487.914 326.496 513.545 328.371 543.083 332.731C552.957 334.189 563.261 335.923 573.832 337.702C594.763 341.224 616.741 344.923 638.506 347.001C671.286 350.132 703.786 349.615 731.875 339.265C759.924 328.929 792.813 305.461 827.436 277.652C843.856 264.464 860.69 250.278 877.607 236.023C878.54 235.236 879.474 234.449 880.408 233.662C898.271 218.612 916.205 203.541 933.841 189.522C969.136 161.464 1003.14 137.7 1032.85 126.753C1047.7 121.283 1061.4 119.044 1073.62 121.009C1085.81 122.968 1096.6 129.123 1105.64 140.607C1123.78 163.631 1127.38 194.651 1121.4 229.964C1115.41 265.271 1099.87 304.71 1079.93 344.384C1046.77 410.381 1001.55 476.845 968.246 525.788C961.508 535.691 955.258 544.877 949.694 553.197C883.833 651.686 748.848 712.407 634.961 680.242Z" stroke="#B1B1B1" stroke-opacity="0.43" stroke-width="2"/>
<path opacity="0.30385" d="M186.719 -33.7871C233.726 -21.1917 270.273 1.24665 295.707 32.6547C321.141 64.0627 335.49 104.477 338.037 153.075C339.308 177.323 333.091 191.317 321.786 199.329C310.428 207.379 293.815 209.486 274.056 209.637C264.992 209.706 255.295 209.364 245.169 209.007C244.271 208.975 243.369 208.943 242.464 208.911C231.364 208.523 219.783 208.159 208.012 208.332C184.472 208.678 160.143 211.173 137.308 219.938C114.504 228.692 90.0425 242.853 65.245 257.963C60.1667 261.058 55.0745 264.192 49.9791 267.328C30.1777 279.515 10.3275 291.732 -8.93861 301.764C-33.1666 314.379 -56.4062 323.501 -77.3883 324.767C-98.333 326.03 -117.036 319.466 -132.265 300.66C-147.52 281.821 -152.568 262.036 -150.747 241.667C-148.924 221.277 -140.215 200.276 -127.906 179.042C-115.598 157.811 -99.7128 136.384 -83.572 115.138C-81.4836 112.39 -79.3908 109.644 -77.301 106.901C-63.2467 88.4606 -49.3259 70.195 -37.7577 52.3814C-11.2528 11.5676 21.3811 -16.2576 59.1114 -30.7409C96.8416 -45.2242 139.712 -46.3825 186.719 -33.7871Z" stroke="#B1B1B1" stroke-opacity="0.43"/>
<path opacity="0.30385" d="M186.276 -33.3884C233.292 -20.7903 260.224 -5.69482 276.111 18.1922C292.034 42.1329 296.996 75.0815 299.548 123.782C300.819 148.025 296.869 163.128 289.036 172.805C281.207 182.475 269.334 186.934 254.23 189.484C244.974 191.047 234.644 191.878 223.402 192.782C216.24 193.358 208.708 193.964 200.849 194.808C180.728 196.968 158.661 200.679 135.792 209.458C113.795 217.902 90.715 229.49 67.542 241.125C66.6832 241.556 65.8244 241.987 64.9654 242.419C40.9057 254.495 16.7814 266.5 -6.40421 275.049C-29.5959 283.601 -51.7533 288.656 -71.8817 286.908C-91.9618 285.164 -110.076 276.646 -125.24 257.92C-140.459 239.126 -145.856 222.1 -144.697 205.883C-143.536 189.628 -135.778 174.027 -124.365 158.119C-114.543 144.429 -102.08 130.598 -88.9129 115.984C-86.7756 113.612 -84.6197 111.219 -82.4535 108.803C-66.9622 91.5254 -50.9734 73.0825 -37.6521 52.5695C-11.1937 11.8272 21.3625 -15.9196 58.9768 -30.3584C96.5912 -44.7971 139.351 -45.9617 186.276 -33.3884Z" stroke="#B1B1B1" stroke-opacity="0.43" stroke-width="2"/>
<path opacity="0.30385" d="M218.939 -55.0516C265.699 -42.5223 304.576 -6.54246 332.419 38.5441C360.258 83.6234 376.994 137.695 379.536 186.206C380.168 198.262 378.375 207.266 374.676 213.916C370.989 220.544 365.355 224.928 358.106 227.659C343.508 233.158 322.505 231.912 298.22 228.66C290.111 227.575 281.642 226.267 272.953 224.924C255.739 222.265 237.657 219.472 219.774 218.007C192.839 215.8 166.151 216.58 143.185 225.396C120.258 234.197 93.5173 253.83 65.4224 277.025C52.097 288.026 38.442 299.851 24.7225 311.731L22.4499 313.699C7.96243 326.243 -6.58177 338.803 -20.8919 350.496C-49.5358 373.903 -77.1456 393.756 -101.373 403.053C-113.478 407.698 -124.66 409.677 -134.663 408.206C-144.633 406.74 -153.514 401.835 -161.035 392.547C-176.123 373.916 -179.424 348.569 -174.908 319.558C-170.394 290.554 -158.087 258.047 -142.174 225.287C-115.703 170.793 -79.347 115.782 -52.5689 75.2639C-47.1498 67.0642 -42.123 59.4581 -37.6497 52.5699C15.2562 -28.8981 125.245 -80.1568 218.939 -55.0516Z" stroke="#B1B1B1" stroke-opacity="0.43" stroke-width="2"/>
</svg>
