<svg width="28" height="20" viewBox="0 0 28 20" fill="none" xmlns="http://www.w3.org/2000/svg">
<path d="M3 0C1.355 0 0 1.355 0 3V17C0 18.645 1.355 20 3 20H25C26.645 20 28 18.645 28 17V3C28 1.355 26.645 0 25 0H3Z" fill="white"/>
<path d="M3 2H25C25.566 2 26 2.434 26 3V17C26 17.566 25.566 18 25 18H3C2.434 18 2 17.566 2 17V3C2 2.434 2.434 2 3 2Z" fill="white"/>
<path d="M8.99779 5C8.53279 5 8.00195 5.26534 7.65795 5.65234C7.39195 5.97334 7.10287 6.48319 7.20287 6.99219C7.67987 7.04819 8.20075 6.74933 8.49975 6.36133C8.83175 6.00733 9.01979 5.509 8.99779 5Z" fill="#9B9B9B"/>
<path d="M11 7V13H11.9316V10.9453H13.2285C14.4035 10.9453 15.2344 10.1367 15.2344 8.97266C15.2344 7.79766 14.414 7 13.25 7H11Z" fill="#9B9B9B"/>
<path d="M5.83789 7.52344C4.79889 7.52344 4 8.43328 4 9.73828C4 11.4383 5.19445 13 5.93945 13C6.38945 13 6.55434 12.6973 7.15234 12.6973C7.70334 12.6973 7.8767 13 8.3457 13C9.2367 13 9.972 11.1901 10 11.0801C9.853 11.0061 8.99705 10.6029 8.99805 9.62891C8.99805 8.68291 9.77941 8.25823 9.81641 8.24023C9.38441 7.59723 8.70427 7.52344 8.44727 7.52344C7.85027 7.52344 7.32797 7.8457 7.04297 7.8457C6.74897 7.8457 6.31589 7.52344 5.83789 7.52344Z" fill="#9B9B9B"/>
<path d="M11.9316 7.78711H13.0059C13.8149 7.78711 14.2812 8.21866 14.2812 8.97266C14.2812 9.72666 13.8149 10.1699 13.0059 10.1699H11.9316V7.78711Z" fill="white"/>
<path d="M17.4297 8.53125C16.4437 8.53125 15.7115 9.09705 15.6895 9.87305H16.5312C16.5982 9.50705 16.9402 9.26367 17.4062 9.26367C17.9822 9.26367 18.2949 9.52958 18.2949 10.0176V10.3496L17.1309 10.4277C16.0559 10.4947 15.4668 10.9381 15.4668 11.7031C15.4668 12.4791 16.0657 13 16.9297 13C17.5167 13 18.0617 12.7004 18.3047 12.2344H18.3262V12.9551H19.1914V9.96289C19.1914 9.09789 18.4937 8.53125 17.4297 8.53125Z" fill="#9B9B9B"/>
<path d="M18.2949 10.9805V11.3145H18.293C18.293 11.8795 17.8165 12.2773 17.1855 12.2773C16.6865 12.2773 16.377 12.0457 16.377 11.6797C16.377 11.3027 16.6757 11.0799 17.2637 11.0469L18.2949 10.9805Z" fill="white"/>
<path d="M19.5742 8.58789L21.1484 12.9668L21.0703 13.2324C20.9263 13.6764 20.6932 13.8535 20.2832 13.8535C20.2062 13.8535 20.0628 13.8418 20.0078 13.8418V14.5625C20.0638 14.5735 20.2943 14.584 20.3613 14.584C21.2703 14.584 21.7031 14.2295 22.0801 13.1875L23.709 8.58789H22.7656L21.6699 12.1348H21.6465L20.5508 8.58789H19.5742Z" fill="#9B9B9B"/>
</svg>
