<svg width="477" height="547" viewBox="0 0 477 547" fill="none" xmlns="http://www.w3.org/2000/svg">
<path opacity="0.197266" d="M476 273.5C476 423.998 353.998 546 203.5 546C53.0024 546 -69 423.998 -69 273.5C-69 123.002 53.0024 1 203.5 1C353.998 1 476 123.002 476 273.5Z" stroke="#333333" stroke-width="2"/>
<path opacity="0.197266" d="M437.795 273.5C437.795 327.426 406.658 365.546 361.773 390.212C316.875 414.884 258.266 426.06 203.501 426.06C148.787 426.06 110.672 409.186 86.229 381.729C61.7764 354.261 50.9415 316.131 50.9415 273.5C50.9415 260.754 49.9107 246.36 48.8199 231.128C48.0826 220.831 47.3178 210.151 46.8254 199.339C45.6025 172.486 46.0508 144.735 52.7049 119.667C59.3557 94.6109 72.2016 72.2503 95.7743 56.1439C119.357 40.0308 153.729 30.1396 203.501 30.1396C303.041 30.1396 361.571 63.973 395.241 111.24C428.933 158.539 437.795 219.378 437.795 273.5Z" stroke="#333333"/>
<path opacity="0.197266" d="M398.716 245.965C398.716 289.215 373.863 319.791 338.018 339.581C302.16 359.379 255.345 368.349 211.594 368.349C167.895 368.349 137.469 354.809 117.959 332.792C98.4406 310.763 89.7861 280.177 89.7861 245.965C89.7861 235.731 88.962 224.167 88.0902 211.934C87.5011 203.668 86.8902 195.096 86.497 186.421C85.5199 164.865 85.8787 142.597 91.1921 122.486C96.5022 102.387 106.756 84.4575 125.569 71.543C144.391 58.6221 171.835 50.6835 211.594 50.6835C291.109 50.6835 337.846 77.8356 364.729 115.752C391.634 153.701 398.716 202.522 398.716 245.965Z" stroke="#333333"/>
</svg>
