<svg width="1440" height="104" viewBox="0 0 1440 104" fill="none" xmlns="http://www.w3.org/2000/svg">
<mask id="mask0" mask-type="alpha" maskUnits="userSpaceOnUse" x="0" y="0" width="1450" height="104">
<rect width="1450" height="104" rx="16" fill="#C4C4C4"/>
</mask>
<g mask="url(#mask0)">
<rect y="-192" width="1440" height="1026" fill="url(#paint0_linear)"/>
<path opacity="0.30385" d="M567.473 975.48C621.503 963.045 646.285 940.767 654.616 911.947C658.993 896.804 658.789 879.963 656.038 861.998C653.286 844.033 647.973 824.873 642.079 805.074C640.799 800.775 639.491 796.446 638.176 792.091C627.362 756.28 616.037 718.776 615.189 682.362C614.241 641.612 626.421 602.275 667.295 568.352C708.556 534.108 731.058 500.685 743.896 468.396C756.727 436.126 759.882 405.042 762.529 375.57C762.634 374.401 762.738 373.235 762.842 372.071C765.363 343.854 767.744 317.194 778.021 292.188C788.7 266.204 807.937 241.947 844.914 219.728C919.143 175.127 960.135 159.157 1009.14 154.281C1033.69 151.839 1060.26 152.177 1094.07 153.13C1099.8 153.292 1105.74 153.471 1111.92 153.657C1142.13 154.569 1177.91 155.648 1222.19 155.648C1275.8 155.648 1317.06 133.056 1351.29 104.907C1368.41 90.837 1383.78 75.3671 1398.06 60.6311C1400.07 58.5553 1402.06 56.4946 1404.03 54.4547C1416.06 41.9969 1427.34 30.3136 1438.34 20.6978C1451.13 9.5044 1463.44 1.20455 1475.95 -2.24302C1488.41 -5.67479 1501.13 -4.32027 1514.87 3.9635C1528.65 12.2741 1543.47 27.5726 1559.97 52.0747C1576.46 76.5663 1594.59 110.187 1615.03 155.063C1696.71 334.422 1696.73 539.663 1676.29 700.141C1666.07 780.368 1650.75 849.379 1637.97 898.331C1631.59 922.806 1625.84 942.265 1621.69 955.604C1619.62 962.273 1617.94 967.411 1616.79 970.881C1616.21 972.616 1615.76 973.934 1615.46 974.817C1615.37 975.076 1615.29 975.297 1615.23 975.48H567.473ZM356.398 964.838C374.011 968.995 391.498 972.594 408.757 975.48H-186.51C-186.613 975.386 -186.746 975.264 -186.904 975.114C-187.341 974.702 -187.975 974.084 -188.752 973.265C-190.307 971.628 -192.436 969.193 -194.713 966.017C-199.269 959.664 -204.405 950.365 -206.75 938.571C-211.423 915.068 -205.074 881.305 -159.977 840.826C-148.898 830.882 -133.216 826.171 -113.63 825.559C-94.0454 824.947 -70.666 828.437 -44.3217 834.78C3.86697 846.383 61.7678 867.478 124.176 890.214C130.01 892.34 135.884 894.48 141.793 896.628C210.875 921.739 284.724 947.921 356.398 964.838ZM436.385 977.48H546.567C512.182 982.826 475.051 982.223 436.385 977.48Z" stroke="white" stroke-width="2"/>
<path opacity="0.30385" d="M574.945 926.559C626.153 915.737 652.996 898.453 666.361 876.622C680.13 854.132 679.509 826.94 676.754 797.414C676.312 792.679 675.815 787.883 675.313 783.034C672.679 757.602 669.895 730.731 674.112 703.646C679.127 671.434 694.049 638.92 730.992 608.279C768.121 577.485 784.85 544.388 791.129 510.809C797.403 477.255 793.236 443.244 788.633 410.645C788.33 408.501 788.025 406.363 787.721 404.232C783.403 373.926 779.279 344.981 783.428 318.773C787.861 290.775 801.741 265.895 835.047 245.895C901.774 205.828 963.688 205.815 1032.97 215.847C1051.7 218.56 1070.98 222.009 1091.04 225.598C1145.14 235.275 1204.9 245.967 1274.95 245.967C1323.1 245.967 1360.13 223.969 1390.85 196.1C1406.22 182.167 1420.01 166.759 1432.84 151.892C1435.64 148.639 1438.4 145.414 1441.12 142.235C1450.84 130.874 1460.04 120.114 1469.03 110.893C1480.54 99.0897 1491.65 89.8586 1502.98 85.133C1514.29 80.4199 1525.82 80.1824 1538.22 86.3996C1550.66 92.6318 1564.01 105.366 1578.86 126.678C1593.7 147.984 1610.03 177.821 1628.43 218.203C1701.99 379.622 1677.14 556.743 1633.87 693.564C1612.24 761.967 1586.01 820.278 1565.18 861.487C1554.77 882.092 1545.71 898.42 1539.25 909.596C1536.02 915.184 1533.45 919.484 1531.68 922.386C1530.79 923.837 1530.11 924.938 1529.65 925.677C1529.42 926.046 1529.24 926.324 1529.12 926.51L1529.09 926.559H574.945ZM564.764 927.559C470.205 945.337 347.802 944.09 232.877 942.92C216.489 942.753 200.252 942.587 184.27 942.479C119.24 942.037 58.4243 942.54 8.7654 947.727C-16.0648 950.321 -38.121 954.088 -56.529 959.499C-74.9319 964.91 -89.724 971.974 -99.994 981.186C-110.18 990.323 -117.707 996.308 -123.083 999.796C-125.772 1001.54 -127.903 1002.65 -129.544 1003.21C-131.207 1003.79 -132.261 1003.78 -132.886 1003.45C-133.469 1003.15 -133.838 1002.49 -133.891 1001.3C-133.945 1000.12 -133.672 998.531 -133.103 996.596C-131.967 992.735 -129.697 987.648 -126.775 981.963C-120.937 970.602 -112.55 956.949 -105.616 946.129C-102.151 940.72 -99.0503 936.023 -96.8165 932.678C-95.6996 931.005 -94.7994 929.671 -94.1785 928.755C-93.8681 928.297 -93.6275 927.943 -93.4645 927.704L-93.3651 927.559H564.764Z" stroke="white"/>
<path opacity="0.30385" d="M1598.95 882.79C1598.91 882.888 1598.87 882.977 1598.83 883.059H668.91C684.586 875.132 695.109 865.735 702.034 855.115C715.063 835.135 715.187 811.059 713.41 785.055C713.112 780.693 712.76 776.275 712.404 771.808C710.632 749.557 708.765 726.108 712.952 702.364C717.966 673.928 731.677 645.069 764.818 617.586C831.079 562.638 913.326 571.866 994.443 586.005C1001.7 587.269 1008.95 588.573 1016.17 589.873C1049.27 595.828 1081.9 601.699 1112.76 603.329C1150.37 605.315 1185.51 601.013 1215.84 582.807C1246.25 564.545 1258.92 536.954 1263.55 506.007C1267.42 480.131 1265.69 451.803 1264.03 424.535C1263.71 419.257 1263.39 414.019 1263.11 408.846C1261.4 376.831 1261.37 347.389 1272.38 325.944C1277.86 315.264 1286.09 306.559 1298.27 300.511C1310.47 294.453 1326.7 291.035 1348.19 291.035C1422.62 291.035 1455.36 237.354 1478.61 199.242C1482.54 192.795 1486.2 186.793 1489.75 181.573C1495.92 172.483 1501.63 165.897 1507.7 163.185C1510.69 161.847 1513.77 161.453 1517.06 162.184C1520.38 162.92 1523.98 164.809 1527.97 168.15C1535.97 174.847 1545.34 187.212 1556.87 207.066C1568.39 226.899 1582.02 254.121 1598.58 290.45C1664.73 435.581 1664.74 583.875 1648.19 695.925C1639.92 751.945 1627.51 798.89 1617.17 831.827C1612 848.295 1607.35 861.259 1603.99 870.104C1602.31 874.526 1600.96 877.918 1600.02 880.203C1599.56 881.345 1599.19 882.211 1598.95 882.79ZM-93.2774 886.676C-92.9413 885.971 -92.6809 885.427 -92.5041 885.059H659.852C647.517 890.315 632.372 894.832 613.806 898.499C542.183 912.647 435.065 923.031 324.43 933.757C284.162 937.66 243.429 941.609 203.771 945.801C129.491 953.653 58.9952 962.357 2.47511 973.215C-25.7844 978.645 -50.574 984.617 -70.6076 991.299C-90.6152 997.972 -105.985 1005.39 -115.313 1013.75C-119.875 1017.84 -123.762 1020.9 -127.04 1023.04C-130.329 1025.18 -132.951 1026.37 -134.99 1026.8C-137.006 1027.23 -138.346 1026.89 -139.26 1026.12C-140.213 1025.33 -140.907 1023.9 -141.246 1021.72C-141.924 1017.36 -141.08 1010.65 -139.105 1002.37C-137.14 994.135 -134.089 984.478 -130.458 974.286C-123.197 953.905 -113.642 931.459 -105.897 914.099C-102.026 905.422 -98.6093 898.019 -96.1603 892.786C-94.9359 890.169 -93.9535 888.096 -93.2774 886.676Z" stroke="white" stroke-width="2"/>
<ellipse cx="-22.3869" cy="-143.608" rx="503.238" ry="837.151" transform="rotate(60 -22.3869 -143.608)" fill="url(#paint1_radial)"/>
<path opacity="0.30385" d="M123.546 -125.5C178.266 -125.5 224.494 -111.766 261.263 -85.0514C298.033 -58.3371 325.38 -18.6151 342.289 33.4261C350.728 59.398 348.053 76.4271 338.09 88.4391C328.084 100.502 310.641 107.628 289.228 113.541C279.405 116.253 268.774 118.703 257.676 121.261C256.691 121.489 255.702 121.716 254.709 121.946C242.543 124.754 229.862 127.728 217.133 131.34C191.675 138.564 165.99 148.349 143.752 164.506C121.543 180.642 99.1038 203.133 76.5728 226.757C71.9593 231.594 67.3419 236.478 62.7215 241.366C44.7654 260.362 26.7631 279.406 8.75929 295.906C-13.8806 316.656 -36.4698 333.331 -58.8987 340.814C-81.2919 348.286 -103.532 346.599 -125.558 330.595C-147.619 314.568 -158.865 294.537 -162.817 271.873C-166.773 249.189 -163.424 223.841 -156.234 197.198C-149.046 170.557 -138.03 142.665 -126.684 114.899C-125.216 111.306 -123.743 107.715 -122.271 104.13C-112.375 80.0154 -102.575 56.1331 -95.1967 33.4261C-78.2875 -18.6151 -50.94 -58.3371 -14.1708 -85.0514C22.5983 -111.766 68.827 -125.5 123.546 -125.5Z" stroke="white"/>
<path opacity="0.30385" d="M123.181 -125C177.91 -125 211.585 -116.443 235.822 -95.0971C260.107 -73.7082 275.09 -39.3416 292.031 12.7973C300.467 38.7637 300.583 56.3493 294.874 69.1776C289.168 81.9986 277.538 90.3108 261.87 97.4794C252.271 101.871 241.285 105.783 229.336 110.037C221.727 112.747 213.727 115.595 205.447 118.795C184.232 126.993 161.36 137.439 139.093 153.617C117.669 169.182 95.9827 188.478 74.2031 207.856C73.3967 208.573 72.5902 209.291 71.7836 210.008C49.1722 230.122 26.464 250.182 3.76785 266.216C-18.9336 282.254 -41.5406 294.203 -63.9328 298.166C-86.2772 302.12 -108.46 298.134 -130.403 282.191C-152.417 266.197 -163.253 249.254 -166.721 231.27C-170.196 213.247 -166.302 194.024 -158.534 173.42C-151.849 155.689 -142.337 137.037 -132.291 117.338C-130.66 114.14 -129.016 110.915 -127.367 107.662C-115.572 84.3931 -103.58 59.7215 -95.0867 33.5806C-78.2039 -18.3794 -50.9111 -58.0056 -14.2425 -84.6469C22.4262 -111.288 68.5468 -125 123.181 -125Z" fill="#E83F81" stroke="white" stroke-width="2"/>
<path opacity="0.30385" d="M152.344 -158.027C206.808 -158.027 259.521 -130.248 302.888 -89.3777C346.248 -48.5129 380.167 5.35121 397.049 57.309C401.247 70.2301 401.926 80.5544 399.836 88.8812C397.753 97.1843 392.89 103.607 385.793 108.696C371.512 118.936 348.312 123.696 320.999 127.231C311.872 128.412 302.294 129.456 292.466 130.527C273.003 132.648 252.563 134.875 232.722 138.487C202.838 143.926 174.107 152.534 151.756 168.773C129.439 184.987 106.124 214.071 82.3649 247.433C71.0966 263.256 59.7099 280.068 48.2683 296.962L46.3742 299.758C34.2923 317.595 22.1525 335.466 10.0146 352.33C-14.2792 386.081 -38.4938 415.687 -62.1148 432.845C-73.917 441.418 -85.5044 446.833 -96.8227 448.15C-108.109 449.462 -119.21 446.711 -130.104 438.796C-151.948 422.925 -162.916 396.321 -166.456 363.488C-169.994 330.662 -166.087 291.768 -158.338 251.559C-145.447 184.674 -121.972 114.35 -104.683 62.5611C-101.185 52.0813 -97.9394 42.3605 -95.0867 33.5806C-61.3272 -70.3205 43.2357 -158.027 152.344 -158.027Z" stroke="white" stroke-width="2"/>
</g>
<defs>
<linearGradient id="paint0_linear" x1="868" y1="97.3846" x2="-120.918" y2="936.246" gradientUnits="userSpaceOnUse">
<stop stop-color="#EB8E78"/>
<stop offset="0.296875" stop-color="#F1A959"/>
<stop offset="0.567708" stop-color="#F3B54C"/>
<stop offset="0.786316" stop-color="#ED856C"/>
</linearGradient>
<radialGradient id="paint1_radial" cx="0" cy="0" r="1" gradientUnits="userSpaceOnUse" gradientTransform="translate(-22.3869 -143.608) rotate(90) scale(837.151 503.238)">
<stop stop-color="#F7E21F"/>
<stop offset="0.401042" stop-color="#F7E120" stop-opacity="0.85"/>
<stop offset="0.697917" stop-color="#F7DF21" stop-opacity="0.547445"/>
<stop offset="1" stop-color="#F6DC23" stop-opacity="0"/>
</radialGradient>
</defs>
</svg>
