<svg width="28" height="24" viewBox="0 0 28 24" fill="none" xmlns="http://www.w3.org/2000/svg">
<path fill-rule="evenodd" clip-rule="evenodd" d="M3 2C1.35547 2 0 3.35547 0 5V19C0 20.6445 1.35547 22 3 22H25C26.6445 22 28 20.6445 28 19V5C28 3.35547 26.6445 2 25 2H3ZM3 4H25C25.5664 4 26 4.43359 26 5V19C26 19.5664 25.5664 20 25 20H3C2.43359 20 2 19.5664 2 19V5C2 4.43359 2.43359 4 3 4ZM3 12C3 8.14453 6.14453 5 10 5C11.4844 5 12.8633 5.45312 14 6.25C15.1328 5.45703 16.5117 5 18 5C21.8555 5 25 8.14453 25 12C25 15.8555 21.8555 19 18 19C16.5117 19 15.1328 18.543 14 17.75C12.8633 18.5469 11.4844 19 10 19C6.14453 19 3 15.8555 3 12ZM10 7C11.2812 7 12.4297 7.49609 13.3125 8.28125C12.9023 8.79297 12.5664 9.37109 12.3438 10H14.5625C14.7031 10.3203 14.8359 10.6523 14.9062 11H12.0938C12.0391 11.3242 12 11.6562 12 12C12 12.3438 12.0391 12.6758 12.0938 13H14.9062C14.8359 13.3477 14.7031 13.6797 14.5625 14H12.3438C12.5664 14.6289 12.9023 15.207 13.3125 15.7188C12.4297 16.5039 11.2812 17 10 17C7.22656 17 5 14.7734 5 12C5 9.22656 7.22656 7 10 7ZM23 12C23 9.22656 20.7734 7 18 7C17.0859 7 16.2383 7.25781 15.5 7.6875C16.4414 8.87891 17 10.3711 17 12C17 13.6289 16.4414 15.1211 15.5 16.3125C16.2383 16.7422 17.0859 17 18 17C20.7734 17 23 14.7734 23 12Z" fill="white"/>
<rect x="1" y="3" width="26" height="18" rx="3" fill="white"/>
<g clip-path="url(#clip0)">
<path d="M26.0001 12.0003C26.0001 15.9622 22.8001 19.2003 18.8001 19.2003C14.8382 19.2003 11.6001 15.9622 11.6001 12.0003C11.6001 8.03839 14.8001 4.80029 18.762 4.80029C22.8001 4.80029 26.0001 8.03839 26.0001 12.0003Z" fill="#FFB600"/>
<path d="M18.8001 4.80029C22.762 4.80029 26.0001 8.03839 26.0001 12.0003C26.0001 15.9622 22.8001 19.2003 18.8001 19.2003C14.8382 19.2003 11.6001 15.9622 11.6001 12.0003" fill="#FFB600"/>
<path d="M18.7998 4.80029C22.7617 4.80029 25.9998 8.03839 25.9998 12.0003C25.9998 15.9622 22.7998 19.2003 18.7998 19.2003" fill="#FFB600"/>
<path d="M9.12381 4.80029C5.2 4.83839 2 8.03839 2 12.0003C2 15.9622 5.2 19.2003 9.2 19.2003C11.0667 19.2003 12.7429 18.4765 14.0381 17.3336C14.3048 17.1051 14.5333 16.8384 14.7619 16.5717H13.2762C13.0857 16.3432 12.8952 16.0765 12.7429 15.8479H15.2952C15.4476 15.6193 15.6 15.3527 15.7143 15.086H12.3238C12.2095 14.8574 12.0952 14.5908 12.019 14.3241H15.981C16.2095 13.6003 16.3619 12.8384 16.3619 12.0384C16.3619 11.5051 16.2857 11.0098 16.2095 10.5146H11.7905C11.8286 10.2479 11.9048 10.0193 11.981 9.75267H15.9429C15.8667 9.48601 15.7524 9.21934 15.6381 8.99077H12.2857C12.4 8.7241 12.5524 8.49553 12.7048 8.22886H15.2571C15.1048 7.9622 14.9143 7.69553 14.6857 7.46696H13.2762C13.5048 7.20029 13.7333 6.97172 14 6.74315C12.7429 5.5622 11.0286 4.87648 9.1619 4.87648C9.1619 4.80029 9.1619 4.80029 9.12381 4.80029Z" fill="#E52836"/>
<path d="M2 12.0003C2 15.9622 5.2 19.2003 9.2 19.2003C11.0667 19.2003 12.7429 18.4765 14.0381 17.3336C14.3048 17.105 14.5333 16.8384 14.7619 16.5717H13.2762C13.0857 16.3431 12.8952 16.0765 12.7429 15.8479H15.2952C15.4476 15.6193 15.6 15.3527 15.7143 15.086H12.3238C12.2095 14.8574 12.0952 14.5908 12.019 14.3241H15.981C16.2095 13.6003 16.3619 12.8384 16.3619 12.0384C16.3619 11.505 16.2857 11.0098 16.2095 10.5146H11.7905C11.8286 10.2479 11.9048 10.0193 11.981 9.75266H15.9429C15.8667 9.48599 15.7524 9.21932 15.6381 8.99075H12.2857C12.4 8.72408 12.5524 8.49551 12.7048 8.22885H15.2571C15.1048 7.96218 14.9143 7.69551 14.6857 7.46694H13.2762C13.5048 7.20027 13.7333 6.9717 14 6.74313C12.7429 5.56218 11.0286 4.87646 9.1619 4.87646H9.12381" fill="#E52836"/>
<path d="M9.19973 19.2003C11.0664 19.2003 12.7426 18.4765 14.0378 17.3336C14.3045 17.105 14.5331 16.8384 14.7616 16.5717H13.2759C13.0854 16.3431 12.895 16.0765 12.7426 15.8479H15.295C15.4473 15.6193 15.5997 15.3527 15.714 15.086H12.3235C12.2092 14.8574 12.095 14.5908 12.0188 14.3241H15.9807C16.2093 13.6003 16.3616 12.8384 16.3616 12.0384C16.3616 11.505 16.2854 11.0098 16.2092 10.5146H11.7902C11.8283 10.2479 11.9045 10.0193 11.9807 9.75266H15.9426C15.8664 9.48599 15.7521 9.21932 15.6378 8.99075H12.2854C12.3997 8.72408 12.5521 8.49551 12.7045 8.22885H15.2569C15.1045 7.96218 14.914 7.69551 14.6854 7.46694H13.2759C13.5045 7.20027 13.7331 6.9717 13.9997 6.74313C12.7426 5.56218 11.0283 4.87646 9.16163 4.87646H9.12354" fill="#E52836"/>
<path d="M11.7522 13.8285L11.8665 13.1808C11.8284 13.1808 11.7522 13.2189 11.676 13.2189C11.4094 13.2189 11.3713 13.0665 11.4094 12.9904L11.6379 11.657H12.057L12.1713 10.9332H11.7903L11.8665 10.4761H11.1046C11.1046 10.4761 10.6475 12.9904 10.6475 13.2951C10.6475 13.7523 10.9141 13.9427 11.257 13.9427C11.4856 13.9427 11.676 13.8665 11.7522 13.8285Z" fill="white"/>
<path d="M12.019 12.6092C12.019 13.6759 12.7429 13.9426 13.3524 13.9426C13.9238 13.9426 14.1524 13.8283 14.1524 13.8283L14.3048 13.1045C14.3048 13.1045 13.8857 13.295 13.5048 13.295C12.6667 13.295 12.819 12.6854 12.819 12.6854H14.3809C14.3809 12.6854 14.4952 12.1902 14.4952 11.9997C14.4952 11.5045 14.2286 10.895 13.3905 10.895C12.5905 10.8188 12.019 11.6569 12.019 12.6092ZM13.3524 11.5045C13.7714 11.5045 13.6952 11.9997 13.6952 12.0378H12.8571C12.8571 11.9997 12.9333 11.5045 13.3524 11.5045Z" fill="white"/>
<path d="M18.1905 13.8285L18.3428 12.9904C18.3428 12.9904 17.9619 13.1809 17.6952 13.1809C17.1619 13.1809 16.9333 12.7619 16.9333 12.3047C16.9333 11.3904 17.3905 10.8952 17.9238 10.8952C18.3047 10.8952 18.6095 11.1238 18.6095 11.1238L18.7238 10.3238C18.7238 10.3238 18.2666 10.1333 17.8476 10.1333C16.9714 10.1333 16.0952 10.8952 16.0952 12.3428C16.0952 13.2952 16.5524 13.9428 17.4666 13.9428C17.7714 13.9428 18.1905 13.8285 18.1905 13.8285Z" fill="white"/>
<path d="M7.56188 10.8188C7.02854 10.8188 6.64759 10.9712 6.64759 10.9712L6.5333 11.6188C6.5333 11.6188 6.87616 11.4665 7.3714 11.4665C7.63807 11.4665 7.86664 11.5046 7.86664 11.7331C7.86664 11.8855 7.82854 11.9236 7.82854 11.9236C7.82854 11.9236 7.59997 11.9236 7.48568 11.9236C6.83807 11.9236 6.11426 12.1903 6.11426 13.0665C6.11426 13.7522 6.5714 13.9046 6.83807 13.9046C7.3714 13.9046 7.59997 13.5617 7.63807 13.5617L7.59997 13.8665H8.28568L8.59045 11.7712C8.59045 10.8569 7.82854 10.8188 7.56188 10.8188ZM7.71426 12.5331C7.71426 12.6474 7.63807 13.2569 7.18092 13.2569C6.95235 13.2569 6.87616 13.0665 6.87616 12.9522C6.87616 12.7617 6.99045 12.495 7.56188 12.495C7.67616 12.5331 7.71426 12.5331 7.71426 12.5331Z" fill="white"/>
<path d="M9.31418 13.9046C9.50466 13.9046 10.457 13.9427 10.457 12.9141C10.457 11.9617 9.54275 12.1522 9.54275 11.7712C9.54275 11.5808 9.69513 11.5046 9.9618 11.5046C10.0761 11.5046 10.4951 11.5427 10.4951 11.5427L10.6094 10.857C10.6094 10.857 10.3428 10.7808 9.88561 10.7808C9.31418 10.7808 8.74275 11.0093 8.74275 11.7712C8.74275 12.6474 9.69513 12.5712 9.69513 12.9141C9.69513 13.1427 9.42846 13.1808 9.23799 13.1808C8.89513 13.1808 8.55227 13.0665 8.55227 13.0665L8.43799 13.7522C8.47608 13.8284 8.66656 13.9046 9.31418 13.9046Z" fill="white"/>
<path d="M24.5142 10.2095L24.3618 11.238C24.3618 11.238 24.0571 10.8571 23.638 10.8571C22.9523 10.8571 22.3428 11.6952 22.3428 12.6857C22.3428 13.2952 22.6475 13.9428 23.2952 13.9428C23.7523 13.9428 24.019 13.638 24.019 13.638L23.9809 13.9047H24.7428L25.3142 10.2476L24.5142 10.2095ZM24.1713 12.2285C24.1713 12.6476 23.9809 13.1809 23.5618 13.1809C23.2952 13.1809 23.1428 12.9523 23.1428 12.5714C23.1428 11.9619 23.4094 11.5809 23.7523 11.5809C24.019 11.5809 24.1713 11.7714 24.1713 12.2285Z" fill="white"/>
<path d="M3.40936 13.8666L3.8665 11.1238L3.94269 13.8666H4.47602L5.4665 11.1238L5.04745 13.8666H5.84745L6.45697 10.2095H5.19983L4.43793 12.4571L4.39983 10.2095H3.29507L2.68555 13.8666H3.40936Z" fill="white"/>
<path d="M15.219 13.8665C15.4475 12.6093 15.4856 11.5807 16.019 11.7712C16.0951 11.276 16.2094 11.0855 16.2856 10.895C16.2856 10.895 16.2475 10.895 16.1332 10.895C15.7904 10.895 15.5237 11.3522 15.5237 11.3522L15.5999 10.9331H14.8761L14.3809 13.9045H15.219V13.8665Z" fill="white"/>
<path d="M19.9427 10.8188C19.4094 10.8188 19.0285 10.9712 19.0285 10.9712L18.9142 11.6188C18.9142 11.6188 19.257 11.4665 19.7523 11.4665C20.0189 11.4665 20.2475 11.5046 20.2475 11.7331C20.2475 11.8855 20.2094 11.9236 20.2094 11.9236C20.2094 11.9236 19.9808 11.9236 19.8665 11.9236C19.2189 11.9236 18.4951 12.1903 18.4951 13.0665C18.4951 13.7522 18.9523 13.9046 19.2189 13.9046C19.7523 13.9046 19.9808 13.5617 20.0189 13.5617L19.9808 13.8665H20.6665L20.9713 11.7712C21.0094 10.8569 20.2094 10.8188 19.9427 10.8188ZM20.1332 12.5331C20.1332 12.6474 20.057 13.2569 19.5999 13.2569C19.3713 13.2569 19.2951 13.0665 19.2951 12.9522C19.2951 12.7617 19.4094 12.495 19.9808 12.495C20.0951 12.5331 20.0951 12.5331 20.1332 12.5331Z" fill="white"/>
<path d="M21.6189 13.8665C21.8474 12.6093 21.8855 11.5807 22.4189 11.7712C22.495 11.276 22.6093 11.0855 22.6855 10.895C22.6855 10.895 22.6474 10.895 22.5331 10.895C22.1903 10.895 21.9236 11.3522 21.9236 11.3522L21.9998 10.9331H21.276L20.7808 13.9045H21.6189V13.8665Z" fill="white"/>
<path d="M10.5713 13.2951C10.5713 13.7523 10.838 13.9427 11.1808 13.9427C11.4475 13.9427 11.6761 13.8665 11.7522 13.8285L11.8665 13.1808C11.8284 13.1808 11.7522 13.2189 11.6761 13.2189C11.4094 13.2189 11.3713 13.0665 11.4094 12.9904L11.638 11.657H12.057L12.1713 10.9332H11.7903L11.8665 10.4761" fill="#DCE5E5"/>
<path d="M12.3999 12.6092C12.3999 13.6759 12.7428 13.9426 13.3523 13.9426C13.9237 13.9426 14.1523 13.8283 14.1523 13.8283L14.3047 13.1045C14.3047 13.1045 13.8856 13.295 13.5047 13.295C12.6666 13.295 12.819 12.6854 12.819 12.6854H14.3809C14.3809 12.6854 14.4951 12.1902 14.4951 11.9997C14.4951 11.5045 14.2285 10.895 13.3904 10.895C12.5904 10.8188 12.3999 11.6569 12.3999 12.6092ZM13.3523 11.5045C13.7713 11.5045 13.8475 11.9997 13.8475 12.0378H12.857C12.857 11.9997 12.9332 11.5045 13.3523 11.5045Z" fill="#DCE5E5"/>
<path d="M18.1904 13.8285L18.3427 12.9904C18.3427 12.9904 17.9618 13.1809 17.6951 13.1809C17.1618 13.1809 16.9332 12.7619 16.9332 12.3047C16.9332 11.3904 17.3904 10.8952 17.9237 10.8952C18.3046 10.8952 18.6094 11.1238 18.6094 11.1238L18.7237 10.3238C18.7237 10.3238 18.2666 10.1333 17.8475 10.1333C16.9713 10.1333 16.4761 10.8952 16.4761 12.3428C16.4761 13.2952 16.5523 13.9428 17.4666 13.9428C17.7713 13.9428 18.1904 13.8285 18.1904 13.8285Z" fill="#DCE5E5"/>
<path d="M6.5333 11.6569C6.5333 11.6569 6.87616 11.5045 7.3714 11.5045C7.63807 11.5045 7.86664 11.5426 7.86664 11.7712C7.86664 11.9236 7.82854 11.9617 7.82854 11.9617C7.82854 11.9617 7.59997 11.9617 7.48568 11.9617C6.83807 11.9617 6.11426 12.2284 6.11426 13.1045C6.11426 13.7903 6.5714 13.9426 6.83807 13.9426C7.3714 13.9426 7.59997 13.5998 7.63807 13.5998L7.59997 13.9045H8.28568L8.59045 11.8093C8.59045 10.9331 7.82854 10.895 7.52378 10.895L6.5333 11.6569ZM8.09521 12.5331C8.09521 12.6474 7.63807 13.2569 7.18092 13.2569C6.95235 13.2569 6.87616 13.0664 6.87616 12.9522C6.87616 12.7617 6.99045 12.495 7.56188 12.495C7.67616 12.5331 8.09521 12.5331 8.09521 12.5331Z" fill="#DCE5E5"/>
<path d="M8.47607 13.8284C8.47607 13.8284 8.70465 13.9046 9.35226 13.9046C9.54274 13.9046 10.4951 13.9427 10.4951 12.9141C10.4951 11.9617 9.58083 12.1522 9.58083 11.7712C9.58083 11.5808 9.73322 11.5046 9.99988 11.5046C10.1142 11.5046 10.5332 11.5427 10.5332 11.5427L10.6475 10.857C10.6475 10.857 10.3808 10.7808 9.92369 10.7808C9.35226 10.7808 9.16179 11.0093 9.16179 11.7712C9.16179 12.6474 9.73322 12.5712 9.73322 12.9141C9.73322 13.1427 9.46655 13.1808 9.27607 13.1808" fill="#DCE5E5"/>
<path d="M24.3616 11.238C24.3616 11.238 24.0568 10.8571 23.6378 10.8571C22.952 10.8571 22.7235 11.6952 22.7235 12.6857C22.7235 13.2952 22.6473 13.9428 23.2949 13.9428C23.752 13.9428 24.0187 13.638 24.0187 13.638L23.9806 13.9047H24.7425L25.3139 10.2476L24.3616 11.238ZM24.3235 12.2285C24.3235 12.6476 23.9806 13.1809 23.5616 13.1809C23.2949 13.1809 23.1425 12.9523 23.1425 12.5714C23.1425 11.9618 23.4092 11.5809 23.752 11.5809C24.0187 11.5809 24.3235 11.7714 24.3235 12.2285Z" fill="#DCE5E5"/>
<path d="M3.40936 13.8666L3.8665 11.1238L3.94269 13.8666H4.47602L5.4665 11.1238L5.04745 13.8666H5.84745L6.45697 10.2095H5.50459L4.43793 12.4571L4.39983 10.2095H3.98078L2.68555 13.8666H3.40936Z" fill="#DCE5E5"/>
<path d="M14.4189 13.8665H15.2189C15.4475 12.6093 15.4856 11.5807 16.0189 11.7712C16.0951 11.276 16.2094 11.0855 16.2856 10.895C16.2856 10.895 16.2475 10.895 16.1332 10.895C15.7904 10.895 15.5237 11.3522 15.5237 11.3522L15.5999 10.9331" fill="#DCE5E5"/>
<path d="M18.9142 11.6569C18.9142 11.6569 19.257 11.5045 19.7523 11.5045C20.0189 11.5045 20.2475 11.5426 20.2475 11.7712C20.2475 11.9236 20.2094 11.9617 20.2094 11.9617C20.2094 11.9617 19.9808 11.9617 19.8665 11.9617C19.2189 11.9617 18.4951 12.2284 18.4951 13.1045C18.4951 13.7903 18.9523 13.9426 19.2189 13.9426C19.7523 13.9426 19.9808 13.5998 20.0189 13.5998L19.9808 13.9045H20.6665L20.9713 11.8093C20.9713 10.9331 20.2094 10.895 19.9046 10.895L18.9142 11.6569ZM20.4761 12.5331C20.4761 12.6474 20.0189 13.2569 19.5618 13.2569C19.3332 13.2569 19.257 13.0664 19.257 12.9522C19.257 12.7617 19.3713 12.495 19.9427 12.495C20.0951 12.5331 20.4761 12.5331 20.4761 12.5331Z" fill="#DCE5E5"/>
<path d="M20.8188 13.8665H21.6188C21.8474 12.6093 21.8855 11.5807 22.4188 11.7712C22.495 11.276 22.6093 11.0855 22.6855 10.895C22.6855 10.895 22.6474 10.895 22.5331 10.895C22.1903 10.895 21.9236 11.3522 21.9236 11.3522L21.9998 10.9331" fill="#DCE5E5"/>
</g>
<defs>
<clipPath id="clip0">
<rect width="24" height="24" fill="white" transform="translate(2)"/>
</clipPath>
</defs>
</svg>
