<svg width="30" height="30" viewBox="0 0 30 30" fill="none" xmlns="http://www.w3.org/2000/svg">
<path d="M22.0154 0.0156947C17.0634 2.52667 15.7173 8.66706 15.3442 11.87H17.168C17.7996 5.08962 20.766 1.5522 22.1682 0.23548C22.2817 0.128839 22.1543 -0.0547936 22.0154 0.0156947Z" fill="#04A550"/>
<path d="M18.9446 4.8924C19.1333 4.47774 19.3286 4.09037 19.5268 3.72932C19.6668 3.47408 19.6098 3.15621 19.3888 2.96666L19.38 2.95904C19.0988 2.71787 18.6922 2.76697 18.4718 3.06469C18.1877 3.44842 17.9284 3.84674 17.6916 4.25438C17.4615 4.65053 17.6733 5.15701 18.1159 5.2752C18.1207 5.27649 18.1255 5.27777 18.1304 5.27906C18.4598 5.36719 18.8033 5.20277 18.9446 4.8924Z" fill="#0CC166"/>
<path d="M23.4082 3.51405C19.9419 5.27169 18.243 8.80765 17.4072 11.87H19.142C20.2569 7.33296 22.4235 4.80212 23.561 3.7339C23.6745 3.62726 23.5471 3.44362 23.4082 3.51405Z" fill="#0CC166"/>
<path d="M25.3568 6.30215C21.6077 6.75045 18.8493 9.34779 17.0117 11.87H19.0583C21.5036 8.574 24.0949 7.12914 25.4248 6.56107C25.5682 6.49984 25.5114 6.28363 25.3568 6.30215Z" fill="#04A550"/>
<path d="M22.7674 6.99199C22.0681 7.2856 21.4133 7.65246 20.8026 8.07111C20.5173 8.2667 20.4452 8.65717 20.6386 8.94392C20.6411 8.94767 20.6437 8.95148 20.6462 8.95523C20.8599 9.27199 21.3048 9.32865 21.5893 9.07365C22.1534 8.5681 22.6982 8.14805 23.2051 7.79994C23.4069 7.66142 23.4639 7.38926 23.3348 7.18131L23.3304 7.17422C23.2124 6.9842 22.9736 6.90545 22.7674 6.99199Z" fill="#0CC166"/>
<path d="M24.5521 2.4181C19.3087 3.54685 16.458 8.80692 15.2104 11.87H17.1471C19.4944 6.03392 23.0234 3.54808 24.644 2.66952C24.7809 2.59528 24.7044 2.38528 24.5521 2.4181Z" fill="#29E088"/>
<path d="M21.9154 3.41096C20.9452 3.94656 20.0845 4.62719 19.3248 5.38463C19.0638 5.64484 19.0558 6.06455 19.302 6.33871C19.3054 6.3424 19.3086 6.34609 19.3119 6.34979C19.5955 6.66561 20.0946 6.65395 20.3636 6.32564C21.0807 5.45049 21.7934 4.7493 22.4499 4.19242C22.629 4.04043 22.6681 3.77974 22.5423 3.58123L22.5377 3.57396C22.4052 3.36473 22.1322 3.29125 21.9154 3.41096Z" fill="#6DEC6D"/>
<path d="M27.6479 10.3348L27.648 10.3347C27.648 10.3347 27.4871 9.95147 27.5344 9.49198C27.5521 9.31977 27.3831 9.18735 27.2201 9.24565C26.7852 9.40128 26.3747 9.33653 26.3747 9.33653L26.3746 9.33665C24.9039 9.01086 23.3099 9.52397 22.3188 10.7884C21.1405 12.2916 21.196 14.3677 22.3374 15.7985C23.9993 16.565 26.0286 16.1232 27.2069 14.6199C28.198 13.3555 28.3155 11.6851 27.6479 10.3348Z" fill="#29E088"/>
<path d="M24.5004 11.3688C24.678 11.3473 24.8395 11.4738 24.861 11.6515L24.9678 12.5332L24.4025 13.2545L24.2177 11.7294C24.1962 11.5518 24.3228 11.3904 24.5004 11.3688Z" fill="#0CC166"/>
<path d="M27.2069 14.6192C26.0278 16.1235 23.9982 16.5652 22.3375 15.7988C22.0316 15.4162 21.805 14.9873 21.6577 14.5362C23.5059 15.4961 25.8342 15.0355 27.1654 13.3372C27.6025 12.7796 27.8849 12.1492 28.0164 11.4983C28.1864 12.566 27.9272 13.7002 27.2069 14.6192Z" fill="#0CC166"/>
<path d="M26.9576 11.5739C26.9361 11.3962 26.7746 11.2697 26.597 11.2912L25.7152 11.3981L25.1499 12.1193L26.6749 11.9345C26.8526 11.913 26.9791 11.7516 26.9576 11.5739Z" fill="#0CC166"/>
<path d="M22.1974 15.9771C22.0565 15.8667 22.0319 15.6631 22.1423 15.5223L26.2194 10.3208C26.3298 10.1799 26.5335 10.1553 26.6743 10.2656C26.8152 10.376 26.8398 10.5796 26.7294 10.7205L22.6523 15.922C22.5419 16.0628 22.3383 16.0875 22.1974 15.9771Z" fill="#04A550"/>
<path d="M24.6695 14.4931C24.648 14.3154 24.4866 14.1888 24.3089 14.2104L23.4271 14.3172L22.8618 15.0384L24.3868 14.8536C24.5645 14.8321 24.691 14.6707 24.6695 14.4931Z" fill="#04A550"/>
<path d="M25.8135 13.0335C25.792 12.8558 25.6306 12.7293 25.453 12.7508L24.5712 12.8577L24.0059 13.5789L25.5309 13.3941C25.7085 13.3725 25.835 13.2111 25.8135 13.0335Z" fill="#04A550"/>
<path d="M23.3563 12.8285C23.534 12.8069 23.6954 12.9335 23.7169 13.1111L23.8238 13.9928L23.2585 14.7141L23.0737 13.1891C23.0522 13.0114 23.1787 12.85 23.3563 12.8285Z" fill="#04A550"/>
<path d="M22.2635 14.2136C22.2679 14.2128 22.2724 14.2119 22.2768 14.2111C22.609 14.1483 22.8486 13.8469 22.8197 13.51C22.7631 12.8517 22.9509 12.1769 23.385 11.6231C23.8718 11.002 24.6098 10.6358 25.3813 10.6006C25.7102 10.5856 25.9867 10.3473 26.029 10.0208C26.0299 10.0146 26.0307 10.0084 26.0314 10.0021C26.0841 9.59609 25.7659 9.22935 25.3567 9.24353C24.9522 9.25754 24.5509 9.33195 24.1675 9.46543C23.4601 9.71134 22.8144 10.1553 22.3189 10.7874C21.6613 11.6264 21.3881 12.6431 21.4731 13.6266C21.5068 14.0163 21.8791 14.2863 22.2635 14.2136Z" fill="#6DEC6D"/>
<path d="M21.5593 7.8311V7.83092C21.5593 7.83092 21.1745 7.67372 20.8831 7.31542C20.7738 7.18112 20.5607 7.20696 20.4867 7.36346C20.2892 7.781 19.9531 8.02551 19.9531 8.02551V8.02569C18.6828 8.83528 17.9185 10.3252 18.1118 11.9201C18.3415 13.8163 19.8488 15.245 21.6676 15.4496C23.3848 14.8165 24.5072 13.0691 24.2775 11.1729C24.0842 9.57807 22.9862 8.31386 21.5593 7.8311Z" fill="#6DEC6D"/>
<path d="M24.2761 11.1723C24.506 13.0698 23.3832 14.8172 21.667 15.4496C21.1801 15.3953 20.7166 15.2523 20.2935 15.0375C22.279 14.4094 23.5997 12.4373 23.3402 10.2951C23.255 9.59183 23.0089 8.94625 22.6417 8.39307C23.5168 9.02793 24.1356 10.0132 24.2761 11.1723Z" fill="#29E088"/>
<path d="M21.9466 9.19523C21.8058 9.08478 21.6021 9.10951 21.4918 9.25037L20.9438 9.94939L21.0541 10.8591L22.0018 9.6501C22.1121 9.50924 22.0875 9.30562 21.9466 9.19523Z" fill="#29E088"/>
<path d="M20.0641 10.7878C20.1745 10.6469 20.3781 10.6223 20.5189 10.7327L21.218 11.2806L21.3282 12.1903L20.1192 11.2427C19.9785 11.1322 19.9537 10.9286 20.0641 10.7878Z" fill="#29E088"/>
<path d="M20.2873 12.6289C20.3977 12.488 20.6013 12.4633 20.7421 12.5737L21.4412 13.1216L21.5514 14.0314L20.3424 13.0837C20.2016 12.9733 20.1769 12.7697 20.2873 12.6289Z" fill="#29E088"/>
<path d="M21.6942 15.6749C21.5165 15.6964 21.3551 15.5699 21.3336 15.3922L20.5385 8.83123C20.517 8.65357 20.6435 8.49215 20.8212 8.47064C20.9988 8.44914 21.1603 8.57564 21.1818 8.7533L21.9768 15.3143C21.9984 15.4919 21.8718 15.6534 21.6942 15.6749Z" fill="#0CC166"/>
<path d="M22.3929 12.8774C22.2521 12.767 22.0484 12.7917 21.9381 12.9326L21.3901 13.6316L21.5004 14.5413L22.448 13.3323C22.5584 13.1914 22.5338 12.9878 22.3929 12.8774Z" fill="#0CC166"/>
<path d="M22.1698 11.0363C22.0289 10.9258 21.8253 10.9506 21.715 11.0914L21.167 11.7905L21.2772 12.7002L22.2249 11.4912C22.3352 11.3503 22.3106 11.1467 22.1698 11.0363Z" fill="#0CC166"/>
<path d="M20.4942 14.3813C20.4968 14.3776 20.4993 14.3738 20.5019 14.3701C20.6924 14.0908 20.6487 13.7082 20.39 13.4905C19.8845 13.065 19.5402 12.455 19.4555 11.7565C19.3606 10.9731 19.6235 10.1923 20.1441 9.62188C20.3661 9.37866 20.3931 9.01467 20.1921 8.75381C20.1883 8.74883 20.1845 8.74391 20.1807 8.73893C19.9308 8.41462 19.4465 8.38028 19.1671 8.67963C18.891 8.97553 18.6598 9.31192 18.4832 9.67743C18.1568 10.3515 18.0142 11.1219 18.1108 11.9194C18.239 12.9776 18.7648 13.8897 19.5203 14.5251C19.8196 14.7768 20.2739 14.7044 20.4942 14.3813Z" fill="#C2FFC2"/>
<path d="M10.842 11.5397C10.7233 11.0719 10.4814 10.629 10.1153 10.2629C9.06101 9.2086 7.36947 9.18059 6.28085 10.1781C5.34025 9.32813 3.888 9.35637 2.98138 10.2629C2.07476 11.1695 2.04657 12.6218 2.89659 13.5624C1.89904 14.651 1.92704 16.3426 2.98138 17.3969C3.34741 17.7629 3.79038 18.0048 4.25814 18.1235C4.12038 19.1076 4.42964 20.1423 5.18638 20.899C6.46689 22.1795 8.54292 22.1795 9.82343 20.899L13.6174 17.105C14.8979 15.8245 14.8979 13.7484 13.6174 12.468C12.8606 11.7111 11.826 11.4019 10.842 11.5397Z" fill="#29E088"/>
<path d="M13.6175 17.1049L9.82316 20.8993C8.54266 22.1791 6.46668 22.1791 5.18617 20.8993C4.4292 20.1423 4.12018 19.1074 4.25781 18.1237C3.79023 18.005 3.34703 17.7628 2.98135 17.3971C2.56574 16.9815 2.31004 16.4681 2.21289 15.9304C4.13096 15.0816 5.46953 13.1622 5.46953 10.9297C5.46953 10.4885 5.41756 10.0594 5.31842 9.64846C5.66652 9.74491 5.99646 9.92169 6.28053 10.1781C7.36943 9.18024 9.06086 9.2086 10.1154 10.2631C10.4811 10.6288 10.7232 11.072 10.842 11.5396C11.8257 11.4019 12.8606 11.711 13.6176 12.4679C14.8974 13.7484 14.8974 15.8244 13.6175 17.1049Z" fill="#0CC166"/>
<path d="M16.8716 10.1191C17.059 9.67436 17.1332 9.17514 17.0621 8.66238C16.857 7.18553 15.5247 6.14297 14.0547 6.28207C13.8171 5.03672 12.6417 4.18336 11.3718 4.35967C10.1019 4.53598 9.2034 5.67732 9.31415 6.94031C7.86184 7.20697 6.86399 8.57315 7.06907 10.05C7.14026 10.5628 7.34768 11.0228 7.6492 11.3996C6.94579 12.1015 6.56844 13.1133 6.71563 14.1734C6.96471 15.967 8.62063 17.2192 10.4144 16.9702L15.7289 16.2322C17.5225 15.9831 18.7747 14.3272 18.5257 12.5335C18.3784 11.4734 17.7396 10.6028 16.8716 10.1191Z" fill="#6DEC6D"/>
<path d="M15.7285 16.2319L10.4141 16.97C8.62017 17.2189 6.96455 15.9667 6.71558 14.1735C6.62049 13.488 6.74459 12.8221 7.03539 12.2473C10.0235 11.1233 12.1487 8.23833 12.1487 4.85758C12.1487 4.69569 12.144 4.53508 12.1339 4.37589C13.0846 4.54997 13.8658 5.29141 14.0547 6.28182C15.5248 6.14284 16.8566 7.18522 17.0617 8.66208C17.1332 9.17483 17.059 9.67411 16.8715 10.1194C17.7398 10.6024 18.378 11.4734 18.5257 12.5333C18.7747 14.3273 17.5224 15.9829 15.7285 16.2319Z" fill="#29E088"/>
<path d="M15.7289 16.2319L10.4145 16.97C10.4104 16.9707 10.4064 16.9713 10.4023 16.9713C13.2151 15.765 15.1851 12.9698 15.1851 9.71526C15.1851 8.48063 14.9017 7.31209 14.3957 6.27106C15.7261 6.30815 16.8724 7.2999 17.062 8.66209C17.1335 9.17485 17.0593 9.67412 16.8717 10.1194C17.74 10.6024 18.3783 11.4734 18.526 12.5333C18.775 14.3273 17.5228 15.9829 15.7289 16.2319Z" fill="#0CC166"/>
<path d="M8.23049 19.4296C10.0901 19.4296 11.5977 17.922 11.5977 16.0624C11.5977 14.2027 10.0901 12.6952 8.23049 12.6952C6.37083 12.6952 4.86328 14.2027 4.86328 16.0624C4.86328 17.922 6.37083 19.4296 8.23049 19.4296Z" fill="#EF4343"/>
<path d="M7.37109 18.3148C8.73751 18.3148 9.84522 17.2071 9.84522 15.8407C9.84522 14.4742 8.73751 13.3665 7.37109 13.3665C6.00467 13.3665 4.89697 14.4742 4.89697 15.8407C4.89697 17.2071 6.00467 18.3148 7.37109 18.3148Z" fill="url(#paint0_linear)"/>
<path d="M6.61076 16.601C7.39007 16.601 8.02182 15.9692 8.02182 15.1899C8.02182 14.4106 7.39007 13.7789 6.61076 13.7789C5.83146 13.7789 5.19971 14.4106 5.19971 15.1899C5.19971 15.9692 5.83146 16.601 6.61076 16.601Z" fill="#FC9595"/>
<path d="M17.6551 17.3456C15.3761 20.0096 12.7173 19.8911 10.7513 18.2092C8.7854 16.5273 8.25671 13.9189 10.5357 11.255C12.8147 8.591 17.0384 6.8803 19.0043 8.56217C20.9703 10.244 19.9341 14.6817 17.6551 17.3456Z" fill="#FFFDF3"/>
<path d="M17.6549 17.3455C15.3761 20.0092 12.7171 19.891 10.7512 18.2092C10.3561 17.8712 10.0191 17.4958 9.75146 17.0902C12.565 17.4444 15.4962 16.4222 17.4776 14.106C18.7065 12.6696 19.3869 10.9495 19.5391 9.19958C20.7313 11.1841 19.6872 14.9698 17.6549 17.3455Z" fill="#FFF7C7"/>
<path d="M15.6577 16.6779C16.7851 15.3597 16.7689 13.4954 15.6215 12.5141C14.474 11.5327 12.6298 11.8058 11.5024 13.124C10.3749 14.4423 10.3911 16.3065 11.5386 17.2879C12.686 18.2693 14.5302 17.9962 15.6577 16.6779Z" fill="#FFE059"/>
<path d="M15.6569 16.6807C14.529 17.9991 12.685 18.2716 11.5377 17.2901C10.935 16.7744 10.6445 16.0151 10.6683 15.2198C10.752 15.308 10.8415 15.3933 10.9361 15.4742C12.4132 16.7379 14.6337 16.565 15.8974 15.0879C16.1426 14.8012 16.3337 14.4862 16.4714 14.1558C16.5716 14.9978 16.3004 15.9285 15.6569 16.6807Z" fill="#FFC751"/>
<path d="M14.4468 13.8892C14.5281 13.9588 14.5904 14.0551 14.6308 14.1695C14.7429 14.4873 15.0116 14.7238 15.3454 14.7701L15.3632 14.7726C16.0218 14.864 16.5604 14.2333 16.3481 13.6032C16.208 13.1873 15.9654 12.8125 15.6204 12.5173C14.4731 11.5358 12.6295 11.8087 11.502 13.1266C11.3363 13.3203 11.1953 13.5259 11.079 13.7386C10.7482 14.344 11.1854 15.0825 11.8752 15.0799C12.1985 15.0786 12.5023 14.9069 12.654 14.6214C12.7121 14.5123 12.7849 14.4042 12.8739 14.3002C13.3852 13.7025 14.1134 13.604 14.4468 13.8892Z" fill="#FFF370"/>
<path d="M14.5173 13.1529C14.523 13.1356 14.5286 13.1183 14.5343 13.101C14.7368 12.4846 14.2232 11.8674 13.5806 11.9566C13.2768 11.9988 12.9732 12.0888 12.6815 12.2248C12.1636 12.4664 12.0123 13.1333 12.374 13.5758C12.3845 13.5887 12.395 13.6015 12.4056 13.6144C12.6573 13.9216 13.0852 14.0286 13.4454 13.8612C13.564 13.806 13.683 13.7696 13.7974 13.751C14.131 13.6966 14.4121 13.4742 14.5173 13.1529Z" fill="#FFF7C7"/>
<path d="M20.4707 18.2722C22.3304 18.2722 23.8379 16.7647 23.8379 14.905C23.8379 13.0454 22.3304 11.5378 20.4707 11.5378C18.6111 11.5378 17.1035 13.0454 17.1035 14.905C17.1035 16.7647 18.6111 18.2722 20.4707 18.2722Z" fill="#EF4343"/>
<path d="M19.6113 17.1574C20.9777 17.1574 22.0855 16.0497 22.0855 14.6833C22.0855 13.3169 20.9777 12.2092 19.6113 12.2092C18.2449 12.2092 17.1372 13.3169 17.1372 14.6833C17.1372 16.0497 18.2449 17.1574 19.6113 17.1574Z" fill="url(#paint1_linear)"/>
<path d="M18.851 15.4436C19.6303 15.4436 20.2621 14.8118 20.2621 14.0325C20.2621 13.2532 19.6303 12.6215 18.851 12.6215C18.0717 12.6215 17.4399 13.2532 17.4399 14.0325C17.4399 14.8118 18.0717 15.4436 18.851 15.4436Z" fill="#FC9595"/>
<path d="M23.9484 18.7746C25.48 18.7746 26.7215 17.533 26.7215 16.0015C26.7215 14.4699 25.48 13.2284 23.9484 13.2284C22.4169 13.2284 21.1753 14.4699 21.1753 16.0015C21.1753 17.533 22.4169 18.7746 23.9484 18.7746Z" fill="#EF4343"/>
<path d="M24.0122 17.3108C25.1375 17.3108 26.0498 16.3986 26.0498 15.2732C26.0498 14.1479 25.1375 13.2356 24.0122 13.2356C22.8869 13.2356 21.9746 14.1479 21.9746 15.2732C21.9746 16.3986 22.8869 17.3108 24.0122 17.3108Z" fill="url(#paint2_linear)"/>
<path d="M24.438 15.7297C25.0798 15.7297 25.6001 15.2094 25.6001 14.5676C25.6001 13.9258 25.0798 13.4055 24.438 13.4055C23.7962 13.4055 23.2759 13.9258 23.2759 14.5676C23.2759 15.2094 23.7962 15.7297 24.438 15.7297Z" fill="#FC9595"/>
<path d="M18.655 30H11.0389C10.6663 30 10.3643 29.698 10.3643 29.3254V27.538H19.3297V29.3254C19.3296 29.698 19.0276 30 18.655 30Z" fill="#E8E4D8"/>
<path d="M19.3296 27.538H10.3643V28.9888H16.9217C17.5015 28.9888 17.6458 29.8036 17.098 29.9937C17.092 29.9958 17.086 29.9979 17.08 29.9999H18.6547C19.0278 29.9999 19.3294 29.6977 19.3294 29.3253L19.3296 27.538Z" fill="#D8D4C9"/>
<path d="M1.93833 17.5551C2.49907 22.1013 5.40538 25.9204 9.40903 27.7656C9.77946 27.9363 10.1838 28.0211 10.5916 28.0211H19.102C19.5098 28.0211 19.9141 27.9363 20.2846 27.7656C24.2883 25.9204 27.1945 22.1013 27.7553 17.5551C27.8051 17.1514 27.4926 16.7942 27.0858 16.7942H2.60782C2.20101 16.7942 1.88853 17.1514 1.93833 17.5551Z" fill="#F1EEE0"/>
<path d="M27.7553 17.5549C27.1946 22.1015 24.2882 25.9202 20.2846 27.7654C19.9143 27.9361 19.5102 28.0211 19.1019 28.0211H17.0732C21.1557 25.9371 23.9509 21.6921 23.9509 16.7946H27.086C27.4929 16.7946 27.8052 17.1515 27.7553 17.5549Z" fill="#E8E4D8"/>
<path d="M13.5837 18.9254H3.99521C3.4067 18.9254 2.92969 18.4483 2.92969 17.8598C2.92969 17.2713 3.40676 16.7943 3.99521 16.7943H13.5836C14.1721 16.7943 14.6491 17.2714 14.6491 17.8598C14.6492 18.4483 14.1721 18.9254 13.5837 18.9254Z" fill="#F9F8F2"/>
<path d="M9.24158 16.7943H7.12564C6.53713 16.7943 6.06006 17.2713 6.06006 17.8598C6.06006 18.4484 6.53713 18.9254 7.12564 18.9254H9.24158C9.8301 18.9254 10.3072 18.4484 10.3072 17.8598C10.3072 17.2713 9.8301 16.7943 9.24158 16.7943Z" fill="white"/>
<path d="M8.12076 9.74684C8.42433 9.71648 8.69626 9.52957 8.81369 9.24791C8.95033 8.9202 9.24435 8.66807 9.61888 8.59934L9.61935 8.59928C10.475 8.44213 11.0707 7.6599 10.9945 6.79324C10.9761 6.5833 11.0516 6.38619 11.1871 6.24404C11.3635 6.05912 11.4517 5.8077 11.4199 5.55416C11.4192 5.54854 11.4185 5.54297 11.4178 5.53735C11.3314 4.84946 10.4879 4.55332 10 5.0458C9.51939 5.53096 9.25044 6.21563 9.3139 6.94037C8.36404 7.11475 7.60906 7.75981 7.25796 8.59863C7.01456 9.18012 7.47669 9.81129 8.10394 9.74854L8.12076 9.74684Z" fill="#C2FFC2"/>
<path d="M3.62687 12.7547C3.85779 12.5852 3.99624 12.3091 3.96911 12.0238C3.94978 11.8205 4.01839 11.6109 4.17361 11.4552C4.20964 11.4194 4.24679 11.3896 4.28411 11.3648C4.51954 11.2087 4.65091 10.9356 4.64915 10.6531C4.64909 10.6472 4.64909 10.6412 4.64904 10.6353C4.64499 9.99369 3.93724 9.58822 3.39519 9.93152C3.24835 10.0245 3.10943 10.135 2.98146 10.2631C2.46068 10.7835 2.22988 11.484 2.28876 12.1644C2.3449 12.8126 3.08886 13.1498 3.61327 12.7648L3.62687 12.7547Z" fill="#6DEC6D"/>
<defs>
<linearGradient id="paint0_linear" x1="7.37109" y1="13.3665" x2="7.37109" y2="18.3148" gradientUnits="userSpaceOnUse">
<stop stop-color="#FC3947"/>
<stop offset="1" stop-color="#FE525F"/>
</linearGradient>
<linearGradient id="paint1_linear" x1="19.6113" y1="12.2092" x2="19.6113" y2="17.1574" gradientUnits="userSpaceOnUse">
<stop stop-color="#FC3947"/>
<stop offset="1" stop-color="#FE525F"/>
</linearGradient>
<linearGradient id="paint2_linear" x1="24.0122" y1="13.2356" x2="24.0122" y2="17.3108" gradientUnits="userSpaceOnUse">
<stop stop-color="#FC3947"/>
<stop offset="1" stop-color="#FE525F"/>
</linearGradient>
</defs>
</svg>
