<svg width="30" height="30" viewBox="0 0 30 30" fill="none" xmlns="http://www.w3.org/2000/svg">
<path d="M15 30C23.2843 30 30 23.2843 30 15C30 6.71573 23.2843 0 15 0C6.71573 0 0 6.71573 0 15C0 23.2843 6.71573 30 15 30Z" fill="#F1EEE0"/>
<path d="M14.9999 27.9311C22.1415 27.9311 27.931 22.1416 27.931 15C27.931 7.8584 22.1415 2.06897 14.9999 2.06897C7.85828 2.06897 2.06885 7.8584 2.06885 15C2.06885 22.1416 7.85828 27.9311 14.9999 27.9311Z" fill="#E8E4D8"/>
<path d="M15 26.8966C21.5703 26.8966 26.8966 21.5703 26.8966 15C26.8966 8.42977 21.5703 3.10352 15 3.10352C8.42977 3.10352 3.10352 8.42977 3.10352 15C3.10352 21.5703 8.42977 26.8966 15 26.8966Z" fill="url(#paint0_linear)"/>
<path d="M15.0001 3.10352C11.3784 3.10352 8.13705 4.72398 5.95508 7.27691C8.03363 5.50047 10.7296 4.42539 13.6783 4.42539C20.2485 4.42539 25.5748 9.75168 25.5748 16.3219C25.5748 19.2705 24.4997 21.9665 22.7233 24.0451C25.2763 21.8631 26.8966 18.6217 26.8966 15C26.8966 8.4298 21.5704 3.10352 15.0001 3.10352Z" fill="#FEBF48"/>
<path d="M8.45424 12.1561C8.48307 12.2774 8.5259 12.4618 8.69764 12.6506C9.38653 10.807 10.8576 9.3505 12.7108 8.68136C12.5669 8.56962 12.3885 8.50476 12.1469 8.46333C12.023 8.44206 11.9034 8.41276 11.7834 8.39847C10.4372 8.23845 9.16282 7.70911 8.20422 6.75052L1.75721 0.303566C1.3133 -0.140868 0.564592 -0.0965125 0.181565 0.436632C-0.119255 0.855401 -0.0296656 1.44239 0.334963 1.80702L6.74155 8.21355C7.70014 9.17214 8.22948 10.4466 8.38949 11.7927C8.40367 11.9126 8.42518 12.0339 8.45424 12.1561Z" fill="#EEE2D4"/>
<path d="M8.45375 12.1557C8.48258 12.277 8.52541 12.4613 8.69715 12.6501C8.9941 11.8555 9.43531 11.1337 9.99166 10.5141C9.60746 9.77702 9.12553 9.09206 8.52565 8.49218L0.317834 0.284363C0.269202 0.330242 0.222151 0.378992 0.181077 0.436179C-0.119744 0.854949 -0.0301538 1.44194 0.334475 1.80657L6.74106 8.21309C7.69965 9.17169 8.22899 10.4462 8.38901 11.7923C8.40318 11.9121 8.42469 12.0334 8.45375 12.1557Z" fill="#E0D0BB"/>
<path d="M8.40351 14.1668C8.36917 14.1668 8.33431 14.1635 8.2995 14.1562C8.01966 14.0991 7.83884 13.8256 7.89644 13.5458C8.46626 10.7613 10.6266 8.56025 13.4002 7.93869C13.6791 7.87535 13.9553 8.05131 14.018 8.33016C14.0806 8.609 13.9053 8.88557 13.6265 8.94791C11.2499 9.48082 9.3982 11.3669 8.9097 13.7534C8.85966 13.9981 8.64392 14.1668 8.40351 14.1668Z" fill="#FFCD6E"/>
<path d="M17.1328 23.7892C19.2392 23.5269 20.9088 21.8573 21.1711 19.7509C21.2094 19.4428 20.9644 19.17 20.654 19.17H17.069C16.7834 19.17 16.5518 19.4016 16.5518 19.6872V23.2722C16.5518 23.5825 16.8246 23.8275 17.1328 23.7892Z" fill="white"/>
<path d="M24.2394 14.2532C23.3702 13.1241 21.8358 12.727 20.528 13.2927C20.3367 13.3755 20.2624 13.6101 20.3681 13.7897L21.5892 15.8634C21.6865 16.0286 21.8993 16.0838 22.0645 15.9864L24.1382 14.7654C24.3178 14.6597 24.3665 14.4184 24.2394 14.2532Z" fill="#F7F0E6"/>
<path d="M14.9469 22.633C14.2973 21.7891 13.1502 21.4922 12.1727 21.9151C12.0298 21.977 11.9741 22.1523 12.0532 22.2866L12.9658 23.8366C13.0386 23.9601 13.1976 24.0013 13.3212 23.9286L14.8713 23.0159C15.0055 22.9369 15.0419 22.7565 14.9469 22.633Z" fill="#F7F0E6"/>
<path d="M12.6403 19.9868L10.0765 20.3267C9.79336 20.3643 9.53338 20.1651 9.49582 19.8819L9.15592 17.3182C9.11836 17.035 9.31752 16.775 9.6007 16.7375L12.1645 16.3976C12.4477 16.36 12.7076 16.5592 12.7452 16.8423L13.0851 19.4061C13.1226 19.6893 12.9235 19.9493 12.6403 19.9868Z" fill="white"/>
<path d="M17.1847 13.592L15.1237 12.6932C14.8618 12.579 14.742 12.2742 14.8562 12.0124L15.7549 9.9513C15.8691 9.68944 16.174 9.56967 16.4358 9.68387L18.4969 10.5826C18.7588 10.6968 18.8785 11.0016 18.7643 11.2634L17.8656 13.3245C17.7514 13.5864 17.4466 13.7062 17.1847 13.592Z" fill="white"/>
<path d="M12.4134 15C12.3149 15 12.2153 14.9717 12.127 14.9131L10.5752 13.8786C10.3373 13.72 10.2732 13.3993 10.4318 13.1613C10.5898 12.9234 10.9106 12.8593 11.1491 13.0178L12.7008 14.0523C12.9387 14.2109 13.0028 14.5316 12.8443 14.7696C12.7447 14.9192 12.5806 15 12.4134 15Z" fill="url(#paint1_linear)"/>
<path d="M12.9313 12.9311C12.6454 12.9311 12.4141 12.6997 12.4141 12.4138V11.3793C12.4141 11.0934 12.6454 10.8621 12.9313 10.8621C13.2173 10.8621 13.4486 11.0934 13.4486 11.3793V12.4138C13.4485 12.6997 13.2172 12.9311 12.9313 12.9311Z" fill="#90CD28"/>
<path d="M14.9998 19.1379H14.9948C14.7089 19.1379 14.4775 18.9066 14.4775 18.6207C14.4775 18.3348 14.7089 18.1034 14.9948 18.1034C15.2807 18.1034 15.5146 18.3347 15.5146 18.6207C15.5146 18.9066 15.2857 19.1379 14.9998 19.1379Z" fill="#F7F0E6"/>
<path d="M20.1725 8.79307C20.0401 8.79307 19.9078 8.74257 19.8068 8.64155C19.6048 8.43952 19.6048 8.11215 19.8068 7.91012L20.3241 7.39286C20.5261 7.19083 20.8535 7.19083 21.0555 7.39286C21.2575 7.59489 21.2575 7.92225 21.0555 8.12428L20.5382 8.64155C20.4371 8.74257 20.3048 8.79307 20.1725 8.79307Z" fill="url(#paint2_linear)"/>
<path d="M22.7587 11.8965C22.6263 11.8965 22.494 11.846 22.393 11.745L21.3586 10.7105C21.1565 10.5085 21.1565 10.1811 21.3586 9.9791C21.5606 9.77707 21.8879 9.77707 22.09 9.9791L23.1244 11.0136C23.3265 11.2156 23.3265 11.543 23.1244 11.745C23.0234 11.8461 22.8911 11.8965 22.7587 11.8965Z" fill="#F7F0E6"/>
<path d="M22.7584 19.6551C22.6261 19.6551 22.4937 19.6046 22.3927 19.5036C22.1907 19.3016 22.1907 18.9742 22.3927 18.7722L23.4272 17.7377C23.6292 17.5357 23.9566 17.5357 24.1586 17.7377C24.3607 17.9397 24.3607 18.2671 24.1586 18.4691L23.1242 19.5036C23.0231 19.6046 22.8908 19.6551 22.7584 19.6551Z" fill="url(#paint3_linear)"/>
<path d="M19.66 17.5862H19.655C19.3691 17.5862 19.1377 17.3548 19.1377 17.0689C19.1377 16.783 19.369 16.5516 19.655 16.5516C19.9409 16.5516 20.1747 16.783 20.1747 17.0689C20.1747 17.3548 19.9459 17.5862 19.66 17.5862Z" fill="#90CD28"/>
<path d="M18.1034 8.2758H18.0983C17.8124 8.2758 17.5811 8.04447 17.5811 7.75854C17.5811 7.47266 17.8124 7.24127 18.0983 7.24127C18.3842 7.24127 18.6181 7.4726 18.6181 7.75854C18.618 8.04447 18.3892 8.2758 18.1034 8.2758Z" fill="#90CD28"/>
<path d="M11.8963 6.20689H11.8913C11.6054 6.20689 11.374 5.97557 11.374 5.68963C11.374 5.40375 11.6054 5.17236 11.8913 5.17236C12.1772 5.17236 12.4111 5.40369 12.4111 5.68963C12.4111 5.97557 12.1823 6.20689 11.8963 6.20689Z" fill="#F7F0E6"/>
<path d="M9.82744 23.2759C9.69508 23.2759 9.56272 23.2254 9.46176 23.1243L8.94449 22.6071C8.74246 22.405 8.74246 22.0777 8.94449 21.8756C9.14652 21.6736 9.47389 21.6736 9.67592 21.8756L10.1932 22.3929C10.3952 22.5949 10.3952 22.9223 10.1932 23.1243C10.0922 23.2254 9.9598 23.2759 9.82744 23.2759Z" fill="#90CD28"/>
<path d="M6.20672 15C5.92084 15 5.68945 14.7686 5.68945 14.4827V13.4482C5.68945 13.1624 5.92078 12.931 6.20672 12.931C6.4926 12.931 6.72398 13.1623 6.72398 13.4482V14.4827C6.72398 14.7686 6.4926 15 6.20672 15Z" fill="#F7F0E6"/>
<path d="M17.6939 19.2441C17.6892 19.2187 17.6967 19.1949 17.6952 19.1699H17.069C16.7834 19.1699 16.5518 19.4015 16.5518 19.6871V23.2721C16.5518 23.5826 16.8246 23.8275 17.1327 23.7892C17.5995 23.731 18.043 23.6004 18.4563 23.4146L17.6939 19.2441Z" fill="#F7F0E6"/>
<path d="M10.7984 16.5786L9.6007 16.7374C9.31752 16.775 9.11836 17.0349 9.15592 17.3181L9.49582 19.8819C9.53338 20.1651 9.79336 20.3642 10.0765 20.3267L10.2727 20.3007L10.7984 16.5786Z" fill="#F7F0E6"/>
<path d="M16.6263 9.98212C16.6338 9.91357 16.6555 9.85029 16.6863 9.79316L16.4357 9.68388C16.1739 9.56968 15.869 9.68939 15.7549 9.9513L14.8562 12.0124C14.742 12.2743 14.8618 12.5791 15.1237 12.6933L16.277 13.1962L16.6263 9.98212Z" fill="#F7F0E6"/>
<path d="M16.5517 17.069C17.4087 17.069 18.1035 16.3743 18.1035 15.5173C18.1035 14.6603 17.4087 13.9655 16.5517 13.9655C15.6947 13.9655 15 14.6603 15 15.5173C15 16.3743 15.6947 17.069 16.5517 17.069Z" fill="url(#paint4_linear)"/>
<path d="M17.3276 16.2931C16.4706 16.2931 15.7758 15.5984 15.7758 14.7414C15.7758 14.514 15.8275 14.2996 15.9154 14.105C15.3765 14.3483 15 14.8876 15 15.5173C15 16.3743 15.6947 17.069 16.5517 17.069C17.1813 17.069 17.7206 16.6925 17.964 16.1536C17.7694 16.2415 17.555 16.2931 17.3276 16.2931Z" fill="#E88D24"/>
<path d="M7.75859 18.1034C8.32992 18.1034 8.79307 17.6402 8.79307 17.0689C8.79307 16.4976 8.32992 16.0344 7.75859 16.0344C7.18727 16.0344 6.72412 16.4976 6.72412 17.0689C6.72412 17.6402 7.18727 18.1034 7.75859 18.1034Z" fill="url(#paint5_linear)"/>
<path d="M8.2758 17.5862C7.70445 17.5862 7.24133 17.1231 7.24133 16.5517C7.24133 16.4001 7.27572 16.2572 7.33432 16.1274C6.97514 16.2897 6.72412 16.6492 6.72412 17.0689C6.72412 17.6403 7.18725 18.1034 7.75859 18.1034C8.17836 18.1034 8.53789 17.8523 8.70008 17.4932C8.57035 17.5518 8.42744 17.5862 8.2758 17.5862Z" fill="#E88D24"/>
<path d="M15.5174 7.75864C16.0887 7.75864 16.5519 7.29549 16.5519 6.72417C16.5519 6.15285 16.0887 5.6897 15.5174 5.6897C14.9461 5.6897 14.4829 6.15285 14.4829 6.72417C14.4829 7.29549 14.9461 7.75864 15.5174 7.75864Z" fill="url(#paint6_linear)"/>
<path d="M16.0346 7.24134C15.4632 7.24134 15.0001 6.77822 15.0001 6.20687C15.0001 6.05523 15.0345 5.91238 15.0931 5.78259C14.7339 5.94484 14.4829 6.30437 14.4829 6.72408C14.4829 7.29543 14.946 7.75855 15.5174 7.75855C15.9371 7.75855 16.2967 7.50748 16.4589 7.14836C16.3291 7.20695 16.1862 7.24134 16.0346 7.24134Z" fill="#E88D24"/>
<defs>
<linearGradient id="paint0_linear" x1="25.887" y1="6.5323" x2="8.46768" y2="25.4033" gradientUnits="userSpaceOnUse">
<stop stop-color="#FFC350"/>
<stop offset="1" stop-color="#F8AB1E"/>
</linearGradient>
<linearGradient id="paint1_linear" x1="11.638" y1="12.9308" x2="11.638" y2="15" gradientUnits="userSpaceOnUse">
<stop stop-color="#CE763C"/>
<stop offset="1" stop-color="#EFB060"/>
</linearGradient>
<linearGradient id="paint2_linear" x1="20.4311" y1="7.24133" x2="20.4311" y2="8.79307" gradientUnits="userSpaceOnUse">
<stop stop-color="#CE763C"/>
<stop offset="1" stop-color="#EFB060"/>
</linearGradient>
<linearGradient id="paint3_linear" x1="23.2757" y1="17.5862" x2="23.2757" y2="19.6551" gradientUnits="userSpaceOnUse">
<stop stop-color="#CE763C"/>
<stop offset="1" stop-color="#EFB060"/>
</linearGradient>
<linearGradient id="paint4_linear" x1="16.5517" y1="13.9655" x2="16.5517" y2="17.069" gradientUnits="userSpaceOnUse">
<stop stop-color="#FAF120"/>
<stop offset="1" stop-color="#F6DD0F"/>
</linearGradient>
<linearGradient id="paint5_linear" x1="7.75859" y1="16.0344" x2="7.75859" y2="18.1034" gradientUnits="userSpaceOnUse">
<stop stop-color="#FAF120"/>
<stop offset="1" stop-color="#F6DD0F"/>
</linearGradient>
<linearGradient id="paint6_linear" x1="15.5174" y1="5.6897" x2="15.5174" y2="7.75864" gradientUnits="userSpaceOnUse">
<stop stop-color="#FAF120"/>
<stop offset="1" stop-color="#F6DD0F"/>
</linearGradient>
</defs>
</svg>
