<svg width="30" height="30" viewBox="0 0 30 30" fill="none" xmlns="http://www.w3.org/2000/svg">
<g clip-path="url(#clip0)">
<path d="M25.6977 10.698C25.6977 16.6064 4.30176 16.6064 4.30176 10.698C4.30176 4.78965 9.09135 0 14.9997 0C20.9081 0 25.6977 4.78965 25.6977 10.698Z" fill="url(#paint0_linear)"/>
<path d="M14.9998 0C14.6019 0 14.2093 0.0224118 13.8228 0.0647647C15.6535 0.265177 17.3451 0.927589 18.7791 1.93265C18.5231 1.96871 18.2934 2.07341 18.1157 2.25112C17.5453 2.82153 17.7263 3.92736 18.5199 4.72106C19.3136 5.51477 20.4195 5.69571 20.9899 5.1253C21.1758 4.93941 21.2813 4.69647 21.3125 4.42618C22.5901 6.1883 23.3437 8.35501 23.3437 10.6981C23.3437 13.4351 18.7519 14.904 13.8228 15.1052C19.5338 15.3382 25.6978 13.8694 25.6978 10.6981C25.6978 4.78965 20.9082 0 14.9998 0V0Z" fill="url(#paint1_linear)"/>
<path d="M15 12.7433C14.8913 12.7433 14.7808 12.7259 14.6721 12.6894C14.1332 12.5083 13.8431 11.9247 14.0241 11.3857L16.093 5.22616C16.435 4.20792 17.1839 3.35186 18.1477 2.87757L20.7806 1.58174C21.2907 1.33057 21.9078 1.54063 22.1588 2.0508C22.4099 2.56086 22.1999 3.17792 21.6898 3.42898L19.0568 4.7248C18.5821 4.95851 18.2132 5.38016 18.0446 5.88174L15.9757 12.0413C15.8312 12.4716 15.4301 12.7433 15 12.7433Z" fill="url(#paint2_linear)"/>
<path d="M22.1589 2.05077C21.9079 1.54065 21.2909 1.33059 20.7808 1.58171L20.4543 1.74236C20.5482 1.82724 20.6284 1.9303 20.6877 2.05071C20.9388 2.56077 20.7288 3.17783 20.2186 3.42888L18.2449 4.4003C17.9324 3.97606 17.7728 3.50271 17.7838 3.08147C17.2556 3.41412 16.81 3.86741 16.4835 4.39712C16.5163 4.47418 16.5539 4.55094 16.5961 4.62688C16.7833 4.96347 16.7911 5.36671 16.6364 5.71941C16.6131 5.77241 16.5921 5.82659 16.5736 5.88171L14.5047 12.0413C14.4536 12.1935 14.3699 12.3253 14.2646 12.4328C14.3749 12.5458 14.5124 12.6356 14.6723 12.6894C14.781 12.7259 14.8915 12.7432 15.0002 12.7432C15.4303 12.7432 15.8314 12.4715 15.9759 12.0413L18.0448 5.88177C18.2133 5.38018 18.5822 4.95847 19.057 4.72483L21.6899 3.429C22.2 3.17794 22.41 2.56088 22.1589 2.05077Z" fill="url(#paint3_linear)"/>
<path d="M20.5829 30H9.41709C8.67932 30 8.05109 29.4636 7.93556 28.735L4.94727 11.3703H25.0526L22.0643 28.7349C21.9488 29.4636 21.3206 30 20.5829 30Z" fill="url(#paint4_linear)"/>
<path d="M25.0527 11.3704L22.0638 28.7347C21.9485 29.4635 21.3203 30 20.5827 30H18.2285C18.9662 30 19.5944 29.4635 19.7097 28.7347L21.3808 19.6761C21.7737 17.2001 19.8603 14.9592 17.3532 14.9592H5.51619L5.28266 13.4881L4.94678 11.3704H25.0527V11.3704Z" fill="url(#paint5_linear)"/>
<path d="M13.5004 13.0566L11.0285 20.5215C10.8475 21.0604 11.1376 21.644 11.6765 21.8251C11.7852 21.8616 11.8958 21.879 12.0044 21.879C12.4345 21.879 12.8356 21.6073 12.9801 21.177L15.6691 13.0566H13.5004V13.0566Z" fill="url(#paint6_linear)"/>
<path d="M15.6689 13.0566H13.5001L12.8701 14.9592C13.2136 14.9592 13.4563 15.2953 13.3483 15.6213L11.5086 21.177C11.4575 21.3292 11.3738 21.461 11.2686 21.5685C11.3788 21.6815 11.5163 21.7713 11.6762 21.8251C11.7849 21.8616 11.8954 21.8789 12.0041 21.8789C12.4342 21.8789 12.8353 21.6072 12.9798 21.177L15.6689 13.0566Z" fill="url(#paint7_linear)"/>
<path d="M18.7951 17.9875L16.3311 19.4991C13.9448 20.9632 10.9117 20.8464 8.64489 19.2032C8.23189 18.9038 7.66342 19.2546 7.74584 19.758L9.06201 27.7978C9.15913 28.4416 9.68719 28.9156 10.3073 28.9156H19.6925C20.3127 28.9156 20.8407 28.4416 20.9378 27.7978L22.1725 20.2557C22.2889 19.545 22.0559 18.8217 21.5467 18.3125C20.8151 17.5808 19.6771 17.4464 18.7951 17.9875Z" fill="url(#paint8_linear)"/>
<path d="M18.0865 22.9735C17.6588 22.9735 17.312 23.3203 17.312 23.7481C17.312 24.1758 17.6588 24.5226 18.0865 24.5226C18.5143 24.5226 18.8611 24.1758 18.8611 23.7481C18.861 23.3203 18.5143 22.9735 18.0865 22.9735Z" fill="url(#paint9_linear)"/>
<path d="M13.882 21.4245C13.4542 21.4245 13.1074 21.7713 13.1074 22.1991C13.1074 22.6268 13.4542 22.9736 13.882 22.9736C14.3097 22.9736 14.6565 22.6268 14.6565 22.1991C14.6565 21.7712 14.3097 21.4245 13.882 21.4245Z" fill="url(#paint10_linear)"/>
<path d="M12.8185 27.7303C13.6327 27.7303 14.2927 27.0702 14.2927 26.256C14.2927 25.4418 13.6327 24.7818 12.8185 24.7818C12.0043 24.7818 11.3442 25.4418 11.3442 26.256C11.3442 27.0702 12.0043 27.7303 12.8185 27.7303Z" fill="url(#paint11_linear)"/>
<path d="M8.6451 19.2032C8.28463 18.9419 7.80586 19.176 7.74463 19.5744C9.03904 20.3314 10.5252 20.6376 11.9772 20.4822C10.7982 20.3569 9.64674 19.9294 8.6451 19.2032Z" fill="url(#paint12_linear)"/>
<path d="M21.5471 18.3125C20.9308 17.6962 20.0262 17.5037 19.2291 17.7818C19.5403 17.8899 19.8309 18.0676 20.0759 18.3125C20.5851 18.8217 20.818 19.545 20.7017 20.2557L19.467 27.7978C19.3699 28.4416 18.8418 28.9156 18.2217 28.9156H19.6929C20.313 28.9156 20.8411 28.4416 20.9382 27.7978L22.1729 20.2557C22.2892 19.545 22.0563 18.8217 21.5471 18.3125Z" fill="url(#paint13_linear)"/>
<path d="M25.3821 13.4879H4.61779C3.79014 13.4879 3.11914 12.817 3.11914 11.9893V10.7512C3.11914 9.92359 3.79008 9.25259 4.61779 9.25259H25.3821C26.2097 9.25259 26.8807 9.92353 26.8807 10.7512V11.9893C26.8807 12.817 26.2098 13.4879 25.3821 13.4879Z" fill="url(#paint14_linear)"/>
<path d="M6.26442 10.6151C6.02089 10.6151 5.82324 10.8127 5.82324 11.0563V13.488H6.7056V11.0563C6.7056 10.8127 6.50795 10.6151 6.26442 10.6151Z" fill="url(#paint15_linear)"/>
<path d="M8.76442 10.6151C8.52089 10.6151 8.32324 10.8127 8.32324 11.0563V13.488H9.2056V11.0563C9.2056 10.8127 9.00795 10.6151 8.76442 10.6151Z" fill="url(#paint16_linear)"/>
<path d="M11.2644 10.6151C11.0209 10.6151 10.8232 10.8127 10.8232 11.0563V13.488H11.7056V11.0563C11.7056 10.8127 11.5079 10.6151 11.2644 10.6151Z" fill="url(#paint17_linear)"/>
<path d="M13.7644 10.6151C13.5209 10.6151 13.3232 10.8127 13.3232 11.0563V13.488H14.2056V11.0563C14.2056 10.8127 14.0079 10.6151 13.7644 10.6151Z" fill="url(#paint18_linear)"/>
<path d="M16.2644 10.6151C16.0209 10.6151 15.8232 10.8127 15.8232 11.0563V13.488H16.7056V11.0563C16.7056 10.8127 16.5079 10.6151 16.2644 10.6151Z" fill="url(#paint19_linear)"/>
<path d="M18.7351 10.6151C18.4916 10.6151 18.2939 10.8127 18.2939 11.0563V13.488H19.1763V11.0563C19.1763 10.8127 18.9786 10.6151 18.7351 10.6151Z" fill="url(#paint20_linear)"/>
<path d="M21.2351 10.6151C20.9916 10.6151 20.7939 10.8127 20.7939 11.0563V13.488H21.6763V11.0563C21.6763 10.8127 21.4786 10.6151 21.2351 10.6151Z" fill="url(#paint21_linear)"/>
<path d="M25.3819 9.25266H23.0278C23.8555 9.25266 24.5265 9.9236 24.5265 10.7513V11.9894C24.5265 12.0155 24.5258 12.0415 24.5245 12.0674C24.513 12.2908 24.1763 12.2777 24.1763 12.054V11.0712C24.1763 10.8469 24.0152 10.6469 23.7927 10.6188C23.5235 10.5847 23.294 10.7938 23.294 11.0563V13.2184C23.294 13.3648 23.1771 13.4877 23.0306 13.488C23.0297 13.488 23.0288 13.488 23.0279 13.488H25.382C26.2097 13.488 26.8807 12.8171 26.8807 11.9894V10.7513C26.8805 9.9236 26.2096 9.25266 25.3819 9.25266Z" fill="url(#paint22_linear)"/>
</g>
<defs>
<linearGradient id="paint0_linear" x1="3.35852" y1="7.56459" x2="17.0346" y2="7.56459" gradientUnits="userSpaceOnUse">
<stop stop-color="#F8F6F7"/>
<stop offset="0.1788" stop-color="#F8F6F7"/>
<stop offset="1" stop-color="#E7E6F5"/>
</linearGradient>
<linearGradient id="paint1_linear" x1="-3.9645" y1="7.56448" x2="25.3665" y2="7.56448" gradientUnits="userSpaceOnUse">
<stop stop-color="#F8F6F7"/>
<stop offset="1" stop-color="#D1CEEB"/>
</linearGradient>
<linearGradient id="paint2_linear" x1="12.2352" y1="7.10945" x2="23.681" y2="7.10945" gradientUnits="userSpaceOnUse">
<stop stop-color="#FEF056"/>
<stop offset="0.5213" stop-color="#F4D902"/>
<stop offset="1" stop-color="#FE9738"/>
</linearGradient>
<linearGradient id="paint3_linear" x1="5.76477" y1="7.10947" x2="23.2999" y2="7.10947" gradientUnits="userSpaceOnUse">
<stop stop-color="#FEF056"/>
<stop offset="0.5213" stop-color="#F4D902"/>
<stop offset="1" stop-color="#FE9738"/>
</linearGradient>
<linearGradient id="paint4_linear" x1="4.94727" y1="20.6852" x2="27.5757" y2="20.6852" gradientUnits="userSpaceOnUse">
<stop stop-color="#F8F6F7"/>
<stop offset="0.1788" stop-color="#F8F6F7"/>
<stop offset="1" stop-color="#E7E6F5"/>
</linearGradient>
<linearGradient id="paint5_linear" x1="-6.76499" y1="20.6852" x2="24.7076" y2="20.6852" gradientUnits="userSpaceOnUse">
<stop stop-color="#F8F6F7"/>
<stop offset="1" stop-color="#D1CEEB"/>
</linearGradient>
<linearGradient id="paint6_linear" x1="9.99264" y1="17.4678" x2="16.4707" y2="17.4678" gradientUnits="userSpaceOnUse">
<stop stop-color="#FEF056"/>
<stop offset="0.5213" stop-color="#F4D902"/>
<stop offset="1" stop-color="#FE9738"/>
</linearGradient>
<linearGradient id="paint7_linear" x1="7.20591" y1="17.4678" x2="17.4829" y2="17.4678" gradientUnits="userSpaceOnUse">
<stop stop-color="#FEF056"/>
<stop offset="0.5213" stop-color="#F4D902"/>
<stop offset="1" stop-color="#FE9738"/>
</linearGradient>
<linearGradient id="paint8_linear" x1="7.7646" y1="23.2864" x2="26.4156" y2="23.2864" gradientUnits="userSpaceOnUse">
<stop stop-color="#60B7FF"/>
<stop offset="0.5857" stop-color="#0182FC"/>
<stop offset="1" stop-color="#2740B0"/>
</linearGradient>
<linearGradient id="paint9_linear" x1="12.7652" y1="23.7481" x2="26.6347" y2="23.7481" gradientUnits="userSpaceOnUse">
<stop stop-color="#60B7FF"/>
<stop offset="0.5857" stop-color="#0182FC"/>
<stop offset="1" stop-color="#2740B0"/>
</linearGradient>
<linearGradient id="paint10_linear" x1="12.7647" y1="22.199" x2="26.6341" y2="22.199" gradientUnits="userSpaceOnUse">
<stop stop-color="#60B7FF"/>
<stop offset="0.5857" stop-color="#0182FC"/>
<stop offset="1" stop-color="#2740B0"/>
</linearGradient>
<linearGradient id="paint11_linear" x1="12.765" y1="26.256" x2="26.6345" y2="26.256" gradientUnits="userSpaceOnUse">
<stop stop-color="#60B7FF"/>
<stop offset="0.5857" stop-color="#0182FC"/>
<stop offset="1" stop-color="#2740B0"/>
</linearGradient>
<linearGradient id="paint12_linear" x1="3.76481" y1="19.8072" x2="25.527" y2="19.8072" gradientUnits="userSpaceOnUse">
<stop stop-color="#60B7FF"/>
<stop offset="0.5857" stop-color="#0182FC"/>
<stop offset="1" stop-color="#2740B0"/>
</linearGradient>
<linearGradient id="paint13_linear" x1="3.76496" y1="23.2864" x2="25.5272" y2="23.2864" gradientUnits="userSpaceOnUse">
<stop stop-color="#60B7FF"/>
<stop offset="0.5857" stop-color="#0182FC"/>
<stop offset="1" stop-color="#2740B0"/>
</linearGradient>
<linearGradient id="paint14_linear" x1="3.1192" y1="11.3703" x2="29.8626" y2="11.3703" gradientUnits="userSpaceOnUse">
<stop stop-color="#F8F6F7"/>
<stop offset="0.1788" stop-color="#F8F6F7"/>
<stop offset="1" stop-color="#E7E6F5"/>
</linearGradient>
<linearGradient id="paint15_linear" x1="0.274237" y1="12.0516" x2="21.422" y2="12.0516" gradientUnits="userSpaceOnUse">
<stop stop-color="#F8F6F7"/>
<stop offset="1" stop-color="#D1CEEB"/>
</linearGradient>
<linearGradient id="paint16_linear" x1="0.274217" y1="12.0516" x2="21.422" y2="12.0516" gradientUnits="userSpaceOnUse">
<stop stop-color="#F8F6F7"/>
<stop offset="1" stop-color="#D1CEEB"/>
</linearGradient>
<linearGradient id="paint17_linear" x1="0.274232" y1="12.0516" x2="21.422" y2="12.0516" gradientUnits="userSpaceOnUse">
<stop stop-color="#F8F6F7"/>
<stop offset="1" stop-color="#D1CEEB"/>
</linearGradient>
<linearGradient id="paint18_linear" x1="0.274216" y1="12.0516" x2="21.422" y2="12.0516" gradientUnits="userSpaceOnUse">
<stop stop-color="#F8F6F7"/>
<stop offset="1" stop-color="#D1CEEB"/>
</linearGradient>
<linearGradient id="paint19_linear" x1="0.274362" y1="12.0516" x2="21.422" y2="12.0516" gradientUnits="userSpaceOnUse">
<stop stop-color="#F8F6F7"/>
<stop offset="1" stop-color="#D1CEEB"/>
</linearGradient>
<linearGradient id="paint20_linear" x1="0.274554" y1="12.0516" x2="21.4221" y2="12.0516" gradientUnits="userSpaceOnUse">
<stop stop-color="#F8F6F7"/>
<stop offset="1" stop-color="#D1CEEB"/>
</linearGradient>
<linearGradient id="paint21_linear" x1="0.274582" y1="12.0516" x2="21.4221" y2="12.0516" gradientUnits="userSpaceOnUse">
<stop stop-color="#F8F6F7"/>
<stop offset="1" stop-color="#D1CEEB"/>
</linearGradient>
<linearGradient id="paint22_linear" x1="0.274316" y1="11.3703" x2="21.4221" y2="11.3703" gradientUnits="userSpaceOnUse">
<stop stop-color="#F8F6F7"/>
<stop offset="1" stop-color="#D1CEEB"/>
</linearGradient>
<clipPath id="clip0">
<rect width="30" height="30" fill="white"/>
</clipPath>
</defs>
</svg>
