<svg width="30" height="30" viewBox="0 0 30 30" fill="none" xmlns="http://www.w3.org/2000/svg">
<path d="M26.0787 17.2235L16.7028 0.982942C15.9458 -0.327647 14.054 -0.327647 13.2969 0.982942L3.92105 17.2235L1.7334 21.0118C4.3781 24.2747 9.32869 26.4706 14.9999 26.4706C20.671 26.4706 25.6216 24.2747 28.2663 21.0118L26.0787 17.2235Z" fill="url(#paint0_linear)"/>
<path d="M13.6908 16.84C13.6908 13.8412 11.2602 11.4106 8.26196 11.4106C7.9049 11.4106 7.55666 11.4447 7.21902 11.5112L3.92137 17.2235L3.12549 18.6018C3.85725 20.7353 5.88019 22.2688 8.26196 22.2688C11.2602 22.2688 13.6908 19.8382 13.6908 16.84Z" fill="url(#paint1_linear)"/>
<path d="M13.2559 9.33684C14.7712 9.33684 15.9996 8.10844 15.9996 6.59313C15.9996 5.07783 14.7712 3.84943 13.2559 3.84943C11.7406 3.84943 10.5122 5.07783 10.5122 6.59313C10.5122 8.10844 11.7406 9.33684 13.2559 9.33684Z" fill="url(#paint2_linear)"/>
<path d="M26.0787 17.2235L16.7029 0.982937C16.1183 -0.029004 14.8576 -0.258828 13.9648 0.291937L21.815 13.8898C21.6242 13.8644 21.4299 13.8501 21.2322 13.8501C18.8099 13.8501 16.8463 15.8136 16.8463 18.2359C16.8463 19.3781 17.283 20.418 17.9986 21.1981C18.922 22.2049 18.4709 23.8276 17.1516 24.1825C15.4703 24.6348 13.6477 24.8824 11.7439 24.8824C9.24497 24.8824 6.88615 24.4558 4.80273 23.6997C7.50985 25.4229 11.0829 26.4706 14.9999 26.4706C20.6711 26.4706 25.6217 24.2747 28.2664 21.0118L26.0787 17.2235Z" fill="url(#paint3_linear)"/>
<path d="M28.0877 19.1005C27.5331 19.1005 27.0141 19.3815 26.718 19.8505C24.5159 23.3386 20.0951 25.7203 15 25.7203C9.90497 25.7203 5.4842 23.3386 3.28209 19.8506C2.98597 19.3816 2.46703 19.1006 1.91232 19.1006C0.616204 19.1006 -0.309031 20.3668 0.0963221 21.5979C1.68191 26.4139 7.75279 30 15 30C22.2473 30 28.3181 26.4139 29.9037 21.5979C30.309 20.3668 29.3839 19.1005 28.0877 19.1005Z" fill="url(#paint4_linear)"/>
<path d="M15.0763 29.5686C15.5041 29.5686 15.8508 29.2219 15.8508 28.7941C15.8508 28.3664 15.5041 28.0196 15.0763 28.0196C14.6485 28.0196 14.3018 28.3664 14.3018 28.7941C14.3018 29.2219 14.6485 29.5686 15.0763 29.5686Z" fill="url(#paint5_linear)"/>
<path d="M10.8722 26.4706C10.4444 26.4706 10.0977 26.8173 10.0977 27.2451C10.0977 27.6729 10.4444 28.0196 10.8722 28.0196C11.3 28.0196 11.6467 27.6729 11.6467 27.2451C11.6467 26.8173 11.3 26.4706 10.8722 26.4706Z" fill="url(#paint6_linear)"/>
<path d="M3.28768 19.8596C2.98903 19.3877 2.47068 19.1005 1.91215 19.1005C1.43568 19.1005 1.00968 19.2721 0.681152 19.5496C0.774152 19.6386 0.857446 19.7391 0.927799 19.8505C2.10792 21.7198 3.92545 23.2711 6.14227 24.3086C5.70615 24.5857 5.42527 25.0852 5.46033 25.6478C5.50609 26.3818 6.10345 26.9791 6.83745 27.0248C7.69427 27.078 8.4058 26.3988 8.4058 25.5535C8.4058 25.552 8.4058 25.5505 8.4058 25.5491C8.40521 25.347 8.59003 25.1979 8.78598 25.2473C10.0069 25.5549 11.3029 25.7205 12.6457 25.7205C13.0424 25.7205 13.435 25.706 13.8228 25.6777C9.23421 25.3431 5.31998 23.0713 3.28768 19.8596Z" fill="url(#paint7_linear)"/>
<path d="M28.0875 19.1005C27.6646 19.1005 27.2628 19.2642 26.9643 19.5496C27.5295 20.0272 27.8056 20.8193 27.5493 21.5978C27.019 23.2085 25.9865 24.6812 24.5766 25.9285C24.2722 25.5037 23.7586 25.2389 23.1862 25.286C22.4398 25.3473 21.8358 25.9512 21.7736 26.6976C21.773 26.7046 21.7725 26.7116 21.772 26.7186C21.7196 27.4658 21.2666 28.1255 20.579 28.4228C18.581 29.2867 16.2833 29.8343 13.8228 29.9676C14.2113 29.9886 14.6036 30 14.9998 30C22.247 30 28.3179 26.4139 29.9035 21.5979C30.3088 20.3668 29.3836 19.1005 28.0875 19.1005Z" fill="url(#paint8_linear)"/>
<path d="M9.7332 21.2965C12.7316 21.2965 15.1622 18.8658 15.1622 15.8675C15.1622 12.8691 12.7316 10.4385 9.7332 10.4385C6.73485 10.4385 4.3042 12.8691 4.3042 15.8675C4.3042 18.8658 6.73485 21.2965 9.7332 21.2965Z" fill="url(#paint9_linear)"/>
<path d="M9.73353 10.4385C9.40094 10.4385 9.07588 10.47 8.75977 10.5273C11.2932 10.9864 13.215 13.2018 13.215 15.8675C13.215 16.7357 13.0101 17.5554 12.6477 18.283C12.4641 17.456 11.7028 16.8464 10.8088 16.9005C9.94006 16.953 9.22512 17.6509 9.15365 18.5183C9.11612 18.974 9.25118 19.3972 9.50053 19.7299C9.89647 20.258 9.61865 21.0204 8.97447 21.1643C8.90341 21.1802 8.83182 21.1947 8.75977 21.2077C9.07582 21.265 9.40094 21.2965 9.73353 21.2965C12.7319 21.2965 15.1625 18.8659 15.1625 15.8675C15.1625 12.8691 12.7318 10.4385 9.73353 10.4385Z" fill="url(#paint10_linear)"/>
<path d="M6.98837 16.8972C7.62269 16.8972 8.1369 16.3829 8.1369 15.7486C8.1369 15.1143 7.62269 14.6001 6.98837 14.6001C6.35406 14.6001 5.83984 15.1143 5.83984 15.7486C5.83984 16.3829 6.35406 16.8972 6.98837 16.8972Z" fill="url(#paint11_linear)"/>
<path d="M22.7037 21.6494C25.1259 21.6494 27.0895 19.6858 27.0895 17.2636C27.0895 14.8413 25.1259 12.8777 22.7037 12.8777C20.2815 12.8777 18.3179 14.8413 18.3179 17.2636C18.3179 19.6858 20.2815 21.6494 22.7037 21.6494Z" fill="url(#paint12_linear)"/>
<path d="M22.7036 12.8777C22.4349 12.8777 22.1723 12.9032 21.917 12.9495C23.9636 13.3203 25.5162 15.11 25.5162 17.2635C25.5162 17.9649 25.3506 18.6271 25.0579 19.2148C24.9095 18.5467 24.2945 18.0543 23.5723 18.098C22.8705 18.1404 22.2929 18.7042 22.2352 19.4049C22.2048 19.773 22.3139 20.115 22.5154 20.3837C22.8353 20.8103 22.6108 21.4262 22.0904 21.5425C22.033 21.5553 21.9752 21.567 21.917 21.5776C22.1723 21.6239 22.4349 21.6493 22.7036 21.6493C25.1258 21.6493 27.0895 19.6857 27.0895 17.2635C27.0894 14.8413 25.1258 12.8777 22.7036 12.8777Z" fill="url(#paint13_linear)"/>
<path d="M21.776 17.1675C22.2884 17.1675 22.7038 16.7521 22.7038 16.2397C22.7038 15.7272 22.2884 15.3118 21.776 15.3118C21.2635 15.3118 20.8481 15.7272 20.8481 16.2397C20.8481 16.7521 21.2635 17.1675 21.776 17.1675Z" fill="url(#paint14_linear)"/>
<path d="M14.7271 8.36552C16.2424 8.36552 17.4708 7.13712 17.4708 5.62182C17.4708 4.10651 16.2424 2.87811 14.7271 2.87811C13.2118 2.87811 11.9834 4.10651 11.9834 5.62182C11.9834 7.13712 13.2118 8.36552 14.7271 8.36552Z" fill="url(#paint15_linear)"/>
<path d="M14.7268 2.87714C14.4719 2.87714 14.2254 2.91267 13.9912 2.97767C15.1492 3.29931 15.9993 4.36043 15.9993 5.62084C15.9993 6.88125 15.1492 7.94237 13.9912 8.26402C14.2254 8.32908 14.4719 8.36455 14.7268 8.36455C16.2421 8.36455 17.4705 7.13614 17.4705 5.62084C17.4705 4.10555 16.2421 2.87714 14.7268 2.87714Z" fill="url(#paint16_linear)"/>
<path d="M17.3787 12.2672C16.2094 12.2672 15.1192 11.6381 14.5339 10.6252C14.3306 10.2736 14.4509 9.82383 14.8025 9.62065C15.1541 9.4173 15.6039 9.53777 15.8071 9.8893C16.1305 10.4489 16.7328 10.7967 17.3787 10.7967C18.0246 10.7967 18.6269 10.449 18.9503 9.88936C19.1535 9.53771 19.6032 9.41747 19.9548 9.62065C20.3065 9.82389 20.4267 10.2736 20.2235 10.6252C19.6382 11.6381 18.5481 12.2672 17.3787 12.2672Z" fill="url(#paint17_linear)"/>
<path d="M16.888 22.4364C16.2225 23.3979 15.0847 23.9361 13.9187 23.8409C13.5139 23.8078 13.2126 23.4529 13.2456 23.0482C13.2786 22.6434 13.6336 22.3422 14.0383 22.3752C14.6826 22.4278 15.3112 22.1305 15.6789 21.5994C16.0465 21.0683 16.1035 20.3752 15.8274 19.7908C15.6539 19.4236 15.811 18.9853 16.1782 18.8119C16.5455 18.6384 16.9837 18.7955 17.1571 19.1627C17.6567 20.2205 17.5536 21.4749 16.888 22.4364Z" fill="url(#paint18_linear)"/>
<defs>
<linearGradient id="paint0_linear" x1="1.38981" y1="13.2353" x2="29.0956" y2="13.2353" gradientUnits="userSpaceOnUse">
<stop stop-color="#FEF056"/>
<stop offset="0.5213" stop-color="#F4D902"/>
<stop offset="1" stop-color="#FE9738"/>
</linearGradient>
<linearGradient id="paint1_linear" x1="-4.05863" y1="16.8397" x2="23.8511" y2="16.8397" gradientUnits="userSpaceOnUse">
<stop stop-color="#FEF056"/>
<stop offset="0.5213" stop-color="#F4D902"/>
<stop offset="1" stop-color="#FE9738"/>
</linearGradient>
<linearGradient id="paint2_linear" x1="-4.05854" y1="6.59313" x2="23.8511" y2="6.59313" gradientUnits="userSpaceOnUse">
<stop stop-color="#FEF056"/>
<stop offset="0.5213" stop-color="#F4D902"/>
<stop offset="1" stop-color="#FE9738"/>
</linearGradient>
<linearGradient id="paint3_linear" x1="-4.05892" y1="13.2356" x2="23.8508" y2="13.2356" gradientUnits="userSpaceOnUse">
<stop stop-color="#FEF056"/>
<stop offset="0.5213" stop-color="#F4D902"/>
<stop offset="1" stop-color="#FE9738"/>
</linearGradient>
<linearGradient id="paint4_linear" x1="1.30173" y1="24.5503" x2="31.8301" y2="24.5503" gradientUnits="userSpaceOnUse">
<stop stop-color="#FEF056"/>
<stop offset="0.5213" stop-color="#FBC56D"/>
<stop offset="1" stop-color="#C86D36"/>
</linearGradient>
<linearGradient id="paint5_linear" x1="-5.13722" y1="28.7941" x2="30.0174" y2="28.7941" gradientUnits="userSpaceOnUse">
<stop stop-color="#FEF056"/>
<stop offset="0.5213" stop-color="#FBC56D"/>
<stop offset="1" stop-color="#C86D36"/>
</linearGradient>
<linearGradient id="paint6_linear" x1="-5.13719" y1="27.2451" x2="30.0173" y2="27.2451" gradientUnits="userSpaceOnUse">
<stop stop-color="#FEF056"/>
<stop offset="0.5213" stop-color="#FBC56D"/>
<stop offset="1" stop-color="#C86D36"/>
</linearGradient>
<linearGradient id="paint7_linear" x1="-5.13738" y1="23.0641" x2="30.017" y2="23.0641" gradientUnits="userSpaceOnUse">
<stop stop-color="#FEF056"/>
<stop offset="0.5213" stop-color="#FBC56D"/>
<stop offset="1" stop-color="#C86D36"/>
</linearGradient>
<linearGradient id="paint8_linear" x1="-5.13748" y1="24.5503" x2="30.0169" y2="24.5503" gradientUnits="userSpaceOnUse">
<stop stop-color="#FEF056"/>
<stop offset="0.5213" stop-color="#FBC56D"/>
<stop offset="1" stop-color="#C86D36"/>
</linearGradient>
<linearGradient id="paint9_linear" x1="4.3042" y1="15.8675" x2="16.3987" y2="15.8675" gradientUnits="userSpaceOnUse">
<stop stop-color="#FE646F"/>
<stop offset="0.593" stop-color="#FB2B3A"/>
<stop offset="1" stop-color="#C41926"/>
</linearGradient>
<linearGradient id="paint10_linear" x1="-3.64648" y1="15.8675" x2="14.9398" y2="15.8675" gradientUnits="userSpaceOnUse">
<stop stop-color="#FE646F"/>
<stop offset="0.593" stop-color="#FB2B3A"/>
<stop offset="1" stop-color="#C41926"/>
</linearGradient>
<linearGradient id="paint11_linear" x1="-3.64645" y1="15.7486" x2="14.9398" y2="15.7486" gradientUnits="userSpaceOnUse">
<stop stop-color="#FE646F"/>
<stop offset="0.593" stop-color="#FB2B3A"/>
<stop offset="1" stop-color="#C41926"/>
</linearGradient>
<linearGradient id="paint12_linear" x1="18.3179" y1="17.2636" x2="28.0885" y2="17.2636" gradientUnits="userSpaceOnUse">
<stop stop-color="#FE646F"/>
<stop offset="0.593" stop-color="#FB2B3A"/>
<stop offset="1" stop-color="#C41926"/>
</linearGradient>
<linearGradient id="paint13_linear" x1="13.4512" y1="17.2636" x2="26.0847" y2="17.2636" gradientUnits="userSpaceOnUse">
<stop stop-color="#FE646F"/>
<stop offset="0.593" stop-color="#FB2B3A"/>
<stop offset="1" stop-color="#C41926"/>
</linearGradient>
<linearGradient id="paint14_linear" x1="13.4513" y1="16.2396" x2="26.0848" y2="16.2396" gradientUnits="userSpaceOnUse">
<stop stop-color="#FE646F"/>
<stop offset="0.593" stop-color="#FB2B3A"/>
<stop offset="1" stop-color="#C41926"/>
</linearGradient>
<linearGradient id="paint15_linear" x1="11.9834" y1="5.62182" x2="18.9336" y2="5.62182" gradientUnits="userSpaceOnUse">
<stop stop-color="#FE646F"/>
<stop offset="0.593" stop-color="#FB2B3A"/>
<stop offset="1" stop-color="#C41926"/>
</linearGradient>
<linearGradient id="paint16_linear" x1="9.19738" y1="5.6209" x2="17.4346" y2="5.6209" gradientUnits="userSpaceOnUse">
<stop stop-color="#FE646F"/>
<stop offset="0.593" stop-color="#FB2B3A"/>
<stop offset="1" stop-color="#C41926"/>
</linearGradient>
<linearGradient id="paint17_linear" x1="12.6112" y1="10.8945" x2="21.9461" y2="10.8945" gradientUnits="userSpaceOnUse">
<stop stop-color="#A2E62E"/>
<stop offset="0.5857" stop-color="#81B823"/>
<stop offset="1" stop-color="#037E73"/>
</linearGradient>
<linearGradient id="paint18_linear" x1="12.1961" y1="21.2965" x2="19.0593" y2="21.2965" gradientUnits="userSpaceOnUse">
<stop stop-color="#A2E62E"/>
<stop offset="0.5857" stop-color="#81B823"/>
<stop offset="1" stop-color="#037E73"/>
</linearGradient>
</defs>
</svg>
