<svg width="30" height="30" viewBox="0 0 30 30" fill="none" xmlns="http://www.w3.org/2000/svg">
<g clip-path="url(#clip0)">
<path d="M14.9999 17.0154C19.6986 17.0154 23.5076 13.2064 23.5076 8.5077C23.5076 3.80903 19.6986 0 14.9999 0C10.3012 0 6.49219 3.80903 6.49219 8.5077C6.49219 13.2064 10.3012 17.0154 14.9999 17.0154Z" fill="url(#paint0_linear)"/>
<path d="M14.9998 0C14.6003 0 14.2075 0.0281765 13.8228 0.0814117C17.9643 0.654706 21.1534 4.20847 21.1534 8.5077C21.1534 12.8069 17.9643 16.3607 13.8228 16.934C14.2076 16.9872 14.6003 17.0154 14.9998 17.0154C19.6985 17.0154 23.5075 13.2063 23.5075 8.5077C23.5075 3.80906 19.6985 0 14.9998 0V0Z" fill="url(#paint1_linear)"/>
<path d="M14.9999 15.2273C18.711 15.2273 21.7194 12.2188 21.7194 8.50767C21.7194 4.79655 18.711 1.78809 14.9999 1.78809C11.2887 1.78809 8.28027 4.79655 8.28027 8.50767C8.28027 12.2188 11.2887 15.2273 14.9999 15.2273Z" fill="url(#paint2_linear)"/>
<path d="M15.066 12.938C15.066 12.8249 15.0411 12.7177 14.9975 12.6208C15.3224 12.5027 15.6274 12.3134 15.8881 12.0527C16.7292 11.2116 16.8274 9.9092 16.1837 8.95938C16.1668 8.37109 15.9344 7.78785 15.4854 7.33885C14.8828 6.7362 14.0384 6.52332 13.2644 6.69897C12.817 6.58967 12.3409 6.6305 11.9146 6.81944C11.6616 6.61514 11.3398 6.49261 10.9894 6.49261C10.1752 6.49261 9.51514 7.15267 9.51514 7.96685C9.51514 8.71214 10.0683 9.32791 10.7864 9.42685C10.7907 9.43926 10.7942 9.45185 10.7988 9.4642C10.2509 10.3411 10.3575 11.5103 11.1199 12.2727C11.7719 12.9247 12.7214 13.0973 13.5313 12.791C13.5221 12.8386 13.5169 12.8877 13.5169 12.938C13.5169 13.3657 13.8637 13.7125 14.2914 13.7125C14.7192 13.7125 15.066 13.3658 15.066 12.938Z" fill="url(#paint3_linear)"/>
<path d="M16.2574 5.26091C16.6852 5.26091 17.032 4.91415 17.032 4.48638C17.032 4.05862 16.6852 3.71185 16.2574 3.71185C15.8297 3.71185 15.4829 4.05862 15.4829 4.48638C15.4829 4.91415 15.8297 5.26091 16.2574 5.26091Z" fill="url(#paint4_linear)"/>
<path d="M12.0533 4.68438C12.4811 4.68438 12.8279 4.33761 12.8279 3.90985C12.8279 3.48208 12.4811 3.13531 12.0533 3.13531C11.6256 3.13531 11.2788 3.48208 11.2788 3.90985C11.2788 4.33761 11.6256 4.68438 12.0533 4.68438Z" fill="url(#paint5_linear)"/>
<path d="M14.9542 1.7883C14.5685 1.79089 14.1905 1.82606 13.8228 1.89106C16.9727 2.44759 19.3653 5.19818 19.3653 8.50777C19.3653 9.9796 18.8918 11.3407 18.0892 12.4476C17.8382 12.0731 17.3939 11.8392 16.8989 11.8894C16.2908 11.951 15.8058 12.453 15.7626 13.0626C15.7498 13.2438 15.775 13.4175 15.8312 13.5765C15.9805 13.9998 15.7919 14.4637 15.3821 14.6466C14.8907 14.866 14.3681 15.0281 13.8228 15.1244C14.2049 15.192 14.5982 15.2273 14.9998 15.2273C18.7337 15.2273 21.7562 12.1819 21.719 8.43942C21.6825 4.75512 18.6386 1.76365 14.9542 1.7883Z" fill="url(#paint6_linear)"/>
<path d="M16.339 5.76189C15.4472 4.52712 13.7233 4.24906 12.4886 5.14089C11.2538 6.03265 10.9757 7.75659 11.8676 8.9913C12.7593 10.2261 17.2307 6.99665 16.339 5.76189Z" fill="url(#paint7_linear)"/>
<path d="M18.2108 7.27598C17.2727 5.97715 12.5693 9.37416 13.5073 10.673C14.4454 11.9718 16.2587 12.2643 17.5576 11.3262C18.8564 10.3882 19.1489 8.5748 18.2108 7.27598Z" fill="url(#paint8_linear)"/>
<path d="M11.8306 10.8977C11.231 10.0676 11.1238 9.03265 11.4524 8.13888C11.5381 8.43694 11.6754 8.72529 11.8676 8.99135C12.3429 9.64953 13.8375 9.03782 14.9926 8.13635C15.9917 9.38606 16.6884 11.0441 15.9672 11.5649C14.6403 12.5226 12.7884 12.2239 11.8306 10.8977Z" fill="url(#paint9_linear)"/>
<path d="M18.4727 6.30553C17.6497 5.166 16.0587 4.90941 14.9192 5.73241C13.7797 6.55541 16.76 10.6821 17.8996 9.859C19.0391 9.03594 19.2957 7.44506 18.4727 6.30553Z" fill="url(#paint10_linear)"/>
<path d="M8.50771 27.1237C13.2064 27.1237 17.0154 23.3147 17.0154 18.616C17.0154 13.9173 13.2064 10.1083 8.50771 10.1083C3.80903 10.1083 0 13.9173 0 18.616C0 23.3147 3.80903 27.1237 8.50771 27.1237Z" fill="url(#paint11_linear)"/>
<path d="M8.50762 10.1083C8.10815 10.1083 7.71533 10.1365 7.33057 10.1897C11.4721 10.763 14.6612 14.3167 14.6612 18.616C14.6612 22.9152 11.4721 26.469 7.33057 27.0423C7.71539 27.0955 8.10815 27.1237 8.50762 27.1237C13.2063 27.1237 17.0153 23.3146 17.0153 18.616C17.0153 13.9173 13.2063 10.1083 8.50762 10.1083Z" fill="url(#paint12_linear)"/>
<path d="M8.50767 25.3355C12.2188 25.3355 15.2273 22.3271 15.2273 18.616C15.2273 14.9048 12.2188 11.8964 8.50767 11.8964C4.79655 11.8964 1.78809 14.9048 1.78809 18.616C1.78809 22.3271 4.79655 25.3355 8.50767 25.3355Z" fill="url(#paint13_linear)"/>
<path d="M8.57377 23.0462C8.57377 22.9331 8.54895 22.8259 8.5053 22.729C8.83024 22.611 9.13518 22.4217 9.39595 22.1609C10.2371 21.3198 10.3352 20.0174 9.69153 19.0676C9.67459 18.4793 9.44224 17.8961 8.99324 17.4471C8.39059 16.8444 7.54618 16.6315 6.77218 16.8072C6.32477 16.6979 5.84871 16.7387 5.42242 16.9277C5.16942 16.7234 4.84765 16.6008 4.49718 16.6008C3.68301 16.6008 3.02295 17.2609 3.02295 18.0751C3.02295 18.8204 3.57613 19.4361 4.29424 19.5351C4.29854 19.5475 4.30201 19.5601 4.3066 19.5724C3.75871 20.4494 3.8653 21.6185 4.62771 22.381C5.27971 23.033 6.22924 23.2055 7.03906 22.8992C7.02989 22.9468 7.02471 22.9959 7.02471 23.0462C7.02471 23.474 7.37148 23.8207 7.79924 23.8207C8.22701 23.8207 8.57377 23.474 8.57377 23.0462Z" fill="url(#paint14_linear)"/>
<path d="M9.76525 15.3692C10.193 15.3692 10.5398 15.0224 10.5398 14.5947C10.5398 14.167 10.193 13.8202 9.76525 13.8202C9.33749 13.8202 8.99072 14.167 8.99072 14.5947C8.99072 15.0224 9.33749 15.3692 9.76525 15.3692Z" fill="url(#paint15_linear)"/>
<path d="M5.56115 14.7926C5.98892 14.7926 6.33568 14.4459 6.33568 14.0181C6.33568 13.5904 5.98892 13.2436 5.56115 13.2436C5.13339 13.2436 4.78662 13.5904 4.78662 14.0181C4.78662 14.4459 5.13339 14.7926 5.56115 14.7926Z" fill="url(#paint16_linear)"/>
<path d="M8.46198 11.8965C8.07627 11.8991 7.69833 11.9343 7.33063 11.9993C10.4805 12.5558 12.8731 15.3064 12.8731 18.616C12.8731 20.0878 12.3996 21.4489 11.597 22.5558C11.346 22.1813 10.9017 21.9474 10.4067 21.9976C9.79856 22.0592 9.31362 22.5612 9.27039 23.1708C9.25756 23.352 9.28286 23.5257 9.33898 23.6848C9.48833 24.108 9.29974 24.5719 8.88992 24.7548C8.39851 24.9742 7.87592 25.1363 7.33057 25.2326C7.71274 25.3002 8.10604 25.3355 8.50762 25.3355C12.2415 25.3355 15.264 22.2901 15.2269 18.5476C15.1903 14.8634 12.1464 11.8719 8.46198 11.8965Z" fill="url(#paint17_linear)"/>
<path d="M5.58363 17.7314C4.50663 18.8084 4.50663 20.5546 5.58363 21.6316C6.66063 22.7086 8.40681 22.7086 9.48381 21.6316C10.5608 20.5546 6.66063 16.6544 5.58363 17.7314Z" fill="url(#paint18_linear)"/>
<path d="M6.78032 15.6423C5.64744 16.7752 9.75003 20.8778 10.8829 19.7449C12.0158 18.612 12.0158 16.7752 10.8829 15.6423C9.75003 14.5094 7.9132 14.5094 6.78032 15.6423Z" fill="url(#paint19_linear)"/>
<path d="M11.3717 21.3644C10.6477 22.0885 9.64303 22.3591 8.70832 22.177C8.98897 22.0449 9.25174 21.8635 9.4838 21.6315C10.0579 21.0573 9.21603 19.6792 8.14209 18.6824C9.21674 17.4971 10.7427 16.5452 11.3718 17.1743C12.5285 18.3318 12.5285 20.2076 11.3717 21.3644Z" fill="url(#paint20_linear)"/>
<path d="M5.78061 15.5381C4.78667 16.532 4.78667 18.1435 5.78061 19.1375C6.77455 20.1314 10.374 16.532 9.38003 15.5381C8.38608 14.5441 6.77455 14.5441 5.78061 15.5381Z" fill="url(#paint21_linear)"/>
<path d="M21.4926 27.1237C26.1912 27.1237 30.0003 23.3147 30.0003 18.616C30.0003 13.9173 26.1912 10.1083 21.4926 10.1083C16.7939 10.1083 12.9849 13.9173 12.9849 18.616C12.9849 23.3147 16.7939 27.1237 21.4926 27.1237Z" fill="url(#paint22_linear)"/>
<path d="M21.4925 10.1083C21.093 10.1083 20.7002 10.1365 20.3154 10.1897C24.457 10.763 27.6461 14.3167 27.6461 18.616C27.6461 22.9152 24.457 26.469 20.3154 27.0423C20.7003 27.0955 21.093 27.1237 21.4925 27.1237C26.1912 27.1237 30.0002 23.3146 30.0002 18.616C30.0002 13.9173 26.1912 10.1083 21.4925 10.1083Z" fill="url(#paint23_linear)"/>
<path d="M21.4925 25.3355C25.2037 25.3355 28.2121 22.3271 28.2121 18.616C28.2121 14.9048 25.2037 11.8964 21.4925 11.8964C17.7814 11.8964 14.7729 14.9048 14.7729 18.616C14.7729 22.3271 17.7814 25.3355 21.4925 25.3355Z" fill="url(#paint24_linear)"/>
<path d="M21.5586 23.0462C21.5586 22.9331 21.5338 22.8259 21.4902 22.729C21.8151 22.611 22.12 22.4217 22.3808 22.1609C23.2219 21.3198 23.3201 20.0174 22.6764 19.0676C22.6595 18.4793 22.4271 17.8961 21.9781 17.4471C21.3755 16.8444 20.531 16.6315 19.757 16.8072C19.3096 16.6979 18.8336 16.7387 18.4073 16.9277C18.1543 16.7234 17.8325 16.6008 17.482 16.6008C16.6679 16.6008 16.0078 17.2609 16.0078 18.0751C16.0078 18.8204 16.561 19.4361 17.2791 19.5351C17.2834 19.5475 17.2869 19.5601 17.2915 19.5724C16.7436 20.4494 16.8502 21.6185 17.6126 22.381C18.2646 23.033 19.2141 23.2055 20.0239 22.8992C20.0148 22.9468 20.0096 22.9959 20.0096 23.0462C20.0096 23.474 20.3563 23.8207 20.7841 23.8207C21.2119 23.8207 21.5586 23.474 21.5586 23.0462Z" fill="url(#paint25_linear)"/>
<path d="M22.7501 15.3692C23.1779 15.3692 23.5246 15.0224 23.5246 14.5947C23.5246 14.167 23.1779 13.8202 22.7501 13.8202C22.3224 13.8202 21.9756 14.167 21.9756 14.5947C21.9756 15.0224 22.3224 15.3692 22.7501 15.3692Z" fill="url(#paint26_linear)"/>
<path d="M18.546 14.7926C18.9738 14.7926 19.3205 14.4459 19.3205 14.0181C19.3205 13.5904 18.9738 13.2436 18.546 13.2436C18.1182 13.2436 17.7715 13.5904 17.7715 14.0181C17.7715 14.4459 18.1182 14.7926 18.546 14.7926Z" fill="url(#paint27_linear)"/>
<path d="M21.4468 11.8965C21.0611 11.8991 20.6832 11.9343 20.3155 11.9993C23.4654 12.5558 25.858 15.3064 25.858 18.616C25.858 20.0878 25.3845 21.4489 24.5819 22.5558C24.3309 22.1813 23.8865 21.9474 23.3915 21.9976C22.7834 22.0592 22.2985 22.5612 22.2553 23.1708C22.2424 23.352 22.2677 23.5257 22.3238 23.6848C22.4732 24.108 22.2846 24.5719 21.8748 24.7548C21.3834 24.9742 20.8608 25.1363 20.3154 25.2326C20.6976 25.3002 21.0909 25.3355 21.4925 25.3355C25.2264 25.3355 28.2489 22.2901 28.2117 18.5476C28.1752 14.8634 25.1312 11.8719 21.4468 11.8965Z" fill="url(#paint28_linear)"/>
<path d="M24.4165 19.5006C25.4935 18.4236 25.4935 16.6774 24.4165 15.6004C23.3395 14.5234 21.5933 14.5234 20.5163 15.6004C19.4392 16.6774 23.3395 20.5776 24.4165 19.5006Z" fill="url(#paint29_linear)"/>
<path d="M23.2198 21.5897C24.3527 20.4568 20.2501 16.3542 19.1172 17.4871C17.9844 18.62 17.9844 20.4568 19.1172 21.5897C20.2501 22.7226 22.0869 22.7226 23.2198 21.5897Z" fill="url(#paint30_linear)"/>
<path d="M18.6283 15.8676C19.3524 15.1435 20.357 14.8729 21.2917 15.055C21.0111 15.1871 20.7483 15.3685 20.5163 15.6005C19.9421 16.1746 20.784 17.5528 21.858 18.5496C20.7833 19.7349 19.2574 20.6868 18.6283 20.0577C17.4716 18.9002 17.4716 17.0243 18.6283 15.8676Z" fill="url(#paint31_linear)"/>
<path d="M24.2195 21.6939C25.2134 20.7 25.2134 19.0884 24.2195 18.0945C23.2255 17.1006 19.6261 20.7 20.6201 21.6939C21.6141 22.6878 23.2255 22.6878 24.2195 21.6939Z" fill="url(#paint32_linear)"/>
<path d="M6.38414 30H3.88025C3.43567 30 3.0752 29.6396 3.0752 29.195V27.8824H7.18914V29.195C7.18914 29.6396 6.82872 30 6.38414 30Z" fill="url(#paint33_linear)"/>
<path d="M26.1204 30H23.6166C23.172 30 22.8115 29.6396 22.8115 29.195V27.8824H26.9255V29.195C26.9254 29.6396 26.565 30 26.1204 30Z" fill="url(#paint34_linear)"/>
<path d="M28.5014 28.4346H1.49865C0.670941 28.4346 0 27.7637 0 26.936C0 26.1084 0.670941 25.4374 1.49865 25.4374H28.5014C29.3291 25.4374 30.0001 26.1083 30.0001 26.936C30 27.7637 29.3291 28.4346 28.5014 28.4346Z" fill="url(#paint35_linear)"/>
<path d="M28.5011 25.4374H26.147C26.9746 25.4374 27.6456 26.1083 27.6456 26.936C27.6456 27.7637 26.9747 28.4347 26.147 28.4347H28.5011C29.3287 28.4347 29.9997 27.7637 29.9997 26.936C29.9997 26.1083 29.3288 25.4374 28.5011 25.4374Z" fill="url(#paint36_linear)"/>
</g>
<defs>
<linearGradient id="paint0_linear" x1="6.65583" y1="8.5077" x2="29.647" y2="8.5077" gradientUnits="userSpaceOnUse">
<stop stop-color="#537983"/>
<stop offset="0.593" stop-color="#554E56"/>
<stop offset="1" stop-color="#433F43"/>
</linearGradient>
<linearGradient id="paint1_linear" x1="0.176291" y1="8.5077" x2="21.7193" y2="8.5077" gradientUnits="userSpaceOnUse">
<stop stop-color="#537983"/>
<stop offset="0.593" stop-color="#554E56"/>
<stop offset="1" stop-color="#433F43"/>
</linearGradient>
<linearGradient id="paint2_linear" x1="8.15574" y1="8.50768" x2="21.1269" y2="8.50768" gradientUnits="userSpaceOnUse">
<stop stop-color="#F8F6F7"/>
<stop offset="0.1788" stop-color="#F8F6F7"/>
<stop offset="1" stop-color="#E7E6F5"/>
</linearGradient>
<linearGradient id="paint3_linear" x1="4.62744" y1="10.1026" x2="21.9393" y2="10.1026" gradientUnits="userSpaceOnUse">
<stop stop-color="#F8F6F7"/>
<stop offset="1" stop-color="#D1CEEB"/>
</linearGradient>
<linearGradient id="paint4_linear" x1="4.62756" y1="4.48638" x2="21.9394" y2="4.48638" gradientUnits="userSpaceOnUse">
<stop stop-color="#F8F6F7"/>
<stop offset="1" stop-color="#D1CEEB"/>
</linearGradient>
<linearGradient id="paint5_linear" x1="4.62751" y1="3.90985" x2="21.9394" y2="3.90985" gradientUnits="userSpaceOnUse">
<stop stop-color="#F8F6F7"/>
<stop offset="1" stop-color="#D1CEEB"/>
</linearGradient>
<linearGradient id="paint6_linear" x1="4.62734" y1="8.50771" x2="21.9392" y2="8.50771" gradientUnits="userSpaceOnUse">
<stop stop-color="#F8F6F7"/>
<stop offset="1" stop-color="#D1CEEB"/>
</linearGradient>
<linearGradient id="paint7_linear" x1="11.1178" y1="6.94318" x2="16.5935" y2="6.94318" gradientUnits="userSpaceOnUse">
<stop stop-color="#FEF056"/>
<stop offset="0.5213" stop-color="#F4D902"/>
<stop offset="1" stop-color="#FE9738"/>
</linearGradient>
<linearGradient id="paint8_linear" x1="12.5883" y1="9.43039" x2="18.6298" y2="9.43039" gradientUnits="userSpaceOnUse">
<stop stop-color="#FBC56D"/>
<stop offset="0.593" stop-color="#C86D36"/>
<stop offset="1" stop-color="#904D24"/>
</linearGradient>
<linearGradient id="paint9_linear" x1="11.0882" y1="10.131" x2="17.676" y2="10.131" gradientUnits="userSpaceOnUse">
<stop stop-color="#A2E62E"/>
<stop offset="0.5857" stop-color="#81B823"/>
<stop offset="1" stop-color="#037E73"/>
</linearGradient>
<linearGradient id="paint10_linear" x1="14.9704" y1="7.60865" x2="22.2997" y2="7.60865" gradientUnits="userSpaceOnUse">
<stop stop-color="#FE646F"/>
<stop offset="0.593" stop-color="#FB2B3A"/>
<stop offset="1" stop-color="#C41926"/>
</linearGradient>
<linearGradient id="paint11_linear" x1="0.163647" y1="18.616" x2="23.1548" y2="18.616" gradientUnits="userSpaceOnUse">
<stop stop-color="#537983"/>
<stop offset="0.593" stop-color="#554E56"/>
<stop offset="1" stop-color="#433F43"/>
</linearGradient>
<linearGradient id="paint12_linear" x1="-6.3159" y1="18.616" x2="15.2271" y2="18.616" gradientUnits="userSpaceOnUse">
<stop stop-color="#537983"/>
<stop offset="0.593" stop-color="#554E56"/>
<stop offset="1" stop-color="#433F43"/>
</linearGradient>
<linearGradient id="paint13_linear" x1="1.66356" y1="18.616" x2="14.6347" y2="18.616" gradientUnits="userSpaceOnUse">
<stop stop-color="#F8F6F7"/>
<stop offset="0.1788" stop-color="#F8F6F7"/>
<stop offset="1" stop-color="#E7E6F5"/>
</linearGradient>
<linearGradient id="paint14_linear" x1="-1.86475" y1="20.2108" x2="15.4471" y2="20.2108" gradientUnits="userSpaceOnUse">
<stop stop-color="#F8F6F7"/>
<stop offset="1" stop-color="#D1CEEB"/>
</linearGradient>
<linearGradient id="paint15_linear" x1="-1.86462" y1="14.5947" x2="15.4472" y2="14.5947" gradientUnits="userSpaceOnUse">
<stop stop-color="#F8F6F7"/>
<stop offset="1" stop-color="#D1CEEB"/>
</linearGradient>
<linearGradient id="paint16_linear" x1="-1.86467" y1="14.0181" x2="15.4472" y2="14.0181" gradientUnits="userSpaceOnUse">
<stop stop-color="#F8F6F7"/>
<stop offset="1" stop-color="#D1CEEB"/>
</linearGradient>
<linearGradient id="paint17_linear" x1="-1.86483" y1="18.616" x2="15.447" y2="18.616" gradientUnits="userSpaceOnUse">
<stop stop-color="#F8F6F7"/>
<stop offset="1" stop-color="#D1CEEB"/>
</linearGradient>
<linearGradient id="paint18_linear" x1="3.89139" y1="19.9923" x2="10.1249" y2="19.9923" gradientUnits="userSpaceOnUse">
<stop stop-color="#FEF056"/>
<stop offset="0.5213" stop-color="#F4D902"/>
<stop offset="1" stop-color="#FE9738"/>
</linearGradient>
<linearGradient id="paint19_linear" x1="5.8812" y1="17.3667" x2="12.8924" y2="17.3667" gradientUnits="userSpaceOnUse">
<stop stop-color="#FBC56D"/>
<stop offset="0.593" stop-color="#C86D36"/>
<stop offset="1" stop-color="#904D24"/>
</linearGradient>
<linearGradient id="paint20_linear" x1="7.78197" y1="19.6031" x2="13.1195" y2="19.6031" gradientUnits="userSpaceOnUse">
<stop stop-color="#A2E62E"/>
<stop offset="0.5857" stop-color="#81B823"/>
<stop offset="1" stop-color="#037E73"/>
</linearGradient>
<linearGradient id="paint21_linear" x1="4.29138" y1="17.051" x2="11.0794" y2="17.051" gradientUnits="userSpaceOnUse">
<stop stop-color="#FE646F"/>
<stop offset="0.593" stop-color="#FB2B3A"/>
<stop offset="1" stop-color="#C41926"/>
</linearGradient>
<linearGradient id="paint22_linear" x1="13.1485" y1="18.616" x2="36.1396" y2="18.616" gradientUnits="userSpaceOnUse">
<stop stop-color="#537983"/>
<stop offset="0.593" stop-color="#554E56"/>
<stop offset="1" stop-color="#433F43"/>
</linearGradient>
<linearGradient id="paint23_linear" x1="6.66893" y1="18.616" x2="28.212" y2="18.616" gradientUnits="userSpaceOnUse">
<stop stop-color="#537983"/>
<stop offset="0.593" stop-color="#554E56"/>
<stop offset="1" stop-color="#433F43"/>
</linearGradient>
<linearGradient id="paint24_linear" x1="14.6484" y1="18.616" x2="27.6195" y2="18.616" gradientUnits="userSpaceOnUse">
<stop stop-color="#F8F6F7"/>
<stop offset="0.1788" stop-color="#F8F6F7"/>
<stop offset="1" stop-color="#E7E6F5"/>
</linearGradient>
<linearGradient id="paint25_linear" x1="11.1201" y1="20.2108" x2="28.432" y2="20.2108" gradientUnits="userSpaceOnUse">
<stop stop-color="#F8F6F7"/>
<stop offset="1" stop-color="#D1CEEB"/>
</linearGradient>
<linearGradient id="paint26_linear" x1="11.1202" y1="14.5947" x2="28.4321" y2="14.5947" gradientUnits="userSpaceOnUse">
<stop stop-color="#F8F6F7"/>
<stop offset="1" stop-color="#D1CEEB"/>
</linearGradient>
<linearGradient id="paint27_linear" x1="11.1202" y1="14.0181" x2="28.4321" y2="14.0181" gradientUnits="userSpaceOnUse">
<stop stop-color="#F8F6F7"/>
<stop offset="1" stop-color="#D1CEEB"/>
</linearGradient>
<linearGradient id="paint28_linear" x1="11.12" y1="18.616" x2="28.4319" y2="18.616" gradientUnits="userSpaceOnUse">
<stop stop-color="#F8F6F7"/>
<stop offset="1" stop-color="#D1CEEB"/>
</linearGradient>
<linearGradient id="paint29_linear" x1="19.7649" y1="17.2397" x2="25.7203" y2="17.2397" gradientUnits="userSpaceOnUse">
<stop stop-color="#FEF056"/>
<stop offset="0.5213" stop-color="#F4D902"/>
<stop offset="1" stop-color="#FE9738"/>
</linearGradient>
<linearGradient id="paint30_linear" x1="17.4414" y1="19.8653" x2="23.6473" y2="19.8653" gradientUnits="userSpaceOnUse">
<stop stop-color="#FBC56D"/>
<stop offset="0.593" stop-color="#C86D36"/>
<stop offset="1" stop-color="#904D24"/>
</linearGradient>
<linearGradient id="paint31_linear" x1="17.7649" y1="17.6289" x2="23.27" y2="17.6289" gradientUnits="userSpaceOnUse">
<stop stop-color="#A2E62E"/>
<stop offset="0.5857" stop-color="#81B823"/>
<stop offset="1" stop-color="#037E73"/>
</linearGradient>
<linearGradient id="paint32_linear" x1="20.3825" y1="20.181" x2="27.2314" y2="20.181" gradientUnits="userSpaceOnUse">
<stop stop-color="#FE646F"/>
<stop offset="0.593" stop-color="#FB2B3A"/>
<stop offset="1" stop-color="#C41926"/>
</linearGradient>
<linearGradient id="paint33_linear" x1="0.134078" y1="28.9412" x2="8.45231" y2="28.9412" gradientUnits="userSpaceOnUse">
<stop stop-color="#FBC56D"/>
<stop offset="0.593" stop-color="#C86D36"/>
<stop offset="1" stop-color="#904D24"/>
</linearGradient>
<linearGradient id="paint34_linear" x1="19.8703" y1="28.9412" x2="28.1887" y2="28.9412" gradientUnits="userSpaceOnUse">
<stop stop-color="#FBC56D"/>
<stop offset="0.593" stop-color="#C86D36"/>
<stop offset="1" stop-color="#904D24"/>
</linearGradient>
<linearGradient id="paint35_linear" x1="0" y1="26.936" x2="33.7648" y2="26.936" gradientUnits="userSpaceOnUse">
<stop stop-color="#FBC56D"/>
<stop offset="0.593" stop-color="#C86D36"/>
<stop offset="1" stop-color="#904D24"/>
</linearGradient>
<linearGradient id="paint36_linear" x1="5.92129" y1="26.936" x2="21.69" y2="26.936" gradientUnits="userSpaceOnUse">
<stop stop-color="#FBC56D"/>
<stop offset="0.593" stop-color="#C86D36"/>
<stop offset="1" stop-color="#904D24"/>
</linearGradient>
<clipPath id="clip0">
<rect width="30" height="30" fill="white"/>
</clipPath>
</defs>
</svg>
