<svg width="1440" height="834" viewBox="0 0 1440 834" fill="none" xmlns="http://www.w3.org/2000/svg">
<mask id="mask0" mask-type="alpha" maskUnits="userSpaceOnUse" x="0" y="-23" width="1450" height="857">
<rect y="-23" width="1450" height="857" rx="16" fill="#C4C4C4"/>
</mask>
<g mask="url(#mask0)">
<rect y="-215" width="1440" height="1049" fill="url(#paint0_linear)"/>
<path opacity="0.30385" d="M567.472 952.48C621.502 940.045 646.284 917.767 654.615 888.947C658.992 873.804 658.788 856.963 656.037 838.998C653.285 821.033 647.972 801.873 642.078 782.074C640.798 777.775 639.49 773.446 638.175 769.091C627.361 733.28 616.036 695.776 615.188 659.362C614.24 618.612 626.42 579.275 667.294 545.352C708.555 511.108 731.057 477.685 743.895 445.396C756.726 413.126 759.881 382.042 762.528 352.57C762.633 351.401 762.737 350.235 762.841 349.071C765.362 320.854 767.743 294.194 778.02 269.188C788.699 243.204 807.936 218.947 844.913 196.728C919.142 152.127 960.134 136.157 1009.14 131.281C1033.68 128.839 1060.26 129.177 1094.07 130.13C1099.8 130.292 1105.74 130.471 1111.92 130.657C1142.13 131.569 1177.91 132.648 1222.19 132.648C1275.8 132.648 1317.06 110.056 1351.29 81.9071C1368.41 67.837 1383.78 52.3671 1398.06 37.6311C1400.07 35.5553 1402.06 33.4946 1404.03 31.4547C1416.06 18.9969 1427.34 7.31364 1438.33 -2.30222C1451.13 -13.4956 1463.44 -21.7955 1475.95 -25.243C1488.4 -28.6748 1501.13 -27.3203 1514.87 -19.0365C1528.65 -10.7259 1543.47 4.57264 1559.97 29.0747C1576.46 53.5663 1594.59 87.1874 1615.03 132.063C1696.71 311.422 1696.73 516.663 1676.29 677.141C1666.07 757.368 1650.74 826.379 1637.97 875.331C1631.59 899.806 1625.84 919.265 1621.69 932.604C1619.62 939.273 1617.94 944.411 1616.79 947.881C1616.21 949.616 1615.76 950.934 1615.46 951.817C1615.37 952.076 1615.29 952.297 1615.23 952.48H567.472ZM356.397 941.838C374.01 945.995 391.497 949.594 408.756 952.48H-186.51C-186.614 952.386 -186.747 952.264 -186.905 952.114C-187.342 951.702 -187.976 951.084 -188.753 950.265C-190.308 948.628 -192.437 946.193 -194.714 943.017C-199.27 936.664 -204.406 927.365 -206.751 915.571C-211.424 892.068 -205.075 858.305 -159.978 817.826C-148.899 807.882 -133.217 803.171 -113.631 802.559C-94.0464 801.947 -70.6669 805.437 -44.3227 811.78C3.866 823.383 61.7668 844.478 124.175 867.214C130.009 869.34 135.883 871.48 141.792 873.628C210.874 898.739 284.723 924.921 356.397 941.838ZM436.384 954.48H546.566C512.181 959.826 475.05 959.223 436.384 954.48Z" stroke="white" stroke-width="2"/>
<path opacity="0.30385" d="M574.944 903.559C626.152 892.737 652.995 875.453 666.36 853.622C680.129 831.132 679.508 803.94 676.753 774.414C676.311 769.679 675.814 764.883 675.312 760.034C672.678 734.602 669.894 707.731 674.111 680.646C679.126 648.434 694.048 615.92 730.991 585.279C768.12 554.485 784.849 521.388 791.128 487.809C797.402 454.255 793.235 420.244 788.632 387.645C788.329 385.501 788.024 383.363 787.721 381.232C783.402 350.926 779.278 321.981 783.427 295.773C787.86 267.775 801.74 242.895 835.046 222.895C901.773 182.828 963.688 182.815 1032.97 192.847C1051.7 195.56 1070.98 199.009 1091.04 202.598C1145.14 212.275 1204.9 222.967 1274.94 222.967C1323.1 222.967 1360.13 200.969 1390.85 173.1C1406.21 159.167 1420.01 143.759 1432.84 128.892C1435.64 125.639 1438.4 122.414 1441.12 119.235C1450.84 107.874 1460.04 97.1145 1469.03 87.8931C1480.54 76.0897 1491.65 66.8586 1502.98 62.133C1514.29 57.4199 1525.82 57.1824 1538.22 63.3996C1550.66 69.6318 1564 82.3664 1578.86 103.678C1593.7 124.984 1610.03 154.821 1628.43 195.203C1701.98 356.622 1677.14 533.743 1633.87 670.564C1612.24 738.967 1586.01 797.278 1565.18 838.487C1554.77 859.092 1545.71 875.42 1539.25 886.596C1536.02 892.184 1533.45 896.484 1531.68 899.386C1530.79 900.837 1530.11 901.938 1529.65 902.677C1529.42 903.046 1529.24 903.324 1529.12 903.51L1529.09 903.559H574.944ZM564.763 904.559C470.204 922.337 347.801 921.09 232.876 919.92C216.488 919.753 200.251 919.587 184.269 919.479C119.239 919.037 58.4233 919.54 8.76442 924.727C-16.0658 927.321 -38.122 931.088 -56.53 936.499C-74.9329 941.91 -89.725 948.974 -99.995 958.186C-110.181 967.323 -117.708 973.308 -123.084 976.796C-125.773 978.541 -127.904 979.647 -129.545 980.215C-131.208 980.79 -132.262 980.776 -132.887 980.453C-133.47 980.152 -133.839 979.491 -133.892 978.304C-133.945 977.119 -133.673 975.531 -133.104 973.596C-131.968 969.735 -129.698 964.648 -126.776 958.963C-120.938 947.602 -112.551 933.949 -105.617 923.129C-102.152 917.72 -99.0512 913.023 -96.8174 909.678C-95.7006 908.005 -94.8004 906.671 -94.1795 905.755C-93.869 905.297 -93.6285 904.943 -93.4655 904.704L-93.3661 904.559H564.763Z" stroke="white"/>
<path opacity="0.30385" d="M1598.95 859.79C1598.91 859.888 1598.87 859.977 1598.83 860.059H668.91C684.585 852.132 695.108 842.735 702.033 832.115C715.062 812.135 715.187 788.059 713.409 762.055C713.111 757.693 712.759 753.275 712.404 748.808C710.632 726.557 708.764 703.108 712.951 679.364C717.966 650.928 731.676 622.069 764.818 594.586C831.078 539.638 913.325 548.866 994.443 563.005C1001.7 564.269 1008.95 565.573 1016.17 566.873C1049.27 572.828 1081.89 578.699 1112.76 580.329C1150.37 582.315 1185.51 578.013 1215.83 559.807C1246.25 541.545 1258.92 513.954 1263.55 483.007C1267.42 457.131 1265.69 428.803 1264.03 401.535C1263.71 396.257 1263.39 391.019 1263.11 385.846C1261.4 353.831 1261.37 324.389 1272.38 302.944C1277.86 292.264 1286.09 283.559 1298.27 277.511C1310.47 271.453 1326.7 268.035 1348.19 268.035C1422.62 268.035 1455.36 214.354 1478.61 176.242C1482.54 169.795 1486.2 163.793 1489.74 158.573C1495.92 149.483 1501.63 142.897 1507.7 140.185C1510.69 138.847 1513.77 138.453 1517.06 139.184C1520.38 139.92 1523.98 141.809 1527.97 145.15C1535.97 151.847 1545.34 164.212 1556.87 184.066C1568.39 203.899 1582.02 231.121 1598.58 267.45C1664.73 412.581 1664.74 560.875 1648.19 672.925C1639.92 728.945 1627.51 775.89 1617.17 808.827C1612 825.295 1607.35 838.259 1603.99 847.104C1602.31 851.526 1600.96 854.918 1600.02 857.203C1599.55 858.345 1599.19 859.211 1598.95 859.79ZM-93.2779 863.676C-92.9418 862.971 -92.6814 862.427 -92.5046 862.059H659.852C647.517 867.315 632.371 871.832 613.806 875.499C542.183 889.647 435.065 900.031 324.43 910.757C284.162 914.66 243.428 918.609 203.77 922.801C129.49 930.653 58.9947 939.357 2.47462 950.215C-25.7849 955.645 -50.5745 961.617 -70.608 968.299C-90.6157 974.972 -105.985 982.386 -115.313 990.752C-119.876 994.844 -123.762 997.897 -127.04 1000.04C-130.33 1002.18 -132.951 1003.37 -134.99 1003.8C-137.007 1004.23 -138.346 1003.89 -139.261 1003.12C-140.214 1002.33 -140.908 1000.9 -141.246 998.719C-141.925 994.356 -141.08 987.646 -139.106 979.371C-137.141 971.135 -134.09 961.478 -130.459 951.286C-123.197 930.905 -113.642 908.459 -105.898 891.099C-102.027 882.422 -98.6097 875.019 -96.1608 869.786C-94.9364 867.169 -93.954 865.096 -93.2779 863.676Z" stroke="white" stroke-width="2"/>
<path opacity="0.30385" d="M1599.29 859.778C1599.21 860.108 1599.15 860.368 1599.1 860.559H812.891C806.692 847.732 798.667 834.156 790.251 820.132C789.42 818.748 788.586 817.361 787.75 815.969C770.007 786.447 751.159 755.086 744.083 724.442C740.382 708.411 739.91 692.602 744.493 677.375C749.074 662.15 758.72 647.467 775.319 633.701C808.519 606.17 851.62 596.877 899.551 597.338C947.484 597.8 1000.18 608.017 1052.52 619.442C1061.59 621.422 1070.66 623.439 1079.68 625.448C1122.7 635.021 1164.85 644.404 1203.21 648.746C1249.6 653.999 1290.55 651.896 1320.78 633.745C1351.1 615.544 1358.86 585.243 1356.24 550.215C1353.89 518.6 1343.07 483.013 1332.66 448.773C1331.55 445.1 1330.43 441.442 1329.34 437.806C1323.68 419.03 1318.43 400.838 1315.09 384.108C1311.75 367.373 1310.33 352.139 1312.29 339.27C1314.24 326.417 1319.56 315.946 1329.71 308.674C1339.87 301.39 1354.94 297.27 1376.48 297.27C1419.68 297.27 1450.5 294.819 1473.81 292.704C1476.4 292.469 1478.89 292.238 1481.3 292.016C1500.6 290.231 1514.33 288.962 1525.97 290.147C1539.02 291.474 1549.44 295.884 1562.12 306.192C1574.82 316.52 1589.76 332.748 1611.81 357.702C1633.74 382.513 1643.97 426.313 1646.92 478.199C1649.86 530.054 1645.52 589.863 1638.42 646.574C1631.32 703.281 1621.47 756.873 1613.39 796.29C1609.35 815.998 1605.75 832.161 1603.17 843.397C1601.88 849.014 1600.83 853.4 1600.12 856.381C1599.76 857.872 1599.48 859.011 1599.29 859.778ZM-92.8685 861.84C-92.8324 861.733 -92.8008 861.639 -92.7739 861.559H812.263C812.75 862.573 813.225 863.583 813.688 864.588C820.059 878.415 824.057 891.245 823.887 902.729C823.717 914.181 819.403 924.322 809.075 932.814C798.723 941.327 782.305 948.201 757.903 953.021C709.074 962.666 636.034 967.102 552.759 969.354C492.787 970.977 427.528 971.466 362.211 971.955C336.84 972.146 311.461 972.336 286.379 972.592C196.73 973.51 110.88 975.277 42.8541 980.929C8.8418 983.754 -20.7295 987.552 -44.099 992.705C-67.4429 997.852 -84.6879 1004.37 -93.9633 1012.69C-98.5329 1016.78 -102.515 1019.77 -105.964 1021.76C-109.417 1023.76 -112.31 1024.76 -114.706 1024.92C-117.084 1025.08 -118.983 1024.43 -120.495 1023.09C-122.021 1021.74 -123.191 1019.66 -124.024 1016.92C-125.692 1011.43 -125.958 1003.45 -125.214 993.918C-124.47 984.397 -122.724 973.376 -120.402 961.831C-115.759 938.74 -108.824 913.588 -103.048 894.204C-100.16 884.513 -97.5628 876.266 -95.6873 870.442C-94.7496 867.53 -93.9925 865.224 -93.4698 863.646C-93.2085 862.857 -93.0058 862.25 -92.8685 861.84Z" fill="#C02D63" stroke="white"/>
<ellipse cx="-22.3864" cy="-166.608" rx="503.238" ry="837.151" transform="rotate(60 -22.3864 -166.608)" fill="url(#paint1_radial)"/>
</g>
<path opacity="0.30385" d="M123.546 -125.5C178.266 -125.5 224.494 -111.766 261.263 -85.0514C298.033 -58.3371 325.38 -18.6151 342.289 33.4261C350.728 59.398 348.053 76.4271 338.09 88.4391C328.084 100.502 310.641 107.628 289.228 113.541C279.405 116.253 268.774 118.703 257.676 121.261C256.691 121.489 255.702 121.716 254.709 121.946C242.543 124.754 229.862 127.728 217.133 131.34C191.675 138.564 165.99 148.349 143.752 164.506C121.543 180.642 99.1038 203.133 76.5728 226.757C71.9593 231.594 67.3419 236.478 62.7215 241.366C44.7654 260.362 26.7631 279.406 8.75929 295.906C-13.8806 316.656 -36.4698 333.331 -58.8987 340.814C-81.2919 348.286 -103.532 346.599 -125.558 330.595C-147.619 314.568 -158.865 294.537 -162.817 271.873C-166.773 249.189 -163.424 223.841 -156.234 197.198C-149.046 170.557 -138.03 142.665 -126.684 114.899C-125.216 111.306 -123.743 107.715 -122.271 104.13C-112.375 80.0154 -102.575 56.1331 -95.1967 33.4261C-78.2875 -18.6151 -50.94 -58.3371 -14.1708 -85.0514C22.5983 -111.766 68.827 -125.5 123.546 -125.5Z" stroke="white"/>
<path opacity="0.30385" d="M123.181 -125C177.91 -125 211.585 -116.443 235.822 -95.0971C260.107 -73.7082 275.09 -39.3416 292.031 12.7973C300.467 38.7637 300.583 56.3493 294.874 69.1776C289.168 81.9986 277.538 90.3108 261.87 97.4794C252.271 101.871 241.285 105.783 229.336 110.037C221.727 112.747 213.727 115.595 205.447 118.795C184.232 126.993 161.36 137.439 139.093 153.617C117.669 169.182 95.9827 188.478 74.2031 207.856C73.3967 208.573 72.5902 209.291 71.7836 210.008C49.1722 230.122 26.464 250.182 3.76785 266.216C-18.9336 282.254 -41.5406 294.203 -63.9328 298.166C-86.2772 302.12 -108.46 298.134 -130.403 282.191C-152.417 266.197 -163.253 249.254 -166.721 231.27C-170.196 213.247 -166.302 194.024 -158.534 173.42C-151.849 155.689 -142.337 137.037 -132.291 117.338C-130.66 114.14 -129.016 110.915 -127.367 107.662C-115.572 84.3931 -103.58 59.7215 -95.0867 33.5806C-78.2039 -18.3794 -50.9111 -58.0056 -14.2425 -84.6469C22.4262 -111.288 68.5468 -125 123.181 -125Z" fill="#E83F81" stroke="white" stroke-width="2"/>
<path opacity="0.30385" d="M152.344 -158.027C206.808 -158.027 259.521 -130.248 302.888 -89.3777C346.249 -48.5129 380.167 5.35121 397.049 57.309C401.248 70.2301 401.926 80.5544 399.837 88.8812C397.753 97.1843 392.891 103.607 385.793 108.696C371.513 118.936 348.312 123.696 320.999 127.231C311.873 128.412 302.294 129.456 292.466 130.527C273.004 132.648 252.564 134.875 232.722 138.487C202.839 143.926 174.107 152.534 151.756 168.773C129.44 184.987 106.125 214.071 82.3654 247.433C71.0971 263.256 59.7104 280.068 48.2688 296.962L46.3747 299.758C34.2928 317.595 22.153 335.466 10.015 352.33C-14.2787 386.081 -38.4933 415.687 -62.1143 432.845C-73.9165 441.418 -85.5039 446.833 -96.8222 448.15C-108.108 449.462 -119.21 446.711 -130.103 438.796C-151.948 422.925 -162.916 396.321 -166.455 363.488C-169.994 330.662 -166.086 291.768 -158.337 251.559C-145.447 184.674 -121.971 114.35 -104.682 62.5611C-101.184 52.0813 -97.9389 42.3605 -95.0862 33.5806C-61.3267 -70.3205 43.2362 -158.027 152.344 -158.027Z" stroke="white" stroke-width="2"/>
<path d="M953.175 498.966L948.775 493.466H948.675L941.675 493.966C941.575 493.966 941.475 493.866 941.575 493.766L945.375 487.866V487.766L942.675 481.266C942.675 481.166 942.675 481.066 942.775 481.066L949.575 482.866H949.675L954.975 478.266C955.075 478.166 955.175 478.266 955.175 478.366L955.575 485.366C955.575 485.366 955.575 485.466 955.675 485.466L961.675 489.166C961.775 489.266 961.775 489.366 961.675 489.366L955.075 491.866C955.075 491.866 954.975 491.866 954.975 491.966L953.375 498.766C953.375 499.066 953.275 499.066 953.175 498.966Z" fill="#FFE600"/>
<path d="M953.275 499.566C953.075 499.566 952.875 499.466 952.775 499.366L948.475 494.066L941.675 494.566C941.475 494.566 941.175 494.466 941.075 494.266C940.975 494.066 940.975 493.766 941.075 493.566L944.775 487.866L942.175 481.566C942.075 481.366 942.175 481.066 942.275 480.966C942.475 480.766 942.675 480.766 942.875 480.766L949.475 482.566L954.675 478.166C954.875 477.966 955.075 477.966 955.275 478.066C955.475 478.166 955.675 478.366 955.675 478.566L956.075 485.366L961.975 488.866C962.175 488.966 962.275 489.166 962.275 489.466C962.275 489.666 962.075 489.866 961.875 489.966L955.475 492.366L953.875 498.966C953.775 499.166 953.675 499.366 953.375 499.466C953.375 499.566 953.375 499.566 953.275 499.566ZM948.675 492.966C948.875 492.966 948.975 493.066 949.175 493.166L953.075 498.066L954.575 491.966C954.575 491.766 954.775 491.566 954.975 491.566L960.775 489.366L955.475 486.066C955.275 485.966 955.175 485.766 955.175 485.566L954.875 479.366L950.075 483.366C949.975 483.466 949.675 483.566 949.475 483.466L943.475 481.866L945.875 487.666C945.975 487.866 945.975 488.066 945.775 488.266L942.375 493.466L948.675 492.966Z" fill="#2D0000"/>
<path d="M409.773 313.493L401.905 303.657H401.726L389.208 304.551C389.029 304.551 388.85 304.372 389.029 304.194L395.825 293.643V293.464L390.996 281.84C390.996 281.661 390.996 281.482 391.175 281.482L403.335 284.701H403.514L412.992 276.475C413.171 276.296 413.35 276.475 413.35 276.654L414.065 289.172C414.065 289.172 414.065 289.351 414.244 289.351L424.974 295.967C425.153 296.146 425.153 296.325 424.974 296.325L413.171 300.796C413.171 300.796 412.992 300.796 412.992 300.975L410.131 313.135C410.131 313.671 409.952 313.671 409.773 313.493Z" fill="#E93F80"/>
<path d="M409.951 314.566C409.594 314.566 409.236 314.387 409.057 314.208L401.367 304.73L389.207 305.624C388.849 305.624 388.313 305.445 388.134 305.088C387.955 304.73 387.955 304.194 388.134 303.836L394.751 293.643L390.101 282.376C389.922 282.019 390.101 281.482 390.28 281.304C390.638 280.946 390.995 280.946 391.353 280.946L403.156 284.165L412.455 276.296C412.812 275.939 413.17 275.939 413.528 276.117C413.885 276.296 414.243 276.654 414.243 277.012L414.958 289.172L425.509 295.431C425.867 295.61 426.046 295.967 426.046 296.504C426.046 296.862 425.688 297.219 425.331 297.398L413.885 301.69L411.024 313.493C410.845 313.85 410.667 314.208 410.13 314.387C410.13 314.566 410.13 314.566 409.951 314.566ZM401.725 302.763C402.083 302.763 402.262 302.942 402.619 303.121L409.594 311.883L412.276 300.975C412.276 300.617 412.634 300.259 412.991 300.259L423.363 296.325L413.885 290.424C413.528 290.245 413.349 289.887 413.349 289.53L412.812 278.442L404.229 285.595C404.05 285.774 403.513 285.953 403.156 285.774L392.426 282.913L396.718 293.285C396.897 293.643 396.897 294 396.539 294.358L390.459 303.657L401.725 302.763Z" fill="#2D0000"/>
<path d="M1022.99 478.46L1030.83 468.774C1030.83 468.774 1030.98 468.62 1030.98 468.774L1043.43 469.697C1043.59 469.697 1043.74 469.543 1043.59 469.389L1036.82 458.935V458.781L1041.59 447.251C1041.59 447.097 1041.44 446.943 1041.28 446.943L1029.14 450.172H1028.98L1019.45 442.024C1019.3 441.87 1019.14 442.024 1019.14 442.177L1018.53 454.63C1018.53 454.63 1018.53 454.784 1018.38 454.784L1007.77 461.395C1007.61 461.548 1007.61 461.702 1007.77 461.702L1019.45 466.161L1019.61 466.314L1022.53 478.46C1022.68 478.613 1022.99 478.613 1022.99 478.46Z" fill="white"/>
<path d="M1022.84 479.382C1023.14 479.382 1023.45 479.228 1023.6 479.075L1031.29 469.543L1043.44 470.465C1043.74 470.465 1044.21 470.311 1044.36 470.004C1044.51 469.696 1044.51 469.235 1044.36 468.928L1037.75 458.627L1042.36 447.404C1042.51 447.097 1042.51 446.636 1042.21 446.328C1041.9 446.021 1041.59 445.867 1041.28 446.021L1029.45 449.249L1020.22 441.255C1019.91 440.947 1019.61 440.947 1019.15 441.101C1018.84 441.255 1018.53 441.562 1018.53 441.87L1017.92 454.015L1007.46 460.472C1007.15 460.626 1007 461.087 1007 461.395C1007 461.702 1007.31 462.01 1007.62 462.163L1018.99 466.468L1021.91 478.306C1022.07 478.613 1022.22 478.921 1022.68 479.075C1022.84 479.382 1022.84 479.382 1022.84 479.382ZM1031.14 467.852C1030.83 467.852 1030.52 468.005 1030.37 468.159L1023.14 477.076L1020.53 466.007C1020.53 465.699 1020.22 465.392 1019.91 465.392L1009.31 461.395L1018.99 455.399C1019.3 455.245 1019.45 454.938 1019.45 454.63L1020.07 443.253L1028.68 450.633C1028.99 450.787 1029.29 450.94 1029.6 450.787L1040.52 447.865L1036.21 458.32C1036.06 458.627 1036.06 458.935 1036.36 459.242L1042.51 468.774L1031.14 467.852Z" fill="#2D0000"/>
<path d="M554.534 260.139L559.146 254.45C559.146 254.45 559.146 254.45 559.3 254.45L566.526 255.065C566.68 255.065 566.68 254.911 566.68 254.911L562.682 248.762C562.682 248.762 562.682 248.762 562.682 248.608L565.45 241.844C565.45 241.69 565.45 241.69 565.296 241.69L558.224 243.535H558.07L552.536 238.769C552.536 238.769 552.382 238.769 552.382 238.923L552.074 246.302C552.074 246.302 552.074 246.302 552.074 246.456L545.771 250.299C545.617 250.299 545.771 250.453 545.771 250.453L552.536 253.067C552.536 253.067 552.536 253.067 552.536 253.22L554.227 260.292C554.381 260.139 554.534 260.292 554.534 260.139Z" fill="#FF003C"/>
<path d="M554.533 260.907C554.84 260.907 554.994 260.753 555.148 260.6L559.606 255.219L566.985 255.834L567.293 255.373C567.447 255.065 567.447 254.758 567.293 254.45L563.449 248.608L566.37 241.69L566.063 241.229C565.909 240.921 565.448 240.921 565.141 240.921L558.376 242.766L552.688 238L552.073 238.154C551.765 238.307 551.612 238.615 551.612 238.922L551.304 245.841L545.001 249.684V250.299C545.001 250.607 545.308 250.914 545.616 251.068L552.073 253.528L553.764 260.753L554.379 260.907C554.379 260.907 554.379 260.907 554.533 260.907ZM558.837 253.681L558.53 253.989L554.84 258.601L553.303 252.451L552.841 252.144L547.153 249.992L552.688 246.609V246.148L552.995 240.152L557.915 244.303L558.376 244.15L564.218 242.612L561.758 248.454L561.912 248.915L565.141 253.989L558.837 253.681Z" fill="#2D0000"/>
<path d="M418.534 221.984L423.146 216.296C423.146 216.296 423.146 216.296 423.3 216.296L430.526 216.911C430.68 216.911 430.68 216.757 430.68 216.757L426.683 210.608C426.683 210.608 426.683 210.608 426.683 210.454L429.45 203.689C429.45 203.536 429.45 203.536 429.296 203.536L422.224 205.381H422.07L416.536 200.615C416.536 200.615 416.382 200.615 416.382 200.768L416.074 208.148C416.074 208.148 416.074 208.148 416.074 208.302L409.771 212.145C409.617 212.145 409.771 212.299 409.771 212.299L416.536 214.912C416.536 214.912 416.536 214.912 416.536 215.066L418.227 222.138C418.381 222.138 418.534 222.138 418.534 221.984Z" fill="#FFE600"/>
<path d="M418.533 222.907C418.84 222.907 418.994 222.753 419.147 222.6L423.606 217.219L430.985 217.834L431.293 217.373C431.447 217.065 431.447 216.758 431.293 216.45L427.449 210.608L430.37 203.69L430.063 203.229C429.909 202.921 429.448 202.921 429.141 202.921L422.376 204.766L416.688 200L416.073 200.154C415.765 200.307 415.612 200.615 415.612 200.922L415.304 207.841L409.001 211.684V212.299C409.001 212.607 409.308 212.914 409.616 213.068L416.073 215.528L417.764 222.753L418.379 222.907C418.379 222.753 418.379 222.907 418.533 222.907ZM422.991 215.528L422.684 215.835L418.84 220.447L417.303 214.298L416.841 213.99L411.153 211.838L416.688 208.456V207.994L416.995 201.999L421.915 206.15H422.376L428.218 204.612L425.758 210.608L425.912 211.069L429.141 216.143L422.991 215.528Z" fill="#2D0000"/>
<path d="M1015.99 367.233L1022.75 358.777H1022.91L1033.67 359.546C1033.82 359.546 1033.97 359.392 1033.82 359.238L1027.98 350.168V350.014L1032.13 340.021C1032.13 339.867 1032.13 339.713 1031.98 339.713L1021.52 342.481H1021.37L1013.22 335.409C1013.07 335.255 1012.91 335.409 1012.91 335.562L1012.3 346.324C1012.3 346.324 1012.3 346.478 1012.14 346.478L1002.92 352.166C1002.77 352.32 1002.77 352.474 1002.92 352.474L1013.07 356.317C1013.07 356.317 1013.22 356.317 1013.22 356.471L1015.68 366.925C1015.68 367.386 1015.83 367.386 1015.99 367.233Z" fill="#FFE600"/>
<path d="M1015.84 368.155C1016.14 368.155 1016.45 368.001 1016.6 367.847L1023.22 359.699L1033.67 360.468C1033.98 360.468 1034.44 360.314 1034.59 360.007C1034.75 359.699 1034.75 359.238 1034.59 358.931L1028.9 350.167L1032.9 340.482C1033.05 340.174 1032.9 339.713 1032.75 339.559C1032.44 339.252 1032.13 339.252 1031.82 339.252L1021.68 342.019L1013.68 335.255C1013.38 334.947 1013.07 334.947 1012.76 335.101C1012.45 335.255 1012.15 335.562 1012.15 335.87L1011.53 346.324L1002.46 351.705C1002.15 351.859 1002 352.166 1002 352.627C1002 352.935 1002.31 353.242 1002.61 353.396L1012.45 357.086L1014.91 367.232C1015.07 367.54 1015.22 367.847 1015.68 368.001C1015.68 368.155 1015.68 368.155 1015.84 368.155ZM1022.91 358.008C1022.6 358.008 1022.45 358.162 1022.14 358.316L1016.14 365.849L1013.84 356.471C1013.84 356.163 1013.53 355.856 1013.22 355.856L1004.31 352.473L1012.45 347.4C1012.76 347.246 1012.91 346.939 1012.91 346.631L1013.38 337.1L1020.76 343.249C1020.91 343.403 1021.37 343.557 1021.68 343.403L1030.9 340.943L1027.21 349.86C1027.06 350.167 1027.06 350.475 1027.37 350.782L1032.59 358.777L1022.91 358.008Z" fill="#2D0000"/>
<path d="M505.84 328.139L510.298 322.604C510.298 322.604 510.298 322.604 510.452 322.604L517.524 323.219C517.678 323.219 517.678 323.065 517.678 323.065L513.681 316.916C513.681 316.916 513.681 316.916 513.681 316.762L516.294 310.151C516.294 309.997 516.294 309.997 516.14 309.997L509.222 311.842H509.068L503.534 307.076C503.534 307.076 503.38 307.076 503.38 307.23L503.073 314.456C503.073 314.456 503.073 314.456 503.073 314.61L497.077 318.299C496.923 318.299 497.077 318.453 497.077 318.453L503.687 321.067C503.687 321.067 503.687 321.067 503.687 321.22L505.379 328.292C505.532 328.292 505.686 328.292 505.84 328.139Z" fill="#FFE600"/>
<path d="M505.685 329.061C505.993 329.061 506.146 328.907 506.3 328.753L510.451 323.373L517.677 323.987L517.984 323.526C518.138 323.219 518.138 322.911 517.984 322.604L514.141 316.762L516.754 309.997L516.447 309.536C516.293 309.229 515.832 309.229 515.524 309.229L509.067 310.92L503.533 306L502.918 306.154C502.61 306.307 502.457 306.615 502.457 306.922L502.149 313.841L496 317.684V318.299C496 318.607 496.307 318.914 496.615 319.068L502.918 321.681L504.763 328.907L505.378 329.061C505.531 329.061 505.685 329.061 505.685 329.061ZM509.99 321.835L509.682 322.143L506.146 326.755L504.609 320.605L504.148 320.298L498.613 318.145L503.84 314.917V314.456L503.994 308.614L508.76 312.765L509.221 312.611L514.756 311.073L512.45 316.915L512.603 317.377L515.832 322.45L509.99 321.835Z" fill="#2D0000"/>
<path d="M965.301 416.913L968.222 413.223L972.834 413.684C972.834 413.684 972.988 413.684 972.834 413.53L970.22 409.533L971.912 405.228C971.912 405.228 971.912 405.075 971.758 405.075L967.299 406.305L963.763 403.23H963.61L963.456 407.996L959.459 410.456V410.609L963.763 412.3L965.301 416.913Z" fill="#FF006D"/>
<path d="M965.61 417.681L965.918 417.22L968.531 413.838L973.297 414.299L973.912 413.377L973.605 412.915L971.145 409.226L972.836 404.767L972.221 403.999L971.76 404.152L967.609 405.229L963.919 402L963.15 402.307V402.922L962.997 407.381L958.999 409.841V410.917L959.461 411.224L963.458 412.915L964.688 417.681H965.61ZM967.916 412.301L967.609 412.608L965.61 415.222L964.688 411.532L964.227 411.378L961.152 410.148L964.227 408.15V407.688L964.38 404.46L967.148 406.92H967.609L970.837 406.151L969.454 409.687L969.607 410.148L971.452 412.915L967.916 412.301Z" fill="#2D0000"/>
<defs>
<linearGradient id="paint0_linear" x1="868" y1="80.8718" x2="-139.197" y2="916.506" gradientUnits="userSpaceOnUse">
<stop stop-color="#EB8E78"/>
<stop offset="0.296875" stop-color="#F1A959"/>
<stop offset="0.567708" stop-color="#F3B54C"/>
<stop offset="0.786316" stop-color="#ED856C"/>
</linearGradient>
<radialGradient id="paint1_radial" cx="0" cy="0" r="1" gradientUnits="userSpaceOnUse" gradientTransform="translate(-22.3864 -166.608) rotate(90) scale(837.151 503.238)">
<stop stop-color="#F7E21F"/>
<stop offset="0.401042" stop-color="#F7E120" stop-opacity="0.85"/>
<stop offset="0.697917" stop-color="#F7DF21" stop-opacity="0.547445"/>
<stop offset="1" stop-color="#F6DC23" stop-opacity="0"/>
</radialGradient>
</defs>
</svg>
