<svg width="28" height="20" viewBox="0 0 28 20" fill="none" xmlns="http://www.w3.org/2000/svg">
<path fill-rule="evenodd" clip-rule="evenodd" d="M0 3C0 1.35547 1.35547 0 3 0H25C26.6445 0 28 1.35547 28 3V17C28 18.6445 26.6445 20 25 20H3C1.35547 20 0 18.6445 0 17V3ZM25 2H3C2.43359 2 2 2.43359 2 3V17C2 17.5664 2.43359 18 3 18H25C25.5664 18 26 17.5664 26 17V3C26 2.43359 25.5664 2 25 2Z" fill="white"/>
<path d="M3 2H25C25.566 2 26 2.434 26 3V17C26 17.566 25.566 18 25 18H3C2.434 18 2 17.566 2 17V3C2 2.434 2.434 2 3 2Z" fill="white"/>
<path d="M17.4062 6.375C15.4805 6.375 14.4688 7.32422 14.4688 8.53125C14.4688 10.7109 17.0312 10.4102 17.0312 11.5312C17.0312 11.7227 16.8711 12.1562 15.8125 12.1562C14.7539 12.1562 14.0625 11.7812 14.0625 11.7812L13.75 13.2188C13.75 13.2188 14.4062 13.625 15.7188 13.625C17.0312 13.625 18.875 12.6172 18.875 11.1562C18.875 9.39844 16.3125 9.28125 16.3125 8.5C16.3125 8.10156 16.6523 7.78125 17.5625 7.78125C18.1562 7.78125 18.8125 8.25 18.8125 8.25L19.125 6.71875C19.125 6.71875 18.2539 6.375 17.4062 6.375Z" fill="#00316A"/>
<path d="M9.1875 6.5L7.5 11.4375C7.5 11.4375 7.41406 11.0117 7.375 10.75C6.42188 8.60938 4.875 7.8125 4.875 7.8125L6.34375 13.4062H8.34375L11.1562 6.5H9.1875Z" fill="#00316A"/>
<path d="M11.875 6.5L10.7812 13.4062H12.625L13.7188 6.5H11.875Z" fill="#00316A"/>
<path d="M21.8125 6.5L18.8125 13.4062H20.625L21 12.4375H23.3125L23.5 13.4062H25.1562L23.75 6.5H21.8125Z" fill="#00316A"/>
<path d="M2.84375 6.53125C2.84375 6.53125 6.44141 7.63281 7.28125 10.3438L6.65625 7.21875C6.65625 7.21875 6.38281 6.53125 5.65625 6.53125H2.84375Z" fill="#FFB600"/>
<path d="M22.5 8.5L23.0312 11.0938H21.5312L22.5 8.5Z" fill="white"/>
</svg>
